<svg xmlns="http://www.w3.org/2000/svg" width="35" height="35" viewBox="0 0 35 35" fill="none">
    <path d="M16.0404 11.6666C16.0404 10.8612 16.6933 10.2083 17.4987 10.2083C18.3041 10.2083 18.957 10.8612 18.957 11.6666V16.0416H23.332C24.1375 16.0416 24.7904 16.6945 24.7904 17.4999C24.7904 18.3054 24.1375 18.9583 23.332 18.9583H18.957V23.3333C18.957 24.1387 18.3041 24.7916 17.4987 24.7916C16.6933 24.7916 16.0404 24.1387 16.0404 23.3333V18.9583H11.6654C10.8599 18.9583 10.207 18.3054 10.207 17.4999C10.207 16.6945 10.86 16.0416 11.6654 16.0416H16.0404V11.6666Z" fill="#6931AA"/>
    <path fill-rule="evenodd" clip-rule="evenodd" d="M33.5403 17.4999C33.5403 26.3594 26.3582 33.5416 17.4987 33.5416C8.63913 33.5416 1.45703 26.3594 1.45703 17.4999C1.45703 8.64035 8.63913 1.45825 17.4987 1.45825C26.3582 1.45825 33.5403 8.64035 33.5403 17.4999ZM4.38366 17.4999C4.38366 24.7432 10.2555 30.615 17.4987 30.615C24.7419 30.615 30.6138 24.7432 30.6138 17.4999C30.6138 10.2567 24.7419 4.38488 17.4987 4.38488C10.2555 4.38488 4.38366 10.2567 4.38366 17.4999Z" fill="#6931AA"/>
  </svg>