<svg xmlns="http://www.w3.org/2000/svg" width="19" height="19" viewBox="0 0 19 19" fill="none">
    <path d="M8.33334 5.83333C8.33334 5.3731 8.70642 5 9.16667 5C9.62692 5 10 5.3731 10 5.83333V8.33334H12.5C12.9603 8.33334 13.3333 8.70642 13.3333 9.16667C13.3333 9.62692 12.9603 10 12.5 10H10V12.5C10 12.9603 9.62692 13.3333 9.16667 13.3333C8.70642 13.3333 8.33334 12.9603 8.33334 12.5V10H5.83333C5.37309 10 5 9.62692 5 9.16667C5 8.70642 5.3731 8.33334 5.83333 8.33334H8.33334V5.83333Z" fill="white"/>
    <path fill-rule="evenodd" clip-rule="evenodd" d="M18.3333 9.16666C18.3333 14.2292 14.2292 18.3333 9.16666 18.3333C4.10406 18.3333 0 14.2292 0 9.16666C0 4.10406 4.10406 0 9.16666 0C14.2292 0 18.3333 4.10406 18.3333 9.16666ZM1.67236 9.16666C1.67236 13.3057 5.02767 16.661 9.16666 16.661C13.3057 16.661 16.661 13.3057 16.661 9.16666C16.661 5.02767 13.3057 1.67236 9.16666 1.67236C5.02767 1.67236 1.67236 5.02767 1.67236 9.16666Z" fill="white"/>
  </svg>