<svg xmlns="http://www.w3.org/2000/svg" width="20" height="20" viewBox="0 0 20 20" fill="none">
    <g clip-path="url(#clip0_1291_12041)">
      <path d="M9.16537 6.66659C9.16537 6.20635 9.53845 5.83325 9.9987 5.83325C10.459 5.83325 10.832 6.20635 10.832 6.66659V9.16659H13.332C13.7923 9.16659 14.1654 9.53967 14.1654 9.99992C14.1654 10.4602 13.7923 10.8333 13.332 10.8333H10.832V13.3333C10.832 13.7935 10.459 14.1666 9.9987 14.1666C9.53845 14.1666 9.16537 13.7935 9.16537 13.3333V10.8333H6.66537C6.20512 10.8333 5.83203 10.4602 5.83203 9.99992C5.83203 9.53967 6.20513 9.16659 6.66537 9.16659H9.16537V6.66659Z" fill="#6931AA"/>
      <path fill-rule="evenodd" clip-rule="evenodd" d="M19.1654 9.99991C19.1654 15.0625 15.0613 19.1666 9.99869 19.1666C4.93609 19.1666 0.832031 15.0625 0.832031 9.99991C0.832031 4.93731 4.93609 0.833252 9.99869 0.833252C15.0613 0.833252 19.1654 4.93731 19.1654 9.99991ZM2.50439 9.99991C2.50439 14.1389 5.8597 17.4942 9.99869 17.4942C14.1377 17.4942 17.493 14.1389 17.493 9.99991C17.493 5.86092 14.1377 2.50561 9.99869 2.50561C5.8597 2.50561 2.50439 5.86092 2.50439 9.99991Z" fill="#6931AA"/>
    </g>
    <defs>
      <clipPath id="clip0_1291_12041">
        <rect width="20" height="20" fill="white"/>
      </clipPath>
    </defs>
  </svg>