<svg xmlns="http://www.w3.org/2000/svg" width="80" height="61" viewBox="0 0 80 61" fill="none">
    <path d="M0.167969 57.4808C0.167969 59.421 1.94859 61 4.13663 61H75.5725C77.7605 61 79.5412 59.421 79.5412 57.4808V14.0769H0.167969V57.4808ZM58.375 19.9423C58.375 19.2936 58.9677 18.7693 59.6979 18.7693H67.6352C68.3653 18.7693 68.958 19.2936 68.958 19.9423V26.9808C68.958 27.6295 68.3653 28.1538 67.6352 28.1538H59.6979C58.9677 28.1538 58.375 27.6295 58.375 26.9808V19.9423ZM42.5004 19.9423C42.5004 19.2936 43.093 18.7693 43.8232 18.7693H51.7605C52.4907 18.7693 53.0834 19.2936 53.0834 19.9423V26.9808C53.0834 27.6295 52.4907 28.1538 51.7605 28.1538H43.8232C43.093 28.1538 42.5004 27.6295 42.5004 26.9808V19.9423ZM55.7292 30.5C63.7526 30.5 70.281 36.2891 70.281 43.4039C70.281 50.5186 63.7526 56.3077 55.7292 56.3077C47.7058 56.3077 41.1774 50.5186 41.1774 43.4039C41.1774 36.2891 47.7058 30.5 55.7292 30.5ZM26.6257 19.9423C26.6257 19.2936 27.2184 18.7693 27.9486 18.7693H35.8859C36.6161 18.7693 37.2087 19.2936 37.2087 19.9423V26.9808C37.2087 27.6295 36.6161 28.1538 35.8859 28.1538H27.9486C27.2184 28.1538 26.6257 27.6295 26.6257 26.9808V19.9423ZM26.6257 32.8462C26.6257 32.1975 27.2184 31.6732 27.9486 31.6732H35.8859C36.6161 31.6732 37.2087 32.1975 37.2087 32.8462V39.8846C37.2087 40.5334 36.6161 41.0577 35.8859 41.0577H27.9486C27.2184 41.0577 26.6257 40.5334 26.6257 39.8846V32.8462ZM26.6257 45.7499C26.6257 45.1012 27.2184 44.5769 27.9486 44.5769H35.8859C36.6161 44.5769 37.2087 45.1012 37.2087 45.7499V52.7884C37.2087 53.4371 36.6161 53.9614 35.8859 53.9614H27.9486C27.2184 53.9614 26.6257 53.4371 26.6257 52.7884V45.7499ZM10.7511 19.9423C10.7511 19.2936 11.3438 18.7693 12.0739 18.7693H20.0113C20.7414 18.7693 21.3341 19.2936 21.3341 19.9423V26.9808C21.3341 27.6295 20.7414 28.1538 20.0113 28.1538H12.0739C11.3438 28.1538 10.7511 27.6295 10.7511 26.9808V19.9423ZM10.7511 32.8462C10.7511 32.1975 11.3438 31.6732 12.0739 31.6732H20.0113C20.7414 31.6732 21.3341 32.1975 21.3341 32.8462V39.8846C21.3341 40.5334 20.7414 41.0577 20.0113 41.0577H12.0739C11.3438 41.0577 10.7511 40.5334 10.7511 39.8846V32.8462ZM10.7511 45.7499C10.7511 45.1012 11.3438 44.5769 12.0739 44.5769H20.0113C20.7414 44.5769 21.3341 45.1012 21.3341 45.7499V52.7884C21.3341 53.4371 20.7414 53.9614 20.0113 53.9614H12.0739C11.3438 53.9614 10.7511 53.4371 10.7511 52.7884V45.7499Z" fill="#EF3360"/>
    <path d="M18.689 34.0193H13.3975V38.7115H18.689V34.0193Z" fill="#EF3360"/>
    <path d="M18.689 21.1152H13.3975V25.8075H18.689V21.1152Z" fill="#EF3360"/>
    <path d="M34.563 46.9231H29.2715V51.6153H34.563V46.9231Z" fill="#EF3360"/>
    <path d="M75.5725 0H4.13663C1.94859 0 0.167969 1.57898 0.167969 3.51923V11.7307H79.5412V3.51923C79.5412 1.57898 77.7605 0 75.5725 0Z" fill="#EF3360"/>
    <path d="M50.439 21.1152H45.1475V25.8075H50.439V21.1152Z" fill="#EF3360"/>
    <path d="M66.314 21.1152H61.0225V25.8075H66.314V21.1152Z" fill="#EF3360"/>
    <path d="M18.689 46.9231H13.3975V51.6153H18.689V46.9231Z" fill="#EF3360"/>
    <path d="M55.7292 53.9611C62.2933 53.9611 67.6352 49.2254 67.6352 43.4034C67.6352 37.5814 62.2933 32.8457 55.7292 32.8457C49.1651 32.8457 43.8232 37.5814 43.8232 43.4034C43.8232 49.2254 49.1651 53.9611 55.7292 53.9611ZM48.1795 43.7471C48.6968 43.2896 49.5328 43.2896 50.05 43.7471L54.2013 47.4282L61.243 38.0612C61.6478 37.5216 62.4693 37.3773 63.0779 37.7351C63.6851 38.0953 63.8492 38.8225 63.4444 39.3622L55.5071 49.9199C55.2874 50.212 54.9302 50.402 54.5374 50.4361C54.4924 50.4396 54.4501 50.442 54.4064 50.442C54.0571 50.442 53.7198 50.32 53.4711 50.0983L48.1795 45.4059C47.6623 44.9484 47.6623 44.2058 48.1795 43.7471Z" fill="#EF3360"/>
    <path d="M34.563 34.0193H29.2715V38.7115H34.563V34.0193Z" fill="#EF3360"/>
    <path d="M34.563 21.1152H29.2715V25.8075H34.563V21.1152Z" fill="#EF3360"/>
  </svg>