<svg xmlns="http://www.w3.org/2000/svg" width="39" height="35" viewBox="0 0 39 35" fill="none">
    <path d="M0 32.981C0 34.0943 0.870316 35.0002 1.93976 35.0002H36.8554C37.9249 35.0002 38.7952 34.0943 38.7952 32.981V8.07715H0V32.981ZM28.4498 11.4426C28.4498 11.0703 28.7395 10.7695 29.0964 10.7695H32.9759C33.3328 10.7695 33.6225 11.0703 33.6225 11.4426V15.481C33.6225 15.8532 33.3328 16.1541 32.9759 16.1541H29.0964C28.7395 16.1541 28.4498 15.8532 28.4498 15.481V11.4426ZM20.6908 11.4426C20.6908 11.0703 20.9805 10.7695 21.3374 10.7695H25.2169C25.5738 10.7695 25.8634 11.0703 25.8634 11.4426V15.481C25.8634 15.8532 25.5738 16.1541 25.2169 16.1541H21.3374C20.9805 16.1541 20.6908 15.8532 20.6908 15.481V11.4426ZM27.1566 17.5002C31.0782 17.5002 34.2691 20.8219 34.2691 24.9041C34.2691 28.9863 31.0782 32.308 27.1566 32.308C23.2351 32.308 20.0442 28.9863 20.0442 24.9041C20.0442 20.8219 23.2351 17.5002 27.1566 17.5002ZM12.9318 11.4426C12.9318 11.0703 13.2214 10.7695 13.5783 10.7695H17.4578C17.8147 10.7695 18.1044 11.0703 18.1044 11.4426V15.481C18.1044 15.8532 17.8147 16.1541 17.4578 16.1541H13.5783C13.2214 16.1541 12.9318 15.8532 12.9318 15.481V11.4426ZM12.9318 18.8464C12.9318 18.4742 13.2214 18.1734 13.5783 18.1734H17.4578C17.8147 18.1734 18.1044 18.4742 18.1044 18.8464V22.8849C18.1044 23.2571 17.8147 23.5579 17.4578 23.5579H13.5783C13.2214 23.5579 12.9318 23.2571 12.9318 22.8849V18.8464ZM12.9318 26.2502C12.9318 25.878 13.2214 25.5771 13.5783 25.5771H17.4578C17.8147 25.5771 18.1044 25.878 18.1044 26.2502V30.2887C18.1044 30.6609 17.8147 30.9617 17.4578 30.9617H13.5783C13.2214 30.9617 12.9318 30.6609 12.9318 30.2887V26.2502ZM5.17272 11.4426C5.17272 11.0703 5.4624 10.7695 5.81928 10.7695H9.6988C10.0557 10.7695 10.3454 11.0703 10.3454 11.4426V15.481C10.3454 15.8532 10.0557 16.1541 9.6988 16.1541H5.81928C5.4624 16.1541 5.17272 15.8532 5.17272 15.481V11.4426ZM5.17272 18.8464C5.17272 18.4742 5.4624 18.1734 5.81928 18.1734H9.6988C10.0557 18.1734 10.3454 18.4742 10.3454 18.8464V22.8849C10.3454 23.2571 10.0557 23.5579 9.6988 23.5579H5.81928C5.4624 23.5579 5.17272 23.2571 5.17272 22.8849V18.8464ZM5.17272 26.2502C5.17272 25.878 5.4624 25.5771 5.81928 25.5771H9.6988C10.0557 25.5771 10.3454 25.878 10.3454 26.2502V30.2887C10.3454 30.6609 10.0557 30.9617 9.6988 30.9617H5.81928C5.4624 30.9617 5.17272 30.6609 5.17272 30.2887V26.2502Z" fill="#EF3360"/>
    <path d="M9.05312 19.519H6.4668V22.2113H9.05312V19.519Z" fill="#EF3360"/>
    <path d="M9.05312 12.115H6.4668V14.8073H9.05312V12.115Z" fill="#EF3360"/>
    <path d="M16.8109 26.9229H14.2246V29.6151H16.8109V26.9229Z" fill="#EF3360"/>
    <path d="M36.8554 0H1.93976C0.870316 0 0 0.905971 0 2.01923V6.73073H38.7952V2.01923C38.7952 0.905971 37.9249 0 36.8554 0Z" fill="#EF3360"/>
    <path d="M24.5707 12.115H21.9844V14.8073H24.5707V12.115Z" fill="#EF3360"/>
    <path d="M32.3305 12.115H29.7441V14.8073H32.3305V12.115Z" fill="#EF3360"/>
    <path d="M9.05312 26.9229H6.4668V29.6151H9.05312V26.9229Z" fill="#EF3360"/>
    <path d="M27.1572 30.9611C30.3655 30.9611 32.9765 28.2439 32.9765 24.9034C32.9765 21.5629 30.3655 18.8457 27.1572 18.8457C23.9488 18.8457 21.3379 21.5629 21.3379 24.9034C21.3379 28.2439 23.9488 30.9611 27.1572 30.9611ZM23.4671 25.1006C23.7199 24.8381 24.1286 24.8381 24.3813 25.1006L26.4104 27.2127L29.8521 21.8382C30.05 21.5286 30.4515 21.4458 30.749 21.6511C31.0458 21.8577 31.1259 22.275 30.9281 22.5847L27.0486 28.6424C26.9412 28.81 26.7666 28.919 26.5746 28.9385C26.5527 28.9406 26.532 28.9419 26.5106 28.9419C26.3399 28.9419 26.175 28.872 26.0535 28.7447L23.4671 26.0524C23.2143 25.7899 23.2143 25.3638 23.4671 25.1006Z" fill="#EF3360"/>
    <path d="M16.8109 19.519H14.2246V22.2113H16.8109V19.519Z" fill="#EF3360"/>
    <path d="M16.8109 12.115H14.2246V14.8073H16.8109V12.115Z" fill="#EF3360"/>
  </svg>