<svg xmlns="http://www.w3.org/2000/svg" width="30" height="30" viewBox="0 0 30 30" fill="none">
  <g clip-path="url(#clip0_1_3564)">
    <path d="M25.4609 13.7281C25.798 14.0656 25.9873 14.5231 25.9873 15.0001C25.9873 15.4771 25.798 15.9346 25.4609 16.2721L18.6737 23.0617C18.5065 23.2289 18.308 23.3615 18.0895 23.452C17.8711 23.5425 17.6369 23.589 17.4005 23.589C17.164 23.589 16.9299 23.5425 16.7114 23.452C16.493 23.3615 16.2945 23.2289 16.1273 23.0617C15.9601 22.8945 15.8275 22.696 15.737 22.4775C15.6465 22.2591 15.5999 22.0249 15.5999 21.7885C15.5999 21.552 15.6465 21.3179 15.737 21.0994C15.8275 20.881 15.9601 20.6825 16.1273 20.5153L19.8425 16.8001H6.00049C5.5231 16.8001 5.06526 16.6104 4.7277 16.2729C4.39013 15.9353 4.20049 15.4775 4.20049 15.0001C4.20049 14.5227 4.39013 14.0648 4.7277 13.7273C5.06526 13.3897 5.5231 13.2001 6.00049 13.2001H19.8425L16.1273 9.48486C15.7898 9.14719 15.6002 8.68927 15.6003 8.21184C15.6004 7.73441 15.7902 7.27658 16.1279 6.93906C16.4656 6.60155 16.9235 6.412 17.4009 6.41211C17.8783 6.41222 18.3362 6.60199 18.6737 6.93966L25.4609 13.7281Z" fill="white"/>
  </g>
  <defs>
    <clipPath id="clip0_1_3564">
      <rect width="28.8" height="28.8" fill="white" transform="matrix(-1 0 0 1 29.4004 0.600098)"/>
    </clipPath>
  </defs>
</svg>