<svg xmlns="http://www.w3.org/2000/svg" width="30" height="30" viewBox="0 0 30 30" fill="none">
    <path d="M19.1667 14.5833C19.75 14.5833 20.2433 14.3817 20.6467 13.9783C21.05 13.575 21.2511 13.0822 21.25 12.5C21.25 11.9167 21.0483 11.4233 20.645 11.02C20.2417 10.6167 19.7489 10.4156 19.1667 10.4167C18.5833 10.4167 18.09 10.6183 17.6867 11.0217C17.2833 11.425 17.0822 11.9178 17.0833 12.5C17.0833 13.0833 17.285 13.5767 17.6883 13.98C18.0917 14.3833 18.5844 14.5844 19.1667 14.5833ZM10.8333 14.5833C11.4167 14.5833 11.91 14.3817 12.3133 13.9783C12.7167 13.575 12.9178 13.0822 12.9167 12.5C12.9167 11.9167 12.715 11.4233 12.3117 11.02C11.9083 10.6167 11.4156 10.4156 10.8333 10.4167C10.25 10.4167 9.75667 10.6183 9.35333 11.0217C8.95 11.425 8.74889 11.9178 8.75 12.5C8.75 13.0833 8.95167 13.5767 9.355 13.98C9.75833 14.3833 10.2511 14.5844 10.8333 14.5833ZM15 23.3333C16.6667 23.3333 18.1739 22.875 19.5217 21.9583C20.8694 21.0417 21.8622 19.8333 22.5 18.3333H7.5C8.13889 19.8333 9.13222 21.0417 10.48 21.9583C11.8278 22.875 13.3344 23.3333 15 23.3333ZM15 30C12.9167 30 10.965 29.6039 9.145 28.8117C7.325 28.0194 5.74167 26.9506 4.395 25.605C3.04833 24.2572 1.97944 22.6739 1.18833 20.855C0.397222 19.0361 0.00111111 17.0844 0 15C0 12.9167 0.396111 10.965 1.18833 9.145C1.98056 7.325 3.04944 5.74167 4.395 4.395C5.74278 3.04833 7.32611 1.97944 9.145 1.18833C10.9639 0.397222 12.9156 0.00111111 15 0C17.0833 0 19.035 0.396111 20.855 1.18833C22.675 1.98056 24.2583 3.04944 25.605 4.395C26.9517 5.74278 28.0211 7.32611 28.8133 9.145C29.6056 10.9639 30.0011 12.9156 30 15C30 17.0833 29.6039 19.035 28.8117 20.855C28.0194 22.675 26.9506 24.2583 25.605 25.605C24.2572 26.9517 22.6739 28.0211 20.855 28.8133C19.0361 29.6056 17.0844 30.0011 15 30ZM15.6667 9.16667C16.1389 9.16667 16.6739 9.07611 17.2717 8.895C17.8694 8.71389 18.1678 8.30444 18.1667 7.66667C18.1667 7.33333 18.0556 7.04167 17.8333 6.79167C17.6111 6.54167 17.3333 6.41667 17 6.41667C16.7778 6.41667 16.5628 6.45833 16.355 6.54167C16.1472 6.625 15.9178 6.66667 15.6667 6.66667C15.0833 6.66667 14.5906 6.46556 14.1883 6.06333C13.7861 5.66111 13.5844 5.16778 13.5833 4.58333C13.5833 4.27778 13.6322 4.02056 13.73 3.81167C13.8278 3.60278 13.9733 3.45722 14.1667 3.375C13.6389 3.43056 13.125 3.5 12.625 3.58333C12.125 3.66667 11.6389 3.80556 11.1667 4C11.1389 4.08333 11.1178 4.18055 11.1033 4.29167C11.0889 4.40278 11.0822 4.5 11.0833 4.58333C11.0833 5.83333 11.535 6.91 12.4383 7.81333C13.3417 8.71667 14.4178 9.16778 15.6667 9.16667Z" fill="white"/>
  </svg>