<svg xmlns="http://www.w3.org/2000/svg" width="25" height="27" viewBox="0 0 25 27" fill="none">
  <path d="M16.6667 5.4H9.72222C8.98551 5.4 8.27897 5.68446 7.75804 6.19081C7.2371 6.69716 6.94444 7.38392 6.94444 8.1V20.25H2.77778C2.04107 20.25 1.33453 19.9655 0.813592 19.4592C0.292658 18.9528 0 18.2661 0 17.55V2.7C0 1.98392 0.292658 1.29716 0.813592 0.790812C1.33453 0.284464 2.04107 0 2.77778 0L13.8889 0C14.6256 0 15.3321 0.284464 15.8531 0.790812C16.374 1.29716 16.6667 1.98392 16.6667 2.7V5.4ZM11.1111 6.75H20.8333L25 10.8V24.3C25 25.0161 24.7073 25.7028 24.1864 26.2092C23.6655 26.7155 22.9589 27 22.2222 27H11.1111C10.3744 27 9.66786 26.7155 9.14692 26.2092C8.62599 25.7028 8.33333 25.0161 8.33333 24.3V9.45C8.33333 8.73392 8.62599 8.04716 9.14692 7.54081C9.66786 7.03446 10.3744 6.75 11.1111 6.75Z" fill="white"/>
</svg>