<svg xmlns="http://www.w3.org/2000/svg" width="37" height="37" viewBox="0 0 37 37" fill="none">
    <path fill-rule="evenodd" clip-rule="evenodd" d="M37 18.5C37 28.7172 28.7172 37 18.5 37C8.28273 37 0 28.7172 0 18.5C0 8.28273 8.28273 0 18.5 0C28.7172 0 37 8.28273 37 18.5ZM12.8938 12.8939C13.4357 12.352 14.3142 12.352 14.8561 12.8939L18.5 16.5377L22.1438 12.8939C22.6856 12.352 23.5642 12.352 24.1061 12.8939C24.6479 13.4357 24.6479 14.3143 24.1061 14.8561L20.4621 18.5L24.1061 22.1438C24.6479 22.6856 24.6479 23.5642 24.1061 24.1061C23.5642 24.6479 22.6856 24.6479 22.1438 24.1061L18.5 20.4623L14.8561 24.1061C14.3142 24.6479 13.4357 24.6479 12.8939 24.1061C12.352 23.5642 12.352 22.6856 12.8939 22.1439L16.5377 18.5L12.8938 14.8561C12.352 14.3142 12.352 13.4357 12.8938 12.8939Z" fill="white"/>
  </svg>