<svg width="227" height="825" viewBox="0 0 227 825" fill="none" xmlns="http://www.w3.org/2000/svg">
<g clip-path="url(#clip0_3241_814)">
<rect width="227" height="825" rx="34" fill="url(#paint0_linear_3241_814)"/>
<path d="M100.34 755.67C71.8894 734.23 21.5922 739.357 0 744.601V825H226.083C234.212 785.383 186.286 774.313 161.307 773.731C127.775 773.265 106.691 761.496 100.34 755.67Z" fill="url(#paint1_linear_3241_814)"/>
<path d="M-51.0181 732.819C-121.675 698.925 -187.78 712.466 -212 723.474V835H239V635C238.499 717.741 178.289 714.853 146.921 686.09C92.8008 644.221 56.9089 679.24 44.1931 707.274C26.5301 746.215 -25.3361 742.58 -51.0181 732.819Z" fill="url(#paint2_linear_3241_814)"/>
</g>
<defs>
<linearGradient id="paint0_linear_3241_814" x1="113.013" y1="56.9227" x2="113.405" y2="825" gradientUnits="userSpaceOnUse">
<stop stop-color="#FFD7AA"/>
<stop offset="1" stop-color="#9B6AD1"/>
</linearGradient>
<linearGradient id="paint1_linear_3241_814" x1="68.7503" y1="825" x2="109.216" y2="738.007" gradientUnits="userSpaceOnUse">
<stop stop-color="#FFA2B8"/>
<stop offset="1" stop-color="white" stop-opacity="0.1"/>
</linearGradient>
<linearGradient id="paint2_linear_3241_814" x1="-36" y1="502.021" x2="55.4351" y2="916.799" gradientUnits="userSpaceOnUse">
<stop stop-color="white" stop-opacity="0"/>
<stop offset="1" stop-color="#FFD4DE" stop-opacity="0.86"/>
</linearGradient>
<clipPath id="clip0_3241_814">
<rect width="227" height="825" rx="34" fill="white"/>
</clipPath>
</defs>
</svg>
