<svg xmlns="http://www.w3.org/2000/svg" width="29" height="29" viewBox="0 0 29 29" fill="none">
  <path d="M10.8804 3.75617C11.8719 3.61465 12.6875 4.44197 12.6875 5.44346V16.3292H23.5625C24.563 16.3292 25.3895 17.1456 25.2481 18.1381C24.7837 21.3107 23.1379 24.1902 20.6408 26.1988C18.1438 28.2074 14.9803 29.1965 11.7851 28.9676C8.58986 28.7387 5.59932 27.3087 3.4135 24.9646C1.22769 22.6205 0.0082957 19.5357 0 16.3292C0.000160481 13.2741 1.1002 10.3214 3.09853 8.01223C5.09685 5.70304 7.85959 4.19205 10.8804 3.75617ZM27.2999 14.5149C28.2025 14.5149 28.9801 13.8509 28.9982 12.9474L29 12.7006C29.0001 11.012 28.6637 9.34035 28.0107 7.78341C27.3576 6.22648 26.4009 4.81554 25.1965 3.63314C23.9922 2.45075 22.5644 1.52063 20.9966 0.897213C19.4288 0.273794 17.7526 -0.0304099 16.066 0.00239733C15.1634 0.0205403 14.5 0.800686 14.5 1.70239V12.7006C14.5 13.1818 14.691 13.6433 15.0309 13.9835C15.3708 14.3238 15.8318 14.5149 16.3125 14.5149H27.2999Z" fill="white"/>
</svg>