<svg xmlns="http://www.w3.org/2000/svg" width="62" height="62" viewBox="0 0 62 62" fill="none">
    <g clip-path="url(#clip0_1047_2638)">
      <path d="M57.781 2.16012C57.781 1.42477 57.4889 0.719535 56.969 0.199564C56.449 -0.320406 55.7438 -0.612523 55.0084 -0.612523C54.867 -0.612523 54.7313 -0.591443 54.5949 -0.570983V-0.629883H6.97576V-0.612523C6.24042 -0.612523 5.53518 -0.320406 5.01521 0.199564C4.49524 0.719535 4.20313 1.42477 4.20312 2.16012V42.1501H4.23413C4.39037 43.5333 5.55038 44.6128 6.97514 44.6128V44.6301H54.5942V44.5712C54.73 44.5917 54.8658 44.6128 55.0078 44.6128C56.4332 44.6128 57.5932 43.534 57.7494 42.1501H57.7978V2.16012H57.781ZM51.6251 38.4568H44.8912C44.8686 38.3615 44.834 38.2694 44.7883 38.1827L44.7995 38.1765L30.7137 13.7795L30.7081 13.7826C30.5528 13.4599 30.3096 13.1875 30.0065 12.9967C29.7034 12.8059 29.3526 12.7044 28.9944 12.7038C28.6264 12.7043 28.2664 12.8111 27.9576 13.0114C27.6488 13.2117 27.4045 13.497 27.2541 13.8329L17.8803 30.0682L15.5851 26.0934L15.582 26.0952C15.5001 25.925 15.372 25.7813 15.2122 25.6807C15.0524 25.58 14.8675 25.5264 14.6786 25.5261C14.2701 25.5261 13.9198 25.771 13.7617 26.12L10.3765 31.9834V5.56082H51.6251V38.4568Z" fill="black"/>
      <path d="M42.2386 30.1842C45.697 30.1842 48.5006 27.3806 48.5006 23.9222C48.5006 20.4637 45.697 17.6602 42.2386 17.6602C38.7802 17.6602 35.9766 20.4637 35.9766 23.9222C35.9766 27.3806 38.7802 30.1842 42.2386 30.1842Z" fill="black"/>
    </g>
    <defs>
      <clipPath id="clip0_1047_2638">
        <rect width="62" height="62" fill="white"/>
      </clipPath>
    </defs>
  </svg>