<svg width="338" height="154" viewBox="0 0 328 154" fill="none" xmlns="http://www.w3.org/2000/svg">
    <g clip-path="url(#clip0_1105_2370)">
      <path fill-rule="evenodd" clip-rule="evenodd" d="M235.155 53.3062C263.768 75.6478 282.06 110.401 282.06 149.467H229.015C229.015 125.035 216.211 103.477 197.135 91.1955L235.155 53.3062Z" fill="url(#paint0_linear_1105_2370)" />
      <path fill-rule="evenodd" clip-rule="evenodd" d="M38 149.467C38 110.401 56.422 75.6478 84.9044 53.3062L122.924 91.3261C103.718 103.607 91.045 125.035 91.045 149.597H38V149.467Z" fill="url(#paint1_linear_1105_2370)" />
      <path fill-rule="evenodd" clip-rule="evenodd" d="M89.0854 50.1706C109.206 35.7988 133.638 27.437 160.03 27.437C186.552 27.437 210.984 35.7988 230.974 50.1706L192.562 88.7132C182.894 83.4871 171.789 80.6127 160.03 80.6127C148.271 80.6127 137.296 83.4871 127.628 88.7132L89.0854 50.1706Z" fill="url(#paint2_linear_1105_2370)" />
    </g>
    <path d="M8.50049 116.725V118.07H1.229V106.092H2.72314V116.725H8.50049ZM13.2485 118.219C12.0422 118.219 11.0737 117.818 10.3433 117.016C9.61279 116.208 9.24756 115.12 9.24756 113.753C9.24756 112.387 9.61279 111.302 10.3433 110.5C11.0737 109.692 12.0422 109.288 13.2485 109.288C14.4494 109.288 15.415 109.692 16.1455 110.5C16.876 111.302 17.2412 112.387 17.2412 113.753C17.2412 115.115 16.876 116.199 16.1455 117.007C15.415 117.815 14.4494 118.219 13.2485 118.219ZM11.3975 116.103C11.8568 116.667 12.4738 116.949 13.2485 116.949C14.0233 116.949 14.6375 116.67 15.0913 116.111C15.5451 115.546 15.772 114.761 15.772 113.753C15.772 112.746 15.5451 111.963 15.0913 111.404C14.6375 110.84 14.0233 110.558 13.2485 110.558C12.4738 110.558 11.8568 110.84 11.3975 111.404C10.9437 111.969 10.7168 112.752 10.7168 113.753C10.7168 114.755 10.9437 115.538 11.3975 116.103ZM29.6841 109.437L27.2769 118.07H25.8076L23.8569 111.388H23.8237L21.8813 118.07H20.4121L17.9966 109.437H19.4326L21.1592 116.459H21.1924L23.1431 109.437H24.5376L26.4966 116.459H26.5298L28.2563 109.437H29.6841Z" fill="black" />
    <path d="M293.555 107.17C293.691 107.17 293.81 107.221 293.912 107.323C294.025 107.425 294.082 107.549 294.082 107.697V118.543C294.071 118.69 294.008 118.815 293.895 118.917C293.793 119.019 293.674 119.07 293.538 119.07C293.379 119.07 293.249 119.019 293.147 118.917C293.056 118.815 293.011 118.69 293.011 118.543V107.697C293.011 107.549 293.062 107.425 293.164 107.323C293.266 107.221 293.396 107.17 293.555 107.17ZM301.528 107.17C301.687 107.17 301.811 107.221 301.902 107.323C302.004 107.425 302.055 107.549 302.055 107.697V118.543C302.044 118.69 301.987 118.815 301.885 118.917C301.794 119.019 301.67 119.07 301.511 119.07C301.364 119.07 301.239 119.019 301.137 118.917C301.035 118.815 300.984 118.69 300.984 118.543V107.697C300.984 107.549 301.035 107.425 301.137 107.323C301.25 107.221 301.381 107.17 301.528 107.17ZM293.47 112.491H301.545L301.528 113.477H293.402L293.47 112.491ZM305.977 118.56C305.977 118.696 305.926 118.815 305.824 118.917C305.722 119.019 305.603 119.07 305.467 119.07C305.32 119.07 305.195 119.019 305.093 118.917C305.003 118.815 304.957 118.696 304.957 118.56V110.74C304.957 110.604 305.003 110.485 305.093 110.383C305.195 110.281 305.32 110.23 305.467 110.23C305.615 110.23 305.734 110.281 305.824 110.383C305.926 110.485 305.977 110.604 305.977 110.74V118.56ZM305.467 109.091C305.229 109.091 305.048 109.04 304.923 108.938C304.81 108.824 304.753 108.666 304.753 108.462V108.292C304.753 108.088 304.816 107.935 304.94 107.833C305.076 107.719 305.258 107.663 305.484 107.663C305.7 107.663 305.864 107.719 305.977 107.833C306.102 107.935 306.164 108.088 306.164 108.292V108.462C306.164 108.666 306.102 108.824 305.977 108.938C305.864 109.04 305.694 109.091 305.467 109.091ZM312.248 110.179C312.758 110.179 313.229 110.269 313.659 110.451C314.09 110.621 314.464 110.847 314.781 111.131C315.11 111.403 315.365 111.697 315.546 112.015C315.728 112.321 315.818 112.615 315.818 112.899L315.529 112.491V110.91C315.529 110.762 315.575 110.638 315.665 110.536C315.767 110.434 315.892 110.383 316.039 110.383C316.198 110.383 316.323 110.434 316.413 110.536C316.504 110.638 316.549 110.762 316.549 110.91V118.271C316.549 119.177 316.362 119.942 315.988 120.566C315.614 121.189 315.104 121.659 314.458 121.977C313.824 122.305 313.098 122.47 312.282 122.47C311.886 122.47 311.466 122.419 311.024 122.317C310.594 122.215 310.22 122.084 309.902 121.926C309.596 121.767 309.426 121.603 309.392 121.433C309.302 121.331 309.256 121.229 309.256 121.127C309.268 121.036 309.319 120.957 309.409 120.889C309.523 120.809 309.642 120.798 309.766 120.855C309.891 120.923 310.078 121.008 310.327 121.11C310.441 121.144 310.594 121.195 310.786 121.263C310.979 121.331 311.206 121.387 311.466 121.433C311.738 121.489 312.022 121.518 312.316 121.518C313.336 121.518 314.124 121.223 314.679 120.634C315.246 120.056 315.529 119.291 315.529 118.339V116.707L315.716 116.758C315.614 117.166 315.444 117.523 315.206 117.829C314.98 118.135 314.708 118.395 314.39 118.611C314.073 118.815 313.727 118.968 313.353 119.07C312.991 119.183 312.628 119.24 312.265 119.24C311.483 119.24 310.781 119.041 310.157 118.645C309.534 118.248 309.035 117.71 308.661 117.03C308.299 116.35 308.117 115.573 308.117 114.701C308.117 113.839 308.299 113.069 308.661 112.389C309.035 111.697 309.528 111.159 310.14 110.774C310.764 110.377 311.466 110.179 312.248 110.179ZM312.367 111.131C311.744 111.131 311.183 111.289 310.684 111.607C310.197 111.913 309.812 112.338 309.528 112.882C309.256 113.414 309.12 114.021 309.12 114.701C309.12 115.381 309.256 115.993 309.528 116.537C309.812 117.081 310.197 117.511 310.684 117.829C311.183 118.135 311.744 118.288 312.367 118.288C312.991 118.288 313.546 118.135 314.033 117.829C314.521 117.523 314.906 117.103 315.189 116.571C315.473 116.027 315.614 115.403 315.614 114.701C315.614 113.998 315.473 113.38 315.189 112.848C314.906 112.304 314.521 111.884 314.033 111.59C313.546 111.284 312.991 111.131 312.367 111.131ZM323.197 110.315C323.911 110.315 324.489 110.468 324.931 110.774C325.373 111.08 325.696 111.493 325.9 112.015C326.115 112.536 326.223 113.114 326.223 113.749V118.56C326.223 118.696 326.172 118.815 326.07 118.917C325.968 119.019 325.849 119.07 325.713 119.07C325.554 119.07 325.429 119.019 325.339 118.917C325.248 118.815 325.203 118.696 325.203 118.56V113.749C325.203 113.284 325.129 112.865 324.982 112.491C324.846 112.117 324.619 111.822 324.302 111.607C323.984 111.38 323.559 111.267 323.027 111.267C322.551 111.267 322.097 111.38 321.667 111.607C321.247 111.822 320.907 112.117 320.647 112.491C320.386 112.865 320.256 113.284 320.256 113.749V118.56C320.256 118.696 320.205 118.815 320.103 118.917C320.001 119.019 319.882 119.07 319.746 119.07C319.587 119.07 319.462 119.019 319.372 118.917C319.281 118.815 319.236 118.696 319.236 118.56V107C319.236 106.864 319.281 106.745 319.372 106.643C319.474 106.541 319.598 106.49 319.746 106.49C319.893 106.49 320.012 106.541 320.103 106.643C320.205 106.745 320.256 106.864 320.256 107V112.508L319.865 113.103C319.887 112.751 319.995 112.411 320.188 112.083C320.392 111.743 320.652 111.442 320.97 111.182C321.287 110.91 321.638 110.7 322.024 110.553C322.409 110.394 322.8 110.315 323.197 110.315Z" fill="black" />
    <path d="M131.206 5.1C131.285 5.1 131.365 5.117 131.444 5.151C131.535 5.185 131.608 5.24167 131.665 5.321L136.357 12.359L135.898 12.342L140.607 5.321C140.732 5.151 140.885 5.07733 141.066 5.1C141.202 5.1 141.315 5.151 141.406 5.253C141.508 5.34367 141.559 5.46267 141.559 5.61V16.49C141.559 16.626 141.508 16.745 141.406 16.847C141.304 16.949 141.179 17 141.032 17C140.873 17 140.743 16.949 140.641 16.847C140.539 16.745 140.488 16.626 140.488 16.49V6.647L140.794 6.681L136.493 13.192C136.459 13.26 136.408 13.3167 136.34 13.362C136.272 13.396 136.193 13.4073 136.102 13.396C136.023 13.4073 135.943 13.396 135.864 13.362C135.796 13.3167 135.739 13.26 135.694 13.192L131.376 6.613L131.699 6.392V16.49C131.699 16.626 131.648 16.745 131.546 16.847C131.455 16.949 131.336 17 131.189 17C131.042 17 130.923 16.949 130.832 16.847C130.741 16.745 130.696 16.626 130.696 16.49V5.61C130.696 5.474 130.741 5.355 130.832 5.253C130.934 5.151 131.059 5.1 131.206 5.1ZM148.43 17.17C147.557 17.17 146.786 16.983 146.118 16.609C145.449 16.235 144.928 15.7137 144.554 15.045C144.18 14.3763 143.993 13.5943 143.993 12.699C143.993 11.7357 144.18 10.914 144.554 10.234C144.939 9.554 145.432 9.03267 146.033 8.67C146.645 8.296 147.291 8.109 147.971 8.109C148.469 8.109 148.951 8.19967 149.416 8.381C149.892 8.551 150.311 8.81167 150.674 9.163C151.048 9.503 151.342 9.92233 151.558 10.421C151.784 10.9197 151.909 11.4977 151.932 12.155C151.92 12.291 151.864 12.41 151.762 12.512C151.66 12.6027 151.541 12.648 151.405 12.648H144.588L144.384 11.73H151.082L150.861 11.934V11.594C150.815 11.0613 150.645 10.608 150.351 10.234C150.056 9.86 149.699 9.57667 149.28 9.384C148.86 9.19133 148.424 9.095 147.971 9.095C147.631 9.095 147.279 9.163 146.917 9.299C146.565 9.435 146.242 9.65033 145.948 9.945C145.664 10.2283 145.432 10.5967 145.251 11.05C145.069 11.492 144.979 12.019 144.979 12.631C144.979 13.2997 145.115 13.906 145.387 14.45C145.659 14.994 146.05 15.4247 146.56 15.742C147.081 16.0593 147.699 16.218 148.413 16.218C148.809 16.218 149.166 16.1613 149.484 16.048C149.801 15.9347 150.079 15.7873 150.317 15.606C150.555 15.4133 150.753 15.215 150.912 15.011C151.036 14.909 151.161 14.858 151.286 14.858C151.399 14.858 151.495 14.9033 151.575 14.994C151.665 15.0847 151.711 15.1867 151.711 15.3C151.711 15.436 151.654 15.555 151.541 15.657C151.201 16.065 150.759 16.422 150.215 16.728C149.671 17.0227 149.076 17.17 148.43 17.17ZM161.238 4.42C161.385 4.42 161.504 4.471 161.595 4.573C161.697 4.66367 161.748 4.78267 161.748 4.93V16.49C161.748 16.626 161.697 16.745 161.595 16.847C161.493 16.949 161.374 17 161.238 17C161.091 17 160.966 16.949 160.864 16.847C160.773 16.745 160.728 16.626 160.728 16.49V14.467L161.017 14.229C161.017 14.5463 160.932 14.8807 160.762 15.232C160.592 15.572 160.348 15.8893 160.031 16.184C159.725 16.4787 159.362 16.7167 158.943 16.898C158.535 17.0793 158.093 17.17 157.617 17.17C156.858 17.17 156.172 16.9717 155.56 16.575C154.959 16.1783 154.483 15.64 154.132 14.96C153.781 14.28 153.605 13.5037 153.605 12.631C153.605 11.7697 153.781 10.999 154.132 10.319C154.483 9.62767 154.959 9.08933 155.56 8.704C156.161 8.30733 156.841 8.109 157.6 8.109C158.065 8.109 158.507 8.194 158.926 8.364C159.345 8.534 159.714 8.76633 160.031 9.061C160.36 9.35567 160.615 9.69567 160.796 10.081C160.989 10.455 161.085 10.846 161.085 11.254L160.728 10.999V4.93C160.728 4.794 160.773 4.675 160.864 4.573C160.966 4.471 161.091 4.42 161.238 4.42ZM157.702 16.218C158.314 16.218 158.847 16.065 159.3 15.759C159.765 15.4417 160.127 15.0167 160.388 14.484C160.66 13.94 160.796 13.3223 160.796 12.631C160.796 11.951 160.66 11.3447 160.388 10.812C160.127 10.268 159.765 9.843 159.3 9.537C158.835 9.21967 158.303 9.061 157.702 9.061C157.113 9.061 156.58 9.21967 156.104 9.537C155.639 9.843 155.271 10.268 154.999 10.812C154.738 11.3447 154.608 11.951 154.608 12.631C154.608 13.311 154.738 13.923 154.999 14.467C155.271 15.011 155.639 15.4417 156.104 15.759C156.58 16.065 157.113 16.218 157.702 16.218ZM165.411 16.49C165.411 16.626 165.36 16.745 165.258 16.847C165.156 16.949 165.037 17 164.901 17C164.753 17 164.629 16.949 164.527 16.847C164.436 16.745 164.391 16.626 164.391 16.49V8.67C164.391 8.534 164.436 8.415 164.527 8.313C164.629 8.211 164.753 8.16 164.901 8.16C165.048 8.16 165.167 8.211 165.258 8.313C165.36 8.415 165.411 8.534 165.411 8.67V16.49ZM164.901 7.021C164.663 7.021 164.481 6.97 164.357 6.868C164.243 6.75467 164.187 6.596 164.187 6.392V6.222C164.187 6.018 164.249 5.865 164.374 5.763C164.51 5.64967 164.691 5.593 164.918 5.593C165.133 5.593 165.297 5.64967 165.411 5.763C165.535 5.865 165.598 6.018 165.598 6.222V6.392C165.598 6.596 165.535 6.75467 165.411 6.868C165.297 6.97 165.127 7.021 164.901 7.021ZM174.554 8.364C174.702 8.364 174.821 8.415 174.911 8.517C175.013 8.619 175.064 8.738 175.064 8.874V13.668C175.064 14.79 174.747 15.6457 174.112 16.235C173.478 16.8243 172.622 17.119 171.545 17.119C170.48 17.119 169.63 16.8243 168.995 16.235C168.372 15.6457 168.06 14.79 168.06 13.668V8.874C168.06 8.738 168.106 8.619 168.196 8.517C168.298 8.415 168.423 8.364 168.57 8.364C168.718 8.364 168.837 8.415 168.927 8.517C169.029 8.619 169.08 8.738 169.08 8.874V13.668C169.08 14.484 169.296 15.1073 169.726 15.538C170.168 15.9573 170.775 16.167 171.545 16.167C172.327 16.167 172.939 15.9573 173.381 15.538C173.823 15.1073 174.044 14.484 174.044 13.668V8.874C174.044 8.738 174.09 8.619 174.18 8.517C174.271 8.415 174.396 8.364 174.554 8.364ZM181.649 8.245C182.352 8.245 182.952 8.432 183.451 8.806C183.95 9.16867 184.29 9.71267 184.471 10.438L184.233 10.506L184.335 10.2C184.482 9.86 184.726 9.54267 185.066 9.248C185.417 8.942 185.814 8.69833 186.256 8.517C186.698 8.33567 187.146 8.245 187.599 8.245C188.313 8.245 188.885 8.398 189.316 8.704C189.758 9.01 190.075 9.42367 190.268 9.945C190.472 10.455 190.574 11.033 190.574 11.679V16.49C190.574 16.626 190.523 16.745 190.421 16.847C190.33 16.949 190.211 17 190.064 17C189.917 17 189.792 16.949 189.69 16.847C189.599 16.745 189.554 16.626 189.554 16.49V11.73C189.554 11.2653 189.48 10.8403 189.333 10.455C189.186 10.0697 188.953 9.76367 188.636 9.537C188.319 9.31033 187.894 9.197 187.361 9.197C186.896 9.197 186.449 9.31033 186.018 9.537C185.599 9.76367 185.253 10.0697 184.981 10.455C184.72 10.8403 184.59 11.2653 184.59 11.73V16.49C184.59 16.626 184.539 16.745 184.437 16.847C184.346 16.949 184.227 17 184.08 17C183.933 17 183.808 16.949 183.706 16.847C183.615 16.745 183.57 16.626 183.57 16.49V11.679C183.57 11.2143 183.502 10.795 183.366 10.421C183.23 10.047 183.009 9.75233 182.703 9.537C182.397 9.31033 181.983 9.197 181.462 9.197C180.997 9.197 180.555 9.31033 180.136 9.537C179.728 9.75233 179.394 10.047 179.133 10.421C178.884 10.795 178.759 11.2143 178.759 11.679V16.49C178.759 16.626 178.708 16.745 178.606 16.847C178.504 16.949 178.385 17 178.249 17C178.09 17 177.966 16.949 177.875 16.847C177.784 16.745 177.739 16.626 177.739 16.49V8.874C177.739 8.738 177.784 8.619 177.875 8.517C177.977 8.415 178.102 8.364 178.249 8.364C178.396 8.364 178.515 8.415 178.606 8.517C178.708 8.619 178.759 8.738 178.759 8.874V10.455L178.3 11.084C178.334 10.744 178.442 10.404 178.623 10.064C178.816 9.724 179.065 9.418 179.371 9.146C179.677 8.874 180.023 8.65867 180.408 8.5C180.805 8.33 181.218 8.245 181.649 8.245Z" fill="black" />
    <path d="M14.4938 150.17C13.5872 150.17 12.8278 149.898 12.2158 149.354C11.6038 148.81 11.1448 148.079 10.8388 147.161C10.5328 146.232 10.3798 145.195 10.3798 144.05C10.3798 142.894 10.5328 141.857 10.8388 140.939C11.1448 140.01 11.6038 139.279 12.2158 138.746C12.8278 138.202 13.5872 137.93 14.4938 137.93C15.4232 137.93 16.1882 138.202 16.7888 138.746C17.4008 139.279 17.8598 140.01 18.1658 140.939C18.4718 141.857 18.6248 142.894 18.6248 144.05C18.6248 145.195 18.4718 146.232 18.1658 147.161C17.8598 148.079 17.4008 148.81 16.7888 149.354C16.1882 149.898 15.4232 150.17 14.4938 150.17ZM14.4938 149.116C15.1625 149.116 15.7178 148.906 16.1598 148.487C16.6132 148.068 16.9532 147.478 17.1798 146.719C17.4178 145.948 17.5368 145.059 17.5368 144.05C17.5368 143.03 17.4178 142.14 17.1798 141.381C16.9532 140.61 16.6132 140.015 16.1598 139.596C15.7178 139.177 15.1625 138.967 14.4938 138.967C13.8365 138.967 13.2812 139.177 12.8278 139.596C12.3858 140.015 12.0458 140.61 11.8078 141.381C11.5812 142.14 11.4678 143.03 11.4678 144.05C11.4678 145.059 11.5812 145.948 11.8078 146.719C12.0458 147.478 12.3858 148.068 12.8278 148.487C13.2812 148.906 13.8365 149.116 14.4938 149.116Z" fill="black" />
    <path d="M306.296 149.014C306.432 149.014 306.546 149.065 306.636 149.167C306.738 149.258 306.789 149.371 306.789 149.507C306.789 149.654 306.738 149.773 306.636 149.864C306.546 149.955 306.432 150 306.296 150H299.921C299.774 150 299.644 149.96 299.53 149.881C299.428 149.79 299.377 149.66 299.377 149.49C299.377 149.365 299.423 149.246 299.513 149.133L303.44 144.798C304.064 144.118 304.528 143.495 304.834 142.928C305.152 142.35 305.31 141.834 305.31 141.381C305.31 140.633 305.084 140.032 304.63 139.579C304.177 139.126 303.565 138.899 302.794 138.899C302.443 138.899 302.092 138.973 301.74 139.12C301.4 139.267 301.094 139.46 300.822 139.698C300.562 139.936 300.358 140.208 300.21 140.514C300.142 140.627 300.069 140.707 299.989 140.752C299.921 140.797 299.842 140.82 299.751 140.82C299.615 140.82 299.496 140.78 299.394 140.701C299.292 140.61 299.241 140.503 299.241 140.378C299.241 140.299 299.258 140.219 299.292 140.14C299.338 140.061 299.4 139.97 299.479 139.868C299.683 139.517 299.967 139.194 300.329 138.899C300.692 138.604 301.094 138.372 301.536 138.202C301.99 138.021 302.432 137.93 302.862 137.93C303.588 137.93 304.211 138.072 304.732 138.355C305.265 138.627 305.673 139.018 305.956 139.528C306.251 140.027 306.398 140.622 306.398 141.313C306.398 141.902 306.211 142.548 305.837 143.251C305.475 143.942 304.931 144.69 304.205 145.495L300.89 149.218L300.72 149.014H306.296ZM312.7 150.17C311.794 150.17 311.034 149.898 310.422 149.354C309.81 148.81 309.351 148.079 309.045 147.161C308.739 146.232 308.586 145.195 308.586 144.05C308.586 142.894 308.739 141.857 309.045 140.939C309.351 140.01 309.81 139.279 310.422 138.746C311.034 138.202 311.794 137.93 312.7 137.93C313.63 137.93 314.395 138.202 314.995 138.746C315.607 139.279 316.066 140.01 316.372 140.939C316.678 141.857 316.831 142.894 316.831 144.05C316.831 145.195 316.678 146.232 316.372 147.161C316.066 148.079 315.607 148.81 314.995 149.354C314.395 149.898 313.63 150.17 312.7 150.17ZM312.7 149.116C313.369 149.116 313.924 148.906 314.366 148.487C314.82 148.068 315.16 147.478 315.386 146.719C315.624 145.948 315.743 145.059 315.743 144.05C315.743 143.03 315.624 142.14 315.386 141.381C315.16 140.61 314.82 140.015 314.366 139.596C313.924 139.177 313.369 138.967 312.7 138.967C312.043 138.967 311.488 139.177 311.034 139.596C310.592 140.015 310.252 140.61 310.014 141.381C309.788 142.14 309.674 143.03 309.674 144.05C309.674 145.059 309.788 145.948 310.014 146.719C310.252 147.478 310.592 148.068 311.034 148.487C311.488 148.906 312.043 149.116 312.7 149.116Z" fill="black" />
    <defs>
      <linearGradient id="paint0_linear_1105_2370" x1="265.336" y1="101.909" x2="222.221" y2="121.507" gradientUnits="userSpaceOnUse">
        <stop stop-color="#FF2727" />
        <stop offset="1" stop-color="#F8753D" />
      </linearGradient>
      <linearGradient id="paint1_linear_1105_2370" x1="80.4622" y1="53.3062" x2="80.4622" y2="149.597" gradientUnits="userSpaceOnUse">
        <stop stop-color="#27AE11" />
        <stop offset="1" stop-color="#A4CD3C" />
      </linearGradient>
      <linearGradient id="paint2_linear_1105_2370" x1="131" y1="38" x2="126.36" y2="76.9974" gradientUnits="userSpaceOnUse">
        <stop stop-color="#ECB603" />
        <stop offset="1" stop-color="#FFDC69" />
      </linearGradient>
      <clipPath id="clip0_1105_2370">
        <rect width="244.059" height="126.472" fill="white" transform="translate(38 27.437)" />
      </clipPath>
    </defs>
  </svg>