<svg xmlns="http://www.w3.org/2000/svg" width="30" height="30" viewBox="0 0 30 30" fill="none">
    <path d="M24.0039 18.0017C23.9245 18.0017 23.854 18.0227 23.7716 18.0257L19.2328 10.2598C20.0766 9.42289 20.6528 8.35404 20.8885 7.18889C21.1241 6.02373 21.0084 4.81481 20.5562 3.71554C20.1039 2.61627 19.3355 1.67622 18.3483 1.0147C17.3612 0.353173 16.1999 0 15.0118 0C13.8237 0 12.6624 0.353173 11.6753 1.0147C10.6882 1.67622 9.9197 2.61627 9.46744 3.71554C9.01519 4.81481 8.89953 6.02373 9.13515 7.18889C9.37076 8.35404 9.94702 9.42289 10.7908 10.2598L6.26552 18.0272C6.18008 18.0227 6.10213 18.0017 6.01669 18.0017C4.89441 17.9978 3.79355 18.3091 2.83936 18.9003C1.88517 19.4914 1.11596 20.3387 0.619236 21.3456C0.122513 22.3526 -0.0817779 23.4788 0.0296036 24.5962C0.140985 25.7136 0.563567 26.7773 1.24928 27.6662C1.93498 28.5552 2.85629 29.2338 3.90837 29.6247C4.96046 30.0156 6.10108 30.1033 7.20049 29.8776C8.29989 29.652 9.31393 29.1222 10.1272 28.3484C10.9406 27.5746 11.5205 26.5879 11.8011 25.5007H18.2195C18.5015 26.5848 19.0817 27.5681 19.8942 28.3389C20.7067 29.1096 21.719 29.637 22.816 29.861C23.913 30.0851 25.0508 29.9968 26.1002 29.6063C27.1496 29.2158 28.0685 28.5386 28.7526 27.6518C29.4367 26.7649 29.8585 25.7039 29.9702 24.5892C30.0818 23.4746 29.8788 22.3509 29.3843 21.3458C28.8897 20.3408 28.1233 19.4947 27.1723 18.9035C26.2212 18.3124 25.1235 18 24.0039 18.0017ZM18.2195 22.5011H11.8011C11.4204 21.0264 10.4926 19.7522 9.20643 18.9376L13.393 11.7536C14.447 12.0865 15.5781 12.0865 16.6322 11.7536L20.8292 18.9316C19.5356 19.7442 18.6018 21.0214 18.2195 22.5011Z" fill="white"/>
  </svg>