<svg xmlns="http://www.w3.org/2000/svg" width="48" height="61" viewBox="0 0 48 61" fill="none">
    <path d="M46.476 47.7107L31.7351 27.2321C30.8805 26.1429 30.4533 24.8357 30.4533 23.3107V13.0714C32.8033 13.0714 34.726 11.1107 34.726 8.71429V4.35714C34.726 1.96071 32.8033 0 30.4533 0H17.6351C15.2851 0 13.3624 1.96071 13.3624 4.35714V8.71429C13.3624 11.1107 15.2851 13.0714 17.6351 13.0714V23.3107C17.6351 24.6179 17.2078 25.925 16.3533 27.2321L1.61236 47.7107C1.18509 48.8 0.757812 50.1071 0.757812 51.6321V54.4643C0.757812 58.1679 3.53509 61 7.1669 61H41.3487C44.9805 61 47.7578 58.1679 47.7578 54.4643V51.6321C47.7578 50.1071 47.3305 48.8 46.476 47.7107ZM19.9851 29.6286C21.2669 27.6679 22.1214 25.4893 22.1214 23.3107V13.0714C22.1214 10.675 20.1987 8.71429 17.8487 8.71429V4.35714H30.6669V8.71429C28.3169 8.71429 26.3942 10.675 26.3942 13.0714V23.3107C26.3942 25.7071 27.0351 27.8857 28.5305 29.6286L38.3578 43.5714H10.1578L19.9851 29.6286Z" fill="#E13367"/>
  </svg>