<svg xmlns="http://www.w3.org/2000/svg" width="14" height="23" viewBox="0 0 14 23" fill="none">
    <path d="M4.54054 11.5049L13.1448 2.90024C13.3817 2.66389 13.512 2.34787 13.512 2.01091C13.512 1.67376 13.3817 1.35793 13.1448 1.1212L12.3908 0.367626C12.1543 0.13052 11.8381 0 11.5011 0C11.1642 0 10.8483 0.13052 10.6116 0.367626L0.366883 10.6122C0.129216 10.8496 -0.00092995 11.167 5.00976e-06 11.5043C-0.00092995 11.8431 0.129029 12.1601 0.366883 12.3977L10.6021 22.6324C10.8388 22.8695 11.1546 23 11.4918 23C11.8287 23 12.1446 22.8695 12.3815 22.6324L13.1353 21.8788C13.6257 21.3883 13.6257 20.5899 13.1353 20.0996L4.54054 11.5049Z" fill="black"/>
  </svg>