<svg xmlns="http://www.w3.org/2000/svg" width="28" height="28" viewBox="0 0 28 28" fill="none">
  <path d="M7.5386 14C7.5386 13.6625 7.65206 13.3387 7.85403 13.1C8.05599 12.8614 8.32992 12.7273 8.61554 12.7273H18.308V4.45455C18.308 1.90909 16.0337 0 14.0002 0H3.7693C2.76995 0.00126336 1.81183 0.470986 1.10518 1.3061C0.398534 2.14122 0.00106902 3.27351 0 4.45455V23.5455C0.00106902 24.7265 0.398534 25.8588 1.10518 26.6939C1.81183 27.529 2.76995 27.9987 3.7693 28H14.5387C15.5381 27.9987 16.4962 27.529 17.2028 26.6939C17.9095 25.8588 18.3069 24.7265 18.308 23.5455V15.2727H8.61554C8.32992 15.2727 8.05599 15.1386 7.85403 14.9C7.65206 14.6613 7.5386 14.3375 7.5386 14ZM27.6848 13.1003L22.3001 6.7367C22.0965 6.5081 21.8254 6.38253 21.5446 6.38678C21.2637 6.39103 20.9954 6.52476 20.7968 6.75945C20.5982 6.99414 20.4851 7.31123 20.4815 7.64311C20.4779 7.97499 20.5841 8.2954 20.7776 8.53602L24.3234 12.7273H18.308V15.2727H24.3234L20.7776 19.464C20.6734 19.581 20.59 19.7215 20.5325 19.8771C20.4749 20.0328 20.4443 20.2005 20.4425 20.3704C20.4407 20.5402 20.4676 20.7088 20.5218 20.8662C20.5759 21.0236 20.6562 21.1665 20.7578 21.2866C20.8595 21.4068 20.9804 21.5016 21.1136 21.5656C21.2468 21.6296 21.3894 21.6615 21.5331 21.6593C21.6769 21.6571 21.8188 21.621 21.9505 21.553C22.0822 21.4849 22.2011 21.3865 22.3001 21.2633L27.6848 14.8997C27.8866 14.661 28 14.3374 28 14C28 13.6626 27.8866 13.339 27.6848 13.1003Z" fill="white"/>
</svg>