<svg width="64" height="46" viewBox="0 0 64 46" fill="none" xmlns="http://www.w3.org/2000/svg">
<path d="M46.1406 43.1191L46.3007 43.1591L46.3407 42.999L46.1806 42.959L46.1406 43.1191Z" fill="#EF3360"/>
<path d="M47.1797 44.5195L47.2197 44.5996L47.3398 44.5595L47.1797 44.5195Z" fill="#EF3360"/>
<path d="M45.7784 43.2789L45.9385 43.2389C46.0586 43.2789 46.0185 43.479 46.1386 43.479V43.1189H46.0185L46.0586 42.9588L46.0986 42.7987C46.2987 42.7587 46.2987 42.8788 46.2987 43.0388C46.4587 43.1989 46.7789 43.2389 46.8589 43.479C46.8989 43.8392 46.4587 43.6791 46.4187 43.9192C46.7388 44.3994 47.4591 43.6791 47.7392 44.0393L47.6992 44.1993L47.8593 44.1593C47.8593 44.5194 47.4191 44.3994 47.2991 44.5995C48.1794 44.3594 49.0598 44.0392 49.9402 43.7191C52.3812 42.7187 54.6621 41.2781 56.6229 39.4774L56.6629 39.3173L56.6229 39.1572C56.903 38.8371 57.2632 38.597 57.6233 38.3569L57.6633 38.477C57.9034 38.1968 58.1435 37.9567 58.3836 37.6766C58.5837 37.4365 58.8238 37.1964 59.0239 36.9163L58.9839 36.7963L58.8238 36.8363V35.9159L58.9839 35.9559L59.0239 35.7959C59.344 35.7959 59.344 36.2761 59.264 36.3561L59.344 36.4361C59.7442 35.9159 60.1043 35.3957 60.4245 34.8755H60.2244V34.7554L60.3845 34.7954L60.4245 34.6354C60.4645 34.5954 60.5045 34.5553 60.5845 34.5553C61.2648 33.4749 61.8251 32.3144 62.3052 31.1139C62.2652 31.0739 62.2252 31.0739 62.1852 31.0739C62.2252 30.9939 62.3052 30.9539 62.3052 30.8338C62.3453 30.8338 62.3853 30.8738 62.3853 30.8738C62.7854 29.8734 63.1056 28.833 63.3457 27.7926C62.9055 27.5525 62.4653 27.2724 62.0651 26.9522C62.0251 26.7121 62.2252 26.7521 62.3853 26.7121C62.1852 26.1119 61.4649 26.0719 61.5049 25.2315L61.705 25.2715L61.8251 25.1115C61.9451 25.2315 62.0651 25.3916 62.1452 25.5516C62.9455 25.4716 63.2656 25.8718 63.5858 26.312C63.7458 25.2315 63.8659 24.1511 63.8659 23.0706C63.6258 22.9906 63.5057 22.7505 63.5458 22.5104H63.8659C63.8659 20.3095 63.5057 18.1086 62.8655 15.9877C62.7454 16.1878 62.2652 16.1078 62.3453 15.7476C62.4653 15.8276 62.6654 15.9077 62.8255 15.8677C62.6254 15.2274 62.4253 14.6271 62.1452 14.0269C61.0647 11.4258 59.5041 9.02484 57.5433 6.984C57.5433 7.02402 57.5033 7.06403 57.5033 7.10405C57.3432 7.14407 57.3832 6.984 57.3832 6.86395C55.8226 5.26329 53.9818 3.86272 52.021 2.78227V3.1024C51.901 3.02237 51.7409 2.98235 51.5808 2.98235C51.6208 2.78227 51.7409 2.74225 51.981 2.74225C51.4608 2.46214 50.9006 2.18202 50.3803 1.94193C50.3003 1.98194 50.1803 2.02196 50.0602 2.06197C50.1002 2.02196 50.1803 1.94192 50.2603 1.90191C44.618 -0.579113 38.2553 -0.61913 32.573 1.70183C32.0128 1.94192 31.4525 2.18202 30.9323 2.46214V2.6222C30.8523 2.6222 30.8123 2.6222 30.7723 2.58219C24.8898 5.66346 20.6481 11.1457 19.1675 17.6284C19.4076 17.6684 19.4476 17.8285 19.4476 17.3883C19.7277 17.3082 19.6477 17.6284 19.8878 17.6284C19.7277 17.9085 19.4476 18.0686 19.1275 18.0686V17.8685C19.0875 18.1086 19.0074 18.3887 18.9674 18.6288C19.1275 18.5888 19.2875 18.6688 19.2075 18.8689C19.0875 18.7088 19.0074 18.7889 18.8874 18.8689C18.7673 19.4691 18.7273 20.0294 18.6473 20.6296C18.7673 20.6696 18.8874 20.7097 18.9674 20.7097C19.0474 21.0298 18.7673 21.0298 18.6073 21.1098C18.5272 22.4704 18.5272 23.8709 18.6873 25.2315C18.7273 25.2315 18.7273 25.1915 18.7273 25.1515C18.8474 25.1915 18.8073 25.3916 18.9274 25.3916C18.9274 25.5516 18.8073 25.5516 18.6873 25.5116C18.7673 26.1919 18.8874 26.9122 19.0474 27.5925C19.1675 27.1523 19.6877 27.5124 19.9278 27.5925C19.6877 27.8326 19.3276 27.8326 19.0875 27.5925C19.7277 30.5937 21.0082 33.4349 22.769 35.9559V35.8359C23.0891 35.7558 23.1691 36.156 23.0091 36.3561C23.7294 37.3165 24.5297 38.2369 25.37 39.0772C25.4501 39.0772 25.5301 39.1172 25.6101 39.1973V39.3173C26.5305 40.1977 27.5309 40.998 28.6114 41.7183H28.8915L28.8515 41.8383H28.8915L29.0115 41.7983L28.9715 41.8784C29.2116 42.0384 29.4517 42.1985 29.6918 42.3185C29.6918 42.2385 29.8119 42.1185 29.7719 41.8784C30.132 41.9984 29.8519 42.0784 29.8919 42.3986C30.2921 42.6387 30.6922 42.8388 31.0924 43.0388C31.0924 42.7987 31.1724 42.6387 31.4125 42.6387C31.3725 42.8388 31.3725 43.0388 31.2124 43.0789C32.1328 43.519 33.0932 43.9192 34.0536 44.2393C34.0936 44.2393 34.1336 44.2393 34.1737 44.2793C34.3337 44.3194 34.4538 44.3594 34.6138 44.4394V44.3594L34.7739 44.3994L34.934 44.4394L34.974 44.4794C35.5342 44.6395 36.0544 44.7595 36.6147 44.8796C36.5747 44.7195 36.5346 44.5595 36.5747 44.3994C36.6547 44.4794 36.7747 44.5194 36.8948 44.5194C36.9748 44.7595 36.8548 44.7996 36.8148 44.9196C39.4959 45.4398 42.257 45.4798 44.9381 45.0397C45.0181 44.3594 45.2182 43.6791 45.5383 43.0388L45.7784 43.2789ZM19.8878 28.793C19.3276 29.0731 20.2479 29.1131 19.8878 28.793V28.793ZM46.1386 38.477L45.9385 38.517C45.9385 38.3169 45.8185 38.2769 45.8185 38.0768L45.8585 37.9167L45.6984 37.8767C45.7384 37.6766 46.0185 37.6766 45.9385 37.3165C46.0185 37.6766 46.6188 37.4365 46.8189 37.6766C46.7789 38.0768 46.5788 38.4369 46.2586 38.7171L46.1386 38.477ZM47.019 40.1176V39.8775C47.099 39.8775 47.139 39.8375 47.139 39.7575C47.3391 39.7575 47.2991 40.3177 47.019 40.1176ZM48.0194 39.3173C47.7393 39.2773 47.2591 39.2373 47.139 39.6775C46.8989 39.4374 46.5388 39.3973 46.2586 39.5574C46.5788 39.1973 46.6588 38.637 47.019 38.3169V38.4369H47.139C47.219 38.517 47.3391 38.557 47.4591 38.557C47.7793 38.3169 47.4191 37.8367 47.4591 37.5166C47.6592 37.9567 47.8593 37.3565 48.2194 37.6366C48.1394 37.7567 47.9794 37.7567 48.0194 37.9968H48.1394L48.0994 38.1968L48.2595 38.3169C48.2995 38.517 48.1394 38.517 48.1394 38.677H48.5796L48.5396 38.8771L48.6996 38.9972C48.5396 39.3973 48.5796 39.9176 48.3795 40.2377L48.2194 40.1977L48.2595 40.3577C47.8193 40.3977 48.2995 39.4774 47.6192 39.7975C47.4591 39.3573 47.9393 39.5574 48.0194 39.3173ZM47.019 38.1968C47.099 38.0368 47.179 37.8367 47.4591 37.8367C47.3391 37.9968 47.3391 38.2769 47.139 38.2769V38.1968H47.019ZM46.8189 32.1143C46.4987 31.9943 46.1786 31.9543 45.8185 31.9943C45.8585 31.7542 45.7384 31.5141 45.4983 31.4341C45.7384 31.1539 46.4987 31.394 46.9389 31.314V31.7542L46.7789 31.8742L46.8189 32.1143ZM44.738 20.5896H44.618L44.658 20.3895L44.4979 20.2695C44.658 19.9093 44.9781 19.7893 45.4983 19.8293L45.4583 19.9493L45.4983 20.0694C45.7384 20.3495 45.5784 20.3895 45.6984 20.6296V20.7497H45.8185C45.3783 21.0698 45.0581 21.51 44.4979 21.4299C44.5379 21.0698 44.8581 21.0698 44.738 20.5896ZM45.3783 16.9081H46.0185L45.9785 17.1082L46.1386 17.2282C45.9385 17.4283 45.6584 17.5083 45.3783 17.4683C45.5784 17.2682 45.3783 17.1882 45.3783 16.9081ZM46.2586 12.9064C46.5788 12.9465 46.5788 13.3466 46.6988 13.5867C46.1386 13.6267 45.6984 13.5867 45.6184 13.1465C45.7784 12.9465 46.0986 13.2666 46.2586 12.9064ZM46.1386 9.02484C46.3787 9.10487 46.5388 9.34497 46.4587 9.58507C46.3787 9.38499 46.0586 9.38499 46.1386 9.02484ZM47.2591 28.2327C47.2591 28.4728 46.7789 28.2728 46.6188 28.3528C46.5788 28.1127 47.059 28.3128 47.2591 28.2327ZM47.019 17.3883C47.019 17.1882 47.3791 17.3082 47.3391 17.0281C47.6592 17.1482 47.2991 17.5083 47.019 17.3883ZM47.2591 26.7521C47.4991 26.7521 47.4991 27.0323 47.4591 27.3124C46.9789 27.3124 47.2591 27.1123 47.2591 26.7521ZM46.5788 26.512C46.5388 26.2719 46.7388 26.312 46.8989 26.2719C46.8589 26.432 46.7388 26.5521 46.5788 26.512ZM46.3787 22.5104C46.6988 22.3503 46.5388 23.1507 46.2586 23.0706C46.3787 22.9106 46.4187 22.7105 46.3787 22.5104ZM46.3787 14.267C46.3387 14.6672 45.8585 14.4271 45.6184 14.387C45.7384 14.1069 46.0986 14.187 46.3787 14.267ZM45.1782 29.5133C45.6184 29.4733 45.6184 29.8734 45.9385 29.9535C45.8985 30.1135 45.6584 30.0335 45.4983 30.0735C45.6984 29.5533 45.0581 29.9134 45.1782 29.5133ZM45.6984 21.3899C46.0986 21.3899 46.2586 21.7901 45.9385 21.9502L45.8985 21.7901L45.7384 21.7501C45.5383 21.67 45.7384 21.59 45.6984 21.3899ZM45.6984 21.9502L45.8185 21.9902L45.9385 22.0302C46.4187 22.3903 45.8185 23.2707 45.6984 23.7509L45.5383 23.7109L45.4983 23.8709C45.1382 23.6709 45.3783 22.5504 45.2582 22.3903C45.4183 22.2303 45.6984 22.2303 45.6984 21.9502ZM45.2582 27.7926C45.5383 28.5929 45.8985 28.2327 45.2582 27.7926V27.7926ZM45.6984 26.1919C45.8985 26.312 46.2987 26.1919 46.2586 26.5521C45.9385 26.5521 45.6584 26.5521 45.6984 26.1919ZM46.0185 16.1078C46.0185 16.3879 45.6584 16.1478 45.5784 16.1078C45.6984 15.7476 45.8585 16.0277 46.0185 16.1078ZM44.618 29.7134H44.9381V29.9535H44.618V29.7134ZM44.9381 30.6337C44.9781 30.5137 45.0181 30.4337 45.1382 30.3936C45.4583 30.3936 45.4183 30.7138 45.5784 30.8338L45.4183 30.8738L45.4583 31.0339C45.2582 31.0739 45.0581 31.0339 44.8981 30.9138L44.9381 30.7538V30.6337ZM46.5788 30.1936C46.5788 30.0735 46.5388 29.9935 46.4587 29.9535C46.6188 29.4733 46.9389 29.9134 47.219 29.9535C47.139 30.1535 46.7789 30.0735 46.5788 30.1936ZM47.6992 30.7538C47.6592 31.1139 47.099 30.9939 47.139 30.6337C47.3391 30.5937 47.5392 30.6337 47.6992 30.7538ZM47.3391 22.8705C47.099 22.3903 47.059 21.7901 47.219 21.2699H47.5392L47.5792 21.4299L47.7392 21.3899C47.8193 21.9101 47.6592 22.4304 47.3391 22.8705ZM48.0194 30.6337C47.8593 30.5937 47.7793 30.4336 47.8193 30.2736C47.9393 30.3536 48.0194 30.4737 48.0194 30.6337ZM49.54 17.9485C49.54 18.3087 49.2199 18.3887 48.8997 18.3887C48.8997 18.0285 49.2599 18.0285 49.54 17.9485ZM49.2199 13.5867C48.3395 13.9068 49.9402 13.3866 49.2199 13.5867V13.5867ZM50.8605 11.6659C51.1406 11.9861 51.1006 11.5459 51.4208 11.5459C51.4208 11.946 51.1807 12.0261 50.9806 12.2262C50.7405 12.2262 50.9006 11.826 50.8605 11.6659ZM51.1807 8.78474C50.8205 8.42459 50.8605 9.22492 51.1807 8.78474V8.78474ZM51.941 27.9926H51.8209C51.8209 28.2728 51.6208 28.3528 51.8209 28.5529C51.6609 28.7129 51.3007 28.5929 51.2607 28.913L51.1006 28.873L50.9406 28.833C50.7405 28.4728 50.5804 27.7125 50.9406 27.4724C51.1406 28.0727 51.5808 27.3124 52.021 27.8326L51.8609 27.8726L51.941 27.9926ZM51.7409 31.7942C51.8209 31.5541 52.3812 31.7542 52.3011 32.0343C52.021 32.0343 51.941 31.8342 51.7409 31.7942ZM52.1811 36.236C52.1411 36.4361 52.061 36.156 52.061 35.9959C52.101 35.7959 52.1811 36.076 52.1811 36.236ZM51.941 32.9147C51.5808 32.9147 51.5408 33.2348 51.5008 33.595L51.4608 33.755L51.6208 33.715C51.2607 34.2352 51.1807 35.0355 50.5404 35.1956C50.3003 34.4753 50.5804 33.755 50.7405 33.1548V33.2748H51.0606V33.0347H50.8205L50.7805 32.8747L50.7405 33.0347C50.6604 33.0747 50.6204 32.9947 50.6204 32.9147L50.8205 32.7946L50.6204 32.6746C50.5404 32.5945 50.5404 32.3544 50.4204 32.3144C50.5404 31.9943 50.8605 32.4745 50.9806 32.5545C51.1407 32.4745 51.3007 32.3544 51.4208 32.1944C51.6208 32.4345 51.901 32.5545 51.941 32.9147ZM49.8601 39.5574C50.0202 39.5974 50.1002 40.5178 49.7401 40.3577C49.7801 40.0776 49.7001 39.7175 49.8601 39.5574ZM49.3399 36.3561C49.3799 36.116 49.7401 36.236 49.7801 35.9959C50.2203 36.156 49.7401 36.4761 49.3399 36.3561ZM49.9802 37.8367C49.9402 37.5566 50.1803 37.5966 50.1002 37.2765C50.5004 37.1564 50.2203 37.9167 49.9802 37.8367ZM48.7797 25.3916C48.5396 25.4316 48.4996 25.3115 48.3395 25.2715C48.2995 25.0714 48.9397 25.0714 48.7797 25.3916ZM48.9798 26.9922H48.4195C48.4996 26.7922 48.6196 26.5921 48.7397 26.432C48.9397 26.512 48.9397 26.7922 48.9798 26.9922ZM48.5396 23.911V23.6709H48.7397V23.911H48.5396ZM48.6596 18.8689C48.5796 18.7889 48.4595 18.7488 48.3395 18.7488V18.3887C48.5396 18.3887 48.5796 18.2686 48.7797 18.2686C48.8597 18.6288 48.6196 18.5888 48.6596 18.8689ZM48.0994 18.1886C48.1394 18.0285 48.2995 18.0285 48.3395 17.8285C48.6196 17.8685 48.3395 18.2686 48.0994 18.1886ZM48.4595 32.3544C48.3395 32.1944 48.1394 32.0743 48.1394 31.7942C48.3395 31.8742 48.4195 32.0743 48.4595 32.3544ZM48.5396 34.3153C48.4595 34.7154 48.2995 34.4353 48.0994 34.3153C48.1394 33.9951 48.2995 34.4753 48.5396 34.3153ZM48.3395 30.4336C48.6596 30.4336 48.9397 30.4737 48.8997 30.8738C48.7797 30.6337 48.3395 30.7538 48.3395 30.4336ZM49.2199 31.1139C49.1798 31.314 49.0198 31.394 48.7797 31.354C48.6596 30.9939 49.0198 31.1139 49.2199 31.1139ZM50.1803 26.9922H49.2999C49.0998 26.5921 48.9798 26.1519 48.9798 25.7517C49.58 25.5917 50.2203 26.1119 50.1803 26.9922ZM49.2199 23.1907C49.3799 23.2307 49.46 24.1511 49.0998 23.991C49.0998 23.7109 49.0598 23.3507 49.2199 23.1907ZM49.66 32.3544C49.58 33.1148 49.9402 33.3949 49.7801 33.9551L49.62 33.9151L49.58 34.0751C49.1398 33.715 49.0598 32.9547 48.8197 32.3544C49.1798 32.5545 49.2199 32.5545 49.66 32.3544ZM49.4199 27.4324H50.3003C50.4604 27.9926 49.9802 27.9126 49.9802 28.3528C49.58 28.2728 49.3799 27.9926 49.4199 27.4324ZM50.4204 25.9518C50.5404 25.5917 50.7805 25.9918 50.8605 26.0719C50.8205 26.352 50.5804 25.9518 50.4204 25.9518ZM50.8605 27.1123H50.5404V26.7521C50.7805 26.7121 50.8605 26.8322 50.8605 27.1123ZM50.6204 28.793C50.4604 29.1531 50.2603 28.5529 50.0602 28.5529C50.1002 28.4328 50.2603 28.4728 50.2603 28.3128C50.5404 28.3928 50.4204 28.793 50.6204 28.793ZM50.8605 30.0735C50.9006 30.0335 50.5404 29.9535 50.5404 29.9535C50.5004 29.7534 51.1006 29.7934 50.8605 30.0735ZM50.1002 30.7538C50.3803 30.6737 50.3003 30.9939 50.5404 30.9939C50.4604 31.274 49.9802 31.0339 50.1002 30.7538ZM51.3007 18.9889C50.9006 19.5092 51.941 19.109 51.3007 18.9889V18.9889ZM51.0606 18.1886C50.9006 18.0686 50.8205 17.9085 50.8205 17.7484C50.9406 17.8285 51.1006 17.8685 51.2607 17.8685C51.3407 18.0686 51.1006 17.9885 51.0606 18.1886ZM51.3007 18.2686C51.3407 18.1086 51.5008 18.1086 51.5008 17.9085C51.7809 17.9885 51.5008 18.3887 51.3007 18.2686ZM51.0606 15.1874C51.1006 14.9873 51.2607 14.9073 51.5008 14.9473C51.4208 15.1073 51.2607 15.2274 51.0606 15.1874ZM51.6208 23.3107C51.8209 23.2707 51.8209 23.951 51.5008 23.7509C51.5008 23.5508 51.6609 23.5508 51.6208 23.3107ZM51.7409 15.5475C51.4208 15.3474 51.941 15.0673 52.1811 15.1073C52.1411 15.3474 51.8209 15.3474 51.7409 15.5475ZM51.3007 13.9469C51.3407 13.5467 51.6609 13.5067 51.941 13.3866C51.941 13.7068 51.6609 13.9469 51.3007 13.9469ZM50.9806 13.1465V12.9064H51.5408C51.4608 13.0665 51.0606 13.3866 50.9806 13.1465ZM51.3007 15.5475V15.9077C50.9806 15.8276 51.0206 16.0677 50.7405 16.0277C50.7805 15.7476 51.0206 15.5475 51.3007 15.5475ZM50.6204 14.8672C50.5404 14.9473 50.5404 14.187 50.8205 14.307C50.8605 14.5471 50.7005 14.6271 50.6204 14.8672ZM50.6204 18.2686C51.1006 18.2686 50.7005 18.7488 50.6204 18.8289C50.3003 18.7488 50.7805 18.5488 50.6204 18.2686ZM50.1803 15.9077C49.9402 15.8276 50.4204 15.5475 50.4204 15.3474C50.7405 15.4675 50.3003 15.7476 50.1803 15.9077ZM50.1803 16.4679C50.1002 16.4679 50.0602 16.3078 50.0602 16.2278C50.2603 15.8276 50.3003 16.4279 50.1803 16.4679ZM50.1002 17.5884C50.1803 17.6284 50.2203 17.7084 50.3003 17.7084V17.9485C50.1803 17.9485 50.1002 17.9885 50.1002 18.0686C49.8201 18.0285 50.2203 17.8685 50.1002 17.5884ZM50.1002 23.911L50.2603 23.951L50.4204 23.991C50.4604 24.5912 50.9806 24.7113 51.5008 24.7913C51.4608 25.2715 50.5004 25.3516 50.3003 25.2315L50.4204 25.0714L50.3003 24.9114C50.3003 24.5912 50.0202 24.5912 49.7401 24.5512C49.7801 24.2311 50.0602 24.1911 50.1002 23.911ZM49.54 19.189C49.7001 18.6688 50.1002 19.069 49.54 19.189V19.189ZM49.7801 10.6255C49.58 10.5855 49.54 10.4254 49.54 10.1853C49.7401 10.1853 49.7801 10.3054 49.9802 10.3054C49.9402 10.4254 49.7801 10.4654 49.7801 10.6255ZM48.2194 16.3479C48.1794 15.9477 48.6196 15.9877 48.8597 15.9077C48.9798 16.3879 48.6196 16.3879 48.2194 16.3479ZM48.0994 11.6659C48.1794 11.3858 48.2194 11.7059 48.2194 11.6659C48.2595 12.0661 47.9793 12.3062 48.0994 11.6659ZM49.3399 34.8755C49.3399 35.0756 49.46 35.1156 49.46 35.3157C49.9402 35.3157 49.2599 34.8355 49.7801 34.8755L49.8201 35.0355L49.9802 34.9955V35.6758C49.2599 35.9159 48.8197 36.4361 47.8993 36.4761L47.8593 36.3161L47.6992 36.2761C47.6592 35.9559 47.9393 35.9959 48.1394 35.9159C48.0594 35.7959 48.0194 35.6358 48.0194 35.4757C48.6196 35.4357 48.5796 34.7554 49.3399 34.8755ZM47.8993 35.5558C47.8993 35.8759 47.4191 35.7959 47.4591 35.4357C47.6992 35.3957 47.7393 35.5157 47.8993 35.5558ZM48.2194 41.9584C48.0194 41.7183 47.7392 41.5582 47.6592 41.1581C47.7392 41.2381 48.1794 41.4382 48.2194 41.1581C48.3795 41.3581 48.6596 41.4382 48.6596 41.8383C48.4996 41.8784 48.2595 41.7983 48.2194 41.9584ZM48.9798 43.5591C48.8997 43.6391 48.7797 43.6791 48.6596 43.6791C48.4996 43.519 48.5396 43.1989 48.5396 42.8788C48.8197 42.8788 48.8997 43.0388 48.9798 43.2389L48.9397 43.399L48.9798 43.5591ZM49.3399 43.5591L49.3799 43.359L49.2199 43.2389C49.2999 43.1189 49.3399 43.0388 49.2199 42.9988C49.54 42.7187 49.7801 43.479 50.1002 43.5591C50.0202 43.7991 49.4199 43.6791 49.3399 43.5591ZM49.8601 41.038C49.7801 40.6779 49.9402 40.5978 50.1002 40.4778C50.2603 40.5178 50.1402 41.118 49.8601 41.038ZM50.3003 37.9567C50.5404 37.9968 50.4204 38.477 50.6204 38.517C50.5404 38.7971 50.1803 38.3169 50.3003 37.9567ZM51.4208 35.3157L51.2607 35.4357L51.4208 35.5558C51.3808 35.8359 51.4208 36.116 51.5408 36.3561C51.3007 36.2761 51.3808 36.5562 51.2207 36.5962C50.8605 36.4761 50.7405 36.036 50.6604 35.5558C51.0206 35.6358 51.1807 34.7554 51.4208 35.3157ZM50.8605 37.5166C51.2607 37.3565 50.9406 37.9167 51.1807 37.8767C51.1407 38.0768 50.8205 37.7166 50.8605 37.5166ZM51.3007 39.2373C51.1407 39.5974 51.1807 38.8371 51.1807 38.677C51.3407 38.2769 51.3007 39.0372 51.3007 39.2373ZM51.1807 37.1564C51.4208 36.8763 51.8209 36.7963 52.1811 36.9163L52.3411 36.9563L52.5012 36.9964C52.3411 37.5166 52.061 38.0368 51.7409 38.477C51.8609 37.9968 51.6609 37.4365 51.1807 37.1564ZM52.6213 38.637V38.517C53.1415 38.4369 52.101 39.2773 52.6213 38.637ZM52.6213 34.5153L52.5812 34.3553L52.4212 34.3953C52.2611 34.1552 52.2611 33.835 52.4212 33.595C52.6213 33.595 52.6613 33.715 52.8614 33.715C52.7413 33.9951 53.0214 34.6354 52.6213 34.5153ZM52.5012 29.1531C52.2611 29.1931 52.2611 29.5133 52.061 29.5933L51.901 29.5533L51.8609 29.7134C51.7809 29.6733 51.6609 29.5933 51.6609 29.4733L51.7009 29.2332L51.6609 28.9931H51.981C51.981 28.7129 51.7809 28.6329 52.101 28.5529C52.101 28.6729 52.1411 28.753 52.2211 28.793C52.1811 28.5129 52.5412 28.6729 52.5412 28.4328L52.7013 28.4728L52.7413 28.3128C53.2215 28.5529 53.6217 28.953 53.8218 29.4733L53.7817 29.5933L53.8218 29.7134C53.6617 29.7534 53.5817 29.9134 53.6217 30.0735H53.3816V30.3136L53.5817 30.3536L53.7017 30.1936H54.1419V30.5537L53.9818 30.5937L54.0218 30.7538H53.9018L53.7417 30.7138L53.7017 30.8738C53.4616 30.7938 53.3015 30.5537 53.3816 30.3136C52.9414 30.0335 52.6613 29.6333 52.5012 29.1531ZM52.8213 20.7897L52.8614 20.6296L52.7013 20.5896V20.4695L52.8614 20.4295L52.8213 20.2695C53.1415 20.3495 53.2215 20.1494 53.4616 20.1494L53.5817 20.3095L53.7817 20.2695C53.8218 20.4295 53.9418 20.5096 54.1019 20.5096C54.0619 20.9097 53.8218 21.1098 53.9018 21.67C53.6217 21.9101 53.3416 22.1102 53.0214 22.2303L52.9814 22.0702L52.8213 22.1102C52.7813 21.9101 52.9414 21.9101 52.9414 21.7501C52.7413 21.51 52.5412 21.55 52.7413 21.1898L52.9014 21.2299L52.9414 21.0698H53.0614V20.8297L52.8213 20.7897ZM56.4228 18.6288C56.3828 19.069 55.9826 19.189 55.6625 19.3091L55.5024 19.149L55.3024 19.069C55.5024 18.6688 56.0227 18.4687 56.4228 18.6288ZM56.2227 17.3883C55.8226 17.9085 56.863 17.5083 56.2227 17.3883V17.3883ZM55.5825 37.2765L55.4224 37.2365L55.3824 37.3965C55.1823 37.2765 54.9422 37.2365 54.7421 37.2765C54.7021 36.9163 54.6221 36.5962 54.502 36.236C54.9022 36.236 54.9822 35.9159 55.3824 35.8759C55.3424 35.6758 55.3424 35.3957 55.0623 35.4357C55.3024 35.3557 55.7425 35.3157 55.5024 34.9955C55.1023 34.4353 55.9826 35.4357 55.8226 34.6354L55.9826 34.6754L56.1427 34.6354C56.3428 34.9155 56.5029 35.2356 56.5829 35.5558C56.0627 35.9959 55.8626 36.6762 55.5825 37.2765ZM56.2227 37.5166C55.9026 37.3965 56.3428 37.1964 56.3428 37.0764C56.5829 37.0764 56.2227 37.3565 56.2227 37.5166ZM53.2615 26.7521C53.5416 26.432 53.8618 26.1519 54.2619 25.9518L54.2219 26.1119L54.382 26.0719C54.6221 26.312 54.7021 26.6721 54.5821 26.9922C54.0619 26.7922 53.6617 27.1123 53.2615 26.7521ZM54.2619 28.5929C53.9818 28.873 53.8218 28.2728 53.6217 28.1527C53.7417 27.8726 54.2619 28.2327 54.2619 28.5929ZM53.5016 23.0706C53.5416 22.5904 53.9418 22.5504 54.2619 22.3903L54.302 22.5504L54.342 22.7105C54.422 23.2307 53.8618 23.0706 53.5016 23.0706ZM54.5821 23.4308C54.6221 23.6709 54.502 23.911 54.2619 23.991L54.1419 23.951L54.0218 23.991C54.0218 23.7909 53.9418 23.6309 53.8218 23.5508C53.8618 23.3107 54.342 23.5108 54.5821 23.4308ZM54.462 35.1956H54.7021V35.5558H54.382C54.342 35.3557 54.462 35.3557 54.462 35.1956ZM55.5825 16.9081C54.9022 17.0682 55.3024 17.4683 55.5825 16.9081V16.9081ZM55.6625 18.0686C55.6225 18.2286 55.4624 18.2286 55.4624 18.4287C55.3424 18.4287 55.3824 18.2286 55.3424 18.0686H55.6625ZM55.3424 22.3903V22.7505C55.1023 22.7905 54.9822 22.6705 55.0223 22.3903H55.3424ZM55.4624 26.8722C55.8626 26.7521 55.6625 27.4724 55.5825 27.5525C55.3024 27.5525 55.5024 27.0723 55.4624 26.8722ZM55.9026 26.7521C55.7826 26.5921 55.4624 26.6321 55.4624 26.312H55.9026V26.7521ZM55.9826 29.1531C55.8626 29.3932 55.5425 29.3932 55.2223 29.3932C55.3424 29.1131 55.6225 28.9931 55.8626 29.1131C55.9426 29.1131 55.9826 29.1131 55.9826 29.1531ZM55.7826 28.3528C55.7826 28.6329 55.4224 28.3928 55.3424 28.3528C55.4224 27.9926 55.5825 28.4728 55.7826 28.3528ZM55.2223 26.312C54.8622 26.312 54.9822 25.7917 54.7822 25.6317C54.9422 25.3516 55.3424 25.8718 55.2223 26.312ZM56.3428 30.3936H56.1427C56.1427 30.2336 56.1427 30.0735 56.0227 30.0335C55.9826 29.7934 56.7029 30.2736 56.3428 30.3936ZM55.6625 25.7117C55.1023 25.5917 55.5825 24.7913 55.8626 24.7913L55.9826 24.8313L56.1027 24.7913C56.0227 25.1515 55.8626 25.4316 55.6625 25.7117ZM55.2223 16.1078C55.2223 15.9077 55.3424 15.8677 55.3424 15.6676C55.4224 15.6276 55.4624 15.7076 55.4624 15.7876C55.5024 15.9477 55.7425 15.8677 55.9026 15.9077C56.1427 15.9877 55.4224 16.0677 55.2223 16.1078ZM55.4624 13.7068C55.5425 13.3866 55.6225 13.8668 55.7826 13.8268C55.6625 14.187 55.5825 13.7068 55.4624 13.7068ZM55.5425 14.7472C55.1023 14.347 55.3024 15.1073 55.5425 14.7472V14.7472ZM55.1423 11.9861C54.9022 11.826 54.8222 11.5459 54.7021 11.3058C55.0623 11.3858 55.1823 11.1057 55.3424 11.3058C55.2623 11.5459 55.0623 11.6259 55.1423 11.9861ZM54.5821 16.1078C54.502 16.0277 54.382 15.9877 54.2619 15.9877C54.1819 15.5475 54.6621 15.7476 54.7021 15.4275C55.0222 15.6276 54.382 15.7076 54.5821 16.1078ZM54.342 18.1486C54.2619 18.3487 53.9418 18.3487 53.9018 18.5888C53.6217 18.4687 54.1419 18.1886 54.342 18.1486ZM53.4616 17.4683C53.4216 17.1082 53.8218 17.2282 54.0218 17.1082C53.9418 17.3483 53.8218 17.5483 53.4616 17.4683ZM52.7013 22.8705C52.3812 23.2307 53.1015 23.1907 52.7013 22.8705V22.8705ZM52.7013 24.5912C52.6613 24.7513 52.5412 24.8313 52.3812 24.8313C52.4212 24.6713 52.5812 24.5512 52.7013 24.5912ZM53.8218 32.3544C53.5416 32.2344 53.8618 31.8742 54.1419 31.9943C54.1419 32.2344 53.7817 32.0743 53.8218 32.3544ZM54.0218 33.715C54.0619 33.9951 53.7017 33.835 53.7017 34.0751C53.5416 34.0351 53.6217 33.795 53.5817 33.635C53.8218 33.5549 53.8618 33.675 54.0218 33.715ZM55.7826 39.5574L55.6225 39.5174L55.6625 39.6775C55.0623 39.8375 54.382 39.7575 54.0218 39.9176C54.0619 39.9976 54.1419 40.0376 54.1419 40.1576L53.9818 40.1977L54.0218 40.3577C54.0619 40.4378 53.9818 40.4778 53.9018 40.4778L53.8618 40.3177L53.8218 40.4778C53.5416 40.3577 53.1815 40.3577 53.1815 40.0376L53.2215 39.8775L53.1815 39.7175C53.5016 39.6374 53.3015 39.5574 53.3015 39.2773C53.5416 39.3173 53.5817 39.1973 53.7417 39.1572C53.8218 38.9572 53.6217 38.477 53.8618 38.477L53.9018 38.637L54.0619 38.597H54.1819L54.1419 38.7171L54.1819 38.8371V38.9572C54.1819 39.3173 54.462 39.3573 54.7421 39.3973C54.6621 39.2773 54.502 39.2773 54.502 39.0372C55.1423 38.8771 55.3424 39.0372 55.8226 39.2773C55.7425 39.3973 55.9826 39.5174 55.7826 39.5574ZM56.5429 39.4374H56.4228L56.4628 39.2773L56.4228 39.1172H56.5429L56.5029 39.2773L56.5429 39.4374ZM56.4228 38.9972H56.3028V39.1172C56.1027 38.9572 55.8626 38.8771 55.8626 38.557C56.1427 38.4369 56.3828 38.1968 56.4228 37.8767C56.5829 37.9167 56.5029 38.1568 56.5429 38.3169L56.4228 38.557L56.6229 38.677C56.5429 38.7571 56.5829 38.9572 56.4228 38.9972ZM56.6629 35.1956C56.4228 35.1156 56.5429 34.3953 56.6629 34.2752C57.1031 34.3953 56.743 34.9555 56.6629 35.1956ZM56.1027 21.2699C56.1827 21.1498 56.2227 20.9898 56.2227 20.8297C56.5829 20.9497 56.4628 20.8297 56.863 20.8297C57.1431 20.9497 56.6229 21.2699 56.9831 21.3899C56.903 21.59 56.3028 21.3099 56.1027 21.2699ZM56.2227 18.1486C56.3428 17.7084 56.5829 18.1486 56.9831 18.0285C56.943 18.7088 56.6229 18.0686 56.2227 18.1486ZM58.6237 11.4258C58.3436 11.4658 58.3436 11.1857 58.3036 10.9856H58.6237C58.4637 11.1857 58.6237 11.1057 58.6237 11.4258ZM58.0635 26.7521H57.8634L57.9034 26.5921L57.7434 26.5521V26.312H57.5433L57.5833 26.1519L57.4232 26.1119C57.4633 25.9118 57.3032 25.9118 57.3032 25.7517L57.3432 25.5516L57.5033 25.4316C57.6233 25.4316 57.7034 25.4716 57.7034 25.5516C58.0235 25.4716 57.8634 24.9114 58.2636 24.8714V24.9914H58.3836C59.184 25.5116 58.3436 26.2319 58.0635 26.7521ZM58.4236 29.5933L58.3036 29.5533L58.1835 29.5933C58.1035 29.5133 58.0635 29.3532 58.0635 29.2332C58.3836 29.1931 58.4637 29.3132 58.4236 29.5933ZM59.184 26.0719C59.0639 26.312 58.9839 26.5921 58.9439 26.8722C58.3036 26.8322 58.7838 26.0318 59.184 26.0719ZM59.0239 24.6313L58.9839 24.7913C58.7438 24.8313 58.7038 24.7113 58.5437 24.6713V24.5912H58.4236C58.5437 24.3912 58.5837 24.1511 58.5437 23.911H59.1039C58.9439 24.071 58.9439 24.5512 59.344 24.4712C59.344 24.5912 59.304 24.6713 59.224 24.7113L59.0239 24.6313ZM59.0639 21.8301V21.2699C59.4241 21.2299 59.5441 21.8701 59.0639 21.8301ZM59.5041 26.9922C59.6642 27.0723 59.8642 27.1523 59.8242 27.4324C59.6642 27.4324 59.4241 27.3924 59.384 27.5525C59.0639 27.3924 59.4641 27.1123 59.5041 26.9922ZM59.384 22.9906C59.1039 22.8305 59.5441 22.5104 59.5841 22.3103C59.9443 22.5104 59.5441 22.9106 59.384 22.9906ZM59.184 20.7897C59.384 20.7897 59.4241 20.9097 59.6241 20.9097C59.6642 21.1098 58.9839 21.1098 59.184 20.7897ZM58.7438 16.788C58.7438 16.4679 59.264 16.5079 59.384 16.668C59.384 16.9481 58.9439 16.748 58.7438 16.788ZM58.9439 20.1094C58.5437 20.1094 58.6637 19.9493 58.7438 19.6692C59.1439 19.6692 59.0239 19.8293 58.9439 20.1094ZM58.7438 22.1903C58.5437 22.1903 58.5037 22.0302 58.3036 22.0702C58.3036 21.7101 58.8238 21.7901 58.7438 22.1903ZM58.4236 21.59C58.1836 21.9502 57.6233 21.7901 57.3432 21.59C57.2232 20.4295 58.3036 20.8697 58.4236 21.59ZM57.5433 17.7084C57.5433 17.4283 57.9034 17.6684 57.9835 17.7084C57.9034 18.0686 57.7434 17.5884 57.5433 17.7084ZM57.1831 15.4275C57.4232 15.4675 57.4633 15.6676 57.6233 15.7876C57.6633 15.9077 57.0231 15.8276 57.1831 15.4275ZM56.4228 13.1465L56.6229 13.1866L56.743 13.0265C57.0631 13.1866 57.2632 13.4667 57.3032 13.8268C56.863 13.7468 56.3828 13.7068 56.4228 13.1465ZM57.3032 37.7166V37.5966C57.8234 37.5166 56.783 38.3569 57.3032 37.7166ZM57.9835 33.715C57.9435 33.3949 58.0235 33.2348 58.3036 33.2748C58.5037 33.4749 58.2636 33.715 57.9835 33.715ZM57.1031 31.9143C57.1431 31.7942 57.3032 31.8342 57.3032 31.6742L57.4633 31.7142L57.5033 31.5541H57.6233C58.0635 31.274 57.1431 30.8338 57.5033 30.6337L57.5433 30.7538L57.5833 30.6337C57.7434 30.5537 58.0235 30.5537 57.9034 30.1936C58.1435 30.4337 58.1835 30.4337 58.4637 30.1936L58.5437 30.3936L58.7038 30.5537C58.6637 30.7938 58.7838 30.8738 58.8238 30.9939L58.7838 31.1539L58.9439 31.194C58.5037 31.7942 57.9435 32.3144 57.1031 31.9143ZM58.8638 30.3136L58.9038 29.9134L58.5037 29.8734V29.7534L58.6637 29.7134L58.5037 29.6733C58.5037 29.5533 58.6237 29.5933 58.7038 29.5533C58.7038 29.3532 58.5837 29.3132 58.5837 29.1131C58.9038 29.0331 59.184 28.913 59.4641 28.753L59.5041 28.913L59.6642 28.873C59.4641 29.4332 59.7042 30.5137 59.224 30.8338L59.184 30.6737L59.0239 30.7138C59.1039 30.4737 58.9839 30.3536 58.8638 30.3136ZM60.2644 34.5153L60.1043 34.5553L60.1444 34.7154C59.7042 34.7954 59.7042 34.3953 59.264 34.4753L59.304 34.2752L59.184 34.1952C59.304 33.8751 59.8642 33.9951 60.2644 33.9551L60.2244 34.1152L60.3845 34.1552C60.4245 34.3553 60.2644 34.3953 60.2644 34.5153ZM60.0643 20.5896C60.1444 20.4695 60.1844 20.3895 60.0643 20.3495C60.2244 20.0294 60.6646 20.3895 60.8246 20.4695C60.8246 20.7897 60.1844 20.7096 60.0643 20.5896ZM60.8246 27.3124C60.7846 27.5124 60.7046 27.2323 60.7046 27.0723C60.7446 26.8722 60.8647 27.1523 60.8246 27.3124ZM60.5845 27.7926C60.8246 27.7525 60.9447 27.8726 60.9047 28.1527C60.8246 27.9926 60.5045 28.0727 60.5845 27.7926ZM60.7046 31.7942C60.6646 31.354 61.5049 31.314 61.4649 31.7942H60.7046ZM62.2252 30.7538C62.1052 30.9939 61.8651 30.4737 61.9051 30.1936C62.2652 30.1135 61.9851 30.7138 62.2252 30.7538ZM62.1452 27.9126C61.5849 27.9926 61.3849 27.7125 61.0647 27.5525C61.1048 27.3124 61.1848 27.0723 61.3048 26.8722C61.8651 26.8722 61.9451 27.4324 62.1452 27.9126ZM61.0247 22.9906C61.0247 22.7105 61.0247 22.4304 60.9047 22.1903L61.0647 22.2303L61.0247 22.0702C61.3449 22.0302 61.5849 22.1102 61.665 22.3103L61.5049 22.3503L61.5449 22.5104C61.5049 22.7505 61.705 22.7105 61.8651 22.7505C61.665 22.9506 61.3449 23.0306 61.0247 22.9906ZM61.705 19.4291C61.5049 19.7092 61.0247 19.189 61.2648 18.9889C61.5049 18.9889 61.705 19.149 61.705 19.3891V19.4291ZM61.4649 16.668C61.1448 17.0681 61.8651 17.0281 61.4649 16.668V16.668ZM62.0251 20.2295C61.9051 19.8293 62.3453 20.0694 62.5854 19.9894C62.5453 20.2695 62.3052 20.2295 62.0251 20.2295ZM62.7854 18.5087C62.3853 18.4287 62.5053 18.9089 62.1452 18.8689C62.1052 18.4687 61.9851 18.4287 62.1452 18.0686C62.3052 18.1886 62.7454 17.9885 62.7854 18.5087ZM62.0251 16.668C62.2652 16.628 62.3052 16.748 62.4653 16.788C62.5053 16.9881 61.8651 16.9881 62.0251 16.668ZM62.0251 21.3899C62.0652 21.7901 61.4249 21.47 61.3849 21.7501C61.1048 21.55 61.8651 21.1498 62.0251 21.3899ZM60.9447 16.1078C61.2248 15.9477 61.5049 15.8677 61.8251 15.7476C61.8651 16.4679 61.3448 16.0677 60.9447 16.1078ZM61.1448 14.9473L61.1048 15.1073L61.2648 15.1474C61.1048 15.3474 60.9447 15.5875 60.5045 15.5075C60.3444 15.4275 60.5045 15.0673 60.3044 15.0673C60.4645 14.7872 60.7846 14.7072 61.0647 14.8672C61.0647 14.9073 61.1047 14.9473 61.1448 14.9473ZM61.0247 12.9064C60.6646 12.5463 60.7046 13.3466 61.0247 12.9064V12.9064ZM60.7046 13.8268C60.3845 13.7868 60.4645 13.3866 60.2644 13.2666C60.3845 13.0265 61.1048 13.4667 60.7046 13.8268ZM60.5045 12.5463C60.3444 12.8664 59.9443 12.7464 59.9443 12.3062C60.1444 12.3862 60.2244 12.5863 60.5045 12.5463ZM60.1444 15.8677C59.7842 15.5475 59.8242 16.3078 60.1444 15.8677V15.8677ZM59.8242 20.2295C59.8242 20.5896 59.184 20.5496 59.264 20.1094C59.5841 20.0294 59.5841 20.2695 59.8242 20.2295ZM59.5041 15.9877C59.5841 16.4279 58.9038 16.1078 58.6237 16.2278C58.5437 15.7876 59.224 16.1078 59.5041 15.9877ZM58.4236 8.22451C58.7838 8.34456 58.7838 8.82476 58.8638 9.26494L58.7438 9.22492L58.6237 9.26494C58.4236 9.06486 58.3436 9.26494 58.0635 9.26494C58.1035 8.86477 58.2236 8.54464 58.4236 8.22451ZM57.9835 16.3479C58.3036 16.1878 57.7034 15.7076 58.3036 15.7876V16.3479C58.1035 16.3078 57.8234 16.708 57.8634 16.2278C57.9435 16.1878 57.9435 16.2678 57.9835 16.3479ZM57.8634 12.7864C57.7434 12.7864 57.6633 12.8264 57.6633 12.9064C57.5433 12.7064 57.2632 12.7064 57.3432 12.3462C57.4632 12.5063 57.9435 12.3862 57.8634 12.7864ZM56.9831 6.94398C57.6233 6.86395 57.3832 7.7043 56.9831 7.74431V6.94398ZM56.9831 12.4663C56.863 12.3462 56.5829 12.4262 56.6629 12.1061C56.943 12.0261 57.0631 12.1461 56.9831 12.4663ZM56.4228 11.4258C56.4628 11.2257 56.6229 11.1857 56.863 11.1857C56.943 11.5459 56.5829 11.5859 56.4228 11.4258ZM56.6629 7.74431C56.3028 8.46461 57.0631 8.30454 56.6629 7.74431V7.74431ZM56.3428 8.90479C56.7029 8.82476 56.6629 9.10487 56.903 9.14489C56.783 9.38499 56.1827 9.22492 56.3428 8.90479ZM56.2227 7.18408C56.1827 7.34415 56.0227 7.38417 56.0227 7.54423C55.9026 7.54423 55.9426 7.34415 55.9026 7.18408H56.2227ZM56.5429 10.6255C56.4628 11.0257 56.0627 10.7055 55.7826 10.7455C55.7425 10.4654 56.4628 10.3854 56.5429 10.6255ZM55.6625 9.70512C55.3824 9.54506 55.2223 9.22492 55.2223 8.90479C55.5024 8.62467 55.9826 9.34497 55.6625 9.70512ZM55.1423 9.70512C55.3824 9.82517 55.7826 9.70512 55.7025 10.1453C55.3824 10.2253 55.3024 10.0253 55.0623 10.0253C55.1023 9.94522 55.1423 9.82517 55.1423 9.70512ZM54.5821 4.42295C54.462 4.62303 54.2619 4.70306 54.0218 4.66304C54.1419 4.50298 54.382 4.38293 54.5821 4.42295ZM54.462 9.70512C54.542 10.0653 54.2619 10.0653 54.462 10.2653C54.6621 10.2653 54.7021 10.1453 54.9022 10.1453C54.8622 10.3454 54.6621 10.4254 54.7021 10.7055L54.542 10.6655L54.5821 10.8256C54.542 10.9856 54.382 11.0257 54.382 11.1857L54.2619 11.1457L54.1419 11.1057C53.8218 10.9456 53.9018 10.3854 53.8218 9.94522C54.1419 9.98524 54.0619 9.58507 54.462 9.70512ZM53.8218 4.78309C53.8618 5.06321 53.5016 4.90314 53.5016 5.14324C53.1815 5.02319 53.5416 4.66304 53.8218 4.78309ZM53.5016 11.9861C53.6217 11.9861 53.5817 12.1861 53.6217 12.3462H53.3015C53.2215 12.0661 53.4616 12.1861 53.5016 11.9861ZM52.7013 5.02319H53.0214C53.0214 5.34332 52.7013 5.30331 52.7013 5.58342C52.4612 5.54341 52.6613 5.10323 52.7013 5.02319ZM52.5012 6.14365C52.5012 6.10364 52.7413 5.94357 52.8213 6.0236C52.9014 6.10364 52.3812 6.34374 52.5012 6.14365ZM52.2611 10.3854H52.8213C52.7013 10.7455 52.7013 11.1457 52.8213 11.5459L52.7813 11.7059L52.9414 11.746C52.1811 12.4262 52.1811 11.5859 52.061 10.8256C52.3812 10.9456 52.2611 10.5855 52.2611 10.3854ZM51.941 4.34291C52.3411 4.26288 52.101 4.86313 52.1411 5.14324C52.061 4.90314 51.7809 4.543 51.941 4.34291ZM52.1811 9.26494C52.101 9.425 52.021 9.62509 51.7409 9.62509C51.8209 9.425 51.901 9.22492 52.1811 9.26494ZM51.6208 9.70512C51.5408 9.86519 51.4608 10.0653 51.1807 10.0653C51.1807 9.94522 51.1406 9.86518 51.0606 9.82517C51.0606 9.58507 51.4608 9.78515 51.6208 9.70512ZM51.4208 6.7439H50.7805C50.9006 6.54382 51.4208 6.14365 51.4208 6.7439ZM50.7405 5.22327C51.0606 5.18326 50.8605 5.66346 51.0606 5.66346C51.0606 5.94357 50.7005 5.70347 50.6204 5.66346C50.7405 5.58342 50.7805 5.42336 50.7405 5.22327ZM50.8605 13.8268C50.8205 14.0669 50.2603 13.9068 50.2203 13.8268C50.2603 13.5467 50.7805 13.7468 50.8605 13.8268ZM50.3003 6.62385C50.1402 6.5038 49.9402 6.46379 49.9802 6.18367C50.2603 6.14365 50.3403 6.30372 50.3003 6.62385ZM50.1002 3.18244C50.3803 3.22245 50.1803 3.70265 49.8601 3.54258C49.9402 3.42253 50.1402 3.42253 50.1002 3.18244ZM50.3003 6.94398C50.2203 7.14407 50.1002 7.34415 49.9802 7.50421C49.58 7.10405 49.5 6.984 50.3003 6.94398ZM49.54 9.94522C49.2999 9.9052 49.3399 9.62509 49.0998 9.58507C49.1798 9.10487 49.8601 9.70512 49.54 9.94522ZM49.4199 2.02196C49.7401 2.22204 49.1798 2.42212 48.8597 2.38211C48.9397 2.10199 49.3799 2.26206 49.4199 2.02196ZM49.3399 4.10281C49.3399 4.34291 49.0598 4.26288 49.1398 4.543C48.7397 4.66305 48.9397 4.14283 48.6996 4.10281C48.6996 3.86272 49.2599 4.02278 49.3399 4.10281ZM48.8997 6.7439C48.4996 6.86395 48.6196 6.22369 48.5796 6.30372C48.7797 6.0236 49.0598 6.66387 48.8997 6.7439ZM48.7797 13.7068C48.0594 13.5867 48.5396 14.0669 48.7797 13.7068V13.7068ZM48.0994 5.94357H48.3395V6.18367H48.0994V5.94357ZM48.2194 10.0653C48.1794 10.2253 48.0594 10.3054 47.8993 10.3054C47.8593 10.0253 48.0594 10.0653 48.2194 10.0653ZM47.5792 16.668C47.5392 16.4279 47.6592 16.3479 47.6992 16.2278C47.8993 16.3479 47.9793 16.748 47.5792 16.668ZM47.7793 2.14201C47.7793 2.58219 47.2991 2.46214 46.8989 2.50215C47.099 2.30207 47.5392 1.94193 47.7793 2.14201ZM47.2591 9.14489C47.4991 9.70512 47.5392 8.74473 47.2591 9.14489V9.14489ZM47.139 3.06239C47.179 2.8623 47.3391 2.78227 47.5792 2.82229C47.6992 3.18243 47.3391 3.06239 47.139 3.06239ZM47.3391 7.98441C47.3791 7.90438 47.4591 7.86436 47.4591 7.74431H47.6992C47.7393 7.98441 47.5392 7.98441 47.3391 7.98441ZM46.8989 12.2262C47.219 12.3062 47.2591 12.6663 47.5392 12.7864L47.5792 12.9465L47.7392 12.9865C47.4991 13.1465 47.2591 13.2666 46.9789 13.3466C47.099 12.8664 46.6988 12.5063 46.8989 12.2262ZM46.6988 11.866C46.5388 11.7059 46.4587 11.4258 46.5788 11.3058C46.9389 11.4258 46.6588 11.5059 46.6988 11.866ZM46.5788 2.06197C46.5388 2.22204 46.4187 2.30207 46.2586 2.30207C46.2987 2.10199 46.4187 2.02196 46.5788 2.06197ZM46.1386 8.90479H45.6984C45.6184 8.46461 46.2186 8.46461 46.1386 8.90479ZM45.6984 3.62262C45.6984 3.62262 45.4983 3.22245 45.4983 3.26247C45.5383 2.98235 45.8585 3.46255 45.6984 3.62262ZM45.6184 10.3854C45.4983 10.5054 45.5784 10.8256 45.2982 10.7455C45.2582 10.5055 45.3783 10.3854 45.6184 10.3854ZM45.6984 18.7488C45.5784 18.9489 45.4183 19.029 45.2582 18.8689C45.3783 18.5087 45.4183 18.7088 45.6984 18.7488ZM45.0581 16.668C44.9781 16.628 44.9381 16.708 44.9381 16.788C44.818 16.788 44.8581 16.588 44.8181 16.4279C45.0181 16.4279 45.0581 16.5479 45.0581 16.668ZM44.8181 15.6676C44.618 16.0677 44.4979 15.3875 44.698 15.3074C45.0982 15.3074 44.4979 15.7076 44.8181 15.6676ZM44.8181 4.90314C44.778 5.14324 44.5379 5.14324 44.4979 5.34333C44.2178 5.26329 44.658 4.90314 44.8181 4.90314ZM44.3779 16.1078C43.8977 16.3078 44.4979 16.628 44.3779 16.1078V16.1078ZM44.2978 20.5896C44.3379 20.6696 44.2578 20.7097 44.1778 20.7097L44.1378 20.5496L43.9777 20.5896C43.8577 20.3095 43.5375 20.1894 43.5375 19.7893C43.8176 19.7493 43.9377 19.3091 44.1778 19.5492L44.1378 19.7092L44.2978 19.6692C44.2178 19.9894 44.1778 20.0694 44.4179 20.2295L44.2178 20.3495L44.2978 20.5896ZM41.2166 38.9972H40.8964L40.8564 38.7571L40.7764 38.9972C40.4162 38.7971 40.2562 39.4374 40.6563 39.3573L40.6163 39.5174L40.7764 39.4774C40.8164 39.7975 40.7364 40.0776 40.5763 40.1576L40.4162 40.1176L40.4563 40.2777C40.1761 40.4378 39.9761 40.7579 40.0161 41.078C39.5359 40.7179 39.2958 40.1577 39.3758 39.5974L39.5759 39.6374L39.6959 39.4774H39.896C39.936 39.3973 40.0161 39.3573 40.0161 39.2373C39.896 39.1572 39.896 38.9572 39.6959 38.9972L39.736 38.7971L39.5759 38.677C39.5359 38.477 39.2157 38.557 39.3758 38.2369L39.5359 38.2769L39.6959 38.2369C39.816 38.2369 39.776 38.0368 39.816 37.8767C40.0161 38.517 40.4963 38.517 41.0165 38.4369L41.1765 38.477L41.2166 38.3169C41.3366 38.3169 41.2966 38.517 41.3366 38.677L41.1765 38.7971L41.2166 38.9972ZM40.4563 35.1156C40.3362 34.6754 40.7764 34.8355 40.7764 34.5553C41.2166 34.6354 40.7764 35.0756 40.4563 35.1156ZM40.8964 31.7942C40.9365 31.314 41.0165 33.0747 40.8964 31.7942V31.7942ZM40.4563 36.7162C40.6964 36.7963 40.8564 37.0364 40.7764 37.2765C40.4963 37.2365 40.5363 37.4765 40.2162 37.3965C40.1761 37.0364 40.3762 36.9563 40.4563 36.7162ZM40.1361 33.0347C39.816 32.9947 39.896 32.5545 39.5759 32.4745C39.776 32.0743 40.3362 32.3945 40.3362 32.8346C40.2562 32.8747 40.1361 32.9147 40.1361 33.0347ZM39.816 33.0347C39.856 33.3148 39.4959 33.1548 39.4959 33.3949C39.2958 33.1948 39.1757 32.9147 39.1757 32.5945C39.5359 32.5545 39.4959 32.9547 39.816 33.0347ZM39.4558 36.7963C39.2157 36.7563 39.5759 36.4761 39.5759 36.3561C39.936 36.4761 39.5359 36.7563 39.4558 36.7963ZM41.0965 30.8738C41.0965 30.5937 41.5367 30.7138 41.5367 30.4336C41.8568 30.5937 41.3366 30.8738 41.0965 30.8738ZM41.4567 31.194C41.7368 31.194 41.4967 31.5941 41.4567 31.6341C41.1765 31.6341 41.4166 31.274 41.4567 31.194ZM41.6567 34.6354C41.4967 34.5954 41.5767 34.3553 41.5367 34.1952C41.7368 34.3152 41.8168 34.4753 41.6567 34.6354ZM40.7764 30.5137L40.7364 30.3536L40.6964 30.1936V29.9535C40.5363 30.0335 40.1361 29.8334 40.1361 30.0735L39.936 30.0335L39.816 30.1936C39.4558 30.1135 39.0957 29.9134 38.8156 29.6333C38.9756 29.0731 39.6559 29.0731 40.2562 28.953L40.2162 29.1131L40.3762 29.1531C40.5363 29.0731 40.9365 29.2732 40.9365 29.0331L40.9765 28.873L40.8164 28.833C40.8164 28.5129 41.5767 28.913 41.5767 28.5929C42.1369 29.3132 41.4967 30.4337 40.7764 30.5137ZM38.6955 43.6791C38.6955 43.5991 38.7355 43.5591 38.8156 43.5591V43.6791H38.9356C38.9756 43.7591 38.8956 43.7992 38.8156 43.7992V43.6791H38.6955ZM38.9356 35.7959H38.2954C38.3754 35.5558 38.4954 35.3157 38.6155 35.1156C38.7756 35.2356 39.0157 35.2356 39.0557 35.4757L38.8956 35.5958L38.9356 35.7959ZM36.8548 32.3544C36.8548 32.4345 36.8148 32.4745 36.7347 32.4745L36.6947 32.3144L36.5346 32.3544C36.1745 32.2344 36.4946 32.1544 36.4146 31.7942C36.6147 31.5941 36.5346 31.7942 36.8548 31.7942L36.8148 31.9543L36.9748 31.9143V32.1544H36.6947L36.8548 32.3544ZM36.4146 35.9959C36.6947 35.4757 37.0949 35.8759 36.4146 35.9959V35.9959ZM36.7347 39.5574C36.6947 39.7175 36.5747 39.7975 36.4146 39.7975C36.4546 39.6374 36.5747 39.5574 36.7347 39.5574ZM36.4146 35.1956V34.8355C36.6147 34.8355 36.6547 34.9555 36.8548 34.9555C36.8148 35.1956 36.6547 35.2356 36.4146 35.1956ZM33.0132 28.5929L33.0532 28.4328L32.8931 28.3928C32.8931 27.8726 32.613 28.0327 32.7731 27.4724C32.9732 27.6725 33.3333 27.7125 33.5334 27.9126V28.4728C33.3333 28.5129 33.2133 28.793 33.0132 28.5929ZM33.3333 29.7134H33.0132C33.0532 29.5533 33.2133 29.5533 33.2133 29.3532C33.3733 29.3932 33.3333 29.5933 33.3333 29.7134ZM33.6535 18.6288C33.6535 18.8689 33.1733 18.6688 33.0132 18.7488C33.0132 18.5087 33.4534 18.7088 33.6535 18.6288ZM33.4534 13.7068C33.5334 13.9068 33.9736 13.6667 33.8936 14.0669C33.6935 13.9869 33.4134 14.0269 33.4534 13.7068ZM33.4534 24.7913C33.4534 24.5512 33.7335 24.6313 33.6535 24.3511H34.0936C33.9336 24.5512 33.8535 24.8313 33.4534 24.7913ZM34.0936 25.5917C33.4134 25.4716 33.8535 25.9518 34.0936 25.5917V25.5917ZM33.2133 25.5917C33.3333 25.6317 33.2933 25.7117 33.2133 25.7117C33.3733 26.0318 33.2933 25.8318 33.0132 25.8318C33.0532 25.7117 33.2133 25.7517 33.2133 25.5917ZM33.1332 26.9922C33.2933 26.7521 33.8135 26.9122 34.0136 26.7521C33.9736 26.9922 33.8935 27.2323 33.8135 27.4324C33.5334 27.3124 33.3333 27.1123 33.1332 26.9922ZM33.7735 29.3932C33.9736 29.5533 34.0136 29.7934 33.8535 29.9935L33.7735 30.0735C33.5734 30.0735 33.8936 29.6733 33.7735 29.3932ZM34.0936 30.5137C34.0536 30.7938 33.7735 30.8738 33.7735 31.194C33.3333 31.0739 33.6535 30.3936 34.0936 30.5137ZM34.4538 30.8738L34.5738 30.9138L34.6939 30.8738C34.7339 31.0739 34.934 31.1539 34.894 31.4341C34.6939 31.5541 34.6539 31.8742 34.4538 31.9943L34.4138 31.8342L34.2537 31.7942C33.9336 31.4741 34.2137 31.0339 34.4538 30.8738ZM34.4538 24.7913C34.5338 24.3912 35.014 25.0714 34.6539 25.1515H34.4538C34.4938 25.0714 34.6138 24.8313 34.4538 24.7913ZM35.2941 27.7926C35.054 27.7525 35.094 27.4724 34.8539 27.4324C35.014 27.1123 35.4542 27.4324 35.2941 27.7926ZM35.2941 26.0719C35.4542 25.3916 35.8143 26.472 35.2941 26.0719V26.0719ZM35.094 28.3528C34.974 28.1927 34.7739 28.0727 34.7739 27.7926C34.934 27.9126 35.3742 28.0327 35.094 28.3528ZM34.6539 26.1919C34.3337 26.0719 34.894 26.0318 34.7739 25.7517C34.934 25.7917 34.8539 26.0318 34.894 26.1919C34.7739 26.1119 34.6939 26.0318 34.6539 26.1919ZM34.3337 27.4324C34.2137 28.1127 34.8139 27.4724 34.3337 27.4324V27.4324ZM34.5338 28.793C33.9336 29.1131 34.2537 29.4332 34.5338 28.793V28.793ZM34.5338 32.4745C34.6539 32.5545 34.8139 32.5945 34.974 32.5945C34.974 32.9147 34.4538 32.8747 34.5338 32.4745ZM35.094 33.9551C35.014 34.1552 34.8539 34.3953 34.6539 34.1952C34.7339 34.0351 34.894 33.9551 35.094 33.9551ZM34.8539 30.0735C35.014 29.9134 34.894 29.5133 35.1741 29.5133L35.2941 29.6733L35.4942 29.6333C35.4942 29.7134 35.5342 29.7534 35.6143 29.7534L35.5742 29.9134L35.7343 29.8734C35.8143 30.2736 35.6143 30.3536 35.5342 30.5537C35.1341 30.5537 35.1741 30.1535 34.8539 30.0735ZM34.8539 22.2703C34.4938 21.8701 35.3742 21.3499 34.6539 21.2299L34.6939 21.0698L34.5338 21.0298C34.4938 20.8697 34.3737 20.7497 34.2137 20.6696H34.0936V20.7897C34.0136 20.6696 33.8135 20.7096 33.7735 20.5496L33.7335 20.3895L33.6935 20.2295C34.2937 19.8293 35.3742 20.0694 35.9744 19.8693C35.6543 20.4695 36.4146 20.8697 35.8544 21.2299C35.8944 21.3899 36.0144 21.1898 36.1745 21.2299C36.2545 21.3899 36.0544 21.8301 36.2945 21.7901C36.1345 22.3103 35.4142 22.1903 34.8539 22.2703ZM34.8539 9.26494C35.1341 9.22492 35.1341 9.50504 35.1741 9.70512H34.6138C34.6539 9.46502 34.934 9.54505 34.8539 9.26494ZM35.2141 7.86436C35.3742 7.98441 35.4942 8.22451 35.4142 8.42459C35.1741 8.42459 35.1741 8.14448 35.2141 7.86436ZM34.4538 9.14489C34.5338 9.02484 34.5738 8.86477 34.5738 8.70471C34.8539 8.70471 34.7739 9.14489 34.4538 9.14489ZM34.7739 13.2666H35.3341C35.1341 13.8268 35.4942 13.9869 35.5342 14.5471C35.1341 14.187 34.2937 14.307 34.2137 13.6267C34.4938 13.2266 35.054 13.8668 34.7739 13.2666ZM34.6539 15.8677C35.014 15.8276 34.894 16.2278 35.2941 16.1078C35.1741 16.588 34.974 16.788 34.2937 16.9081L34.3337 16.748L34.1737 16.708C34.3337 16.3879 34.6539 16.3078 34.6539 15.8677ZM36.0945 2.38211C36.5747 2.38211 36.0544 2.74225 36.2145 3.06239C35.9344 3.06239 36.1345 2.58219 36.0945 2.38211ZM35.9744 16.3479C36.2145 16.9481 36.2545 15.9477 35.9744 16.3479V16.3479ZM36.2945 17.3883C36.2145 17.7484 36.0144 17.5483 35.7343 17.5083C35.8143 17.4283 35.8544 17.3082 35.8544 17.1482C36.2145 17.0281 36.1345 17.3082 36.2945 17.3883ZM36.9348 26.512C36.8148 26.7922 36.5747 26.9522 36.2945 26.9522C36.1745 26.512 36.5747 26.472 36.9348 26.512ZM37.295 10.6255C37.495 10.8256 37.0549 11.3458 36.7347 11.4258C36.4146 11.0257 37.0148 10.7856 37.295 10.6255ZM37.1749 8.90479C37.375 8.90479 37.1349 9.46502 36.8548 9.34497C36.7347 8.98482 37.2149 9.22492 37.1749 8.90479ZM38.0553 11.866C38.3354 11.9861 38.0953 12.7464 37.8552 12.3062C37.8552 12.1461 38.1753 12.2262 38.0553 11.866ZM38.5755 19.4291C38.8956 19.5492 39.1357 19.7893 39.2157 20.1094C38.9356 19.7493 38.8156 20.3895 38.5755 20.1094L38.6155 19.9493L38.4554 19.9093C38.2153 19.5892 38.6555 19.7893 38.5755 19.4291ZM39.6959 10.3854L39.6559 10.5455L39.816 10.5855C39.5359 10.8656 39.1357 11.0257 38.7355 10.9456C38.8556 10.7055 38.9756 10.5054 39.0557 10.2653C39.2958 10.2653 39.3358 10.4654 39.6959 10.3854ZM39.4558 7.30413V7.06403C39.6959 7.02402 39.6559 7.2241 39.6559 7.42418C39.6159 7.38416 39.5759 7.30413 39.4558 7.30413ZM40.3362 7.98441C40.2162 8.26453 39.816 7.58425 40.1361 7.42418C40.3762 7.54423 39.9761 7.86436 40.3362 7.98441ZM40.2162 14.8672C40.3762 15.1874 40.6563 15.3875 40.3362 15.6676C40.0961 15.5475 39.896 15.2674 39.896 14.9873C40.0561 14.9873 40.2162 14.9873 40.2162 14.8672ZM41.2166 8.90479C41.3366 8.70471 41.3766 8.46461 41.3366 8.22451C41.6968 8.26453 41.5767 8.94481 41.2166 8.90479ZM41.5367 6.94398C41.6968 6.90397 41.7368 7.06403 41.8568 7.06403C41.9369 7.30413 41.3766 7.2241 41.5367 6.94398ZM41.3366 15.5475C41.0165 15.9877 41.7368 16.0277 41.3366 15.5475V15.5475ZM41.2166 3.98276C40.9364 3.98276 41.1765 3.5826 41.2166 3.54258C41.3766 3.5826 41.3766 3.74267 41.5367 3.78268C41.5367 3.94275 41.2166 3.78268 41.2166 3.98276ZM41.3366 15.0673C41.2966 15.2274 41.1765 15.3074 41.0165 15.3074C41.0165 15.1474 41.1765 15.0673 41.3366 15.0673ZM41.2166 20.9097C41.2566 20.8697 40.8964 20.7897 40.8964 20.7897C40.8564 20.6296 41.4967 20.6296 41.2166 20.9097ZM41.4567 25.3916C41.5367 25.6317 41.7368 25.7917 41.6567 26.1919L41.4967 26.1519L41.5367 26.312C41.4967 26.392 41.4166 26.432 41.4166 26.5521L41.2566 26.5921L41.2966 26.7521C40.7764 26.7922 40.6163 27.2723 39.9761 27.1923C40.5763 26.6721 40.4563 25.4716 41.4567 25.3916ZM40.4563 28.1127C40.7764 27.7125 41.0965 28.0327 41.2166 27.4324H41.5367C41.6968 27.5925 41.6567 27.9126 41.6567 28.2327C41.2966 28.3528 40.9364 28.4328 40.5763 28.4728L40.6163 28.2728L40.4563 28.1127ZM39.896 20.3495C40.0561 20.0694 40.2562 20.1494 40.5363 20.2295C40.4963 20.8297 40.1761 20.6296 39.896 20.3495ZM39.4558 19.6692C39.5359 19.4291 39.936 19.8293 39.896 20.1094C39.6159 20.1094 39.736 19.6692 39.4558 19.6692ZM40.2562 19.3091C40.2562 19.5892 39.896 19.3491 39.816 19.3091C39.816 19.029 40.1761 19.2691 40.2562 19.3091ZM39.2558 18.5087C39.2958 18.1086 39.6959 18.4287 39.896 18.5087C39.736 18.6688 39.4558 18.5488 39.2558 18.5087ZM39.4558 24.7113V24.9514H39.2558V24.7113H39.4558ZM39.0157 12.5463C39.0157 12.3062 39.4959 12.5063 39.6559 12.4262C39.6959 13.0265 39.2558 12.7064 39.0157 12.5463ZM38.9356 23.5508C38.7756 23.5108 38.6955 23.3507 38.7355 23.1907C38.8556 23.2307 38.9356 23.3908 38.9356 23.5508ZM38.0553 17.4683C38.2553 17.5083 38.5355 17.5083 38.4954 17.8285C38.2153 17.8685 38.0152 17.7884 38.0553 17.4683ZM37.6151 13.0265V12.4663C38.2153 12.4262 38.2153 13.4267 37.7351 13.1465L37.7751 12.9865L37.6151 13.0265ZM37.375 10.3854C37.535 10.2654 37.6551 10.0653 37.9352 10.0253C37.8552 10.2654 37.7351 10.4654 37.375 10.3854ZM37.6151 10.8656C37.8952 11.0257 37.6951 11.6259 37.295 11.4258C37.415 11.2257 37.535 11.0657 37.6151 10.8656ZM37.295 11.6659C36.8948 12.1861 37.9352 11.786 37.295 11.6659V11.6659ZM37.1749 12.7864C36.8948 12.7864 37.1349 12.3862 37.1749 12.3462C37.455 12.3462 37.2149 12.7064 37.1749 12.7864ZM37.0548 19.8693V19.7893L37.2149 19.7493L37.1749 19.5892C37.535 19.5892 37.9352 19.5492 38.0553 19.8293L37.8952 19.8693L37.9352 20.0294H37.8152C37.8152 20.5496 38.1753 20.6296 38.6955 20.5896C38.7756 21.55 37.415 21.8701 36.6147 21.8301C36.5346 21.3099 36.9748 21.3499 37.0548 21.0298C36.9348 20.5496 36.4146 20.4695 36.4146 19.8693C36.6147 19.9894 36.8548 19.9894 37.0548 19.8693ZM37.495 25.7117C37.415 25.2715 38.2553 25.7517 38.1353 25.2715C38.3354 25.3115 38.6155 25.3115 38.5755 25.6317C38.0152 25.5917 37.9352 26.1519 37.495 25.7117ZM37.9352 33.1548C37.5751 32.7946 37.6151 33.595 37.9352 33.1548V33.1548ZM36.8548 30.3936C36.4546 30.2736 36.7747 30.0735 36.7347 29.7134H37.1749C37.2149 30.1135 36.7747 29.9935 36.8548 30.3936ZM36.6147 29.0331C36.3746 28.953 36.4946 28.3128 36.6147 28.2327C36.9348 28.3528 36.6147 28.833 36.6147 29.0331ZM36.8548 26.312C36.4546 26.1519 37.0949 26.1519 36.9748 25.8718C37.0549 25.9518 37.1749 25.9918 37.295 25.9918C37.2549 26.1919 36.8548 26.0719 36.8548 26.312ZM37.375 29.0331C37.6151 29.1131 37.6151 29.1931 37.495 29.3932H37.295C37.2549 29.1931 37.375 29.1931 37.375 29.0331ZM37.6151 23.1907C37.8552 23.0306 37.7351 22.4704 38.1753 22.5104C38.0953 22.8305 37.8952 23.0706 37.6151 23.1907ZM38.6955 23.4308C38.7355 23.6308 38.5755 23.6308 38.5755 23.7909C38.3754 23.8309 38.4154 23.2707 38.6955 23.4308ZM37.375 39.4374C37.455 39.6775 37.0549 39.7975 37.495 39.7975C37.415 39.9576 37.1349 39.9576 36.9348 40.0376C36.9348 39.6374 37.0949 39.4774 37.375 39.4374ZM37.295 34.0751C37.2149 33.635 38.0553 33.4349 38.1753 33.835V34.0351L38.0553 34.1952C37.6551 34.2752 37.6151 33.9951 37.295 34.0751ZM38.0553 29.9535C38.2153 29.5533 38.2553 30.1535 38.1753 30.1936C38.0953 30.1936 38.0152 30.0335 38.0553 29.9535ZM38.1353 28.5929C38.4954 28.5529 38.4154 28.913 38.6955 28.953C38.6955 29.1531 38.3354 29.0331 38.3754 29.3132C38.0953 29.2732 38.1753 28.873 38.1353 28.5929ZM38.2553 38.1968C38.1753 37.7166 38.4954 37.6766 38.6955 37.5166C38.9356 37.6766 38.4954 38.1168 38.2553 38.1968ZM41.8968 17.4683C41.3366 17.1882 41.4567 17.8685 41.8968 17.4683V17.4683ZM43.0973 27.9126L42.9373 27.9526L42.9773 28.1127C42.6171 28.0327 42.5371 28.2728 42.217 28.2327C42.0569 27.9526 42.0169 27.5925 41.8968 27.3124C42.257 26.5921 43.0173 27.2724 43.0973 27.9126ZM43.6176 8.34456C43.3374 8.34456 43.3775 7.90438 43.4975 7.78433C43.7776 7.74431 43.5775 8.18449 43.6176 8.34456ZM43.4175 5.70347C43.2574 5.62344 43.0573 5.54341 43.0973 5.26329C43.3374 5.18326 43.5375 4.90314 43.7376 5.14324C43.6576 5.34333 43.2974 5.26329 43.4175 5.70347ZM43.5375 14.0669C43.3374 14.4671 43.2574 13.8268 43.2974 13.6267C43.6176 13.5067 43.2174 14.1469 43.5375 14.0669ZM43.6176 16.4679C43.4575 16.4279 43.5375 16.1878 43.4975 16.0277C43.6976 16.1078 43.7776 16.3078 43.6176 16.4679ZM43.1774 6.94398C42.5771 6.90397 43.0173 6.54382 43.0573 6.2637C43.5775 6.2637 43.0173 6.62385 43.1774 6.94398ZM43.0973 7.86436C43.0573 7.9444 42.9773 7.98441 42.9773 8.10446C42.8973 8.06444 42.8572 7.98441 42.7772 7.98441C42.7772 7.90438 42.8973 7.86436 42.8973 7.74431C42.9373 7.78433 42.9773 7.86436 43.0973 7.86436ZM43.1774 21.1498C43.0173 21.3099 42.9773 21.63 42.5371 21.51C42.7372 21.2699 42.4171 20.8697 42.5371 20.3495C42.9373 20.4295 43.0973 20.7497 43.1774 21.1498ZM42.0969 5.82352C42.0969 5.58342 42.4971 5.78351 42.6572 5.70347C42.6572 5.94357 42.257 5.74349 42.0969 5.82352ZM42.297 8.46461C42.217 8.42459 42.177 8.34456 42.0969 8.34456V8.10446C42.337 8.06444 42.297 8.26453 42.297 8.46461ZM42.217 22.6304C42.6171 22.8305 41.9369 22.8705 42.0169 23.0706C41.6968 22.9906 42.257 22.8305 42.217 22.6304ZM42.0969 29.2732L42.297 29.3132L42.4171 29.1531C42.5771 29.2732 42.6972 29.4733 42.8572 29.5933C42.6972 29.8334 42.1369 30.0335 41.9769 29.9535C42.0169 29.5533 41.9769 29.3532 42.0969 29.2732ZM42.9773 33.5149L43.0173 33.675L43.1774 33.635C43.3775 33.755 43.7376 33.675 43.8176 33.8751C43.6576 33.9151 43.5775 34.0751 43.6176 34.2352L43.4575 34.1952L43.4175 34.3553C43.3775 34.6354 43.1374 34.6354 42.9773 34.4753L42.8172 34.4353L42.6572 34.4753C42.7772 33.9551 42.6171 33.795 42.9773 33.5149ZM42.8172 34.7954L42.9773 34.7554C43.2574 34.7554 43.5775 34.7154 43.8577 34.6354L43.8176 34.7954L43.9777 34.8355C43.9377 35.0355 43.7376 35.1156 43.7776 35.3957H43.5775L43.5375 35.5558C43.0973 35.4357 42.6572 35.3157 42.6572 34.7554L42.8172 34.7954ZM43.2974 33.2748L43.2574 33.1148L43.0973 33.1548C43.1374 32.9547 42.9773 32.9147 42.9773 33.0347C42.5371 31.9143 43.6576 31.7542 44.0577 31.8742L44.0177 32.0743L44.1778 32.1944C44.0577 32.7146 43.7376 33.0747 43.2974 33.2748ZM43.7376 26.7521C43.6175 27.5124 43.7776 26.392 43.7376 26.7521V26.7521ZM44.0577 17.1482V16.9081C44.2978 16.8681 44.2578 17.0681 44.2578 17.2682C44.2178 17.2282 44.1778 17.1482 44.0577 17.1482ZM44.0577 13.3466C44.2978 13.4267 44.0978 13.9869 44.1778 14.267C43.7376 14.1469 44.1778 13.8268 44.0577 13.3466ZM43.4175 10.6255C43.3775 10.2654 43.7376 10.9056 43.7376 10.5055C44.1378 10.7055 43.4975 10.8256 43.4175 10.6255ZM43.4175 2.38211C43.7376 1.74184 44.0978 2.18202 43.4175 2.38211V2.38211ZM43.7376 4.34291L43.6976 4.50298L43.8577 4.543V4.66304C43.2174 4.543 42.6572 5.02319 42.337 4.543C42.5371 4.38293 42.4971 3.94275 42.8973 3.98276C42.8973 4.3029 43.3374 4.18285 43.7376 4.34291ZM42.6572 2.94234C42.7372 3.3425 42.217 3.1024 42.337 3.50257C42.1369 3.46255 42.337 2.98235 41.8968 3.14242C41.9769 2.94234 42.5371 2.50216 42.6572 2.94234ZM42.297 5.26329C42.4171 5.66346 41.9769 5.46337 41.7368 5.50339C41.8968 5.30331 42.0969 5.18326 42.297 5.26329ZM41.7768 6.62385C41.5367 6.58383 41.3766 6.38375 41.3366 6.18367C41.4967 6.30372 41.8168 6.2637 41.7768 6.62385ZM41.6567 0.541349C41.6167 1.1416 41.3366 0.661398 41.0165 0.661398C41.2166 0.381283 41.3766 0.781448 41.6567 0.541349ZM40.8964 10.9456C41.0965 11.0657 41.0165 11.4258 41.0965 11.6259C40.8164 11.6259 40.8964 11.2658 40.8964 10.9456ZM41.0165 21.0298C40.9765 21.1898 40.6964 21.0698 40.6964 21.2699C40.3362 21.1098 40.8564 20.7497 41.0165 21.0298ZM40.4563 3.98276C40.6964 3.98276 40.4963 4.46296 40.5763 4.66304C40.4563 4.58301 40.4563 4.38293 40.2562 4.42295C40.2562 4.22286 40.5363 4.3029 40.4563 3.98276ZM40.2562 5.70347C39.896 6.10364 40.6563 6.06362 40.2562 5.70347V5.70347ZM39.816 4.34291C39.896 4.42295 40.0161 4.46296 40.1361 4.46296C40.1761 4.74308 39.816 4.58301 39.816 4.82311C39.4558 4.70306 39.896 4.543 39.816 4.34291ZM39.6959 5.26329C39.776 5.50339 39.4959 5.42336 39.4959 5.62344C39.2157 5.54341 39.4558 5.14324 39.6959 5.26329ZM39.3758 7.74431C39.4959 7.74431 39.4558 7.9444 39.4959 8.10446C39.2558 8.06444 39.0957 8.14448 39.0557 8.34456C38.6155 8.06445 39.2958 7.9444 39.3758 7.74431ZM38.0553 5.34333C38.3754 5.18326 38.3754 5.86354 38.0553 5.70347V5.34333ZM38.4954 6.14365C38.5755 6.5038 38.1353 6.30372 38.1753 6.58384C38.0553 6.54382 38.0953 6.34374 37.9752 6.34374C38.0152 6.22369 38.2954 6.22369 38.4954 6.14365ZM38.5755 8.34456L38.5355 8.50463L38.6955 8.54464C38.6155 8.78474 38.4154 8.86477 38.1353 8.90479L38.1753 8.74473L38.0152 8.70471C38.0152 8.62467 37.9352 8.58466 37.8952 8.62467C37.8552 8.62467 37.8152 8.66469 37.8152 8.70471C37.495 8.50463 38.3754 7.9444 38.5755 8.34456ZM36.7347 8.66469C36.9348 8.46461 37.2149 8.38458 37.495 8.42459C37.415 8.94481 37.1749 8.62468 36.7347 8.66469ZM37.295 4.66304C37.2149 4.82311 37.1349 5.02319 36.8548 5.02319C36.9348 4.86313 37.0148 4.66304 37.295 4.66304ZM37.0548 6.94398C37.0548 7.2241 36.8148 7.4642 36.4946 7.50421C36.5346 7.2241 36.7747 6.984 37.0548 6.94398ZM36.6147 1.22163C36.6547 1.62179 36.2945 1.58178 36.1745 1.78186C35.8544 1.58178 36.2545 1.14159 36.6147 1.22163ZM36.0945 10.1453C35.3742 10.0253 35.8544 10.5055 36.0945 10.1453V10.1453ZM35.8544 9.46502H35.5342V9.22492H35.8544V9.46502ZM35.5342 4.22286C35.3742 4.18285 35.4542 3.94275 35.4142 3.78268H35.6143C35.5742 3.86272 35.6543 3.90273 35.7343 3.90273C35.6943 4.02278 35.5742 4.0628 35.5342 4.22286ZM35.6543 0.781447C36.0144 1.02155 35.2141 1.34168 35.094 1.1416C35.1341 0.861481 35.5742 1.02155 35.6543 0.781447ZM35.2141 2.26206C35.4142 2.34209 35.2941 2.54217 35.094 2.50215C35.094 2.6222 35.1341 2.70224 35.2141 2.74225C35.2141 2.98235 34.8139 2.78227 34.6539 2.8623C34.6138 2.42212 35.1741 2.62221 35.2141 2.26206ZM34.5338 1.82187C34.4538 1.82187 34.4138 1.86189 34.4138 1.94193C34.2937 1.94193 34.3337 1.74184 34.2937 1.58178C34.4938 1.54176 34.5338 1.66181 34.5338 1.82187ZM34.5338 2.74225C34.4538 2.90232 34.4538 3.18244 34.0936 3.1024C34.2137 2.90232 34.2537 2.70224 34.5338 2.74225ZM34.0136 4.42295C34.3737 4.3029 34.1737 4.78309 34.2137 4.98318C34.0136 4.94316 33.7735 4.66304 34.0136 4.42295ZM34.0136 13.3466C33.6134 13.4267 33.4934 13.2266 33.2533 13.1065C33.3333 12.9465 34.0136 13.0665 34.0136 13.3466ZM33.4534 14.8672V15.1073H33.1332V14.8672H33.4534ZM33.4534 9.02484C33.7335 9.10487 33.4934 9.58507 33.2533 9.46502C33.1332 9.14489 33.4534 9.26494 33.4534 9.02484ZM33.6535 11.1857C33.7735 11.5859 33.2133 11.3458 33.0132 11.4258C33.1733 11.2658 33.4134 11.1857 33.6535 11.1857ZM32.7731 6.38375C32.613 6.2637 32.493 6.0236 32.573 5.82352C32.9332 5.70347 32.7331 6.18367 32.7731 6.38375ZM32.8931 14.267C32.9332 14.5071 32.4129 14.4271 32.573 14.1469C32.7331 14.1469 32.7731 14.267 32.8931 14.267ZM31.8127 8.78474C31.5326 8.42459 31.8927 8.02443 31.9327 7.62426C32.453 7.50421 32.2129 8.14448 32.573 8.18449C32.3329 8.42459 32.0928 8.62467 31.8127 8.78474ZM31.9327 6.62385C32.2129 6.62385 32.1728 7.06403 32.0528 7.18408C31.7727 7.2241 31.9728 6.78392 31.9327 6.62385ZM32.1328 5.34333C32.2929 5.30331 32.3329 5.46337 32.453 5.46337C32.493 5.70347 31.9728 5.62344 32.1328 5.34333ZM31.6926 3.86272C31.9327 3.8227 31.9728 3.94275 32.1328 3.98276C32.1728 4.18285 31.5326 4.18285 31.6926 3.86272ZM32.1328 10.8656C31.8527 10.9056 31.8927 10.6655 31.5726 10.7455C31.5726 10.5455 32.2929 10.5054 32.1328 10.8656ZM32.3729 11.6659C32.2129 11.906 31.8927 11.9861 31.6526 11.786C31.6526 11.786 31.6126 11.786 31.6126 11.746C31.7327 11.4658 32.0928 11.5459 32.3729 11.6659ZM31.5726 17.2682C32.4129 17.3483 32.9332 16.5479 33.5334 17.0281L33.3733 17.0681L33.4134 17.2282C32.8931 17.5083 31.6926 18.3487 31.3325 17.4683L31.4926 17.4283L31.5726 17.2682ZM33.1332 36.236C32.8131 36.116 33.1733 35.7558 33.1332 35.5558C33.6935 35.6358 32.9332 35.8759 33.1332 36.236ZM32.7731 34.8755C32.7731 34.6754 32.653 34.6354 32.653 34.4353C32.8931 34.4353 32.9732 34.6354 33.2933 34.5553C33.2533 34.7554 33.0532 34.8355 32.7731 34.8755ZM32.6931 36.7963H32.3729L32.4129 36.5962L32.2529 36.4761C32.1728 36.076 32.453 36.076 32.6931 36.036C32.653 36.4761 32.8131 36.4761 32.6931 36.7963ZM32.6931 37.8367C32.533 37.7967 32.533 37.6366 32.3729 37.5966C32.2929 37.2765 32.573 37.3565 32.573 37.1564C32.8131 37.1564 32.613 37.6366 32.6931 37.8367ZM32.573 38.3169C32.4129 38.2769 32.3329 38.1168 32.3729 37.9567C32.493 37.9968 32.573 38.1568 32.573 38.3169ZM32.453 35.3157C32.0928 35.3157 32.0928 34.9555 31.6926 34.9555C32.0928 34.7154 31.8527 34.5954 32.1328 34.2752C32.4129 34.5153 32.573 34.8355 32.6931 35.1956C32.573 35.1956 32.493 35.2356 32.453 35.3157ZM28.2112 35.1956C28.4513 35.1556 28.3313 35.5157 28.5313 35.5558C28.3313 35.9159 27.8511 35.3957 28.2112 35.1956ZM28.5313 36.8363C28.4913 36.9163 28.4113 36.9563 28.4113 37.0764H28.1712C28.1712 36.7563 27.9711 36.8363 28.1712 36.6362C28.2912 36.6762 28.2912 36.8363 28.5313 36.8363ZM27.9711 31.7942C28.0111 31.5141 28.4513 31.7142 28.5313 31.7942C28.4113 32.1143 28.2512 31.6341 27.9711 31.7942ZM27.2108 26.7521C27.5709 26.6721 27.651 26.9122 27.9711 26.8722L27.9311 27.0322L28.0912 27.0723C27.9711 27.5124 26.9307 27.4324 27.2108 26.7521ZM27.5309 28.3528V27.9126C27.9711 27.8326 27.8911 28.3928 27.5309 28.3528ZM26.7706 18.9889C27.0107 18.8689 26.7306 18.4687 26.6506 18.7488L26.4905 18.7088L26.4505 18.8689C26.0103 18.7488 26.3705 18.3087 26.3304 17.9485H26.4505V17.8285C26.9707 17.9885 27.4509 18.3087 27.771 18.7488C27.811 19.149 27.2508 19.5492 26.8907 19.189L26.9307 19.029L26.7706 18.9889ZM26.5705 23.911V23.6709H26.7706V23.911H26.5705ZM26.4505 27.6725C26.2904 28.9931 26.8907 27.9126 26.4505 27.6725V27.6725ZM26.7706 22.8705C26.4105 22.5104 26.4505 23.2707 26.7706 22.8705V22.8705ZM25.4501 29.5933C25.37 29.4733 25.33 29.3132 25.33 29.1531C25.5701 29.1131 25.7702 29.1531 25.9703 29.2732C25.9703 29.5933 26.0103 29.9134 25.8502 30.0735C25.6101 30.1135 25.7302 29.7534 25.5301 29.7134L25.5701 29.5533L25.4501 29.5933ZM25.1299 27.4324C25.33 27.6325 25.25 27.4324 25.5701 27.4324C25.4501 27.6325 25.5701 28.0327 25.25 27.9926C25.33 27.6725 25.0899 27.7125 25.1299 27.4324ZM23.4893 24.9114C23.2892 24.8313 23.4092 24.6313 23.6093 24.6713C23.6493 24.5912 23.5693 24.5512 23.4893 24.5512C23.4893 24.3111 23.9695 24.5112 24.1295 24.4312C24.1695 24.8714 23.4893 24.5112 23.4893 24.9114ZM24.1295 26.9922C24.0495 27.1923 23.8894 27.4324 23.6894 27.2323C23.8094 27.0723 23.9695 26.9522 24.1295 26.9922ZM23.1691 27.4324C23.0491 27.1123 23.1291 26.9922 23.1691 26.512C23.4092 26.472 23.4493 26.5921 23.6093 26.6321C23.2492 26.9122 23.7294 27.3924 23.1691 27.4324ZM23.6894 13.7068C23.4493 13.5867 23.4492 13.2266 23.2492 13.0265C23.5693 12.7064 23.6893 12.1861 24.0095 11.866C24.7698 12.4663 23.9695 13.2266 23.6894 13.7068ZM24.4897 13.1465C24.5297 13.4267 24.4497 13.6267 24.1695 13.5867C24.1695 13.3866 24.1695 13.1065 24.4897 13.1465ZM23.3692 20.4695C23.4092 20.3095 23.5693 20.2695 23.5693 20.1094C23.7694 20.1494 23.8094 20.3095 23.8094 20.5496C23.5693 20.6296 23.5293 20.5096 23.3692 20.4695ZM23.8094 22.0702C23.4893 22.0702 23.0891 22.1502 23.1691 21.7101C23.4893 21.9502 23.8094 21.51 23.8094 22.0702ZM23.4893 15.8677C23.1691 15.7076 23.6093 15.4675 23.4893 15.1874H23.8094C23.9294 15.6276 23.5293 15.5875 23.4893 15.8677ZM23.0491 14.6271C22.929 14.267 23.2092 14.347 23.2492 14.187C23.4893 14.187 23.2892 14.7072 23.0491 14.6271ZM23.3692 17.4683C23.6893 17.7084 23.0491 17.9085 23.0491 18.1486C22.6489 17.8285 23.3292 17.7084 23.3692 17.4683ZM23.9294 18.5087C23.6894 18.4687 24.0495 18.1886 24.0495 18.0686C24.3696 18.1486 23.9695 18.4287 23.9294 18.5087ZM23.9294 14.9873C23.9294 14.8672 23.8094 14.9073 23.7294 14.8672C23.8894 14.5871 23.7694 14.0669 23.9294 13.8268C24.3696 13.7468 24.2096 14.307 24.4897 14.387C24.2896 14.5871 24.2496 14.9073 23.9294 14.9873ZM24.4897 26.392C24.6097 26.392 24.6898 26.432 24.6898 26.512V26.7521H24.8898C24.9299 27.1523 24.8098 27.3524 24.5697 27.4324L24.5297 27.2723L24.3696 27.2323C23.9695 26.9522 24.6097 26.7922 24.4897 26.392ZM24.5697 23.1907C24.6497 22.8705 24.9299 23.2707 25.1299 23.1907C25.0499 23.5908 24.8098 23.2707 24.5697 23.1907ZM25.1299 24.7913C24.9299 24.7913 24.8898 24.6313 24.6898 24.6713C24.6497 24.4712 25.29 24.4712 25.1299 24.7913ZM24.8098 26.1919C24.7298 25.8718 25.0099 25.9518 25.0099 25.7517C25.21 25.7917 25.25 25.9518 25.21 26.1919H24.8098ZM25.8903 13.0265C25.9303 13.3866 25.7302 13.4667 25.6902 13.7068C25.29 13.6267 25.5301 12.9865 25.8903 13.0265ZM25.5701 8.90479C25.6902 8.94481 25.6502 9.14489 25.7702 9.14489C25.7302 9.46502 25.4501 9.14489 25.5701 8.90479ZM26.1304 11.6659V12.1061C25.8102 12.1061 25.7302 11.5459 26.0103 11.5459V11.6659H26.1304ZM27.4109 10.5055L27.5709 10.4654L27.5309 10.3054H28.6114C28.3313 10.7455 27.8911 11.0257 27.4109 11.1057C27.2108 10.8656 27.4909 10.8656 27.4109 10.5055ZM31.9327 23.1907C31.7727 23.991 30.3321 23.3908 29.8519 23.4308C30.212 22.5904 31.0924 23.0706 31.9327 23.1907ZM30.2921 18.0686C30.6922 18.3887 30.7723 17.6284 30.2921 18.0686V18.0686ZM32.3729 21.59C31.7327 21.3099 31.8127 21.9902 32.3729 21.59V21.59ZM32.2529 23.1907C32.0128 23.2307 31.8927 23.1106 31.9327 22.8305C32.1728 22.8305 32.2529 22.9506 32.2529 23.1907ZM32.3729 19.069C31.0924 18.9489 31.5726 19.4291 32.3729 19.069V19.069ZM31.8127 20.4695C31.8127 20.6696 31.0924 20.7096 31.2525 20.3495C31.4525 20.5496 31.5726 20.1894 31.8127 20.4695ZM31.8127 21.2699C31.5326 21.2299 31.2525 21.1098 31.0524 20.9097C31.2124 20.6696 32.0128 20.7497 31.8127 21.2699ZM31.6926 24.111C31.6526 24.2711 31.5326 24.3511 31.3725 24.3511C31.4125 24.1911 31.5326 24.111 31.6926 24.111ZM30.6122 29.1531C30.3321 29.1931 30.3321 28.913 30.2921 28.7129C30.4121 28.6329 30.5722 28.5929 30.7322 28.5929C30.7723 28.873 30.5322 28.833 30.6122 29.1531ZM30.3721 25.8318C30.3321 25.5917 30.4521 25.5116 30.4922 25.3916C30.8523 25.4716 30.9323 25.8718 31.1324 26.0719C30.7322 26.1519 30.7322 25.8318 30.3721 25.8318ZM30.8123 26.7521C31.0524 26.7922 31.0124 27.0723 31.2525 27.1123C31.0524 27.4724 30.5322 26.9522 30.8123 26.7521ZM30.172 24.111C29.8119 24.2311 29.8919 24.1511 29.6118 23.991C29.6518 23.6709 30.212 23.7509 30.172 24.111ZM29.4117 19.9894C29.6518 19.8293 29.8919 19.7493 30.172 19.7493C30.132 20.1094 29.6918 19.9894 29.4117 19.9894ZM29.0516 28.793C29.6118 28.5129 29.8919 29.1931 29.0516 28.793V28.793ZM28.6114 26.512C28.7314 26.312 28.8115 26.1119 29.1716 26.1519C28.9715 26.2719 29.0115 26.5921 28.6114 26.512ZM29.0516 23.1907C28.8515 23.1507 28.8515 22.8705 28.4913 22.9506L28.5313 22.8305L28.4913 22.7105C28.4513 22.4304 28.0111 22.3903 28.2912 22.1502C28.6914 22.0702 28.8115 22.2703 29.0516 22.3903V23.1907ZM28.7314 20.1094C28.4113 20.1894 28.4913 19.8693 28.2912 19.8693C28.2512 19.7493 28.8515 19.8293 28.7314 20.1094ZM28.5313 19.5492C28.2912 19.5892 28.1712 19.4691 28.2112 19.229C28.2912 19.3091 28.6114 19.229 28.5313 19.5492ZM28.2912 24.111C28.3313 24.3111 28.1712 24.3111 28.1712 24.4712H27.9711C27.9311 24.2711 28.0912 24.2711 28.0912 24.111H28.2912ZM27.651 25.5917C27.5709 25.7917 27.5309 25.5116 27.5309 25.3516C27.2108 25.2315 27.771 25.2715 27.651 25.5917ZM27.2108 23.7909C27.4109 23.5908 27.691 23.5108 27.9711 23.5508C28.0912 24.111 27.2908 24.111 27.2108 23.7909ZM27.9711 20.2295C27.9711 20.4695 27.5709 20.2695 27.4109 20.3495C27.4109 20.1094 27.811 20.3095 27.9711 20.2295ZM27.9711 19.3091C27.611 18.9489 27.651 19.7493 27.9711 19.3091V19.3091ZM27.4109 12.5463C27.2508 12.9064 27.2908 12.1461 27.2908 11.9861C27.4509 11.6259 27.4109 12.3862 27.4109 12.5463ZM27.3308 13.1465C27.4109 12.8264 27.4509 13.4267 27.4509 13.5067C27.3709 13.7068 27.2108 13.5867 27.3308 13.1465ZM27.2108 16.1078C26.9307 16.1078 27.1708 15.7076 27.2108 15.6676C27.4909 15.6676 27.2508 16.0277 27.2108 16.1078ZM26.6506 9.46502C26.6506 9.22492 27.0507 9.425 27.2108 9.34497C27.2108 9.62509 26.8106 9.425 26.6506 9.46502ZM26.8907 10.7455V10.8656H27.0107C27.4909 11.2658 26.6906 11.866 26.5705 12.3462C26.3304 12.2662 26.5705 11.6259 26.3705 11.5459L26.4105 11.3858L26.2504 11.4258C26.0503 11.1457 26.5705 10.8656 26.8907 10.7455ZM26.6506 13.9469C26.3705 13.4267 26.4505 12.7864 26.8506 12.3462C26.8907 12.7064 27.4109 13.7068 26.6506 13.9469ZM26.5705 14.8672C26.6106 14.6271 26.8507 14.6271 26.8907 14.4271C27.0507 14.4271 26.8507 14.9473 26.5705 14.8672ZM26.4505 9.26494C25.7302 9.10487 26.2104 9.58507 26.4505 9.26494V9.26494ZM25.8903 14.5071L26.0103 14.6672L26.2104 14.6271C26.1304 14.9873 26.4105 14.9873 26.2104 15.1874C25.8102 15.1474 25.8102 15.0273 25.4501 15.1874C25.6502 14.9873 25.6902 14.6672 25.8903 14.5071ZM25.6902 19.069C25.5301 18.9489 25.4501 18.7889 25.4901 18.6288C25.6502 18.6688 25.6902 18.8289 25.6902 19.069ZM25.8903 19.069C26.0903 19.069 26.1304 19.229 26.3304 19.189C26.4105 19.5492 26.2104 19.5892 26.2104 19.8693L26.0503 19.9093L26.0903 20.0694C25.7702 20.1494 25.6902 19.9493 25.4501 19.9493C25.5301 19.6292 25.8102 19.4291 25.8903 19.069ZM25.6902 26.392C25.6502 26.1519 26.1704 26.2319 26.0103 26.512H25.8102C25.8102 26.432 25.7302 26.432 25.6902 26.392ZM26.1304 31.7942C26.0903 31.9543 25.9303 31.9543 25.9303 32.1544C25.6101 32.0743 25.8903 31.6742 26.1304 31.7942ZM25.8903 31.5541C25.9703 31.4741 26.0103 31.354 26.0103 31.194C26.2504 31.1539 26.2104 31.354 26.2504 31.5541H25.8903ZM26.0103 30.9939C26.1304 30.8338 26.1304 30.5537 26.2504 30.4336C26.4505 30.4737 26.4105 31.194 26.0103 30.9939ZM28.7314 28.2327C28.6914 28.4728 28.1712 28.2728 27.9711 28.3528C28.1712 27.9926 28.2912 28.2728 28.7314 28.2327ZM28.2912 31.314C28.2512 31.1139 28.8915 31.1139 28.7314 31.4341C28.5313 31.234 28.5313 31.5141 28.2912 31.314ZM29.1716 32.9147C28.8115 32.9547 28.8915 32.5945 28.6114 32.5545C28.6514 32.4345 29.2917 32.5945 29.1716 32.9147ZM29.0516 31.5541C29.1316 31.354 29.2516 31.5541 29.3717 31.5541C29.3317 31.7542 29.2116 31.5541 29.0516 31.5541ZM29.4917 34.3953C29.4517 34.5553 29.3317 34.6354 29.1716 34.6354C29.2116 34.4753 29.3717 34.3953 29.4917 34.3953ZM29.1716 38.0768L29.2116 38.2369L29.3717 38.1968C29.5318 38.3169 29.6518 38.557 29.5718 38.7571L29.3717 38.7171L29.2516 38.8771H28.9315C29.2116 38.7971 28.9315 38.1568 29.1716 38.0768ZM29.4117 30.6337C29.0916 30.6337 29.0516 30.3536 28.7714 30.2736C28.7314 29.9134 29.0516 29.9535 29.0916 29.7134C29.3717 29.8734 29.6518 29.9935 29.9719 30.0735C29.6918 30.1535 29.5718 30.4737 29.4117 30.6337ZM30.172 30.3936C30.5322 30.3936 30.5722 30.7138 31.0524 30.6337C30.7322 30.9138 30.2521 31.354 29.7318 31.0739C29.6918 30.6737 30.2521 30.8738 30.172 30.3936ZM31.0524 37.2765C30.9323 37.9167 31.5326 37.3165 31.0524 37.2765V37.2765ZM31.0524 29.1531C31.2525 28.833 31.3325 28.4728 31.2525 28.1127C31.4926 28.0327 31.5726 27.8326 31.8927 27.8726C32.1728 28.1527 31.7327 28.0727 31.7727 28.4328L31.6126 28.4728L31.7727 28.5129C31.6126 28.793 31.3325 29.3932 31.0524 29.1531ZM32.1328 30.3136C31.8527 30.3936 31.8927 30.0735 31.6926 30.0735C31.7727 29.7934 32.2529 29.9935 32.1328 30.3136ZM32.2529 29.1531L32.0928 29.1131L32.1328 29.2732C31.6926 29.2332 31.6526 28.913 31.9327 28.7129L32.0928 28.753L32.0528 28.5929C32.2529 28.5929 32.2129 28.2728 32.493 28.3528V28.5929L32.6931 28.7129C32.573 28.873 32.453 29.0331 32.2529 29.1531ZM31.3725 3.62262C31.0124 3.30248 31.0524 4.0628 31.3725 3.62262V3.62262ZM31.2525 13.1465C31.1724 13.2266 31.1324 13.3466 31.2525 13.3866C31.2124 13.5867 31.0524 13.6667 30.8123 13.6267C30.8523 13.7468 31.0124 13.7068 31.0124 13.8668L30.8523 13.9068L30.8923 14.0669H30.3721C30.4521 13.6667 30.212 13.6267 30.252 13.2666C30.4921 13.1065 30.9723 12.8664 31.2525 13.1465ZM30.7322 9.58507C30.7723 9.425 30.8923 9.34497 31.0524 9.34497C31.0124 9.50504 30.8523 9.62509 30.7322 9.58507ZM30.7322 3.42253C30.7322 3.66263 30.2521 3.46255 30.092 3.54258C30.052 3.26247 30.5322 3.46255 30.7322 3.42253ZM30.9323 4.66304L30.8923 4.82311L31.0524 4.86313C31.0524 5.30331 30.5322 5.22328 30.4922 5.66346C30.132 5.70347 30.172 5.30331 29.9319 5.22327C30.052 4.82311 30.4121 4.62303 30.9323 4.66304ZM30.2921 11.746V12.1061C30.172 12.0261 30.012 11.9861 29.8519 11.9861C29.8519 11.786 30.012 11.746 30.2921 11.746ZM30.172 14.0669C30.212 14.7072 31.3725 14.187 31.3725 14.8672C31.1724 15.0673 31.2525 14.8672 30.9323 14.8672C31.0524 15.3875 30.6922 15.3875 30.6122 15.6676C30.8123 15.7876 31.2525 16.2678 31.3725 16.1078C31.6926 16.4279 31.2925 17.1482 31.1724 17.0281L30.9723 16.9881L30.9323 17.1482C30.3321 17.2682 29.8119 17.1482 29.6118 16.588L29.6518 16.4279L29.4917 16.3879C29.4517 16.0277 30.052 16.3479 29.9319 15.9477C29.6918 15.7876 29.4517 15.7076 29.1716 15.7076L29.1316 15.5475L28.9715 15.5875C29.1316 14.9073 29.5718 14.347 30.172 14.0669ZM28.8515 13.1465C28.8915 12.9865 29.0115 12.9064 29.1716 12.9064C29.1316 13.0665 29.0115 13.1465 28.8515 13.1465ZM29.2917 12.6663V12.4262H29.4917V12.6663H29.2917ZM29.4917 7.42418C29.5318 7.2241 29.6118 7.50421 29.6118 7.66428C29.5718 7.86436 29.4917 7.58425 29.4917 7.42418ZM29.4917 8.54464C29.2516 8.90479 29.8519 9.30496 29.6118 9.70512C29.4517 9.62509 29.3317 9.54505 29.1716 9.46502L29.2116 9.26494L29.0516 9.14489C29.1316 8.86477 29.2116 8.58466 29.4917 8.54464ZM28.9715 11.746C28.5313 12.5863 29.4517 11.786 28.9715 11.746V11.746ZM28.6514 16.588L28.4913 16.5479L28.4513 16.708C28.2912 16.668 28.2912 16.5079 28.1312 16.4679C28.1312 16.1878 28.2912 16.1078 28.4513 16.0277L28.4913 16.1878L28.6514 16.1478C28.6514 16.1878 28.8915 16.5479 28.6514 16.588ZM28.2112 7.74431C28.4513 7.78433 28.4113 8.06444 28.6514 8.10446C28.4913 8.42459 28.0511 8.10446 28.2112 7.74431ZM26.8907 6.2637C27.3308 6.58384 27.651 7.02402 27.771 7.50421L27.5709 7.4642L27.5309 7.62426C26.7306 7.42418 26.2104 6.94398 25.33 6.82393C25.37 5.98359 26.7706 6.78392 26.8907 6.2637ZM25.5701 15.7876C25.4901 15.8677 25.4101 16.1078 25.5701 16.1478C25.4101 16.628 25.1299 15.5875 25.5701 15.7876ZM25.33 19.6692V19.9093H24.7698C24.9299 19.8293 25.21 19.3491 25.33 19.6692ZM24.8098 7.66428C24.7298 7.9444 24.4096 8.10446 24.1695 8.02443C24.3296 7.78433 24.5297 7.66428 24.8098 7.66428ZM24.1295 10.5055C24.4497 10.6655 24.0495 10.9456 24.0095 11.0657C23.7294 10.9856 24.1295 10.6655 24.1295 10.5055ZM23.1691 10.2653L23.2892 10.4254L23.4893 10.3854C23.5293 10.9056 23.4092 11.2257 22.929 11.1857C22.929 10.8656 23.0091 10.5455 23.1691 10.2653ZM22.809 13.1465C23.0091 13.2266 22.809 13.3466 22.809 13.5067C22.6489 13.3866 22.809 13.2666 22.809 13.1465ZM22.729 15.5475H22.929V15.7876H22.729V15.5475ZM22.809 21.1498V21.3899H22.6089V21.1498H22.809ZM22.1687 14.387C22.1287 14.6672 21.6885 14.4671 21.6085 14.387C21.7285 13.9869 22.0087 14.267 22.1687 14.387ZM20.8482 17.5884C20.8082 17.7884 20.6081 17.8685 20.6481 18.1486C20.2079 18.0686 20.328 17.5483 20.8482 17.5884ZM19.8878 19.4291C20.0078 19.5092 20.1279 20.1494 20.0078 20.1094C19.4876 20.1094 19.9678 19.7092 19.8878 19.4291ZM19.9678 21.2699C19.9278 21.3499 19.8478 21.3899 19.8478 21.51H19.6477C19.6477 21.3899 19.6077 21.3099 19.5276 21.2699C19.5677 20.9497 19.7277 21.4299 19.9678 21.2699ZM18.8874 25.0314C18.8474 24.7913 19.0474 24.8313 19.2075 24.7913C19.1675 24.9514 19.0474 25.0714 18.8874 25.0314ZM18.8874 23.991C18.9674 23.7109 19.2475 23.6709 19.3276 23.4308C19.7677 23.5508 19.2475 24.031 18.8874 23.991ZM19.4476 25.2715C19.4876 24.9914 19.7277 24.9914 19.8878 25.1515C19.8478 25.3115 19.6077 25.2315 19.4476 25.2715ZM20.0879 23.5508H19.7677C19.7277 23.3107 19.8478 23.2307 19.8878 23.1106C20.0479 23.1106 20.1279 23.2707 20.0879 23.5508ZM19.8878 20.7897C19.9278 20.5096 20.1679 20.9097 20.328 20.9097C20.2079 21.2699 20.0078 20.7897 19.8878 20.7897ZM20.328 19.6692C19.9278 19.229 21.0483 20.5096 20.328 19.6692V19.6692ZM20.408 22.1903V21.8301C20.528 21.9101 20.6881 21.9502 20.8482 21.9502C20.8482 22.1502 20.6881 22.1903 20.408 22.1903ZM20.528 20.6696C20.6881 20.9097 21.1683 20.8697 21.1683 21.2299C20.7281 21.3099 20.488 21.1498 20.528 20.6696ZM20.9682 20.3495C21.0883 19.9894 21.6885 20.6296 21.2884 20.7897C20.8482 20.9898 21.2483 20.3095 20.9682 20.3495ZM21.5285 29.8334C21.4884 30.0735 21.3284 29.9134 21.4084 29.4733C21.4884 29.1531 21.5285 29.7534 21.5285 29.8334ZM22.0487 27.9126C21.7686 27.9126 21.7285 27.7525 21.4884 27.6725C21.6085 27.3924 22.2087 27.5525 22.0487 27.9126ZM22.2888 33.595C21.9686 33.9951 22.6889 33.9551 22.2888 33.595V33.595ZM22.0487 18.9889C22.1287 18.7488 22.6089 18.9489 22.4889 18.5488C22.6489 18.5888 22.5289 18.9089 22.6889 18.9089C22.5689 19.149 22.3288 19.069 22.0487 18.9889ZM22.6089 30.1936C22.929 29.7534 22.9691 30.5137 22.6089 30.1936V30.1936ZM22.6089 28.793C22.5689 28.7129 22.6489 28.6729 22.729 28.6729V28.5929H22.929V28.3528C22.929 28.2327 22.9691 28.1527 23.0491 28.1127C23.3292 28.1127 23.4493 28.3128 23.6093 28.4728L23.4492 28.5929L23.4893 28.793H22.6089ZM22.929 32.9147C22.9691 32.6746 23.2092 32.6746 23.2492 32.4745C23.5693 32.5945 23.2892 33.0747 22.929 32.9147ZM23.6894 31.314V31.194H23.5693C23.5293 31.0739 23.4893 30.9939 23.3692 30.9539C23.3692 30.8338 23.4893 30.8738 23.5693 30.8338V30.5937H23.6894V30.4737C23.8894 30.5137 23.9695 30.7138 24.2496 30.7138C24.2496 31.1539 23.9294 31.194 23.6894 31.314ZM24.8098 32.9147L24.6497 32.8747L24.4897 32.9147C23.8494 32.6746 24.4897 32.0743 25.0499 32.1143C25.0899 32.3945 25.0099 32.7146 24.8098 32.9147ZM25.0099 31.0739L25.0499 30.9138L24.8898 30.8738V30.4336H25.21V30.1936H25.33V30.0735C25.5701 30.2736 25.37 30.8738 25.5301 31.1139L25.0099 31.0739ZM26.0103 38.637C25.6101 39.1973 26.6506 38.7971 26.0103 38.637V38.637ZM25.5701 38.3169C25.29 38.1568 26.0103 37.7567 26.2104 38.0768C26.2504 38.3969 25.5301 37.9968 25.5701 38.3169ZM26.2104 32.4745C26.2904 32.3544 26.4505 32.3544 26.4105 32.1143C26.6106 32.2744 26.6906 32.5545 26.5305 32.7546C26.5305 32.7546 26.5305 32.7946 26.4905 32.7946C26.2904 32.8346 26.4105 32.4745 26.2104 32.4745ZM26.5705 36.116C26.3705 36.036 26.6906 36.036 26.6906 35.8759C26.8106 35.5558 26.8106 36.236 26.5705 36.116ZM26.6506 30.3136C26.5705 29.5533 27.0507 29.3532 27.4109 29.0731C27.5709 29.3132 27.5309 29.7934 27.8511 29.8734L27.811 30.0335L27.9711 30.0735C27.9311 30.2336 27.811 30.3536 27.651 30.4336V30.3136H27.5309C27.3709 30.1135 27.0907 30.3936 26.6506 30.3136ZM27.4109 37.7166C27.0507 37.5166 27.651 37.3565 27.611 37.1564C28.1712 37.3565 27.4909 37.4766 27.4109 37.7166ZM28.2112 39.7975C27.9311 39.9576 27.771 39.4774 27.651 39.7975C27.3308 39.4774 27.9311 39.1572 27.9711 38.8771C28.1712 38.9972 28.1712 39.2773 28.2912 39.4374L28.1312 39.5574L28.2112 39.7975ZM29.4117 41.1581V41.038H29.2917C29.0916 40.958 29.0516 40.7179 29.1316 40.5178C29.1316 40.4778 29.1716 40.4778 29.1716 40.4378C28.8115 40.7179 28.6514 40.0376 28.4113 39.8775L28.4513 39.7175L28.4113 39.5574C28.6914 39.6374 28.3313 38.9972 28.6114 39.1172C29.0516 39.0772 29.1716 39.7975 29.4917 39.2373L29.6118 39.3973L29.8119 39.3573C30.052 39.9576 29.8919 40.6779 29.4117 41.1581ZM30.052 34.1952C29.9719 34.8755 30.5722 34.2752 30.052 34.1952V34.1952ZM29.9319 34.0751C29.4517 33.9151 29.9319 33.715 29.9319 33.3949C30.172 33.3549 30.052 33.715 30.252 33.755C30.3321 33.9951 29.7719 33.675 29.9319 34.0751ZM30.7322 33.2748V33.715C30.6122 33.715 30.6522 33.5549 30.6122 33.4749C30.5322 33.4349 30.4922 33.5149 30.4922 33.595C30.3321 33.5149 30.3321 33.2348 30.2921 33.0347C30.4922 33.0347 30.4121 33.3549 30.7322 33.2748ZM30.3721 38.3169C30.2521 38.1568 30.3321 38.1168 30.3721 37.9567C30.6922 38.1168 30.3321 39.3173 30.3721 38.3169ZM30.7322 42.5186L30.6922 42.3586L30.5322 42.3986C30.4521 41.9984 30.6922 41.9584 30.6522 41.5982C31.0524 41.5982 30.8123 42.2785 31.2925 42.1585C31.0924 42.3185 30.9723 42.5186 30.7322 42.5186ZM31.3725 41.3982C31.2124 41.2781 31.1324 41.118 31.1724 40.958C31.3325 40.958 31.4125 41.118 31.3725 41.3982ZM31.4926 38.637C31.2124 38.597 31.2525 38.8371 30.9323 38.7571C30.9323 38.4369 30.8923 38.1168 31.0524 37.9567C31.2525 38.1168 31.5326 38.1968 31.4926 38.637ZM31.6926 36.7562L31.5726 36.7963C31.5726 36.4761 31.5326 36.036 31.6926 35.8759C31.8927 36.036 32.1328 36.116 32.1328 36.4361L32.0928 36.5562L32.1328 36.6762C32.0528 36.7563 31.9327 36.7963 31.8127 36.7963L31.6926 36.7562ZM32.2529 40.4778L32.1328 40.3177L31.9327 40.3577C31.8927 40.1176 31.9327 39.8775 32.0528 39.6775L32.2129 39.7175L32.2529 39.5574H32.3729L32.4129 39.7175L32.453 39.5574C32.6931 39.5174 32.493 39.9576 32.573 40.1176L32.4129 40.1576L32.453 40.3177C32.3729 40.3978 32.3729 40.4778 32.2529 40.4778ZM32.573 41.1581L32.7331 41.1981L32.7731 41.038C32.8931 41.038 32.9732 40.998 32.9732 40.918C33.1733 41.038 33.0932 41.3982 33.1733 41.5982C32.9732 41.3982 33.0132 41.5982 32.7331 41.5982H32.613V41.7183C32.453 41.7583 32.613 41.3181 32.573 41.1581ZM33.4534 43.2389L33.3333 43.1589L33.2133 43.2389C32.8931 43.1589 33.0132 43.1589 32.653 43.2389V43.1189H32.533C32.613 42.5586 33.0532 42.3986 33.1733 41.8784C33.5334 42.0384 33.6535 42.8388 33.4534 43.2389ZM33.0132 33.2748L33.0532 33.1148L32.8931 33.1548C32.8931 33.0347 32.7731 33.0747 32.6931 33.0347C32.653 32.7546 32.8931 32.7946 32.8131 32.4745C33.1332 32.5145 33.2933 32.7546 33.5734 32.8346C33.4534 33.0747 33.3333 33.2748 33.0132 33.2748ZM33.1332 31.9943C33.2933 31.7542 34.0136 31.6341 34.1336 31.9943L34.0936 32.1544L34.2537 32.1944C34.2137 32.3544 34.0536 32.3544 34.0536 32.5545C33.5334 32.5545 33.6134 31.9943 33.1332 31.9943ZM34.0136 34.5153C34.0136 34.4753 34.2537 34.3152 34.3337 34.3953C34.4138 34.4753 33.8935 34.7154 34.0136 34.5153ZM34.3337 37.8367C33.7335 36.7162 35.4542 36.6762 36.1745 36.236C36.7347 36.5962 35.6143 37.0764 35.7343 37.7166C35.2541 37.6766 34.7739 37.7167 34.3337 37.8367ZM36.1745 42.3185C35.8544 42.3586 35.6943 42.5186 35.7343 42.8788C35.4942 42.7987 35.4542 42.4786 35.2941 42.3185L35.4542 42.2785L35.4142 42.1185C35.4542 41.9984 35.4942 41.9184 35.6143 41.8784L35.7743 41.9184L35.8143 41.7583C35.9744 41.7983 36.0945 41.9584 36.1345 42.1185L36.0945 42.2385L36.1745 42.3185ZM36.7347 43.2389L36.5747 43.1589L36.4146 43.2389C36.4946 42.9188 36.2545 42.9588 36.2945 42.6787L36.4546 42.7187L36.4146 42.5586C36.7747 42.3586 36.4946 42.1185 36.5346 41.6383C37.1749 41.5582 37.2549 42.3586 37.415 42.4386C37.1349 42.6387 36.9748 42.9588 36.7347 43.2389ZM37.6151 41.3982C37.6551 40.918 37.535 40.5578 37.1749 40.4778C37.415 40.1576 37.9752 40.4778 38.1753 40.5978L38.2153 40.7579L38.3754 40.7179C38.4154 40.8779 38.6555 40.7979 38.8156 40.8379C38.7756 40.918 38.6955 40.958 38.6955 41.078L38.5355 41.038L38.5755 41.1981C38.0553 41.038 38.1353 41.5182 37.6151 41.3982ZM38.1753 44.4794C37.8952 44.3994 38.3754 44.1593 38.2954 43.9192C38.6155 44.0392 38.1753 44.3594 38.1753 44.4794ZM38.1753 43.439C37.8552 43.2389 38.1753 42.7987 38.4954 42.8788C38.5755 43.2789 38.0553 43.0388 38.1753 43.439ZM39.5759 43.9192V44.2793L39.4158 44.2393L39.4558 44.3994C39.1757 44.3594 39.2157 44.5995 38.8956 44.5194L38.8556 44.2393L38.5755 44.2793C38.5755 44.1193 38.5755 43.9592 38.6955 43.9192L38.7355 44.0793L38.7756 43.9192C38.9356 43.8792 39.0557 43.7191 39.0957 43.5591V43.439H38.9756C39.1357 43.319 39.0957 42.9588 39.4158 42.9988L39.3758 43.1589L39.5359 43.2389C39.4158 43.5991 39.776 43.439 39.9761 43.479C39.9761 43.7191 39.936 43.9992 39.5759 43.9192ZM39.6959 41.7183C39.936 41.7583 39.9761 41.9584 40.1361 42.0784C40.0961 42.2785 39.6559 41.9584 39.6959 41.7183ZM40.1361 41.3982C40.1761 41.038 40.4563 40.958 40.5763 40.7179L40.6163 40.8779L40.6563 40.7179C40.9765 40.8779 40.9765 41.3581 40.9765 41.8784C40.4563 41.9584 40.3762 41.5982 40.1361 41.3982ZM41.2166 43.2389C40.6964 43.1989 40.7364 42.5987 40.3362 42.4386C40.2562 42.1585 41.2966 42.4386 40.8964 42.1985C41.0965 41.9584 41.3366 42.6387 41.3366 42.9988L41.1765 43.0388L41.2166 43.2389ZM41.3366 40.4778C41.4967 40.7979 42.0969 40.6779 42.0969 41.1581H41.9769V41.2781C41.9369 41.3982 41.8968 41.4782 41.7768 41.5182L41.6167 41.2381L41.3366 41.2781V40.4778ZM41.7768 42.6387L41.7368 42.4786L41.5767 42.5186C41.6567 42.1185 41.4166 42.0784 41.4567 41.7183L41.6567 41.7583L41.7768 41.5982C41.9769 41.7183 42.0969 41.8784 42.337 41.9584C42.257 42.2785 42.0569 42.5186 41.7768 42.6387ZM42.5371 44.2393C42.6972 44.0393 42.7772 43.7992 43.0973 43.7992C42.9373 43.9992 42.8572 44.2393 42.5371 44.2393ZM43.7376 40.1176L43.6976 39.9576L43.5375 39.9976V39.5574C43.7376 39.5574 43.6576 39.8775 43.9777 39.7975L44.1778 39.8775L44.2978 39.6775C44.5379 39.7575 44.5379 39.8375 44.4179 40.0376L44.2578 39.9976L44.2978 40.1576C44.1378 40.5978 44.0577 40.1176 43.7376 40.1176ZM44.738 43.1189L44.698 42.9588L44.5379 42.9988C44.5779 42.7187 44.4979 42.5586 44.2978 42.5586C44.4179 42.3586 44.618 42.2785 44.8581 42.3185L44.8181 42.4786L44.9781 42.5186C44.9781 42.7587 44.8981 42.9588 44.738 43.1189ZM44.778 36.8763L44.8181 37.0364C44.738 37.1964 44.9381 37.6366 44.698 37.5966L44.5379 37.3565L44.3779 37.5966H44.1778L44.2178 37.4365L44.0577 37.3965C44.3378 37.1964 44.2178 37.0764 44.2578 36.4761C44.4979 36.5162 44.738 36.6362 44.8981 36.8363L44.778 36.8763ZM45.6184 35.9159H45.2982C45.6184 35.4757 44.8581 35.4357 45.1782 34.9955C45.0181 35.0756 44.8581 35.1956 44.738 35.3557L44.5779 35.3157L44.618 35.4757C44.3379 35.5558 44.4179 35.2356 44.1778 35.2356C44.1378 34.9155 44.4179 34.8755 44.3779 34.5553L44.5379 34.5153L44.3779 34.4753C44.5379 34.2752 44.2578 34.0751 44.5779 33.9151C44.4979 34.1552 44.8581 34.4353 44.8981 34.1552L45.0581 34.1952L45.0982 34.0351C45.2182 34.1152 45.3783 34.1552 45.5383 34.1552C45.6184 33.755 45.2982 33.595 45.0982 33.795H44.8981V34.0351C44.4179 33.9951 44.698 32.9547 45.2182 33.2348L45.3783 33.1948L45.3383 33.0347H45.7784V32.7946L45.8185 32.6346L45.8585 32.4745C46.0586 32.7146 46.7388 32.4345 46.9389 32.7146L46.8989 32.8747L46.9389 33.0347C46.8589 33.1148 46.8589 33.3549 46.7388 33.3949C46.5788 33.1148 45.8585 33.5149 46.1786 33.755L46.0185 33.795L46.0586 33.9551C45.7784 34.5553 46.3787 34.3152 46.1786 33.9551L46.3387 33.9151L46.2987 33.755C46.6588 33.5549 47.2991 33.1148 47.6192 33.5149L47.5792 33.715L47.7392 33.835C47.8193 34.4353 47.139 34.2752 46.9789 34.6354L46.8189 34.5954L46.8589 34.7554C46.7789 34.8355 46.6588 34.8755 46.5388 34.8755C46.7388 35.1556 46.4187 35.2756 46.6588 35.4357C46.4187 35.8759 46.3787 35.1556 46.0185 35.3157C45.6184 35.3957 46.0586 35.6758 45.8185 35.8759L45.6584 35.8359L45.6184 35.9159Z" fill="#EF3360"/>
<path d="M23.3296 27.9525C23.9298 27.5123 24.5301 27.0721 25.1303 26.5919L26.9311 25.2714L28.7318 23.9508L30.5326 22.6703C32.8935 20.8696 35.2945 19.1889 37.6955 17.5082L39.4963 16.2677C40.0965 15.8275 40.6968 15.4273 41.297 15.0672L44.9385 12.7062L46.7793 11.6258C47.3795 11.3056 48.0198 10.9455 48.62 10.6253C49.8205 9.94507 51.101 9.38484 52.3816 8.90464C53.6221 8.42444 54.9026 8.10431 56.2231 8.0643C56.8634 8.02428 57.5037 8.14433 58.1039 8.38443C58.7442 8.62453 59.2644 9.10472 59.6245 9.70497L59.9447 9.62494C59.7046 8.82461 59.1844 8.10431 58.5041 7.62411C57.8638 7.18393 57.1835 6.90382 56.4232 6.78377C54.9826 6.54367 53.542 6.6237 52.1415 6.90382C49.3003 7.5841 46.5792 8.58451 43.9781 9.94507C41.337 11.2656 38.816 12.7862 36.2949 14.3869C33.8139 16.0276 31.3329 17.7083 28.8919 19.469C24.0499 23.0705 19.368 26.872 14.7261 30.8337L11.2846 33.8349C10.1242 34.8353 9.00371 35.8757 7.84323 36.8762C5.56229 38.917 2.28094 42.1183 0 44.1591L0.200082 44.4793C5.40222 41.398 11.3247 36.8361 16.1667 33.3147C18.5676 31.554 20.8886 29.6732 23.3296 27.9525Z" fill="#6931AA"/>
<path d="M35.6179 30.4335C40.0998 27.5523 44.5016 24.5111 48.8634 21.5098C51.0643 19.9892 53.2252 18.4686 55.4261 16.988C56.5065 16.2277 57.627 15.5474 58.7475 14.8671C59.3077 14.547 59.8679 14.2669 60.4282 13.9867C60.7083 13.8667 60.9884 13.7466 61.2685 13.6666L61.4686 13.6266H61.6687C61.7487 13.6266 61.8687 13.6666 61.9488 13.6666H62.2689C62.2689 13.5065 62.1889 13.3865 62.0688 13.2664C61.9888 13.1864 61.9088 13.1464 61.8287 13.1064C61.7487 13.0664 61.6687 13.0664 61.5886 13.0263L61.3485 12.9863C61.0284 12.9863 60.6682 12.9863 60.3481 13.0664C59.7078 13.1864 59.0676 13.3465 58.4673 13.5466C57.2268 13.9867 56.0263 14.4669 54.8258 15.0272C52.4249 16.1476 50.1039 17.3881 47.7829 18.7087C43.141 21.3098 38.6192 24.1509 34.0973 27.0321C29.6155 29.9533 25.1736 32.9946 20.7318 36.0358C18.5309 37.5564 16.33 39.1171 14.1291 40.6777L7.56641 45.4797L7.72647 45.7998C12.6885 43.839 17.3704 41.318 22.0123 38.7169C26.6142 36.1159 31.1361 33.3147 35.6179 30.4335Z" fill="#6931AA"/>
<path d="M63.4265 17.8684C61.6658 19.269 59.825 20.5895 58.0243 21.9101C56.1835 23.2306 54.3428 24.4711 52.502 25.7116C48.7805 28.1927 45.0189 30.5536 41.1773 32.7945C39.2566 33.955 37.3758 35.0755 35.455 36.1959C33.5342 37.3164 31.6134 38.3969 29.6926 39.4373C25.811 41.5582 21.9294 43.599 18.0078 45.6398L18.1279 46C20.2888 45.5998 22.4496 45.1196 24.5305 44.4393C26.6114 43.7591 28.6922 43.0388 30.7331 42.1984C32.7739 41.3581 34.7747 40.4377 36.7355 39.4373C37.7359 38.9171 38.6963 38.3969 39.6967 37.8766L42.6179 36.1959C46.4995 33.875 50.2211 31.2339 53.7425 28.3527C55.5032 26.8721 57.264 25.3115 58.9046 23.6308C60.6254 21.9501 62.186 20.1093 63.6266 18.1485L63.4265 17.8684Z" fill="#6931AA"/>
</svg>
