<svg xmlns="http://www.w3.org/2000/svg" width="93" height="93" viewBox="0 0 93 93" fill="none">
  <path d="M62.9609 69.4243L63.1469 69.4708L63.1934 69.2848L63.0074 69.2383L62.9609 69.4243Z" fill="#EF3360"/>
  <path d="M64.1699 71.052L64.2164 71.145L64.3559 71.0985L64.1699 71.052Z" fill="#EF3360"/>
  <path d="M62.5428 69.6104L62.7288 69.5639C62.8683 69.6104 62.8218 69.8429 62.9613 69.8429V69.4244H62.8218L62.8683 69.2384L62.9148 69.0524C63.1473 69.0059 63.1473 69.1454 63.1473 69.3314C63.3333 69.5174 63.7053 69.5639 63.7983 69.8429C63.8448 70.2614 63.3333 70.0754 63.2868 70.3544C63.6588 70.9124 64.4958 70.0754 64.8213 70.4939L64.7748 70.6799L64.9608 70.6334C64.9608 71.0519 64.4493 70.9124 64.3098 71.1449C65.3328 70.8659 66.3558 70.4939 67.3788 70.1219C70.2153 68.9594 72.8658 67.2854 75.1443 65.1929L75.1908 65.0069L75.1443 64.8209C75.4698 64.4489 75.8883 64.1699 76.3068 63.8909L76.3533 64.0304C76.6323 63.7049 76.9113 63.4259 77.1903 63.1004C77.4228 62.8214 77.7018 62.5424 77.9343 62.2169L77.8878 62.0774L77.7018 62.1239V61.0544L77.8878 61.1009L77.9343 60.9149C78.3063 60.9149 78.3063 61.4729 78.2133 61.5659L78.3063 61.6589C78.7713 61.0544 79.1898 60.4499 79.5618 59.8454H79.3293V59.7059L79.5153 59.7524L79.5618 59.5664C79.6083 59.5199 79.6548 59.4734 79.7478 59.4734C80.5383 58.2179 81.1893 56.8694 81.7473 55.4744C81.7008 55.4279 81.6543 55.4279 81.6078 55.4279C81.6543 55.3349 81.7473 55.2884 81.7473 55.1489C81.7938 55.1489 81.8403 55.1954 81.8403 55.1954C82.3053 54.0329 82.6773 52.8239 82.9563 51.6149C82.4448 51.3359 81.9333 51.0104 81.4683 50.6384C81.4218 50.3594 81.6543 50.4059 81.8403 50.3594C81.6078 49.6619 80.7708 49.6154 80.8173 48.6389L81.0498 48.6854L81.1893 48.4994C81.3288 48.6389 81.4683 48.8249 81.5613 49.0109C82.4913 48.9179 82.8633 49.3829 83.2353 49.8944C83.4213 48.6389 83.5608 47.3834 83.5608 46.1279C83.2818 46.0349 83.1423 45.7559 83.1888 45.4769H83.5608C83.5608 42.9194 83.1423 40.3619 82.3983 37.8974C82.2588 38.1299 81.7008 38.0369 81.7938 37.6184C81.9333 37.7114 82.1658 37.8044 82.3518 37.7579C82.1193 37.0139 81.8868 36.3164 81.5613 35.6189C80.3058 32.5964 78.4923 29.8064 76.2138 27.4349C76.2138 27.4814 76.1673 27.5279 76.1673 27.5744C75.9813 27.6209 76.0278 27.4349 76.0278 27.2954C74.2143 25.4354 72.0753 23.8079 69.7968 22.5524V22.9244C69.6573 22.8314 69.4713 22.7849 69.2853 22.7849C69.3318 22.5524 69.4713 22.5059 69.7503 22.5059C69.1458 22.1804 68.4948 21.8549 67.8903 21.5759C67.7973 21.6224 67.6578 21.6689 67.5183 21.7154C67.5648 21.6689 67.6578 21.5759 67.7508 21.5294C61.1943 18.6464 53.8008 18.5999 47.1978 21.2969C46.5468 21.5759 45.8958 21.8549 45.2913 22.1804V22.3664C45.1983 22.3664 45.1518 22.3664 45.1053 22.3199C38.2698 25.9004 33.3408 32.2709 31.6203 39.8039C31.8993 39.8504 31.9458 40.0364 31.9458 39.5249C32.2713 39.4319 32.1783 39.8039 32.4573 39.8039C32.2713 40.1294 31.9458 40.3154 31.5738 40.3154V40.0829C31.5273 40.3619 31.4343 40.6874 31.3878 40.9664C31.5738 40.9199 31.7598 41.0129 31.6668 41.2454C31.5273 41.0594 31.4343 41.1524 31.2948 41.2454C31.1553 41.9429 31.1088 42.5939 31.0158 43.2914C31.1553 43.3379 31.2948 43.3844 31.3878 43.3844C31.4808 43.7564 31.1553 43.7564 30.9693 43.8494C30.8763 45.4304 30.8763 47.0579 31.0623 48.6389C31.1088 48.6389 31.1088 48.5924 31.1088 48.5459C31.2483 48.5924 31.2018 48.8249 31.3413 48.8249C31.3413 49.0109 31.2018 49.0109 31.0623 48.9644C31.1553 49.7549 31.2948 50.5919 31.4808 51.3824C31.6203 50.8709 32.2248 51.2894 32.5038 51.3824C32.2248 51.6614 31.8063 51.6614 31.5273 51.3824C32.2713 54.8699 33.7593 58.1714 35.8053 61.1009V60.9614C36.1773 60.8684 36.2703 61.3334 36.0843 61.5659C36.9213 62.6819 37.8513 63.7514 38.8278 64.7279C38.9208 64.7279 39.0138 64.7744 39.1068 64.8674V65.0069C40.1763 66.0299 41.3388 66.9599 42.5943 67.7969H42.9198L42.8733 67.9364H42.9198L43.0593 67.8899L43.0128 67.9829C43.2918 68.1689 43.5708 68.3549 43.8498 68.4944C43.8498 68.4014 43.9893 68.2619 43.9428 67.9829C44.3613 68.1224 44.0358 68.2154 44.0823 68.5874C44.5473 68.8664 45.0123 69.0989 45.4773 69.3314C45.4773 69.0524 45.5703 68.8664 45.8493 68.8664C45.8028 69.0989 45.8028 69.3314 45.6168 69.3779C46.6863 69.8894 47.8023 70.3544 48.9183 70.7264C48.9648 70.7264 49.0113 70.7264 49.0578 70.7729C49.2438 70.8194 49.3833 70.8659 49.5693 70.9589V70.8659L49.7553 70.9124L49.9413 70.9589L49.9878 71.0054C50.6388 71.1914 51.2433 71.3309 51.8943 71.4704C51.8478 71.2844 51.8013 71.0984 51.8478 70.9124C51.9408 71.0054 52.0803 71.0519 52.2198 71.0519C52.3128 71.3309 52.1733 71.3774 52.1268 71.5169C55.2423 72.1214 58.4508 72.1679 61.5663 71.6564C61.6593 70.8659 61.8918 70.0754 62.2638 69.3314L62.5428 69.6104ZM32.4573 52.7774C31.8063 53.1029 32.8758 53.1494 32.4573 52.7774V52.7774ZM62.9613 64.0304L62.7288 64.0769C62.7288 63.8444 62.5893 63.7979 62.5893 63.5654L62.6358 63.3794L62.4498 63.3329C62.4963 63.1004 62.8218 63.1004 62.7288 62.6819C62.8218 63.1004 63.5193 62.8214 63.7518 63.1004C63.7053 63.5654 63.4728 63.9839 63.1008 64.3094L62.9613 64.0304ZM63.9843 65.9369V65.6579C64.0773 65.6579 64.1238 65.6114 64.1238 65.5184C64.3563 65.5184 64.3098 66.1694 63.9843 65.9369ZM65.1468 65.0069C64.8213 64.9604 64.2633 64.9139 64.1238 65.4254C63.8448 65.1464 63.4263 65.0999 63.1008 65.2859C63.4728 64.8674 63.5658 64.2164 63.9843 63.8444V63.9839H64.1238C64.2168 64.0769 64.3563 64.1234 64.4958 64.1234C64.8678 63.8444 64.4493 63.2864 64.4958 62.9144C64.7283 63.4259 64.9608 62.7284 65.3793 63.0539C65.2863 63.1934 65.1003 63.1934 65.1468 63.4724H65.2863L65.2398 63.7049L65.4258 63.8444C65.4723 64.0769 65.2863 64.0769 65.2863 64.2629H65.7978L65.7513 64.4954L65.9373 64.6349C65.7513 65.0999 65.7978 65.7044 65.5653 66.0764L65.3793 66.0299L65.4258 66.2159C64.9143 66.2624 65.4723 65.1929 64.6818 65.5649C64.4958 65.0534 65.0538 65.2859 65.1468 65.0069ZM63.9843 63.7049C64.0773 63.5189 64.1703 63.2864 64.4958 63.2864C64.3563 63.4724 64.3563 63.7979 64.1238 63.7979V63.7049H63.9843ZM63.7518 56.6369C63.3798 56.4974 63.0078 56.4509 62.5893 56.4974C62.6358 56.2184 62.4963 55.9394 62.2173 55.8464C62.4963 55.5209 63.3798 55.7999 63.8913 55.7069V56.2184L63.7053 56.3579L63.7518 56.6369ZM61.3338 43.2449H61.1943L61.2408 43.0124L61.0548 42.8729C61.2408 42.4544 61.6128 42.3149 62.2173 42.3614L62.1708 42.5009L62.2173 42.6404C62.4963 42.9659 62.3103 43.0124 62.4498 43.2914V43.4309H62.5893C62.0778 43.8029 61.7058 44.3144 61.0548 44.2214C61.1013 43.8029 61.4733 43.8029 61.3338 43.2449ZM62.0778 38.9669H62.8218L62.7753 39.1994L62.9613 39.3389C62.7288 39.5714 62.4033 39.6644 62.0778 39.6179C62.3103 39.3854 62.0778 39.2924 62.0778 38.9669ZM63.1008 34.3169C63.4728 34.3634 63.4728 34.8284 63.6123 35.1074C62.9613 35.1539 62.4498 35.1074 62.3568 34.5959C62.5428 34.3634 62.9148 34.7354 63.1008 34.3169ZM62.9613 29.8064C63.2403 29.8994 63.4263 30.1784 63.3333 30.4574C63.2403 30.2249 62.8683 30.2249 62.9613 29.8064ZM64.2633 52.1264C64.2633 52.4054 63.7053 52.1729 63.5193 52.2659C63.4728 51.9869 64.0308 52.2194 64.2633 52.1264ZM63.9843 39.5249C63.9843 39.2924 64.4028 39.4319 64.3563 39.1064C64.7283 39.2459 64.3098 39.6644 63.9843 39.5249ZM64.2633 50.4059C64.5423 50.4059 64.5423 50.7314 64.4958 51.0569C63.9378 51.0569 64.2633 50.8244 64.2633 50.4059ZM63.4728 50.1269C63.4263 49.8479 63.6588 49.8944 63.8448 49.8479C63.7983 50.0339 63.6588 50.1734 63.4728 50.1269ZM63.2403 45.4769C63.6123 45.2909 63.4263 46.2209 63.1008 46.1279C63.2403 45.9419 63.2868 45.7094 63.2403 45.4769ZM63.2403 35.8979C63.1938 36.3629 62.6358 36.0839 62.3568 36.0374C62.4963 35.7119 62.9148 35.8049 63.2403 35.8979ZM61.8453 53.6144C62.3568 53.5679 62.3568 54.0329 62.7288 54.1259C62.6823 54.3119 62.4033 54.2189 62.2173 54.2654C62.4498 53.6609 61.7058 54.0794 61.8453 53.6144ZM62.4498 44.1749C62.9148 44.1749 63.1008 44.6399 62.7288 44.8259L62.6823 44.6399L62.4963 44.5934C62.2638 44.5004 62.4963 44.4074 62.4498 44.1749ZM62.4498 44.8259L62.5893 44.8724L62.7288 44.9189C63.2868 45.3374 62.5893 46.3604 62.4498 46.9184L62.2638 46.8719L62.2173 47.0579C61.7988 46.8254 62.0778 45.5234 61.9383 45.3374C62.1243 45.1514 62.4498 45.1514 62.4498 44.8259ZM61.9383 51.6149C62.2638 52.5449 62.6823 52.1264 61.9383 51.6149V51.6149ZM62.4498 49.7549C62.6823 49.8944 63.1473 49.7549 63.1008 50.1734C62.7288 50.1734 62.4033 50.1734 62.4498 49.7549ZM62.8218 38.0369C62.8218 38.3624 62.4033 38.0834 62.3103 38.0369C62.4498 37.6184 62.6358 37.9439 62.8218 38.0369ZM61.1943 53.8469H61.5663V54.1259H61.1943V53.8469ZM61.5663 54.9164C61.6128 54.7769 61.6593 54.6839 61.7988 54.6374C62.1708 54.6374 62.1243 55.0094 62.3103 55.1489L62.1243 55.1954L62.1708 55.3814C61.9383 55.4279 61.7058 55.3814 61.5198 55.2419L61.5663 55.0559V54.9164ZM63.4728 54.4049C63.4728 54.2654 63.4263 54.1724 63.3333 54.1259C63.5193 53.5679 63.8913 54.0794 64.2168 54.1259C64.1238 54.3584 63.7053 54.2654 63.4728 54.4049ZM64.7748 55.0559C64.7283 55.4744 64.0773 55.3349 64.1238 54.9164C64.3563 54.8699 64.5888 54.9164 64.7748 55.0559ZM64.3563 45.8954C64.0773 45.3374 64.0308 44.6399 64.2168 44.0354H64.5888L64.6353 44.2214L64.8213 44.1749C64.9143 44.7794 64.7283 45.3839 64.3563 45.8954ZM65.1468 54.9164C64.9608 54.8699 64.8678 54.6839 64.9143 54.4979C65.0538 54.5909 65.1468 54.7304 65.1468 54.9164ZM66.9138 40.1759C66.9138 40.5944 66.5418 40.6874 66.1698 40.6874C66.1698 40.2689 66.5883 40.2689 66.9138 40.1759ZM66.5418 35.1074C65.5188 35.4794 67.3788 34.8749 66.5418 35.1074V35.1074ZM68.4483 32.8754C68.7738 33.2474 68.7273 32.7359 69.0993 32.7359C69.0993 33.2009 68.8203 33.2939 68.5878 33.5264C68.3088 33.5264 68.4948 33.0614 68.4483 32.8754ZM68.8203 29.5274C68.4018 29.1089 68.4483 30.0389 68.8203 29.5274V29.5274ZM69.7038 51.8474H69.5643C69.5643 52.1729 69.3318 52.2659 69.5643 52.4984C69.3783 52.6844 68.9598 52.5449 68.9133 52.9169L68.7273 52.8704L68.5413 52.8239C68.3088 52.4054 68.1228 51.5219 68.5413 51.2429C68.7738 51.9404 69.2853 51.0569 69.7968 51.6614L69.6108 51.7079L69.7038 51.8474ZM69.4713 56.2649C69.5643 55.9859 70.2153 56.2184 70.1223 56.5439C69.7968 56.5439 69.7038 56.3114 69.4713 56.2649ZM69.9828 61.4264C69.9363 61.6589 69.8433 61.3334 69.8433 61.1474C69.8898 60.9149 69.9828 61.2404 69.9828 61.4264ZM69.7038 57.5669C69.2853 57.5669 69.2388 57.9389 69.1923 58.3574L69.1458 58.5434L69.3318 58.4969C68.9133 59.1014 68.8203 60.0314 68.0763 60.2174C67.7973 59.3804 68.1228 58.5434 68.3088 57.8459V57.9854H68.6808V57.7064H68.4018L68.3553 57.5204L68.3088 57.7064C68.2158 57.7529 68.1693 57.6599 68.1693 57.5669L68.4018 57.4274L68.1693 57.2879C68.0763 57.1949 68.0763 56.9159 67.9368 56.8694C68.0763 56.4974 68.4483 57.0554 68.5878 57.1484C68.7738 57.0554 68.9598 56.9159 69.0993 56.7299C69.3318 57.0089 69.6573 57.1484 69.7038 57.5669ZM67.2858 65.2859C67.4718 65.3324 67.5648 66.4019 67.1463 66.2159C67.1928 65.8904 67.0998 65.4719 67.2858 65.2859ZM66.6813 61.5659C66.7278 61.2869 67.1463 61.4264 67.1928 61.1474C67.7043 61.3334 67.1463 61.7054 66.6813 61.5659ZM67.4253 63.2864C67.3788 62.9609 67.6578 63.0074 67.5648 62.6354C68.0298 62.4959 67.7043 63.3794 67.4253 63.2864ZM66.0303 48.8249C65.7513 48.8714 65.7048 48.7319 65.5188 48.6854C65.4723 48.4529 66.2163 48.4529 66.0303 48.8249ZM66.2628 50.6849H65.6118C65.7048 50.4524 65.8443 50.2199 65.9838 50.0339C66.2163 50.1269 66.2163 50.4524 66.2628 50.6849ZM65.7513 47.1044V46.8254H65.9838V47.1044H65.7513ZM65.8908 41.2454C65.7978 41.1524 65.6583 41.1059 65.5188 41.1059V40.6874C65.7513 40.6874 65.7978 40.5479 66.0303 40.5479C66.1233 40.9664 65.8443 40.9199 65.8908 41.2454ZM65.2398 40.4549C65.2863 40.2689 65.4723 40.2689 65.5188 40.0364C65.8443 40.0829 65.5188 40.5479 65.2398 40.4549ZM65.6583 56.9159C65.5188 56.7299 65.2863 56.5904 65.2863 56.2649C65.5188 56.3579 65.6118 56.5904 65.6583 56.9159ZM65.7513 59.1944C65.6583 59.6594 65.4723 59.3339 65.2398 59.1944C65.2863 58.8224 65.4723 59.3804 65.7513 59.1944ZM65.5188 54.6839C65.8908 54.6839 66.2163 54.7304 66.1698 55.1954C66.0303 54.9164 65.5188 55.0559 65.5188 54.6839ZM66.5418 55.4744C66.4953 55.7069 66.3093 55.7999 66.0303 55.7534C65.8908 55.3349 66.3093 55.4744 66.5418 55.4744ZM67.6578 50.6849H66.6348C66.4023 50.2199 66.2628 49.7084 66.2628 49.2434C66.9603 49.0574 67.7043 49.6619 67.6578 50.6849ZM66.5418 46.2674C66.7278 46.3139 66.8208 47.3834 66.4023 47.1974C66.4023 46.8719 66.3558 46.4534 66.5418 46.2674ZM67.0533 56.9159C66.9603 57.7994 67.3788 58.1249 67.1928 58.7759L67.0068 58.7294L66.9603 58.9154C66.4488 58.4969 66.3558 57.6134 66.0768 56.9159C66.4953 57.1484 66.5418 57.1484 67.0533 56.9159ZM66.7743 51.1964H67.7973C67.9833 51.8474 67.4253 51.7544 67.4253 52.2659C66.9603 52.1729 66.7278 51.8474 66.7743 51.1964ZM67.9368 49.4759C68.0763 49.0574 68.3553 49.5224 68.4483 49.6154C68.4018 49.9409 68.1228 49.4759 67.9368 49.4759ZM68.4483 50.8244H68.0763V50.4059C68.3553 50.3594 68.4483 50.4989 68.4483 50.8244ZM68.1693 52.7774C67.9833 53.1959 67.7508 52.4984 67.5183 52.4984C67.5648 52.3589 67.7508 52.4054 67.7508 52.2194C68.0763 52.3124 67.9368 52.7774 68.1693 52.7774ZM68.4483 54.2654C68.4948 54.2189 68.0763 54.1259 68.0763 54.1259C68.0298 53.8934 68.7273 53.9399 68.4483 54.2654ZM67.5648 55.0559C67.8903 54.9629 67.7973 55.3349 68.0763 55.3349C67.9833 55.6604 67.4253 55.3814 67.5648 55.0559ZM68.9598 41.3849C68.4948 41.9894 69.7038 41.5244 68.9598 41.3849V41.3849ZM68.6808 40.4549C68.4948 40.3154 68.4018 40.1294 68.4018 39.9434C68.5413 40.0364 68.7273 40.0829 68.9133 40.0829C69.0063 40.3154 68.7273 40.2224 68.6808 40.4549ZM68.9598 40.5479C69.0063 40.3619 69.1923 40.3619 69.1923 40.1294C69.5178 40.2224 69.1923 40.6874 68.9598 40.5479ZM68.6808 36.9674C68.7273 36.7349 68.9133 36.6419 69.1923 36.6884C69.0993 36.8744 68.9133 37.0139 68.6808 36.9674ZM69.3318 46.4069C69.5643 46.3604 69.5643 47.1509 69.1923 46.9184C69.1923 46.6859 69.3783 46.6859 69.3318 46.4069ZM69.4713 37.3859C69.0993 37.1534 69.7038 36.8279 69.9828 36.8744C69.9363 37.1534 69.5643 37.1534 69.4713 37.3859ZM68.9598 35.5259C69.0063 35.0609 69.3783 35.0144 69.7038 34.8749C69.7038 35.2469 69.3783 35.5259 68.9598 35.5259ZM68.5878 34.5959V34.3169H69.2388C69.1458 34.5029 68.6808 34.8749 68.5878 34.5959ZM68.9598 37.3859V37.8044C68.5878 37.7114 68.6343 37.9904 68.3088 37.9439C68.3553 37.6184 68.6343 37.3859 68.9598 37.3859ZM68.1693 36.5954C68.0763 36.6884 68.0763 35.8049 68.4018 35.9444C68.4483 36.2234 68.2623 36.3164 68.1693 36.5954ZM68.1693 40.5479C68.7273 40.5479 68.2623 41.1059 68.1693 41.1989C67.7973 41.1059 68.3553 40.8734 68.1693 40.5479ZM67.6578 37.8044C67.3788 37.7114 67.9368 37.3859 67.9368 37.1534C68.3088 37.2929 67.7973 37.6184 67.6578 37.8044ZM67.6578 38.4554C67.5648 38.4554 67.5183 38.2694 67.5183 38.1764C67.7508 37.7114 67.7973 38.4089 67.6578 38.4554ZM67.5648 39.7574C67.6578 39.8039 67.7043 39.8969 67.7973 39.8969V40.1759C67.6578 40.1759 67.5648 40.2224 67.5648 40.3154C67.2393 40.2689 67.7043 40.0829 67.5648 39.7574ZM67.5648 47.1044L67.7508 47.1509L67.9368 47.1974C67.9833 47.8949 68.5878 48.0344 69.1923 48.1274C69.1458 48.6854 68.0298 48.7784 67.7973 48.6389L67.9368 48.4529L67.7973 48.2669C67.7973 47.8949 67.4718 47.8949 67.1463 47.8484C67.1928 47.4764 67.5183 47.4299 67.5648 47.1044ZM66.9138 41.6174C67.0998 41.0129 67.5648 41.4779 66.9138 41.6174V41.6174ZM67.1928 31.6664C66.9603 31.6199 66.9138 31.4339 66.9138 31.1549C67.1463 31.1549 67.1928 31.2944 67.4253 31.2944C67.3788 31.4339 67.1928 31.4804 67.1928 31.6664ZM65.3793 38.3159C65.3328 37.8509 65.8443 37.8974 66.1233 37.8044C66.2628 38.3624 65.8443 38.3624 65.3793 38.3159ZM65.2398 32.8754C65.3328 32.5499 65.3793 32.9219 65.3793 32.8754C65.4258 33.3404 65.1003 33.6194 65.2398 32.8754ZM66.6813 59.8454C66.6813 60.0779 66.8208 60.1244 66.8208 60.3569C67.3788 60.3569 66.5883 59.7989 67.1928 59.8454L67.2393 60.0314L67.4253 59.9849V60.7754C66.5883 61.0544 66.0768 61.6589 65.0073 61.7054L64.9608 61.5194L64.7748 61.4729C64.7283 61.1009 65.0538 61.1474 65.2863 61.0544C65.1933 60.9149 65.1468 60.7289 65.1468 60.5429C65.8443 60.4964 65.7978 59.7059 66.6813 59.8454ZM65.0073 60.6359C65.0073 61.0079 64.4493 60.9149 64.4958 60.4964C64.7748 60.4499 64.8213 60.5894 65.0073 60.6359ZM65.3793 68.0759C65.1468 67.7969 64.8213 67.6109 64.7283 67.1459C64.8213 67.2389 65.3328 67.4714 65.3793 67.1459C65.5653 67.3784 65.8908 67.4714 65.8908 67.9364C65.7048 67.9829 65.4258 67.8899 65.3793 68.0759ZM66.2628 69.9359C66.1698 70.0289 66.0303 70.0754 65.8908 70.0754C65.7048 69.8894 65.7513 69.5174 65.7513 69.1454C66.0768 69.1454 66.1698 69.3314 66.2628 69.5639L66.2163 69.7499L66.2628 69.9359ZM66.6813 69.9359L66.7278 69.7034L66.5418 69.5639C66.6348 69.4244 66.6813 69.3314 66.5418 69.2849C66.9138 68.9594 67.1928 69.8429 67.5648 69.9359C67.4718 70.2149 66.7743 70.0754 66.6813 69.9359ZM67.2858 67.0064C67.1928 66.5879 67.3788 66.4949 67.5648 66.3554C67.7508 66.4019 67.6113 67.0994 67.2858 67.0064ZM67.7973 63.4259C68.0763 63.4724 67.9368 64.0304 68.1693 64.0769C68.0763 64.4024 67.6578 63.8444 67.7973 63.4259ZM69.0993 60.3569L68.9133 60.4964L69.0993 60.6359C69.0528 60.9614 69.0993 61.2869 69.2388 61.5659C68.9598 61.4729 69.0528 61.7984 68.8668 61.8449C68.4483 61.7054 68.3088 61.1939 68.2158 60.6359C68.6343 60.7289 68.8203 59.7059 69.0993 60.3569ZM68.4483 62.9144C68.9133 62.7284 68.5413 63.3794 68.8203 63.3329C68.7738 63.5654 68.4018 63.1469 68.4483 62.9144ZM68.9598 64.9139C68.7738 65.3324 68.8203 64.4489 68.8203 64.2629C69.0063 63.7979 68.9598 64.6814 68.9598 64.9139ZM68.8203 62.4959C69.0993 62.1704 69.5643 62.0774 69.9828 62.2169L70.1688 62.2634L70.3548 62.3099C70.1688 62.9144 69.8433 63.5189 69.4713 64.0304C69.6108 63.4724 69.3783 62.8214 68.8203 62.4959ZM70.4943 64.2164V64.0769C71.0988 63.9839 69.8898 64.9604 70.4943 64.2164ZM70.4943 59.4269L70.4478 59.2409L70.2618 59.2874C70.0758 59.0084 70.0758 58.6364 70.2618 58.3574C70.4943 58.3574 70.5408 58.4969 70.7733 58.4969C70.6338 58.8224 70.9593 59.5664 70.4943 59.4269ZM70.3548 53.1959C70.0758 53.2424 70.0758 53.6144 69.8433 53.7074L69.6573 53.6609L69.6108 53.8469C69.5178 53.8004 69.3783 53.7074 69.3783 53.5679L69.4248 53.2889L69.3783 53.0099H69.7503C69.7503 52.6844 69.5178 52.5914 69.8898 52.4984C69.8898 52.6379 69.9363 52.7309 70.0293 52.7774C69.9828 52.4519 70.4013 52.6379 70.4013 52.3589L70.5873 52.4054L70.6338 52.2194C71.1918 52.4984 71.6568 52.9634 71.8893 53.5679L71.8428 53.7074L71.8893 53.8469C71.7033 53.8934 71.6103 54.0794 71.6568 54.2654H71.3778V54.5444L71.6103 54.5909L71.7498 54.4049H72.2613V54.8234L72.0753 54.8699L72.1218 55.0559H71.9823L71.7963 55.0094L71.7498 55.1954C71.4708 55.1024 71.2848 54.8234 71.3778 54.5444C70.8663 54.2189 70.5408 53.7539 70.3548 53.1959ZM70.7268 43.4774L70.7733 43.2914L70.5873 43.2449V43.1054L70.7733 43.0589L70.7268 42.8729C71.0988 42.9659 71.1918 42.7334 71.4708 42.7334L71.6103 42.9194L71.8428 42.8729C71.8893 43.0589 72.0288 43.1519 72.2148 43.1519C72.1683 43.6169 71.8893 43.8494 71.9823 44.5004C71.6568 44.7794 71.3313 45.0119 70.9593 45.1514L70.9128 44.9654L70.7268 45.0119C70.6803 44.7794 70.8663 44.7794 70.8663 44.5934C70.6338 44.3144 70.4013 44.3609 70.6338 43.9424L70.8198 43.9889L70.8663 43.8029H71.0058V43.5239L70.7268 43.4774ZM74.9118 40.9664C74.8653 41.4779 74.4003 41.6174 74.0283 41.7569L73.8423 41.5709L73.6098 41.4779C73.8423 41.0129 74.4468 40.7804 74.9118 40.9664ZM74.6793 39.5249C74.2143 40.1294 75.4233 39.6644 74.6793 39.5249V39.5249ZM73.9353 62.6354L73.7493 62.5889L73.7028 62.7749C73.4703 62.6354 73.1913 62.5889 72.9588 62.6354C72.9123 62.2169 72.8193 61.8449 72.6798 61.4264C73.1448 61.4264 73.2378 61.0544 73.7028 61.0079C73.6563 60.7754 73.6563 60.4499 73.3308 60.4964C73.6098 60.4034 74.1213 60.3569 73.8423 59.9849C73.3773 59.3339 74.4003 60.4964 74.2143 59.5664L74.4003 59.6129L74.5863 59.5664C74.8188 59.8919 75.0048 60.2639 75.0978 60.6359C74.4933 61.1474 74.2608 61.9379 73.9353 62.6354ZM74.6793 62.9144C74.3073 62.7749 74.8188 62.5424 74.8188 62.4029C75.0978 62.4029 74.6793 62.7284 74.6793 62.9144ZM71.2383 50.4059C71.5638 50.0339 71.9358 49.7084 72.4008 49.4759L72.3543 49.6619L72.5403 49.6154C72.8193 49.8944 72.9123 50.3129 72.7728 50.6849C72.1683 50.4524 71.7033 50.8244 71.2383 50.4059ZM72.4008 52.5449C72.0753 52.8704 71.8893 52.1729 71.6568 52.0334C71.7963 51.7079 72.4008 52.1264 72.4008 52.5449ZM71.5173 46.1279C71.5638 45.5699 72.0288 45.5234 72.4008 45.3374L72.4473 45.5234L72.4938 45.7094C72.5868 46.3139 71.9358 46.1279 71.5173 46.1279ZM72.7728 46.5464C72.8193 46.8254 72.6798 47.1044 72.4008 47.1974L72.2613 47.1509L72.1218 47.1974C72.1218 46.9649 72.0288 46.7789 71.8893 46.6859C71.9358 46.4069 72.4938 46.6394 72.7728 46.5464ZM72.6333 60.2174H72.9123V60.6359H72.5403C72.4938 60.4034 72.6333 60.4034 72.6333 60.2174ZM73.9353 38.9669C73.1448 39.1529 73.6098 39.6179 73.9353 38.9669V38.9669ZM74.0283 40.3154C73.9818 40.5014 73.7958 40.5014 73.7958 40.7339C73.6563 40.7339 73.7028 40.5014 73.6563 40.3154H74.0283ZM73.6563 45.3374V45.7559C73.3773 45.8024 73.2378 45.6629 73.2843 45.3374H73.6563ZM73.7958 50.5454C74.2608 50.4059 74.0283 51.2429 73.9353 51.3359C73.6098 51.3359 73.8423 50.7779 73.7958 50.5454ZM74.3073 50.4059C74.1678 50.2199 73.7958 50.2664 73.7958 49.8944H74.3073V50.4059ZM74.4003 53.1959C74.2608 53.4749 73.8888 53.4749 73.5168 53.4749C73.6563 53.1494 73.9818 53.0099 74.2608 53.1494C74.3538 53.1494 74.4003 53.1494 74.4003 53.1959ZM74.1678 52.2659C74.1678 52.5914 73.7493 52.3124 73.6563 52.2659C73.7493 51.8474 73.9353 52.4054 74.1678 52.2659ZM73.5168 49.8944C73.0983 49.8944 73.2378 49.2899 73.0053 49.1039C73.1913 48.7784 73.6563 49.3829 73.5168 49.8944ZM74.8188 54.6374H74.5863C74.5863 54.4514 74.5863 54.2654 74.4468 54.2189C74.4003 53.9399 75.2373 54.4979 74.8188 54.6374ZM74.0283 49.1969C73.3773 49.0574 73.9353 48.1274 74.2608 48.1274L74.4003 48.1739L74.5398 48.1274C74.4468 48.5459 74.2608 48.8714 74.0283 49.1969ZM73.5168 38.0369C73.5168 37.8044 73.6563 37.7579 73.6563 37.5254C73.7493 37.4789 73.7958 37.5719 73.7958 37.6649C73.8423 37.8509 74.1213 37.7579 74.3073 37.8044C74.5863 37.8974 73.7493 37.9904 73.5168 38.0369ZM73.7958 35.2469C73.8888 34.8749 73.9818 35.4329 74.1678 35.3864C74.0283 35.8049 73.9353 35.2469 73.7958 35.2469ZM73.8888 36.4559C73.3773 35.9909 73.6098 36.8744 73.8888 36.4559V36.4559ZM73.4238 33.2474C73.1448 33.0614 73.0518 32.7359 72.9123 32.4569C73.3308 32.5499 73.4703 32.2244 73.6563 32.4569C73.5633 32.7359 73.3308 32.8289 73.4238 33.2474ZM72.7728 38.0369C72.6798 37.9439 72.5403 37.8974 72.4008 37.8974C72.3078 37.3859 72.8658 37.6184 72.9123 37.2464C73.2843 37.4789 72.5403 37.5719 72.7728 38.0369ZM72.4938 40.4084C72.4008 40.6409 72.0288 40.6409 71.9823 40.9199C71.6568 40.7804 72.2613 40.4549 72.4938 40.4084ZM71.4708 39.6179C71.4243 39.1994 71.8893 39.3389 72.1218 39.1994C72.0288 39.4784 71.8893 39.7109 71.4708 39.6179ZM70.5873 45.8954C70.2153 46.3139 71.0523 46.2674 70.5873 45.8954V45.8954ZM70.5873 47.8949C70.5408 48.0809 70.4013 48.1739 70.2153 48.1739C70.2618 47.9879 70.4478 47.8484 70.5873 47.8949ZM71.8893 56.9159C71.5638 56.7764 71.9358 56.3579 72.2613 56.4974C72.2613 56.7764 71.8428 56.5904 71.8893 56.9159ZM72.1218 58.4969C72.1683 58.8224 71.7498 58.6364 71.7498 58.9154C71.5638 58.8689 71.6568 58.5899 71.6103 58.4039C71.8893 58.3109 71.9358 58.4504 72.1218 58.4969ZM74.1678 65.2859L73.9818 65.2394L74.0283 65.4254C73.3308 65.6114 72.5403 65.5184 72.1218 65.7044C72.1683 65.7974 72.2613 65.8439 72.2613 65.9834L72.0753 66.0299L72.1218 66.2159C72.1683 66.3089 72.0753 66.3554 71.9823 66.3554L71.9358 66.1694L71.8893 66.3554C71.5638 66.2159 71.1453 66.2159 71.1453 65.8439L71.1918 65.6579L71.1453 65.4719C71.5173 65.3789 71.2848 65.2859 71.2848 64.9604C71.5638 65.0069 71.6103 64.8674 71.7963 64.8209C71.8893 64.5884 71.6568 64.0304 71.9358 64.0304L71.9823 64.2164L72.1683 64.1699H72.3078L72.2613 64.3094L72.3078 64.4489V64.5884C72.3078 65.0069 72.6333 65.0534 72.9588 65.0999C72.8658 64.9604 72.6798 64.9604 72.6798 64.6814C73.4238 64.4954 73.6563 64.6814 74.2143 64.9604C74.1213 65.0999 74.4003 65.2394 74.1678 65.2859ZM75.0513 65.1464H74.9118L74.9583 64.9604L74.9118 64.7744H75.0513L75.0048 64.9604L75.0513 65.1464ZM74.9118 64.6349H74.7723V64.7744C74.5398 64.5884 74.2608 64.4954 74.2608 64.1234C74.5863 63.9839 74.8653 63.7049 74.9118 63.3329C75.0978 63.3794 75.0048 63.6584 75.0513 63.8444L74.9118 64.1234L75.1443 64.2629C75.0513 64.3559 75.0978 64.5884 74.9118 64.6349ZM75.1908 60.2174C74.9118 60.1244 75.0513 59.2874 75.1908 59.1479C75.7023 59.2874 75.2838 59.9384 75.1908 60.2174ZM74.5398 44.0354C74.6328 43.8959 74.6793 43.7099 74.6793 43.5239C75.0978 43.6634 74.9583 43.5239 75.4233 43.5239C75.7488 43.6634 75.1443 44.0354 75.5628 44.1749C75.4698 44.4074 74.7723 44.0819 74.5398 44.0354ZM74.6793 40.4084C74.8188 39.8969 75.0978 40.4084 75.5628 40.2689C75.5163 41.0594 75.1443 40.3154 74.6793 40.4084ZM77.4693 32.5964C77.1438 32.6429 77.1438 32.3174 77.0973 32.0849H77.4693C77.2833 32.3174 77.4693 32.2244 77.4693 32.5964ZM76.8183 50.4059H76.5858L76.6323 50.2199L76.4463 50.1734V49.8944H76.2138L76.2603 49.7084L76.0743 49.6619C76.1208 49.4294 75.9348 49.4294 75.9348 49.2434L75.9813 49.0109L76.1673 48.8714C76.3068 48.8714 76.3998 48.9179 76.3998 49.0109C76.7718 48.9179 76.5858 48.2669 77.0508 48.2204V48.3599H77.1903C78.1203 48.9644 77.1438 49.8014 76.8183 50.4059ZM77.2368 53.7074L77.0973 53.6609L76.9578 53.7074C76.8648 53.6144 76.8183 53.4284 76.8183 53.2889C77.1903 53.2424 77.2833 53.3819 77.2368 53.7074ZM78.1203 49.6154C77.9808 49.8944 77.8878 50.2199 77.8413 50.5454C77.0973 50.4989 77.6553 49.5689 78.1203 49.6154ZM77.9343 47.9414L77.8878 48.1274C77.6088 48.1739 77.5623 48.0344 77.3763 47.9879V47.8949H77.2368C77.3763 47.6624 77.4228 47.3834 77.3763 47.1044H78.0273C77.8413 47.2904 77.8413 47.8484 78.3063 47.7554C78.3063 47.8949 78.2598 47.9879 78.1668 48.0344L77.9343 47.9414ZM77.9808 44.6864V44.0354C78.3993 43.9889 78.5388 44.7329 77.9808 44.6864ZM78.4923 50.6849C78.6783 50.7779 78.9108 50.8709 78.8643 51.1964C78.6783 51.1964 78.3993 51.1499 78.3528 51.3359C77.9808 51.1499 78.4458 50.8244 78.4923 50.6849ZM78.3528 46.0349C78.0273 45.8489 78.5388 45.4769 78.5853 45.2444C79.0038 45.4769 78.5388 45.9419 78.3528 46.0349ZM78.1203 43.4774C78.3528 43.4774 78.3993 43.6169 78.6318 43.6169C78.6783 43.8494 77.8878 43.8494 78.1203 43.4774ZM77.6088 38.8274C77.6088 38.4554 78.2133 38.5019 78.3528 38.6879C78.3528 39.0134 77.8413 38.7809 77.6088 38.8274ZM77.8413 42.6869C77.3763 42.6869 77.5158 42.5009 77.6088 42.1754C78.0738 42.1754 77.9343 42.3614 77.8413 42.6869ZM77.6088 45.1049C77.3763 45.1049 77.3298 44.9189 77.0973 44.9654C77.0973 44.5469 77.7018 44.6399 77.6088 45.1049ZM77.2368 44.4074C76.9578 44.8259 76.3068 44.6399 75.9813 44.4074C75.8418 43.0589 77.0973 43.5704 77.2368 44.4074ZM76.2138 39.8969C76.2138 39.5714 76.6323 39.8504 76.7253 39.8969C76.6323 40.3154 76.4463 39.7574 76.2138 39.8969ZM75.7953 37.2464C76.0743 37.2929 76.1208 37.5254 76.3068 37.6649C76.3533 37.8044 75.6093 37.7114 75.7953 37.2464ZM74.9118 34.5959L75.1443 34.6424L75.2838 34.4564C75.6558 34.6424 75.8883 34.9679 75.9348 35.3864C75.4233 35.2934 74.8653 35.2469 74.9118 34.5959ZM75.9348 63.1469V63.0074C76.5393 62.9144 75.3303 63.8909 75.9348 63.1469ZM76.7253 58.4969C76.6788 58.1249 76.7718 57.9389 77.0973 57.9854C77.3298 58.2179 77.0508 58.4969 76.7253 58.4969ZM75.7023 56.4044C75.7488 56.2649 75.9348 56.3114 75.9348 56.1254L76.1208 56.1719L76.1673 55.9859H76.3068C76.8183 55.6604 75.7488 55.1489 76.1673 54.9164L76.2138 55.0559L76.2603 54.9164C76.4463 54.8234 76.7718 54.8234 76.6323 54.4049C76.9113 54.6839 76.9578 54.6839 77.2833 54.4049L77.3763 54.6374L77.5623 54.8234C77.5158 55.1024 77.6553 55.1954 77.7018 55.3349L77.6553 55.5209L77.8413 55.5674C77.3298 56.2649 76.6788 56.8694 75.7023 56.4044ZM77.7483 54.5444L77.7948 54.0794L77.3298 54.0329V53.8934L77.5158 53.8469L77.3298 53.8004C77.3298 53.6609 77.4693 53.7074 77.5623 53.6609C77.5623 53.4284 77.4228 53.3819 77.4228 53.1494C77.7948 53.0564 78.1203 52.9169 78.4458 52.7309L78.4923 52.9169L78.6783 52.8704C78.4458 53.5214 78.7248 54.7769 78.1668 55.1489L78.1203 54.9629L77.9343 55.0094C78.0273 54.7304 77.8878 54.5909 77.7483 54.5444ZM79.3758 59.4269L79.1898 59.4734L79.2363 59.6594C78.7248 59.7524 78.7248 59.2874 78.2133 59.3804L78.2598 59.1479L78.1203 59.0549C78.2598 58.6829 78.9108 58.8224 79.3758 58.7759L79.3293 58.9619L79.5153 59.0084C79.5618 59.2409 79.3758 59.2874 79.3758 59.4269ZM79.1433 43.2449C79.2363 43.1054 79.2828 43.0124 79.1433 42.9659C79.3293 42.5939 79.8408 43.0124 80.0268 43.1054C80.0268 43.4774 79.2828 43.3844 79.1433 43.2449ZM80.0268 51.0569C79.9803 51.2894 79.8873 50.9639 79.8873 50.7779C79.9338 50.5454 80.0733 50.8709 80.0268 51.0569ZM79.7478 51.6149C80.0268 51.5684 80.1663 51.7079 80.1198 52.0334C80.0268 51.8474 79.6548 51.9404 79.7478 51.6149ZM79.8873 56.2649C79.8408 55.7534 80.8173 55.7069 80.7708 56.2649H79.8873ZM81.6543 55.0559C81.5148 55.3349 81.2358 54.7304 81.2823 54.4049C81.7008 54.3119 81.3753 55.0094 81.6543 55.0559ZM81.5613 51.7544C80.9103 51.8474 80.6778 51.5219 80.3058 51.3359C80.3523 51.0569 80.4453 50.7779 80.5848 50.5454C81.2358 50.5454 81.3288 51.1964 81.5613 51.7544ZM80.2593 46.0349C80.2593 45.7094 80.2593 45.3839 80.1198 45.1049L80.3058 45.1514L80.2593 44.9654C80.6313 44.9189 80.9103 45.0119 81.0033 45.2444L80.8173 45.2909L80.8638 45.4769C80.8173 45.7559 81.0498 45.7094 81.2358 45.7559C81.0033 45.9884 80.6313 46.0814 80.2593 46.0349ZM81.0498 41.8964C80.8173 42.2219 80.2593 41.6174 80.5383 41.3849C80.8173 41.3849 81.0498 41.5709 81.0498 41.8499V41.8964ZM80.7708 38.6879C80.3988 39.1529 81.2358 39.1064 80.7708 38.6879V38.6879ZM81.4218 42.8264C81.2823 42.3614 81.7938 42.6404 82.0728 42.5474C82.0263 42.8729 81.7473 42.8264 81.4218 42.8264ZM82.3053 40.8269C81.8403 40.7339 81.9798 41.2919 81.5613 41.2454C81.5148 40.7804 81.3753 40.7339 81.5613 40.3154C81.7473 40.4549 82.2588 40.2224 82.3053 40.8269ZM81.4218 38.6879C81.7008 38.6414 81.7473 38.7809 81.9333 38.8274C81.9798 39.0599 81.2358 39.0599 81.4218 38.6879ZM81.4218 44.1749C81.4683 44.6399 80.7243 44.2679 80.6778 44.5934C80.3523 44.3609 81.2358 43.8959 81.4218 44.1749ZM80.1663 38.0369C80.4918 37.8509 80.8173 37.7579 81.1893 37.6184C81.2358 38.4554 80.6313 37.9904 80.1663 38.0369ZM80.3988 36.6884L80.3523 36.8744L80.5383 36.9209C80.3523 37.1534 80.1663 37.4324 79.6548 37.3394C79.4688 37.2464 79.6548 36.8279 79.4223 36.8279C79.6083 36.5024 79.9803 36.4094 80.3058 36.5954C80.3058 36.6419 80.3523 36.6884 80.3988 36.6884ZM80.2593 34.3169C79.8408 33.8984 79.8873 34.8284 80.2593 34.3169V34.3169ZM79.8873 35.3864C79.5153 35.3399 79.6083 34.8749 79.3758 34.7354C79.5153 34.4564 80.3523 34.9679 79.8873 35.3864ZM79.6548 33.8984C79.4688 34.2704 79.0038 34.1309 79.0038 33.6194C79.2363 33.7124 79.3293 33.9449 79.6548 33.8984ZM79.2363 37.7579C78.8178 37.3859 78.8643 38.2694 79.2363 37.7579V37.7579ZM78.8643 42.8264C78.8643 43.2449 78.1203 43.1984 78.2133 42.6869C78.5853 42.5939 78.5853 42.8729 78.8643 42.8264ZM78.4923 37.8974C78.5853 38.4089 77.7948 38.0369 77.4693 38.1764C77.3763 37.6649 78.1668 38.0369 78.4923 37.8974ZM77.2368 28.8764C77.6553 29.0159 77.6553 29.5739 77.7483 30.0854L77.6088 30.0389L77.4693 30.0854C77.2368 29.8529 77.1438 30.0854 76.8183 30.0854C76.8648 29.6204 77.0043 29.2484 77.2368 28.8764ZM76.7253 38.3159C77.0973 38.1299 76.3998 37.5719 77.0973 37.6649V38.3159C76.8648 38.2694 76.5393 38.7344 76.5858 38.1764C76.6788 38.1299 76.6788 38.2229 76.7253 38.3159ZM76.5858 34.1774C76.4463 34.1774 76.3533 34.2239 76.3533 34.3169C76.2138 34.0844 75.8883 34.0844 75.9813 33.6659C76.1208 33.8519 76.6788 33.7124 76.5858 34.1774ZM75.5628 27.3884C76.3068 27.2954 76.0278 28.2719 75.5628 28.3184V27.3884ZM75.5628 33.8054C75.4233 33.6659 75.0978 33.7589 75.1908 33.3869C75.5163 33.2939 75.6558 33.4334 75.5628 33.8054ZM74.9118 32.5964C74.9583 32.3639 75.1443 32.3174 75.4233 32.3174C75.5163 32.7359 75.0978 32.7824 74.9118 32.5964ZM75.1908 28.3184C74.7723 29.1554 75.6558 28.9694 75.1908 28.3184V28.3184ZM74.8188 29.6669C75.2373 29.5739 75.1908 29.8994 75.4698 29.9459C75.3303 30.2249 74.6328 30.0389 74.8188 29.6669ZM74.6793 27.6674C74.6328 27.8534 74.4468 27.8999 74.4468 28.0859C74.3073 28.0859 74.3538 27.8534 74.3073 27.6674H74.6793ZM75.0513 31.6664C74.9583 32.1314 74.4933 31.7594 74.1678 31.8059C74.1213 31.4804 74.9583 31.3874 75.0513 31.6664ZM74.0283 30.5969C73.7028 30.4109 73.5168 30.0389 73.5168 29.6669C73.8423 29.3414 74.4003 30.1784 74.0283 30.5969ZM73.4238 30.5969C73.7028 30.7364 74.1678 30.5969 74.0748 31.1084C73.7028 31.2014 73.6098 30.9689 73.3308 30.9689C73.3773 30.8759 73.4238 30.7364 73.4238 30.5969ZM72.7728 24.4589C72.6333 24.6914 72.4008 24.7844 72.1218 24.7379C72.2613 24.5519 72.5403 24.4124 72.7728 24.4589ZM72.6333 30.5969C72.7263 31.0154 72.4008 31.0154 72.6333 31.2479C72.8658 31.2479 72.9123 31.1084 73.1448 31.1084C73.0983 31.3409 72.8658 31.4339 72.9123 31.7594L72.7263 31.7129L72.7728 31.8989C72.7263 32.0849 72.5403 32.1314 72.5403 32.3174L72.4008 32.2709L72.2613 32.2244C71.8893 32.0384 71.9823 31.3874 71.8893 30.8759C72.2613 30.9224 72.1683 30.4574 72.6333 30.5969ZM71.8893 24.8774C71.9358 25.2029 71.5173 25.0169 71.5173 25.2959C71.1453 25.1564 71.5638 24.7379 71.8893 24.8774ZM71.5173 33.2474C71.6568 33.2474 71.6103 33.4799 71.6568 33.6659H71.2848C71.1918 33.3404 71.4708 33.4799 71.5173 33.2474ZM70.5873 25.1564H70.9593C70.9593 25.5284 70.5873 25.4819 70.5873 25.8074C70.3083 25.7609 70.5408 25.2494 70.5873 25.1564ZM70.3548 26.4584C70.3548 26.4119 70.6338 26.2259 70.7268 26.3189C70.8198 26.4119 70.2153 26.6909 70.3548 26.4584ZM70.0758 31.3874H70.7268C70.5873 31.8059 70.5873 32.2709 70.7268 32.7359L70.6803 32.9219L70.8663 32.9684C69.9828 33.7589 69.9828 32.7824 69.8433 31.8989C70.2153 32.0384 70.0758 31.6199 70.0758 31.3874ZM69.7038 24.3659C70.1688 24.2729 69.8898 24.9704 69.9363 25.2959C69.8433 25.0169 69.5178 24.5984 69.7038 24.3659ZM69.9828 30.0854C69.8898 30.2714 69.7968 30.5039 69.4713 30.5039C69.5643 30.2714 69.6573 30.0389 69.9828 30.0854ZM69.3318 30.5969C69.2388 30.7829 69.1458 31.0154 68.8203 31.0154C68.8203 30.8759 68.7738 30.7829 68.6808 30.7364C68.6808 30.4574 69.1458 30.6899 69.3318 30.5969ZM69.0993 27.1559H68.3553C68.4948 26.9234 69.0993 26.4584 69.0993 27.1559ZM68.3088 25.3889C68.6808 25.3424 68.4483 25.9004 68.6808 25.9004C68.6808 26.2259 68.2623 25.9469 68.1693 25.9004C68.3088 25.8074 68.3553 25.6214 68.3088 25.3889ZM68.4483 35.3864C68.4018 35.6654 67.7508 35.4794 67.7043 35.3864C67.7508 35.0609 68.3553 35.2934 68.4483 35.3864ZM67.7973 27.0164C67.6113 26.8769 67.3788 26.8304 67.4253 26.5049C67.7508 26.4584 67.8438 26.6444 67.7973 27.0164ZM67.5648 23.0174C67.8903 23.0639 67.6578 23.6219 67.2858 23.4359C67.3788 23.2964 67.6113 23.2964 67.5648 23.0174ZM67.7973 27.3884C67.7043 27.6209 67.5648 27.8534 67.4253 28.0394C66.9603 27.5744 66.8673 27.4349 67.7973 27.3884ZM66.9138 30.8759C66.6348 30.8294 66.6813 30.5039 66.4023 30.4574C66.4953 29.8994 67.2858 30.5969 66.9138 30.8759ZM66.7743 21.6689C67.1463 21.9014 66.4953 22.1339 66.1233 22.0874C66.2163 21.7619 66.7278 21.9479 66.7743 21.6689ZM66.6813 24.0869C66.6813 24.3659 66.3558 24.2729 66.4488 24.5984C65.9838 24.7379 66.2163 24.1334 65.9373 24.0869C65.9373 23.8079 66.5883 23.9939 66.6813 24.0869ZM66.1698 27.1559C65.7048 27.2954 65.8443 26.5514 65.7978 26.6444C66.0303 26.3189 66.3558 27.0629 66.1698 27.1559ZM66.0303 35.2469C65.1933 35.1074 65.7513 35.6654 66.0303 35.2469V35.2469ZM65.2398 26.2259H65.5188V26.5049H65.2398V26.2259ZM65.3793 31.0154C65.3328 31.2014 65.1933 31.2944 65.0073 31.2944C64.9608 30.9689 65.1933 31.0154 65.3793 31.0154ZM64.6353 38.6879C64.5888 38.4089 64.7283 38.3159 64.7748 38.1764C65.0073 38.3159 65.1003 38.7809 64.6353 38.6879ZM64.8678 21.8084C64.8678 22.3199 64.3098 22.1804 63.8448 22.2269C64.0773 21.9944 64.5888 21.5759 64.8678 21.8084ZM64.2633 29.9459C64.5423 30.5969 64.5888 29.4809 64.2633 29.9459V29.9459ZM64.1238 22.8779C64.1703 22.6454 64.3563 22.5524 64.6353 22.5989C64.7748 23.0174 64.3563 22.8779 64.1238 22.8779ZM64.3563 28.5974C64.4028 28.5044 64.4958 28.4579 64.4958 28.3184H64.7748C64.8213 28.5974 64.5888 28.5974 64.3563 28.5974ZM63.8448 33.5264C64.2168 33.6194 64.2633 34.0379 64.5888 34.1774L64.6353 34.3634L64.8213 34.4099C64.5423 34.5959 64.2633 34.7354 63.9378 34.8284C64.0773 34.2704 63.6123 33.8519 63.8448 33.5264ZM63.6123 33.1079C63.4263 32.9219 63.3333 32.5964 63.4728 32.4569C63.8913 32.5964 63.5658 32.6894 63.6123 33.1079ZM63.4728 21.7154C63.4263 21.9014 63.2868 21.9944 63.1008 21.9944C63.1473 21.7619 63.2868 21.6689 63.4728 21.7154ZM62.9613 29.6669H62.4498C62.3568 29.1554 63.0543 29.1554 62.9613 29.6669ZM62.4498 23.5289C62.4498 23.5289 62.2173 23.0639 62.2173 23.1104C62.2638 22.7849 62.6358 23.3429 62.4498 23.5289ZM62.3568 31.3874C62.2173 31.5269 62.3103 31.8989 61.9848 31.8059C61.9383 31.5269 62.0778 31.3874 62.3568 31.3874ZM62.4498 41.1059C62.3103 41.3384 62.1243 41.4314 61.9383 41.2454C62.0778 40.8269 62.1243 41.0594 62.4498 41.1059ZM61.7058 38.6879C61.6128 38.6414 61.5663 38.7344 61.5663 38.8274C61.4268 38.8274 61.4733 38.5949 61.4268 38.4089C61.6593 38.4089 61.7058 38.5484 61.7058 38.6879ZM61.4268 37.5254C61.1943 37.9904 61.0548 37.1999 61.2873 37.1069C61.7523 37.1069 61.0548 37.5719 61.4268 37.5254ZM61.4268 25.0169C61.3803 25.2959 61.1013 25.2959 61.0548 25.5284C60.7293 25.4354 61.2408 25.0169 61.4268 25.0169ZM60.9153 38.0369C60.3573 38.2694 61.0548 38.6414 60.9153 38.0369V38.0369ZM60.8223 43.2449C60.8688 43.3379 60.7758 43.3844 60.6828 43.3844L60.6363 43.1984L60.4503 43.2449C60.3108 42.9194 59.9388 42.7799 59.9388 42.3149C60.2643 42.2684 60.4038 41.7569 60.6828 42.0359L60.6363 42.2219L60.8223 42.1754C60.7293 42.5474 60.6828 42.6404 60.9618 42.8264L60.7293 42.9659L60.8223 43.2449ZM57.2418 64.6349H56.8698L56.8233 64.3559L56.7303 64.6349C56.3118 64.4024 56.1258 65.1464 56.5908 65.0534L56.5443 65.2394L56.7303 65.1929C56.7768 65.5649 56.6838 65.8904 56.4978 65.9834L56.3118 65.9369L56.3583 66.1229C56.0328 66.3089 55.8003 66.6809 55.8468 67.0529C55.2888 66.6344 55.0098 65.9834 55.1028 65.3324L55.3353 65.3789L55.4748 65.1929H55.7073C55.7538 65.0999 55.8468 65.0534 55.8468 64.9139C55.7073 64.8209 55.7073 64.5884 55.4748 64.6349L55.5213 64.4024L55.3353 64.2629C55.2888 64.0304 54.9168 64.1234 55.1028 63.7514L55.2888 63.7979L55.4748 63.7514C55.6143 63.7514 55.5678 63.5189 55.6143 63.3329C55.8468 64.0769 56.4048 64.0769 57.0093 63.9839L57.1953 64.0304L57.2418 63.8444C57.3813 63.8444 57.3348 64.0769 57.3813 64.2629L57.1953 64.4024L57.2418 64.6349ZM56.3583 60.1244C56.2188 59.6129 56.7303 59.7989 56.7303 59.4734C57.2418 59.5664 56.7303 60.0779 56.3583 60.1244ZM56.8698 56.2649C56.9163 55.7069 57.0093 57.7529 56.8698 56.2649V56.2649ZM56.3583 61.9844C56.6373 62.0774 56.8233 62.3564 56.7303 62.6354C56.4048 62.5889 56.4513 62.8679 56.0793 62.7749C56.0328 62.3564 56.2653 62.2634 56.3583 61.9844ZM55.9863 57.7064C55.6143 57.6599 55.7073 57.1484 55.3353 57.0554C55.5678 56.5904 56.2188 56.9624 56.2188 57.4739C56.1258 57.5204 55.9863 57.5669 55.9863 57.7064ZM55.6143 57.7064C55.6608 58.0319 55.2423 57.8459 55.2423 58.1249C55.0098 57.8924 54.8703 57.5669 54.8703 57.1949C55.2888 57.1484 55.2423 57.6134 55.6143 57.7064ZM55.1958 62.0774C54.9168 62.0309 55.3353 61.7054 55.3353 61.5659C55.7538 61.7054 55.2888 62.0309 55.1958 62.0774ZM57.1023 55.1954C57.1023 54.8699 57.6138 55.0094 57.6138 54.6839C57.9858 54.8699 57.3813 55.1954 57.1023 55.1954ZM57.5208 55.5674C57.8463 55.5674 57.5673 56.0324 57.5208 56.0789C57.1953 56.0789 57.4743 55.6604 57.5208 55.5674ZM57.7533 59.5664C57.5673 59.5199 57.6603 59.2409 57.6138 59.0549C57.8463 59.1944 57.9393 59.3804 57.7533 59.5664ZM56.7303 54.7769L56.6838 54.5909L56.6373 54.4049V54.1259C56.4513 54.2189 55.9863 53.9864 55.9863 54.2654L55.7538 54.2189L55.6143 54.4049C55.1958 54.3119 54.7773 54.0794 54.4518 53.7539C54.6378 53.1029 55.4283 53.1029 56.1258 52.9634L56.0793 53.1494L56.2653 53.1959C56.4513 53.1029 56.9163 53.3354 56.9163 53.0564L56.9628 52.8704L56.7768 52.8239C56.7768 52.4519 57.6603 52.9169 57.6603 52.5449C58.3113 53.3819 57.5673 54.6839 56.7303 54.7769ZM54.3123 70.0754C54.3123 69.9824 54.3588 69.9359 54.4518 69.9359V70.0754H54.5913C54.6378 70.1684 54.5448 70.2149 54.4518 70.2149V70.0754H54.3123ZM54.5913 60.9149H53.8473C53.9403 60.6359 54.0798 60.3569 54.2193 60.1244C54.4053 60.2639 54.6843 60.2639 54.7308 60.5429L54.5448 60.6824L54.5913 60.9149ZM52.1733 56.9159C52.1733 57.0089 52.1268 57.0554 52.0338 57.0554L51.9873 56.8694L51.8013 56.9159C51.3828 56.7764 51.7548 56.6834 51.6618 56.2649C51.8943 56.0324 51.8013 56.2649 52.1733 56.2649L52.1268 56.4509L52.3128 56.4044V56.6834H51.9873L52.1733 56.9159ZM51.6618 61.1474C51.9873 60.5429 52.4523 61.0079 51.6618 61.1474V61.1474ZM52.0338 65.2859C51.9873 65.4719 51.8478 65.5649 51.6618 65.5649C51.7083 65.3789 51.8478 65.2859 52.0338 65.2859ZM51.6618 60.2174V59.7989C51.8943 59.7989 51.9408 59.9384 52.1733 59.9384C52.1268 60.2174 51.9408 60.2639 51.6618 60.2174ZM47.7093 52.5449L47.7558 52.3589L47.5698 52.3124C47.5698 51.7079 47.2443 51.8939 47.4303 51.2429C47.6628 51.4754 48.0813 51.5219 48.3138 51.7544V52.4054C48.0813 52.4519 47.9418 52.7774 47.7093 52.5449ZM48.0813 53.8469H47.7093C47.7558 53.6609 47.9418 53.6609 47.9418 53.4284C48.1278 53.4749 48.0813 53.7074 48.0813 53.8469ZM48.4533 40.9664C48.4533 41.2454 47.8953 41.0129 47.7093 41.1059C47.7093 40.8269 48.2208 41.0594 48.4533 40.9664ZM48.2208 35.2469C48.3138 35.4794 48.8253 35.2004 48.7323 35.6654C48.4998 35.5724 48.1743 35.6189 48.2208 35.2469ZM48.2208 48.1274C48.2208 47.8484 48.5463 47.9414 48.4533 47.6159H48.9648C48.7788 47.8484 48.6858 48.1739 48.2208 48.1274ZM48.9648 49.0574C48.1743 48.9179 48.6858 49.4759 48.9648 49.0574V49.0574ZM47.9418 49.0574C48.0813 49.1039 48.0348 49.1969 47.9418 49.1969C48.1278 49.5689 48.0348 49.3364 47.7093 49.3364C47.7558 49.1969 47.9418 49.2434 47.9418 49.0574ZM47.8488 50.6849C48.0348 50.4059 48.6393 50.5919 48.8718 50.4059C48.8253 50.6849 48.7323 50.9639 48.6393 51.1964C48.3138 51.0569 48.0813 50.8244 47.8488 50.6849ZM48.5928 53.4749C48.8253 53.6609 48.8718 53.9399 48.6858 54.1724L48.5928 54.2654C48.3603 54.2654 48.7323 53.8004 48.5928 53.4749ZM48.9648 54.7769C48.9183 55.1024 48.5928 55.1954 48.5928 55.5674C48.0813 55.4279 48.4533 54.6374 48.9648 54.7769ZM49.3833 55.1954L49.5228 55.2419L49.6623 55.1954C49.7088 55.4279 49.9413 55.5209 49.8948 55.8464C49.6623 55.9859 49.6158 56.3579 49.3833 56.4974L49.3368 56.3114L49.1508 56.2649C48.7788 55.8929 49.1043 55.3814 49.3833 55.1954ZM49.3833 48.1274C49.4763 47.6624 50.0343 48.4529 49.6158 48.5459H49.3833C49.4298 48.4529 49.5693 48.1739 49.3833 48.1274ZM50.3598 51.6149C50.0808 51.5684 50.1273 51.2429 49.8483 51.1964C50.0343 50.8244 50.5458 51.1964 50.3598 51.6149ZM50.3598 49.6154C50.5458 48.8249 50.9643 50.0804 50.3598 49.6154V49.6154ZM50.1273 52.2659C49.9878 52.0799 49.7553 51.9404 49.7553 51.6149C49.9413 51.7544 50.4528 51.8939 50.1273 52.2659ZM49.6158 49.7549C49.2438 49.6154 49.8948 49.5689 49.7553 49.2434C49.9413 49.2899 49.8483 49.5689 49.8948 49.7549C49.7553 49.6619 49.6623 49.5689 49.6158 49.7549ZM49.2438 51.1964C49.1043 51.9869 49.8018 51.2429 49.2438 51.1964V51.1964ZM49.4763 52.7774C48.7788 53.1494 49.1508 53.5214 49.4763 52.7774V52.7774ZM49.4763 57.0554C49.6158 57.1484 49.8018 57.1949 49.9878 57.1949C49.9878 57.5669 49.3833 57.5204 49.4763 57.0554ZM50.1273 58.7759C50.0343 59.0084 49.8483 59.2874 49.6158 59.0549C49.7088 58.8689 49.8948 58.7759 50.1273 58.7759ZM49.8483 54.2654C50.0343 54.0794 49.8948 53.6144 50.2203 53.6144L50.3598 53.8004L50.5923 53.7539C50.5923 53.8469 50.6388 53.8934 50.7318 53.8934L50.6853 54.0794L50.8713 54.0329C50.9643 54.4979 50.7318 54.5909 50.6388 54.8234C50.1738 54.8234 50.2203 54.3584 49.8483 54.2654ZM49.8483 45.1979C49.4298 44.7329 50.4528 44.1284 49.6158 43.9889L49.6623 43.8029L49.4763 43.7564C49.4298 43.5704 49.2903 43.4309 49.1043 43.3379H48.9648V43.4774C48.8718 43.3379 48.6393 43.3844 48.5928 43.1984L48.5463 43.0124L48.4998 42.8264C49.1973 42.3614 50.4528 42.6404 51.1503 42.4079C50.7783 43.1054 51.6618 43.5704 51.0108 43.9889C51.0573 44.1749 51.1968 43.9424 51.3828 43.9889C51.4758 44.1749 51.2433 44.6864 51.5223 44.6399C51.3363 45.2444 50.4993 45.1049 49.8483 45.1979ZM49.8483 30.0854C50.1738 30.0389 50.1738 30.3644 50.2203 30.5969H49.5693C49.6158 30.3179 49.9413 30.4109 49.8483 30.0854ZM50.2668 28.4579C50.4528 28.5974 50.5923 28.8764 50.4993 29.1089C50.2203 29.1089 50.2203 28.7834 50.2668 28.4579ZM49.3833 29.9459C49.4763 29.8064 49.5228 29.6204 49.5228 29.4344C49.8483 29.4344 49.7553 29.9459 49.3833 29.9459ZM49.7553 34.7354H50.4063C50.1738 35.3864 50.5923 35.5724 50.6388 36.2234C50.1738 35.8049 49.1973 35.9444 49.1043 35.1539C49.4298 34.6889 50.0808 35.4329 49.7553 34.7354ZM49.6158 37.7579C50.0343 37.7114 49.8948 38.1764 50.3598 38.0369C50.2203 38.5949 49.9878 38.8274 49.1973 38.9669L49.2438 38.7809L49.0578 38.7344C49.2438 38.3624 49.6158 38.2694 49.6158 37.7579ZM51.2898 22.0874C51.8478 22.0874 51.2433 22.5059 51.4293 22.8779C51.1038 22.8779 51.3363 22.3199 51.2898 22.0874ZM51.1503 38.3159C51.4293 39.0134 51.4758 37.8509 51.1503 38.3159V38.3159ZM51.5223 39.5249C51.4293 39.9434 51.1968 39.7109 50.8713 39.6644C50.9643 39.5714 51.0108 39.4319 51.0108 39.2459C51.4293 39.1064 51.3363 39.4319 51.5223 39.5249ZM52.2663 50.1269C52.1268 50.4524 51.8478 50.6384 51.5223 50.6384C51.3828 50.1269 51.8478 50.0804 52.2663 50.1269ZM52.6848 31.6664C52.9173 31.8989 52.4058 32.5034 52.0338 32.5964C51.6618 32.1314 52.3593 31.8524 52.6848 31.6664ZM52.5453 29.6669C52.7778 29.6669 52.4988 30.3179 52.1733 30.1784C52.0338 29.7599 52.5918 30.0389 52.5453 29.6669ZM53.5683 33.1079C53.8938 33.2474 53.6148 34.1309 53.3358 33.6194C53.3358 33.4334 53.7078 33.5264 53.5683 33.1079ZM54.1728 41.8964C54.5448 42.0359 54.8238 42.3149 54.9168 42.6869C54.5913 42.2684 54.4518 43.0124 54.1728 42.6869L54.2193 42.5009L54.0333 42.4544C53.7543 42.0824 54.2658 42.3149 54.1728 41.8964ZM55.4748 31.3874L55.4283 31.5734L55.6143 31.6199C55.2888 31.9454 54.8238 32.1314 54.3588 32.0384C54.4983 31.7594 54.6378 31.5269 54.7308 31.2479C55.0098 31.2479 55.0563 31.4804 55.4748 31.3874ZM55.1958 27.8069V27.5279C55.4748 27.4814 55.4283 27.7139 55.4283 27.9464C55.3818 27.8999 55.3353 27.8069 55.1958 27.8069ZM56.2188 28.5974C56.0793 28.9229 55.6143 28.1324 55.9863 27.9464C56.2653 28.0859 55.8003 28.4579 56.2188 28.5974ZM56.0793 36.5954C56.2653 36.9674 56.5908 37.1999 56.2188 37.5254C55.9398 37.3859 55.7073 37.0604 55.7073 36.7349C55.8933 36.7349 56.0793 36.7349 56.0793 36.5954ZM57.2418 29.6669C57.3813 29.4344 57.4278 29.1554 57.3813 28.8764C57.7998 28.9229 57.6603 29.7134 57.2418 29.6669ZM57.6138 27.3884C57.7998 27.3419 57.8463 27.5279 57.9858 27.5279C58.0788 27.8069 57.4278 27.7139 57.6138 27.3884ZM57.3813 37.3859C57.0093 37.8974 57.8463 37.9439 57.3813 37.3859V37.3859ZM57.2418 23.9474C56.9163 23.9474 57.1953 23.4824 57.2418 23.4359C57.4278 23.4824 57.4278 23.6684 57.6138 23.7149C57.6138 23.9009 57.2418 23.7149 57.2418 23.9474ZM57.3813 36.8279C57.3348 37.0139 57.1953 37.1069 57.0093 37.1069C57.0093 36.9209 57.1953 36.8279 57.3813 36.8279ZM57.2418 43.6169C57.2883 43.5704 56.8698 43.4774 56.8698 43.4774C56.8233 43.2914 57.5673 43.2914 57.2418 43.6169ZM57.5208 48.8249C57.6138 49.1039 57.8463 49.2899 57.7533 49.7549L57.5673 49.7084L57.6138 49.8944C57.5673 49.9874 57.4743 50.0339 57.4743 50.1734L57.2883 50.2199L57.3348 50.4059C56.7303 50.4524 56.5443 51.0104 55.8003 50.9174C56.4978 50.3129 56.3583 48.9179 57.5208 48.8249ZM56.3583 51.9869C56.7303 51.5219 57.1023 51.8939 57.2418 51.1964H57.6138C57.7998 51.3824 57.7533 51.7544 57.7533 52.1264C57.3348 52.2659 56.9163 52.3589 56.4978 52.4054L56.5443 52.1729L56.3583 51.9869ZM55.7073 42.9659C55.8933 42.6404 56.1258 42.7334 56.4513 42.8264C56.4048 43.5239 56.0328 43.2914 55.7073 42.9659ZM55.1958 42.1754C55.2888 41.8964 55.7538 42.3614 55.7073 42.6869C55.3818 42.6869 55.5213 42.1754 55.1958 42.1754ZM56.1258 41.7569C56.1258 42.0824 55.7073 41.8034 55.6143 41.7569C55.6143 41.4314 56.0328 41.7104 56.1258 41.7569ZM54.9633 40.8269C55.0098 40.3619 55.4748 40.7339 55.7073 40.8269C55.5213 41.0129 55.1958 40.8734 54.9633 40.8269ZM55.1958 48.0344V48.3134H54.9633V48.0344H55.1958ZM54.6843 33.8984C54.6843 33.6194 55.2423 33.8519 55.4283 33.7589C55.4748 34.4564 54.9633 34.0844 54.6843 33.8984ZM54.5913 46.6859C54.4053 46.6394 54.3123 46.4534 54.3588 46.2674C54.4983 46.3139 54.5913 46.4999 54.5913 46.6859ZM53.5683 39.6179C53.8008 39.6644 54.1263 39.6644 54.0798 40.0364C53.7543 40.0829 53.5218 39.9899 53.5683 39.6179ZM53.0568 34.4564V33.8054C53.7543 33.7589 53.7543 34.9214 53.1963 34.5959L53.2428 34.4099L53.0568 34.4564ZM52.7778 31.3874C52.9638 31.2479 53.1033 31.0154 53.4288 30.9689C53.3358 31.2479 53.1963 31.4804 52.7778 31.3874ZM53.0568 31.9454C53.3823 32.1314 53.1498 32.8289 52.6848 32.5964C52.8243 32.3639 52.9638 32.1779 53.0568 31.9454ZM52.6848 32.8754C52.2198 33.4799 53.4288 33.0149 52.6848 32.8754V32.8754ZM52.5453 34.1774C52.2198 34.1774 52.4988 33.7124 52.5453 33.6659C52.8708 33.6659 52.5918 34.0844 52.5453 34.1774ZM52.4058 42.4079V42.3149L52.5918 42.2684L52.5453 42.0824C52.9638 42.0824 53.4288 42.0359 53.5683 42.3614L53.3823 42.4079L53.4288 42.5939H53.2893C53.2893 43.1984 53.7078 43.2914 54.3123 43.2449C54.4053 44.3609 52.8243 44.7329 51.8943 44.6864C51.8013 44.0819 52.3128 44.1284 52.4058 43.7564C52.2663 43.1984 51.6618 43.1054 51.6618 42.4079C51.8943 42.5474 52.1733 42.5474 52.4058 42.4079ZM52.9173 49.1969C52.8243 48.6854 53.8008 49.2434 53.6613 48.6854C53.8938 48.7319 54.2193 48.7319 54.1728 49.1039C53.5218 49.0574 53.4288 49.7084 52.9173 49.1969ZM53.4288 57.8459C53.0103 57.4274 53.0568 58.3574 53.4288 57.8459V57.8459ZM52.1733 54.6374C51.7083 54.4979 52.0803 54.2654 52.0338 53.8469H52.5453C52.5918 54.3119 52.0803 54.1724 52.1733 54.6374ZM51.8943 53.0564C51.6153 52.9634 51.7548 52.2194 51.8943 52.1264C52.2663 52.2659 51.8943 52.8239 51.8943 53.0564ZM52.1733 49.8944C51.7083 49.7084 52.4523 49.7084 52.3128 49.3829C52.4058 49.4759 52.5453 49.5224 52.6848 49.5224C52.6383 49.7549 52.1733 49.6154 52.1733 49.8944ZM52.7778 53.0564C53.0568 53.1494 53.0568 53.2424 52.9173 53.4749H52.6848C52.6383 53.2424 52.7778 53.2424 52.7778 53.0564ZM53.0568 46.2674C53.3358 46.0814 53.1963 45.4304 53.7078 45.4769C53.6148 45.8489 53.3823 46.1279 53.0568 46.2674ZM54.3123 46.5464C54.3588 46.7789 54.1728 46.7789 54.1728 46.9649C53.9403 47.0114 53.9868 46.3604 54.3123 46.5464ZM52.7778 65.1464C52.8708 65.4254 52.4058 65.5649 52.9173 65.5649C52.8243 65.7509 52.4988 65.7509 52.2663 65.8439C52.2663 65.3789 52.4523 65.1929 52.7778 65.1464ZM52.6848 58.9154C52.5918 58.4039 53.5683 58.1714 53.7078 58.6364V58.8689L53.5683 59.0549C53.1033 59.1479 53.0568 58.8224 52.6848 58.9154ZM53.5683 54.1259C53.7543 53.6609 53.8008 54.3584 53.7078 54.4049C53.6148 54.4049 53.5218 54.2189 53.5683 54.1259ZM53.6613 52.5449C54.0798 52.4984 53.9868 52.9169 54.3123 52.9634C54.3123 53.1959 53.8938 53.0564 53.9403 53.3819C53.6148 53.3354 53.7078 52.8704 53.6613 52.5449ZM53.8008 63.7049C53.7078 63.1469 54.0798 63.1004 54.3123 62.9144C54.5913 63.1004 54.0798 63.6119 53.8008 63.7049ZM58.0323 39.6179C57.3813 39.2924 57.5208 40.0829 58.0323 39.6179V39.6179ZM59.4273 51.7544L59.2413 51.8009L59.2878 51.9869C58.8693 51.8939 58.7763 52.1729 58.4043 52.1264C58.2183 51.8009 58.1718 51.3824 58.0323 51.0569C58.4508 50.2199 59.3343 51.0104 59.4273 51.7544ZM60.0318 29.0159C59.7063 29.0159 59.7528 28.5044 59.8923 28.3649C60.2178 28.3184 59.9853 28.8299 60.0318 29.0159ZM59.7993 25.9469C59.6133 25.8539 59.3808 25.7609 59.4273 25.4354C59.7063 25.3424 59.9388 25.0169 60.1713 25.2959C60.0783 25.5284 59.6598 25.4354 59.7993 25.9469ZM59.9388 35.6654C59.7063 36.1304 59.6133 35.3864 59.6598 35.1539C60.0318 35.0144 59.5668 35.7584 59.9388 35.6654ZM60.0318 38.4554C59.8458 38.4089 59.9388 38.1299 59.8923 37.9439C60.1248 38.0369 60.2178 38.2694 60.0318 38.4554ZM59.5203 27.3884C58.8228 27.3419 59.3343 26.9234 59.3808 26.5979C59.9853 26.5979 59.3343 27.0164 59.5203 27.3884ZM59.4273 28.4579C59.3808 28.5509 59.2878 28.5974 59.2878 28.7369C59.1948 28.6904 59.1483 28.5974 59.0553 28.5974C59.0553 28.5044 59.1948 28.4579 59.1948 28.3184C59.2413 28.3649 59.2878 28.4579 59.4273 28.4579ZM59.5203 43.8959C59.3343 44.0819 59.2878 44.4539 58.7763 44.3144C59.0088 44.0354 58.6368 43.5704 58.7763 42.9659C59.2413 43.0589 59.4273 43.4309 59.5203 43.8959ZM58.2648 26.0864C58.2648 25.8074 58.7298 26.0399 58.9158 25.9469C58.9158 26.2259 58.4508 25.9934 58.2648 26.0864ZM58.4973 29.1554C58.4043 29.1089 58.3578 29.0159 58.2648 29.0159V28.7369C58.5438 28.6904 58.4973 28.9229 58.4973 29.1554ZM58.4043 45.6164C58.8693 45.8489 58.0788 45.8954 58.1718 46.1279C57.7998 46.0349 58.4508 45.8489 58.4043 45.6164ZM58.2648 53.3354L58.4973 53.3819L58.6368 53.1959C58.8228 53.3354 58.9623 53.5679 59.1483 53.7074C58.9623 53.9864 58.3113 54.2189 58.1253 54.1259C58.1718 53.6609 58.1253 53.4284 58.2648 53.3354ZM59.2878 58.2644L59.3343 58.4504L59.5203 58.4039C59.7528 58.5434 60.1713 58.4504 60.2643 58.6829C60.0783 58.7294 59.9853 58.9154 60.0318 59.1014L59.8458 59.0549L59.7993 59.2409C59.7528 59.5664 59.4738 59.5664 59.2878 59.3804L59.1018 59.3339L58.9158 59.3804C59.0553 58.7759 58.8693 58.5899 59.2878 58.2644ZM59.1018 59.7524L59.2878 59.7059C59.6133 59.7059 59.9853 59.6594 60.3108 59.5664L60.2643 59.7524L60.4503 59.7989C60.4038 60.0314 60.1713 60.1244 60.2178 60.4499H59.9853L59.9388 60.6359C59.4273 60.4964 58.9158 60.3569 58.9158 59.7059L59.1018 59.7524ZM59.6598 57.9854L59.6133 57.7994L59.4273 57.8459C59.4738 57.6134 59.2878 57.5669 59.2878 57.7064C58.7763 56.4044 60.0783 56.2184 60.5433 56.3579L60.4968 56.5904L60.6828 56.7299C60.5433 57.3344 60.1713 57.7529 59.6598 57.9854ZM60.1713 50.4059C60.0318 51.2894 60.2178 49.9874 60.1713 50.4059V50.4059ZM60.5433 39.2459V38.9669C60.8223 38.9204 60.7758 39.1529 60.7758 39.3854C60.7293 39.3389 60.6828 39.2459 60.5433 39.2459ZM60.5433 34.8284C60.8223 34.9214 60.5898 35.5724 60.6828 35.8979C60.1713 35.7584 60.6828 35.3864 60.5433 34.8284ZM59.7993 31.6664C59.7528 31.2479 60.1713 31.9919 60.1713 31.5269C60.6363 31.7594 59.8923 31.8989 59.7993 31.6664ZM59.7993 22.0874C60.1713 21.3434 60.5898 21.8549 59.7993 22.0874V22.0874ZM60.1713 24.3659L60.1248 24.5519L60.3108 24.5984V24.7379C59.5668 24.5984 58.9158 25.1564 58.5438 24.5984C58.7763 24.4124 58.7298 23.9009 59.1948 23.9474C59.1948 24.3194 59.7063 24.1799 60.1713 24.3659ZM58.9158 22.7384C59.0088 23.2034 58.4043 22.9244 58.5438 23.3894C58.3113 23.3429 58.5438 22.7849 58.0323 22.9709C58.1253 22.7384 58.7763 22.2269 58.9158 22.7384ZM58.4973 25.4354C58.6368 25.9004 58.1253 25.6679 57.8463 25.7144C58.0323 25.4819 58.2648 25.3424 58.4973 25.4354ZM57.8928 27.0164C57.6138 26.9699 57.4278 26.7374 57.3813 26.5049C57.5673 26.6444 57.9393 26.5979 57.8928 27.0164ZM57.7533 19.9484C57.7068 20.6459 57.3813 20.0879 57.0093 20.0879C57.2418 19.7624 57.4278 20.2274 57.7533 19.9484ZM56.8698 32.0384C57.1023 32.1779 57.0093 32.5964 57.1023 32.8289C56.7768 32.8289 56.8698 32.4104 56.8698 32.0384ZM57.0093 43.7564C56.9628 43.9424 56.6373 43.8029 56.6373 44.0354C56.2188 43.8494 56.8233 43.4309 57.0093 43.7564ZM56.3583 23.9474C56.6373 23.9474 56.4048 24.5054 56.4978 24.7379C56.3583 24.6449 56.3583 24.4124 56.1258 24.4589C56.1258 24.2264 56.4513 24.3194 56.3583 23.9474ZM56.1258 25.9469C55.7073 26.4119 56.5908 26.3654 56.1258 25.9469V25.9469ZM55.6143 24.3659C55.7073 24.4589 55.8468 24.5054 55.9863 24.5054C56.0328 24.8309 55.6143 24.6449 55.6143 24.9239C55.1958 24.7844 55.7073 24.5984 55.6143 24.3659ZM55.4748 25.4354C55.5678 25.7144 55.2423 25.6214 55.2423 25.8539C54.9168 25.7609 55.1958 25.2959 55.4748 25.4354ZM55.1028 28.3184C55.2423 28.3184 55.1958 28.5509 55.2423 28.7369C54.9633 28.6904 54.7773 28.7834 54.7308 29.0159C54.2193 28.6904 55.0098 28.5509 55.1028 28.3184ZM53.5683 25.5284C53.9403 25.3424 53.9403 26.1329 53.5683 25.9469V25.5284ZM54.0798 26.4584C54.1728 26.8769 53.6613 26.6444 53.7078 26.9699C53.5683 26.9234 53.6148 26.6909 53.4753 26.6909C53.5218 26.5514 53.8473 26.5514 54.0798 26.4584ZM54.1728 29.0159L54.1263 29.2019L54.3123 29.2484C54.2193 29.5274 53.9868 29.6204 53.6613 29.6669L53.7078 29.4809L53.5218 29.4344C53.5218 29.3414 53.4288 29.2949 53.3823 29.3414C53.3358 29.3414 53.2893 29.3879 53.2893 29.4344C52.9173 29.2019 53.9403 28.5509 54.1728 29.0159ZM52.0338 29.3879C52.2663 29.1554 52.5918 29.0624 52.9173 29.1089C52.8243 29.7134 52.5453 29.3414 52.0338 29.3879ZM52.6848 24.7379C52.5918 24.9239 52.4988 25.1564 52.1733 25.1564C52.2663 24.9704 52.3593 24.7379 52.6848 24.7379ZM52.4058 27.3884C52.4058 27.7139 52.1268 27.9929 51.7548 28.0394C51.8013 27.7139 52.0803 27.4349 52.4058 27.3884ZM51.8943 20.7389C51.9408 21.2039 51.5223 21.1574 51.3828 21.3899C51.0108 21.1574 51.4758 20.6459 51.8943 20.7389ZM51.2898 31.1084C50.4528 30.9689 51.0108 31.5269 51.2898 31.1084V31.1084ZM51.0108 30.3179H50.6388V30.0389H51.0108V30.3179ZM50.6388 24.2264C50.4528 24.1799 50.5458 23.9009 50.4993 23.7149H50.7318C50.6853 23.8079 50.7783 23.8544 50.8713 23.8544C50.8248 23.9939 50.6853 24.0404 50.6388 24.2264ZM50.7783 20.2274C51.1968 20.5064 50.2668 20.8784 50.1273 20.6459C50.1738 20.3204 50.6853 20.5064 50.7783 20.2274ZM50.2668 21.9479C50.4993 22.0409 50.3598 22.2734 50.1273 22.2269C50.1273 22.3664 50.1738 22.4594 50.2668 22.5059C50.2668 22.7849 49.8018 22.5524 49.6158 22.6454C49.5693 22.1339 50.2203 22.3664 50.2668 21.9479ZM49.4763 21.4364C49.3833 21.4364 49.3368 21.4829 49.3368 21.5759C49.1973 21.5759 49.2438 21.3434 49.1973 21.1574C49.4298 21.1109 49.4763 21.2504 49.4763 21.4364ZM49.4763 22.5059C49.3833 22.6919 49.3833 23.0174 48.9648 22.9244C49.1043 22.6919 49.1508 22.4594 49.4763 22.5059ZM48.8718 24.4589C49.2903 24.3194 49.0578 24.8774 49.1043 25.1099C48.8718 25.0634 48.5928 24.7379 48.8718 24.4589ZM48.8718 34.8284C48.4068 34.9214 48.2673 34.6889 47.9883 34.5494C48.0813 34.3634 48.8718 34.5029 48.8718 34.8284ZM48.2208 36.5954V36.8744H47.8488V36.5954H48.2208ZM48.2208 29.8064C48.5463 29.8994 48.2673 30.4574 47.9883 30.3179C47.8488 29.9459 48.2208 30.0854 48.2208 29.8064ZM48.4533 32.3174C48.5928 32.7824 47.9418 32.5034 47.7093 32.5964C47.8953 32.4104 48.1743 32.3174 48.4533 32.3174ZM47.4303 26.7374C47.2443 26.5979 47.1048 26.3189 47.1978 26.0864C47.6163 25.9469 47.3838 26.5049 47.4303 26.7374ZM47.5698 35.8979C47.6163 36.1769 47.0118 36.0839 47.1978 35.7584C47.3838 35.7584 47.4303 35.8979 47.5698 35.8979ZM46.3143 29.5274C45.9888 29.1089 46.4073 28.6439 46.4538 28.1789C47.0583 28.0394 46.7793 28.7834 47.1978 28.8299C46.9188 29.1089 46.6398 29.3414 46.3143 29.5274ZM46.4538 27.0164C46.7793 27.0164 46.7328 27.5279 46.5933 27.6674C46.2678 27.7139 46.5003 27.2024 46.4538 27.0164ZM46.6863 25.5284C46.8723 25.4819 46.9188 25.6679 47.0583 25.6679C47.1048 25.9469 46.5003 25.8539 46.6863 25.5284ZM46.1748 23.8079C46.4538 23.7614 46.5003 23.9009 46.6863 23.9474C46.7328 24.1799 45.9888 24.1799 46.1748 23.8079ZM46.6863 31.9454C46.3608 31.9919 46.4073 31.7129 46.0353 31.8059C46.0353 31.5734 46.8723 31.5269 46.6863 31.9454ZM46.9653 32.8754C46.7793 33.1544 46.4073 33.2474 46.1283 33.0149C46.1283 33.0149 46.0818 33.0149 46.0818 32.9684C46.2213 32.6429 46.6398 32.7359 46.9653 32.8754ZM46.0353 39.3854C47.0118 39.4784 47.6163 38.5484 48.3138 39.1064L48.1278 39.1529L48.1743 39.3389C47.5698 39.6644 46.1748 40.6409 45.7563 39.6179L45.9423 39.5714L46.0353 39.3854ZM47.8488 61.4264C47.4768 61.2869 47.8953 60.8684 47.8488 60.6359C48.4998 60.7289 47.6163 61.0079 47.8488 61.4264ZM47.4303 59.8454C47.4303 59.6129 47.2908 59.5664 47.2908 59.3339C47.5698 59.3339 47.6628 59.5664 48.0348 59.4734C47.9883 59.7059 47.7558 59.7989 47.4303 59.8454ZM47.3373 62.0774H46.9653L47.0118 61.8449L46.8258 61.7054C46.7328 61.2404 47.0583 61.2404 47.3373 61.1939C47.2908 61.7054 47.4768 61.7054 47.3373 62.0774ZM47.3373 63.2864C47.1513 63.2399 47.1513 63.0539 46.9653 63.0074C46.8723 62.6354 47.1978 62.7284 47.1978 62.4959C47.4768 62.4959 47.2443 63.0539 47.3373 63.2864ZM47.1978 63.8444C47.0118 63.7979 46.9188 63.6119 46.9653 63.4259C47.1048 63.4724 47.1978 63.6584 47.1978 63.8444ZM47.0583 60.3569C46.6398 60.3569 46.6398 59.9384 46.1748 59.9384C46.6398 59.6594 46.3608 59.5199 46.6863 59.1479C47.0118 59.4269 47.1978 59.7989 47.3373 60.2174C47.1978 60.2174 47.1048 60.2639 47.0583 60.3569ZM42.1293 60.2174C42.4083 60.1709 42.2688 60.5894 42.5013 60.6359C42.2688 61.0544 41.7108 60.4499 42.1293 60.2174ZM42.5013 62.1239C42.4548 62.2169 42.3618 62.2634 42.3618 62.4029H42.0828C42.0828 62.0309 41.8503 62.1239 42.0828 61.8914C42.2223 61.9379 42.2223 62.1239 42.5013 62.1239ZM41.8503 56.2649C41.8968 55.9394 42.4083 56.1719 42.5013 56.2649C42.3618 56.6369 42.1758 56.0789 41.8503 56.2649ZM40.9668 50.4059C41.3853 50.3129 41.4783 50.5919 41.8503 50.5454L41.8038 50.7314L41.9898 50.7779C41.8503 51.2894 40.6413 51.1964 40.9668 50.4059ZM41.3388 52.2659V51.7544C41.8503 51.6614 41.7573 52.3124 41.3388 52.2659ZM40.4553 41.3849C40.7343 41.2454 40.4088 40.7804 40.3158 41.1059L40.1298 41.0594L40.0833 41.2454C39.5718 41.1059 39.9903 40.5944 39.9438 40.1759H40.0833V40.0364C40.6878 40.2224 41.2458 40.5944 41.6178 41.1059C41.6643 41.5709 41.0133 42.0359 40.5948 41.6174L40.6413 41.4314L40.4553 41.3849ZM40.2228 47.1044V46.8254H40.4553V47.1044H40.2228ZM40.0833 51.4754C39.8973 53.0099 40.5948 51.7544 40.0833 51.4754V51.4754ZM40.4553 45.8954C40.0368 45.4769 40.0833 46.3604 40.4553 45.8954V45.8954ZM38.9208 53.7074C38.8278 53.5679 38.7813 53.3819 38.7813 53.1959C39.0603 53.1494 39.2928 53.1959 39.5253 53.3354C39.5253 53.7074 39.5718 54.0794 39.3858 54.2654C39.1068 54.3119 39.2463 53.8934 39.0138 53.8469L39.0603 53.6609L38.9208 53.7074ZM38.5488 51.1964C38.7813 51.4289 38.6883 51.1964 39.0603 51.1964C38.9208 51.4289 39.0603 51.8939 38.6883 51.8474C38.7813 51.4754 38.5023 51.5219 38.5488 51.1964ZM36.6423 48.2669C36.4098 48.1739 36.5493 47.9414 36.7818 47.9879C36.8283 47.8949 36.7353 47.8484 36.6423 47.8484C36.6423 47.5694 37.2003 47.8019 37.3863 47.7089C37.4328 48.2204 36.6423 47.8019 36.6423 48.2669ZM37.3863 50.6849C37.2933 50.9174 37.1073 51.1964 36.8748 50.9639C37.0143 50.7779 37.2003 50.6384 37.3863 50.6849ZM36.2703 51.1964C36.1308 50.8244 36.2238 50.6849 36.2703 50.1269C36.5493 50.0804 36.5958 50.2199 36.7818 50.2664C36.3633 50.5919 36.9213 51.1499 36.2703 51.1964ZM36.8748 35.2469C36.5958 35.1074 36.5958 34.6889 36.3633 34.4564C36.7353 34.0844 36.8748 33.4799 37.2468 33.1079C38.1303 33.8054 37.2003 34.6889 36.8748 35.2469ZM37.8048 34.5959C37.8513 34.9214 37.7583 35.1539 37.4328 35.1074C37.4328 34.8749 37.4328 34.5494 37.8048 34.5959ZM36.5028 43.1054C36.5493 42.9194 36.7353 42.8729 36.7353 42.6869C36.9678 42.7334 37.0143 42.9194 37.0143 43.1984C36.7353 43.2914 36.6888 43.1519 36.5028 43.1054ZM37.0143 44.9654C36.6423 44.9654 36.1773 45.0584 36.2703 44.5469C36.6423 44.8259 37.0143 44.3144 37.0143 44.9654ZM36.6423 37.7579C36.2703 37.5719 36.7818 37.2929 36.6423 36.9674H37.0143C37.1538 37.4789 36.6888 37.4324 36.6423 37.7579ZM36.1308 36.3164C35.9913 35.8979 36.3168 35.9909 36.3633 35.8049C36.6423 35.8049 36.4098 36.4094 36.1308 36.3164ZM36.5028 39.6179C36.8748 39.8969 36.1308 40.1294 36.1308 40.4084C35.6658 40.0364 36.4563 39.8969 36.5028 39.6179ZM37.1538 40.8269C36.8748 40.7804 37.2933 40.4549 37.2933 40.3154C37.6653 40.4084 37.2003 40.7339 37.1538 40.8269ZM37.1538 36.7349C37.1538 36.5954 37.0143 36.6419 36.9213 36.5954C37.1073 36.2699 36.9678 35.6654 37.1538 35.3864C37.6653 35.2934 37.4793 35.9444 37.8048 36.0374C37.5723 36.2699 37.5258 36.6419 37.1538 36.7349ZM37.8048 49.9874C37.9443 49.9874 38.0373 50.0339 38.0373 50.1269V50.4059H38.2698C38.3163 50.8709 38.1768 51.1034 37.8978 51.1964L37.8513 51.0104L37.6653 50.9639C37.2003 50.6384 37.9443 50.4524 37.8048 49.9874ZM37.8978 46.2674C37.9908 45.8954 38.3163 46.3604 38.5488 46.2674C38.4558 46.7324 38.1768 46.3604 37.8978 46.2674ZM38.5488 48.1274C38.3163 48.1274 38.2698 47.9414 38.0373 47.9879C37.9908 47.7554 38.7348 47.7554 38.5488 48.1274ZM38.1768 49.7549C38.0838 49.3829 38.4093 49.4759 38.4093 49.2434C38.6418 49.2899 38.6883 49.4759 38.6418 49.7549H38.1768ZM39.4323 34.4564C39.4788 34.8749 39.2463 34.9679 39.1998 35.2469C38.7348 35.1539 39.0138 34.4099 39.4323 34.4564ZM39.0603 29.6669C39.1998 29.7134 39.1533 29.9459 39.2928 29.9459C39.2463 30.3179 38.9208 29.9459 39.0603 29.6669ZM39.7113 32.8754V33.3869C39.3393 33.3869 39.2463 32.7359 39.5718 32.7359V32.8754H39.7113ZM41.1993 31.5269L41.3853 31.4804L41.3388 31.2944H42.5943C42.2688 31.8059 41.7573 32.1314 41.1993 32.2244C40.9668 31.9454 41.2923 31.9454 41.1993 31.5269ZM46.4538 46.2674C46.2678 47.1974 44.5938 46.4999 44.0358 46.5464C44.4543 45.5699 45.4773 46.1279 46.4538 46.2674ZM44.5473 40.3154C45.0123 40.6874 45.1053 39.8039 44.5473 40.3154V40.3154ZM46.9653 44.4074C46.2213 44.0819 46.3143 44.8724 46.9653 44.4074V44.4074ZM46.8258 46.2674C46.5468 46.3139 46.4073 46.1744 46.4538 45.8489C46.7328 45.8489 46.8258 45.9884 46.8258 46.2674ZM46.9653 41.4779C45.4773 41.3384 46.0353 41.8964 46.9653 41.4779V41.4779ZM46.3143 43.1054C46.3143 43.3379 45.4773 43.3844 45.6633 42.9659C45.8958 43.1984 46.0353 42.7799 46.3143 43.1054ZM46.3143 44.0354C45.9888 43.9889 45.6633 43.8494 45.4308 43.6169C45.6168 43.3379 46.5468 43.4309 46.3143 44.0354ZM46.1748 47.3369C46.1283 47.5229 45.9888 47.6159 45.8028 47.6159C45.8493 47.4299 45.9888 47.3369 46.1748 47.3369ZM44.9193 53.1959C44.5938 53.2424 44.5938 52.9169 44.5473 52.6844C44.6868 52.5914 44.8728 52.5449 45.0588 52.5449C45.1053 52.8704 44.8263 52.8239 44.9193 53.1959ZM44.6403 49.3364C44.5938 49.0574 44.7333 48.9644 44.7798 48.8249C45.1983 48.9179 45.2913 49.3829 45.5238 49.6154C45.0588 49.7084 45.0588 49.3364 44.6403 49.3364ZM45.1518 50.4059C45.4308 50.4524 45.3843 50.7779 45.6633 50.8244C45.4308 51.2429 44.8263 50.6384 45.1518 50.4059ZM44.4078 47.3369C43.9893 47.4764 44.0823 47.3834 43.7568 47.1974C43.8033 46.8254 44.4543 46.9184 44.4078 47.3369ZM43.5243 42.5474C43.8033 42.3614 44.0823 42.2684 44.4078 42.2684C44.3613 42.6869 43.8498 42.5474 43.5243 42.5474ZM43.1058 52.7774C43.7568 52.4519 44.0823 53.2424 43.1058 52.7774V52.7774ZM42.5943 50.1269C42.7338 49.8944 42.8268 49.6619 43.2453 49.7084C43.0128 49.8479 43.0593 50.2199 42.5943 50.1269ZM43.1058 46.2674C42.8733 46.2209 42.8733 45.8954 42.4548 45.9884L42.5013 45.8489L42.4548 45.7094C42.4083 45.3839 41.8968 45.3374 42.2223 45.0584C42.6873 44.9654 42.8268 45.1979 43.1058 45.3374V46.2674ZM42.7338 42.6869C42.3618 42.7799 42.4548 42.4079 42.2223 42.4079C42.1758 42.2684 42.8733 42.3614 42.7338 42.6869ZM42.5013 42.0359C42.2223 42.0824 42.0828 41.9429 42.1293 41.6639C42.2223 41.7569 42.5943 41.6639 42.5013 42.0359ZM42.2223 47.3369C42.2688 47.5694 42.0828 47.5694 42.0828 47.7554H41.8503C41.8038 47.5229 41.9898 47.5229 41.9898 47.3369H42.2223ZM41.4783 49.0574C41.3853 49.2899 41.3388 48.9644 41.3388 48.7784C40.9668 48.6389 41.6178 48.6854 41.4783 49.0574ZM40.9668 46.9649C41.1993 46.7324 41.5248 46.6394 41.8503 46.6859C41.9898 47.3369 41.0598 47.3369 40.9668 46.9649ZM41.8503 42.8264C41.8503 43.1054 41.3853 42.8729 41.1993 42.9659C41.1993 42.6869 41.6643 42.9194 41.8503 42.8264ZM41.8503 41.7569C41.4318 41.3384 41.4783 42.2684 41.8503 41.7569V41.7569ZM41.1993 33.8984C41.0133 34.3169 41.0598 33.4334 41.0598 33.2474C41.2458 32.8289 41.1993 33.7124 41.1993 33.8984ZM41.1063 34.5959C41.1993 34.2239 41.2458 34.9214 41.2458 35.0144C41.1528 35.2469 40.9668 35.1074 41.1063 34.5959ZM40.9668 38.0369C40.6413 38.0369 40.9203 37.5719 40.9668 37.5254C41.2923 37.5254 41.0133 37.9439 40.9668 38.0369ZM40.3158 30.3179C40.3158 30.0389 40.7808 30.2714 40.9668 30.1784C40.9668 30.5039 40.5018 30.2714 40.3158 30.3179ZM40.5948 31.8059V31.9454H40.7343C41.2923 32.4104 40.3623 33.1079 40.2228 33.6659C39.9438 33.5729 40.2228 32.8289 39.9903 32.7359L40.0368 32.5499L39.8508 32.5964C39.6183 32.2709 40.2228 31.9454 40.5948 31.8059ZM40.3158 35.5259C39.9903 34.9214 40.0833 34.1774 40.5483 33.6659C40.5948 34.0844 41.1993 35.2469 40.3158 35.5259ZM40.2228 36.5954C40.2693 36.3164 40.5483 36.3164 40.5948 36.0839C40.7808 36.0839 40.5483 36.6884 40.2228 36.5954ZM40.0833 30.0854C39.2463 29.8994 39.8043 30.4574 40.0833 30.0854V30.0854ZM39.4323 36.1769L39.5718 36.3629L39.8043 36.3164C39.7113 36.7349 40.0368 36.7349 39.8043 36.9674C39.3393 36.9209 39.3393 36.7814 38.9208 36.9674C39.1533 36.7349 39.1998 36.3629 39.4323 36.1769ZM39.1998 41.4779C39.0138 41.3384 38.9208 41.1524 38.9673 40.9664C39.1533 41.0129 39.1998 41.1989 39.1998 41.4779ZM39.4323 41.4779C39.6648 41.4779 39.7113 41.6639 39.9438 41.6174C40.0368 42.0359 39.8043 42.0824 39.8043 42.4079L39.6183 42.4544L39.6648 42.6404C39.2928 42.7334 39.1998 42.5009 38.9208 42.5009C39.0138 42.1289 39.3393 41.8964 39.4323 41.4779ZM39.1998 49.9874C39.1533 49.7084 39.7578 49.8014 39.5718 50.1269H39.3393C39.3393 50.0339 39.2463 50.0339 39.1998 49.9874ZM39.7113 56.2649C39.6648 56.4509 39.4788 56.4509 39.4788 56.6834C39.1068 56.5904 39.4323 56.1254 39.7113 56.2649ZM39.4323 55.9859C39.5253 55.8929 39.5718 55.7534 39.5718 55.5674C39.8508 55.5209 39.8043 55.7534 39.8508 55.9859H39.4323ZM39.5718 55.3349C39.7113 55.1489 39.7113 54.8234 39.8508 54.6839C40.0833 54.7304 40.0368 55.5674 39.5718 55.3349ZM42.7338 52.1264C42.6873 52.4054 42.0828 52.1729 41.8503 52.2659C42.0828 51.8474 42.2223 52.1729 42.7338 52.1264ZM42.2223 55.7069C42.1758 55.4744 42.9198 55.4744 42.7338 55.8464C42.5013 55.6139 42.5013 55.9394 42.2223 55.7069ZM43.2453 57.5669C42.8268 57.6134 42.9198 57.1949 42.5943 57.1484C42.6408 57.0089 43.3848 57.1949 43.2453 57.5669ZM43.1058 55.9859C43.1988 55.7534 43.3383 55.9859 43.4778 55.9859C43.4313 56.2184 43.2918 55.9859 43.1058 55.9859ZM43.6173 59.2874C43.5708 59.4734 43.4313 59.5664 43.2453 59.5664C43.2918 59.3804 43.4778 59.2874 43.6173 59.2874ZM43.2453 63.5654L43.2918 63.7514L43.4778 63.7049C43.6638 63.8444 43.8033 64.1234 43.7103 64.3559L43.4778 64.3094L43.3383 64.4954H42.9663C43.2918 64.4024 42.9663 63.6584 43.2453 63.5654ZM43.5243 54.9164C43.1523 54.9164 43.1058 54.5909 42.7803 54.4979C42.7338 54.0794 43.1058 54.1259 43.1523 53.8469C43.4778 54.0329 43.8033 54.1724 44.1753 54.2654C43.8498 54.3584 43.7103 54.7304 43.5243 54.9164ZM44.4078 54.6374C44.8263 54.6374 44.8728 55.0094 45.4308 54.9164C45.0588 55.2419 44.5008 55.7534 43.8963 55.4279C43.8498 54.9629 44.5008 55.1954 44.4078 54.6374ZM45.4308 62.6354C45.2913 63.3794 45.9888 62.6819 45.4308 62.6354V62.6354ZM45.4308 53.1959C45.6633 52.8239 45.7563 52.4054 45.6633 51.9869C45.9423 51.8939 46.0353 51.6614 46.4073 51.7079C46.7328 52.0334 46.2213 51.9404 46.2678 52.3589L46.0818 52.4054L46.2678 52.4519C46.0818 52.7774 45.7563 53.4749 45.4308 53.1959ZM46.6863 54.5444C46.3608 54.6374 46.4073 54.2654 46.1748 54.2654C46.2678 53.9399 46.8258 54.1724 46.6863 54.5444ZM46.8258 53.1959L46.6398 53.1494L46.6863 53.3354C46.1748 53.2889 46.1283 52.9169 46.4538 52.6844L46.6398 52.7309L46.5933 52.5449C46.8258 52.5449 46.7793 52.1729 47.1048 52.2659V52.5449L47.3373 52.6844C47.1978 52.8704 47.0583 53.0564 46.8258 53.1959ZM45.8028 23.5289C45.3843 23.1569 45.4308 24.0404 45.8028 23.5289V23.5289ZM45.6633 34.5959C45.5703 34.6889 45.5238 34.8284 45.6633 34.8749C45.6168 35.1074 45.4308 35.2004 45.1518 35.1539C45.1983 35.2934 45.3843 35.2469 45.3843 35.4329L45.1983 35.4794L45.2448 35.6654H44.6403C44.7333 35.2004 44.4543 35.1539 44.5008 34.7354C44.7798 34.5494 45.3378 34.2704 45.6633 34.5959ZM45.0588 30.4574C45.1053 30.2714 45.2448 30.1784 45.4308 30.1784C45.3843 30.3644 45.1983 30.5039 45.0588 30.4574ZM45.0588 23.2964C45.0588 23.5754 44.5008 23.3429 44.3148 23.4359C44.2683 23.1104 44.8263 23.3429 45.0588 23.2964ZM45.2913 24.7379L45.2448 24.9239L45.4308 24.9704C45.4308 25.4819 44.8263 25.3889 44.7798 25.9004C44.3613 25.9469 44.4078 25.4819 44.1288 25.3889C44.2683 24.9239 44.6868 24.6914 45.2913 24.7379ZM44.5473 32.9684V33.3869C44.4078 33.2939 44.2218 33.2474 44.0358 33.2474C44.0358 33.0149 44.2218 32.9684 44.5473 32.9684ZM44.4078 35.6654C44.4543 36.4094 45.8028 35.8049 45.8028 36.5954C45.5703 36.8279 45.6633 36.5954 45.2913 36.5954C45.4308 37.1999 45.0123 37.1999 44.9193 37.5254C45.1518 37.6649 45.6633 38.2229 45.8028 38.0369C46.1748 38.4089 45.7098 39.2459 45.5703 39.1064L45.3378 39.0599L45.2913 39.2459C44.5938 39.3854 43.9893 39.2459 43.7568 38.5949L43.8033 38.4089L43.6173 38.3624C43.5708 37.9439 44.2683 38.3159 44.1288 37.8509C43.8498 37.6649 43.5708 37.5719 43.2453 37.5719L43.1988 37.3859L43.0128 37.4324C43.1988 36.6419 43.7103 35.9909 44.4078 35.6654ZM42.8733 34.5959C42.9198 34.4099 43.0593 34.3169 43.2453 34.3169C43.1988 34.5029 43.0593 34.5959 42.8733 34.5959ZM43.3848 34.0379V33.7589H43.6173V34.0379H43.3848ZM43.6173 27.9464C43.6638 27.7139 43.7568 28.0394 43.7568 28.2254C43.7103 28.4579 43.6173 28.1324 43.6173 27.9464ZM43.6173 29.2484C43.3383 29.6669 44.0358 30.1319 43.7568 30.5969C43.5708 30.5039 43.4313 30.4109 43.2453 30.3179L43.2918 30.0854L43.1058 29.9459C43.1988 29.6204 43.2918 29.2949 43.6173 29.2484ZM43.0128 32.9684C42.5013 33.9449 43.5708 33.0149 43.0128 32.9684V32.9684ZM42.6408 38.5949L42.4548 38.5484L42.4083 38.7344C42.2223 38.6879 42.2223 38.5019 42.0363 38.4554C42.0363 38.1299 42.2223 38.0369 42.4083 37.9439L42.4548 38.1299L42.6408 38.0834C42.6408 38.1299 42.9198 38.5484 42.6408 38.5949ZM42.1293 28.3184C42.4083 28.3649 42.3618 28.6904 42.6408 28.7369C42.4548 29.1089 41.9433 28.7369 42.1293 28.3184ZM40.5948 26.5979C41.1063 26.9699 41.4783 27.4814 41.6178 28.0394L41.3853 27.9929L41.3388 28.1789C40.4088 27.9464 39.8043 27.3884 38.7813 27.2489C38.8278 26.2724 40.4553 27.2024 40.5948 26.5979ZM39.0603 37.6649C38.9673 37.7579 38.8743 38.0369 39.0603 38.0834C38.8743 38.6414 38.5488 37.4324 39.0603 37.6649ZM38.7813 42.1754V42.4544H38.1303C38.3163 42.3614 38.6418 41.8034 38.7813 42.1754ZM38.1768 28.2254C38.0838 28.5509 37.7118 28.7369 37.4328 28.6439C37.6188 28.3649 37.8513 28.2254 38.1768 28.2254ZM37.3863 31.5269C37.7583 31.7129 37.2933 32.0384 37.2468 32.1779C36.9213 32.0849 37.3863 31.7129 37.3863 31.5269ZM36.2703 31.2479L36.4098 31.4339L36.6423 31.3874C36.6888 31.9919 36.5493 32.3639 35.9913 32.3174C35.9913 31.9454 36.0843 31.5734 36.2703 31.2479ZM35.8518 34.5959C36.0843 34.6889 35.8518 34.8284 35.8518 35.0144C35.6658 34.8749 35.8518 34.7354 35.8518 34.5959ZM35.7588 37.3859H35.9913V37.6649H35.7588V37.3859ZM35.8518 43.8959V44.1749H35.6193V43.8959H35.8518ZM35.1078 36.0374C35.0613 36.3629 34.5498 36.1304 34.4568 36.0374C34.5963 35.5724 34.9218 35.8979 35.1078 36.0374ZM33.5733 39.7574C33.5268 39.9899 33.2943 40.0829 33.3408 40.4084C32.8293 40.3154 32.9688 39.7109 33.5733 39.7574ZM32.4573 41.8964C32.5968 41.9894 32.7363 42.7334 32.5968 42.6869C31.9923 42.6869 32.5503 42.2219 32.4573 41.8964ZM32.5503 44.0354C32.5038 44.1284 32.4108 44.1749 32.4108 44.3144H32.1783C32.1783 44.1749 32.1318 44.0819 32.0388 44.0354C32.0853 43.6634 32.2713 44.2214 32.5503 44.0354ZM31.2948 48.4064C31.2483 48.1274 31.4808 48.1739 31.6668 48.1274C31.6203 48.3134 31.4808 48.4529 31.2948 48.4064ZM31.2948 47.1974C31.3878 46.8719 31.7133 46.8254 31.8063 46.5464C32.3178 46.6859 31.7133 47.2439 31.2948 47.1974ZM31.9458 48.6854C31.9923 48.3599 32.2713 48.3599 32.4573 48.5459C32.4108 48.7319 32.1318 48.6389 31.9458 48.6854ZM32.6898 46.6859H32.3178C32.2713 46.4069 32.4108 46.3139 32.4573 46.1744C32.6433 46.1744 32.7363 46.3604 32.6898 46.6859ZM32.4573 43.4774C32.5038 43.1519 32.7828 43.6169 32.9688 43.6169C32.8293 44.0354 32.5968 43.4774 32.4573 43.4774ZM32.9688 42.1754C32.5038 41.6639 33.8058 43.1519 32.9688 42.1754V42.1754ZM33.0618 45.1049V44.6864C33.2013 44.7794 33.3873 44.8259 33.5733 44.8259C33.5733 45.0584 33.3873 45.1049 33.0618 45.1049ZM33.2013 43.3379C33.3873 43.6169 33.9453 43.5704 33.9453 43.9889C33.4338 44.0819 33.1548 43.8959 33.2013 43.3379ZM33.7128 42.9659C33.8523 42.5474 34.5498 43.2914 34.0848 43.4774C33.5733 43.7099 34.0383 42.9194 33.7128 42.9659ZM34.3638 53.9864C34.3173 54.2654 34.1313 54.0794 34.2243 53.5679C34.3173 53.1959 34.3638 53.8934 34.3638 53.9864ZM34.9683 51.7544C34.6428 51.7544 34.5963 51.5684 34.3173 51.4754C34.4568 51.1499 35.1543 51.3359 34.9683 51.7544ZM35.2473 58.3574C34.8753 58.8224 35.7123 58.7759 35.2473 58.3574V58.3574ZM34.9683 41.3849C35.0613 41.1059 35.6193 41.3384 35.4798 40.8734C35.6658 40.9199 35.5263 41.2919 35.7123 41.2919C35.5728 41.5709 35.2938 41.4779 34.9683 41.3849ZM35.6193 54.4049C35.9913 53.8934 36.0378 54.7769 35.6193 54.4049V54.4049ZM35.6193 52.7774C35.5728 52.6844 35.6658 52.6379 35.7588 52.6379V52.5449H35.9913V52.2659C35.9913 52.1264 36.0378 52.0334 36.1308 51.9869C36.4563 51.9869 36.5958 52.2194 36.7818 52.4054L36.5958 52.5449L36.6423 52.7774H35.6193ZM35.9913 57.5669C36.0378 57.2879 36.3168 57.2879 36.3633 57.0554C36.7353 57.1949 36.4098 57.7529 35.9913 57.5669ZM36.8748 55.7069V55.5674H36.7353C36.6888 55.4279 36.6423 55.3349 36.5028 55.2884C36.5028 55.1489 36.6423 55.1954 36.7353 55.1489V54.8699H36.8748V54.7304C37.1073 54.7769 37.2003 55.0094 37.5258 55.0094C37.5258 55.5209 37.1538 55.5674 36.8748 55.7069ZM38.1768 57.5669L37.9908 57.5204L37.8048 57.5669C37.0608 57.2879 37.8048 56.5904 38.4558 56.6369C38.5023 56.9624 38.4093 57.3344 38.1768 57.5669ZM38.4093 55.4279L38.4558 55.2419L38.2698 55.1954V54.6839H38.6418V54.4049H38.7813V54.2654C39.0603 54.4979 38.8278 55.1954 39.0138 55.4744L38.4093 55.4279ZM39.5718 64.2164C39.1068 64.8674 40.3158 64.4024 39.5718 64.2164V64.2164ZM39.0603 63.8444C38.7348 63.6584 39.5718 63.1934 39.8043 63.5654C39.8508 63.9374 39.0138 63.4724 39.0603 63.8444ZM39.8043 57.0554C39.8973 56.9159 40.0833 56.9159 40.0368 56.6369C40.2693 56.8229 40.3623 57.1484 40.1763 57.3809C40.1763 57.3809 40.1763 57.4274 40.1298 57.4274C39.8973 57.4739 40.0368 57.0554 39.8043 57.0554ZM40.2228 61.2869C39.9903 61.1939 40.3623 61.1939 40.3623 61.0079C40.5018 60.6359 40.5018 61.4264 40.2228 61.2869ZM40.3158 54.5444C40.2228 53.6609 40.7808 53.4284 41.1993 53.1029C41.3853 53.3819 41.3388 53.9399 41.7108 54.0329L41.6643 54.2189L41.8503 54.2654C41.8038 54.4514 41.6643 54.5909 41.4783 54.6839V54.5444H41.3388C41.1528 54.3119 40.8273 54.6374 40.3158 54.5444ZM41.1993 63.1469C40.7808 62.9144 41.4783 62.7284 41.4318 62.4959C42.0828 62.7284 41.2923 62.8679 41.1993 63.1469ZM42.1293 65.5649C41.8038 65.7509 41.6178 65.1929 41.4783 65.5649C41.1063 65.1929 41.8038 64.8209 41.8503 64.4954C42.0828 64.6349 42.0828 64.9604 42.2223 65.1464L42.0363 65.2859L42.1293 65.5649ZM43.5243 67.1459V67.0064H43.3848C43.1523 66.9134 43.1058 66.6344 43.1988 66.4019C43.1988 66.3554 43.2453 66.3554 43.2453 66.3089C42.8268 66.6344 42.6408 65.8439 42.3618 65.6579L42.4083 65.4719L42.3618 65.2859C42.6873 65.3789 42.2688 64.6349 42.5943 64.7744C43.1058 64.7279 43.2453 65.5649 43.6173 64.9139L43.7568 65.0999L43.9893 65.0534C44.2683 65.7509 44.0823 66.5879 43.5243 67.1459ZM44.2683 59.0549C44.1753 59.8454 44.8728 59.1479 44.2683 59.0549V59.0549ZM44.1288 58.9154C43.5708 58.7294 44.1288 58.4969 44.1288 58.1249C44.4078 58.0784 44.2683 58.4969 44.5008 58.5434C44.5938 58.8224 43.9428 58.4504 44.1288 58.9154ZM45.0588 57.9854V58.4969C44.9193 58.4969 44.9658 58.3109 44.9193 58.2179C44.8263 58.1714 44.7798 58.2644 44.7798 58.3574C44.5938 58.2644 44.5938 57.9389 44.5473 57.7064C44.7798 57.7064 44.6868 58.0784 45.0588 57.9854ZM44.6403 63.8444C44.5008 63.6584 44.5938 63.6119 44.6403 63.4259C45.0123 63.6119 44.5938 65.0069 44.6403 63.8444ZM45.0588 68.7269L45.0123 68.5409L44.8263 68.5874C44.7333 68.1224 45.0123 68.0759 44.9658 67.6574C45.4308 67.6574 45.1518 68.4479 45.7098 68.3084C45.4773 68.4944 45.3378 68.7269 45.0588 68.7269ZM45.8028 67.4249C45.6168 67.2854 45.5238 67.0994 45.5703 66.9134C45.7563 66.9134 45.8493 67.0994 45.8028 67.4249ZM45.9423 64.2164C45.6168 64.1699 45.6633 64.4489 45.2913 64.3559C45.2913 63.9839 45.2448 63.6119 45.4308 63.4259C45.6633 63.6119 45.9888 63.7049 45.9423 64.2164ZM46.1748 62.0309L46.0353 62.0774C46.0353 61.7054 45.9888 61.1939 46.1748 61.0079C46.4073 61.1939 46.6863 61.2869 46.6863 61.6589L46.6398 61.7984L46.6863 61.9379C46.5933 62.0309 46.4538 62.0774 46.3143 62.0774L46.1748 62.0309ZM46.8258 66.3554L46.6863 66.1694L46.4538 66.2159C46.4073 65.9369 46.4538 65.6579 46.5933 65.4254L46.7793 65.4719L46.8258 65.2859H46.9653L47.0118 65.4719L47.0583 65.2859C47.3373 65.2394 47.1048 65.7509 47.1978 65.9369L47.0118 65.9834L47.0583 66.1694C46.9653 66.2624 46.9653 66.3554 46.8258 66.3554ZM47.1978 67.1459L47.3838 67.1924L47.4303 67.0064C47.5698 67.0064 47.6628 66.9599 47.6628 66.8669C47.8953 67.0064 47.8023 67.4249 47.8953 67.6574C47.6628 67.4249 47.7093 67.6574 47.3838 67.6574H47.2443V67.7969C47.0583 67.8434 47.2443 67.3319 47.1978 67.1459ZM48.2208 69.5639L48.0813 69.4709L47.9418 69.5639C47.5698 69.4709 47.7093 69.4709 47.2908 69.5639V69.4244H47.1513C47.2443 68.7734 47.7558 68.5874 47.8953 67.9829C48.3138 68.1689 48.4533 69.0989 48.2208 69.5639ZM47.7093 57.9854L47.7558 57.7994L47.5698 57.8459C47.5698 57.7064 47.4303 57.7529 47.3373 57.7064C47.2908 57.3809 47.5698 57.4274 47.4768 57.0554C47.8488 57.1019 48.0348 57.3809 48.3603 57.4739C48.2208 57.7529 48.0813 57.9854 47.7093 57.9854ZM47.8488 56.4974C48.0348 56.2184 48.8718 56.0789 49.0113 56.4974L48.9648 56.6834L49.1508 56.7299C49.1043 56.9159 48.9183 56.9159 48.9183 57.1484C48.3138 57.1484 48.4068 56.4974 47.8488 56.4974ZM48.8718 59.4269C48.8718 59.3804 49.1508 59.1944 49.2438 59.2874C49.3368 59.3804 48.7323 59.6594 48.8718 59.4269ZM49.2438 63.2864C48.5463 61.9844 50.5458 61.9379 51.3828 61.4264C52.0338 61.8449 50.7318 62.4029 50.8713 63.1469C50.3133 63.1004 49.7553 63.1469 49.2438 63.2864ZM51.3828 68.4944C51.0108 68.5409 50.8248 68.7269 50.8713 69.1454C50.5923 69.0524 50.5458 68.6804 50.3598 68.4944L50.5458 68.4479L50.4993 68.2619C50.5458 68.1224 50.5923 68.0294 50.7318 67.9829L50.9178 68.0294L50.9643 67.8434C51.1503 67.8899 51.2898 68.0759 51.3363 68.2619L51.2898 68.4014L51.3828 68.4944ZM52.0338 69.5639L51.8478 69.4709L51.6618 69.5639C51.7548 69.1919 51.4758 69.2384 51.5223 68.9129L51.7083 68.9594L51.6618 68.7734C52.0803 68.5409 51.7548 68.2619 51.8013 67.7039C52.5453 67.6109 52.6383 68.5409 52.8243 68.6339C52.4988 68.8664 52.3128 69.2384 52.0338 69.5639ZM53.0568 67.4249C53.1033 66.8669 52.9638 66.4484 52.5453 66.3554C52.8243 65.9834 53.4753 66.3554 53.7078 66.4949L53.7543 66.6809L53.9403 66.6344C53.9868 66.8204 54.2658 66.7274 54.4518 66.7739C54.4053 66.8669 54.3123 66.9134 54.3123 67.0529L54.1263 67.0064L54.1728 67.1924C53.5683 67.0064 53.6613 67.5644 53.0568 67.4249ZM53.7078 71.0054C53.3823 70.9124 53.9403 70.6334 53.8473 70.3544C54.2193 70.4939 53.7078 70.8659 53.7078 71.0054ZM53.7078 69.7964C53.3358 69.5639 53.7078 69.0524 54.0798 69.1454C54.1728 69.6104 53.5683 69.3314 53.7078 69.7964ZM55.3353 70.3544V70.7729L55.1493 70.7264L55.1958 70.9124C54.8703 70.8659 54.9168 71.1449 54.5448 71.0519L54.4983 70.7264L54.1728 70.7729C54.1728 70.5869 54.1728 70.4009 54.3123 70.3544L54.3588 70.5404L54.4053 70.3544C54.5913 70.3079 54.7308 70.1219 54.7773 69.9359V69.7964H54.6378C54.8238 69.6569 54.7773 69.2384 55.1493 69.2849L55.1028 69.4709L55.2888 69.5639C55.1493 69.9824 55.5678 69.7964 55.8003 69.8429C55.8003 70.1219 55.7538 70.4474 55.3353 70.3544ZM55.4748 67.7969C55.7538 67.8434 55.8003 68.0759 55.9863 68.2154C55.9398 68.4479 55.4283 68.0759 55.4748 67.7969ZM55.9863 67.4249C56.0328 67.0064 56.3583 66.9134 56.4978 66.6344L56.5443 66.8204L56.5908 66.6344C56.9628 66.8204 56.9628 67.3784 56.9628 67.9829C56.3583 68.0759 56.2653 67.6574 55.9863 67.4249ZM57.2418 69.5639C56.6373 69.5174 56.6838 68.8199 56.2188 68.6339C56.1258 68.3084 57.3348 68.6339 56.8698 68.3549C57.1023 68.0759 57.3813 68.8664 57.3813 69.2849L57.1953 69.3314L57.2418 69.5639ZM57.3813 66.3554C57.5673 66.7274 58.2648 66.5879 58.2648 67.1459H58.1253V67.2854C58.0788 67.4249 58.0323 67.5179 57.8928 67.5644L57.7068 67.2389L57.3813 67.2854V66.3554ZM57.8928 68.8664L57.8463 68.6804L57.6603 68.7269C57.7533 68.2619 57.4743 68.2154 57.5208 67.7969L57.7533 67.8434L57.8928 67.6574C58.1253 67.7969 58.2648 67.9829 58.5438 68.0759C58.4508 68.4479 58.2183 68.7269 57.8928 68.8664ZM58.7763 70.7264C58.9623 70.4939 59.0553 70.2149 59.4273 70.2149C59.2413 70.4474 59.1483 70.7264 58.7763 70.7264ZM60.1713 65.9369L60.1248 65.7509L59.9388 65.7974V65.2859C60.1713 65.2859 60.0783 65.6579 60.4503 65.5649L60.6828 65.6579L60.8223 65.4254C61.1013 65.5184 61.1013 65.6114 60.9618 65.8439L60.7758 65.7974L60.8223 65.9834C60.6363 66.4949 60.5433 65.9369 60.1713 65.9369ZM61.3338 69.4244L61.2873 69.2384L61.1013 69.2849C61.1478 68.9594 61.0548 68.7734 60.8223 68.7734C60.9618 68.5409 61.1943 68.4479 61.4733 68.4944L61.4268 68.6804L61.6128 68.7269C61.6128 69.0059 61.5198 69.2384 61.3338 69.4244ZM61.3803 62.1704L61.4268 62.3564C61.3338 62.5424 61.5663 63.0539 61.2873 63.0074L61.1013 62.7284L60.9153 63.0074H60.6828L60.7293 62.8214L60.5433 62.7749C60.8688 62.5424 60.7293 62.4029 60.7758 61.7054C61.0548 61.7519 61.3338 61.8914 61.5198 62.1239L61.3803 62.1704ZM62.3568 61.0544H61.9848C62.3568 60.5429 61.4733 60.4964 61.8453 59.9849C61.6593 60.0779 61.4733 60.2174 61.3338 60.4034L61.1478 60.3569L61.1943 60.5429C60.8688 60.6359 60.9618 60.2639 60.6828 60.2639C60.6363 59.8919 60.9618 59.8454 60.9153 59.4734L61.1013 59.4269L60.9153 59.3804C61.1013 59.1479 60.7758 58.9154 61.1478 58.7294C61.0548 59.0084 61.4733 59.3339 61.5198 59.0084L61.7058 59.0549L61.7523 58.8689C61.8918 58.9619 62.0778 59.0084 62.2638 59.0084C62.3568 58.5434 61.9848 58.3574 61.7523 58.5899H61.5198V58.8689C60.9618 58.8224 61.2873 57.6134 61.8918 57.9389L62.0778 57.8924L62.0313 57.7064H62.5428V57.4274L62.5893 57.2414L62.6358 57.0554C62.8683 57.3344 63.6588 57.0089 63.8913 57.3344L63.8448 57.5204L63.8913 57.7064C63.7983 57.7994 63.7983 58.0784 63.6588 58.1249C63.4728 57.7994 62.6358 58.2644 63.0078 58.5434L62.8218 58.5899L62.8683 58.7759C62.5428 59.4734 63.2403 59.1944 63.0078 58.7759L63.1938 58.7294L63.1473 58.5434C63.5658 58.3109 64.3098 57.7994 64.6818 58.2644L64.6353 58.4969L64.8213 58.6364C64.9143 59.3339 64.1238 59.1479 63.9378 59.5664L63.7518 59.5199L63.7983 59.7059C63.7053 59.7989 63.5658 59.8454 63.4263 59.8454C63.6588 60.1709 63.2868 60.3104 63.5658 60.4964C63.2868 61.0079 63.2403 60.1709 62.8218 60.3569C62.3568 60.4499 62.8683 60.7754 62.5893 61.0079L62.4033 60.9614L62.3568 61.0544Z" fill="#EF3360"/>
  <path d="M36.4562 51.8008C37.1537 51.2893 37.8512 50.7778 38.5487 50.2198L40.6412 48.6853L42.7337 47.1508L44.8262 45.6628C47.5697 43.5703 50.3597 41.6173 53.1497 39.6643L55.2422 38.2228C55.9397 37.7113 56.6372 37.2463 57.3347 36.8278L61.5662 34.0843L63.7052 32.8288C64.4027 32.4568 65.1467 32.0383 65.8442 31.6663C67.2392 30.8758 68.7272 30.2248 70.2152 29.6668C71.6567 29.1088 73.1447 28.7368 74.6792 28.6903C75.4232 28.6438 76.1672 28.7833 76.8647 29.0623C77.6087 29.3413 78.2132 29.8993 78.6317 30.5968L79.0037 30.5038C78.7247 29.5738 78.1202 28.7368 77.3297 28.1788C76.5857 27.6673 75.7952 27.3418 74.9117 27.2023C73.2377 26.9233 71.5637 27.0163 69.9362 27.3418C66.6347 28.1323 63.4727 29.2948 60.4502 30.8758C57.3812 32.4103 54.4517 34.1773 51.5222 36.0373C48.6392 37.9438 45.7562 39.8968 42.9197 41.9428C37.2932 46.1278 31.8527 50.5453 26.4587 55.1488L22.4597 58.6363C21.1112 59.7988 19.8092 61.0078 18.4607 62.1703C15.8102 64.5418 11.9972 68.2618 9.34668 70.6333L9.57918 71.0053C15.6242 67.4248 22.5062 62.1238 28.1327 58.0318C30.9227 55.9858 33.6197 53.8003 36.4562 51.8008Z" fill="#6931AA"/>
  <path d="M50.7313 54.6839C55.9393 51.3359 61.0543 47.8019 66.1228 44.3144C68.6803 42.5474 71.1913 40.7804 73.7488 39.0599C75.0043 38.1764 76.3063 37.3859 77.6083 36.5954C78.2593 36.2234 78.9103 35.8979 79.5613 35.5724C79.8868 35.4329 80.2123 35.2934 80.5378 35.2004L80.7703 35.1539H81.0028C81.0958 35.1539 81.2353 35.2004 81.3283 35.2004H81.7003C81.7003 35.0144 81.6073 34.8749 81.4678 34.7354C81.3748 34.6424 81.2818 34.5959 81.1888 34.5494C81.0958 34.5029 81.0028 34.5029 80.9098 34.4564L80.6308 34.4099C80.2588 34.4099 79.8403 34.4099 79.4683 34.5029C78.7243 34.6424 77.9803 34.8284 77.2828 35.0609C75.8413 35.5724 74.4463 36.1304 73.0513 36.7814C70.2613 38.0834 67.5643 39.5249 64.8673 41.0594C59.4733 44.0819 54.2188 47.3834 48.9643 50.7314C43.7563 54.1259 38.5948 57.6599 33.4333 61.1939C30.8758 62.9609 28.3183 64.7744 25.7608 66.5879L18.1348 72.1679L18.3208 72.5399C24.0868 70.2614 29.5273 67.3319 34.9213 64.3094C40.2688 61.2869 45.5233 58.0319 50.7313 54.6839Z" fill="#6931AA"/>
  <path d="M83.049 40.083C81.003 41.7105 78.864 43.245 76.7715 44.7795C74.6325 46.314 72.4935 47.7555 70.3545 49.197C66.03 52.08 61.659 54.8235 57.195 57.4275C54.963 58.776 52.7775 60.078 50.5455 61.38C48.3135 62.682 46.0815 63.9375 43.8495 65.1465C39.339 67.611 34.8285 69.9825 30.2715 72.354L30.411 72.7725C32.922 72.3075 35.433 71.7495 37.851 70.959C40.269 70.1685 42.687 69.3315 45.0585 68.355C47.43 67.3785 49.755 66.309 52.0335 65.1465C53.196 64.542 54.312 63.9375 55.4745 63.333L58.869 61.38C63.3795 58.683 67.704 55.614 71.796 52.266C73.842 50.5455 75.888 48.732 77.7945 46.779C79.794 44.826 81.6075 42.687 83.2815 40.4085L83.049 40.083Z" fill="#6931AA"/>
</svg>