<svg xmlns="http://www.w3.org/2000/svg" width="50" height="61" viewBox="0 0 50 61" fill="none">
    <path d="M5.51172 0C2.7503 0 0.511719 2.23858 0.511719 5V56C0.511719 58.7614 2.75029 61 5.51172 61H44.5117C47.2731 61 49.5117 58.7614 49.5117 56V5C49.5117 2.23858 47.2731 0 44.5117 0H5.51172ZM5.25365 6.8625C5.25365 5.59915 6.2778 4.575 7.54115 4.575H42.4823C43.7456 4.575 44.7698 5.59915 44.7698 6.8625C44.7698 8.12585 43.7456 9.15 42.4823 9.15H7.54115C6.2778 9.15 5.25365 8.12585 5.25365 6.8625ZM37.6569 34.3125C37.6569 35.5759 36.6327 36.6 35.3694 36.6H14.6541C13.3907 36.6 12.3666 35.5759 12.3666 34.3125C12.3666 33.0491 13.3907 32.025 14.6541 32.025H35.3694C36.6327 32.025 37.6569 33.0491 37.6569 34.3125ZM37.6569 25.1625C37.6569 26.4258 36.6327 27.45 35.3694 27.45H14.6541C13.3907 27.45 12.3666 26.4258 12.3666 25.1625C12.3666 23.8991 13.3907 22.875 14.6541 22.875H35.3694C36.6327 22.875 37.6569 23.8991 37.6569 25.1625ZM42.3187 54.2148C41.164 55.3288 39.2375 54.5105 39.2375 52.906C39.2375 51.9017 40.0517 51.0875 41.0561 51.0875C42.692 51.0875 43.496 53.0789 42.3187 54.2148Z" fill="#EF3360"/>
  </svg>