<svg xmlns="http://www.w3.org/2000/svg" width="21" height="21" viewBox="0 0 21 21" fill="none">
  <path d="M21 10.5C21 10.5 17.0625 3.28125 10.5 3.28125C3.9375 3.28125 0 10.5 0 10.5C0 10.5 3.9375 17.7188 10.5 17.7188C17.0625 17.7188 21 10.5 21 10.5ZM1.53956 10.5C2.17418 9.53547 2.90409 8.63715 3.71831 7.81856C5.4075 6.12675 7.7175 4.59375 10.5 4.59375C13.2825 4.59375 15.5912 6.12675 17.283 7.81856C18.0972 8.63715 18.8271 9.53547 19.4618 10.5C19.3856 10.6142 19.3016 10.7402 19.2058 10.878C18.7661 11.508 18.1164 12.348 17.283 13.1814C15.5912 14.8733 13.2812 16.4062 10.5 16.4062C7.7175 16.4062 5.40881 14.8733 3.717 13.1814C2.90279 12.3628 2.17418 11.4645 1.53956 10.5Z" fill="#6931AA"/>
  <path d="M10.5 7.21875C9.62976 7.21875 8.79516 7.56445 8.17981 8.17981C7.56445 8.79516 7.21875 9.62976 7.21875 10.5C7.21875 11.3702 7.56445 12.2048 8.17981 12.8202C8.79516 13.4355 9.62976 13.7812 10.5 13.7812C11.3702 13.7812 12.2048 13.4355 12.8202 12.8202C13.4355 12.2048 13.7812 11.3702 13.7812 10.5C13.7812 9.62976 13.4355 8.79516 12.8202 8.17981C12.2048 7.56445 11.3702 7.21875 10.5 7.21875ZM5.90625 10.5C5.90625 9.28166 6.39023 8.11322 7.25173 7.25173C8.11322 6.39023 9.28166 5.90625 10.5 5.90625C11.7183 5.90625 12.8868 6.39023 13.7483 7.25173C14.6098 8.11322 15.0938 9.28166 15.0938 10.5C15.0938 11.7183 14.6098 12.8868 13.7483 13.7483C12.8868 14.6098 11.7183 15.0938 10.5 15.0938C9.28166 15.0938 8.11322 14.6098 7.25173 13.7483C6.39023 12.8868 5.90625 11.7183 5.90625 10.5Z" fill="#6931AA"/>
</svg>