<svg xmlns="http://www.w3.org/2000/svg" width="20" height="23" viewBox="0 0 20 23" fill="none">
    <path fill-rule="evenodd" clip-rule="evenodd" d="M1.4416 17.5004L0.0503597 21.7668C-0.00306335 21.931 -0.0142616 22.1094 0.0181027 22.2807C0.0504669 22.452 0.125026 22.609 0.232874 22.7329C0.340723 22.8568 0.477303 22.9423 0.626304 22.9794C0.775304 23.0164 0.930427 23.0034 1.07315 22.9418L4.78207 21.3418C5.20658 21.159 5.59215 20.8738 5.91285 20.5054L16.6564 8.15053C16.6564 8.15053 16.2815 6.85867 15.1592 5.56681C14.0369 4.27617 12.9125 3.84514 12.9125 3.84514L2.16899 16.2C1.84862 16.5688 1.6006 17.0122 1.4416 17.5004ZM14.4107 2.12226L15.875 0.438337C16.1375 0.136376 16.488 -0.0560029 16.8543 0.014617C17.37 0.112024 18.1588 0.406679 18.902 1.26264C19.6464 2.1186 19.9026 3.02449 19.9873 3.61745C20.0487 4.03874 19.8814 4.44176 19.6188 4.74372L18.1535 6.42764C18.1535 6.42764 17.7797 5.137 16.6564 3.84636C15.534 2.55328 14.4107 2.12226 14.4107 2.12226Z" fill="white"/>
  </svg>