<svg xmlns="http://www.w3.org/2000/svg" width="32" height="40" viewBox="0 0 32 40" fill="none">
  <path fill-rule="evenodd" clip-rule="evenodd" d="M16 0V13C16 13.7458 16.2778 14.4648 16.7792 15.0168C17.2806 15.5689 17.9697 15.9144 18.712 15.986L19 16H32V36C32.0003 37.0092 31.6192 37.9811 30.933 38.7211C30.2468 39.4611 29.3063 39.9143 28.3 39.99L28 40H4C2.99085 40.0003 2.01887 39.6192 1.2789 38.933C0.538941 38.2468 0.0856868 37.3063 0.0100004 36.3L2.00536e-07 36V4C-0.000319158 2.99085 0.380813 2.01887 1.06699 1.2789C1.75318 0.538941 2.69369 0.0856866 3.7 0.0100002L4 0H16ZM16 19C15.5101 19.0001 15.0373 19.1799 14.6713 19.5054C14.3052 19.8309 14.0713 20.2795 14.014 20.766L14 21V24H11C10.4902 24.0006 9.99994 24.1958 9.62926 24.5457C9.25859 24.8956 9.03553 25.3739 9.00566 25.8828C8.97578 26.3917 9.14135 26.8928 9.46853 27.2837C9.79571 27.6746 10.2598 27.9258 10.766 27.986L11 28H14V31C14.0006 31.5098 14.1958 32.0001 14.5457 32.3707C14.8956 32.7414 15.3739 32.9645 15.8828 32.9943C16.3917 33.0242 16.8928 32.8587 17.2837 32.5315C17.6746 32.2043 17.9258 31.7402 17.986 31.234L18 31V28H21C21.5098 27.9994 22.0001 27.8042 22.3707 27.4543C22.7414 27.1044 22.9645 26.6261 22.9943 26.1172C23.0242 25.6083 22.8587 25.1072 22.5315 24.7163C22.2043 24.3254 21.7402 24.0742 21.234 24.014L21 24H18V21C18 20.4696 17.7893 19.9609 17.4142 19.5858C17.0391 19.2107 16.5304 19 16 19ZM20 0.086C20.6468 0.223299 21.2494 0.518777 21.754 0.946L22 1.172L30.828 10C31.2966 10.4682 31.6416 11.0455 31.832 11.68L31.912 12H20V0.086Z" fill="#E13367"/>
</svg>