<svg xmlns="http://www.w3.org/2000/svg" width="27" height="27" viewBox="0 0 27 27" fill="none">
    <path d="M11.0013 15.9932L25.5949 1.40508M11.4161 16.6493L14.7252 23.2676C15.5249 24.8669 15.9247 25.6666 16.4284 25.881C16.8656 26.0672 17.3653 26.0334 17.7736 25.7904C18.244 25.5103 18.5328 24.6641 19.1107 22.9719L25.363 4.66134C25.8666 3.18688 26.1182 2.44965 25.946 1.96195C25.796 1.53768 25.4623 1.20395 25.0381 1.05405C24.5503 0.881749 23.8132 1.13349 22.3386 1.63695L4.02804 7.88936C2.33584 8.46719 1.48973 8.75611 1.20964 9.22649C0.966568 9.63469 0.932887 10.1344 1.11898 10.5714C1.33342 11.0752 2.1331 11.4751 3.73247 12.2747L10.3507 15.5839C10.6143 15.7157 10.7461 15.7815 10.8601 15.8695C10.9615 15.9477 11.0524 16.0385 11.1304 16.1397C11.2185 16.254 11.2844 16.3857 11.4161 16.6493Z" stroke="#6931AA" stroke-width="2" stroke-linecap="round" stroke-linejoin="round"/>
  </svg>