<svg xmlns="http://www.w3.org/2000/svg" width="10" height="15" viewBox="0 0 10 15" fill="none">
    <path d="M0.887868 1.20054C0.811542 1.13261 0.751873 1.0527 0.712266 0.965375C0.672659 0.878049 0.653891 0.785017 0.657033 0.69159C0.660176 0.598164 0.685167 0.506173 0.73058 0.420869C0.775993 0.335566 0.840938 0.258621 0.921708 0.194427C1.00248 0.130234 1.09749 0.0800486 1.20132 0.0467375C1.30515 0.0134265 1.41577 -0.00235828 1.52685 0.000284617C1.63793 0.00292752 1.74731 0.0239462 1.84874 0.0621407C1.95016 0.100335 2.04165 0.154957 2.11797 0.222889L9.3091 6.62673C9.45761 6.75884 9.54035 6.93375 9.54035 7.11556C9.54035 7.29737 9.45761 7.47228 9.3091 7.60439L2.11797 14.0089C2.04215 14.0784 1.95068 14.1344 1.84889 14.1739C1.74709 14.2133 1.63699 14.2353 1.52498 14.2387C1.41297 14.242 1.30129 14.2266 1.19642 14.1934C1.09155 14.1601 0.995585 14.1096 0.914097 14.0449C0.832608 13.9802 0.767221 13.9025 0.721734 13.8164C0.676247 13.7302 0.651567 13.6373 0.649126 13.5431C0.646686 13.4488 0.666534 13.3551 0.707519 13.2674C0.748503 13.1797 0.809806 13.0996 0.887868 13.032L7.53078 7.11556L0.887868 1.20054Z" fill="#4A4A4A"/>
  </svg>