<svg xmlns="http://www.w3.org/2000/svg" width="10" height="15" viewBox="0 0 10 15" fill="none">
  <path d="M0.929524 1.20054C0.853461 1.13261 0.793998 1.0527 0.754528 0.965375C0.715058 0.878049 0.696354 0.785017 0.699486 0.69159C0.702617 0.598164 0.727522 0.506173 0.772779 0.420869C0.818035 0.335566 0.882757 0.258621 0.963248 0.194427C1.04374 0.130234 1.13842 0.0800486 1.2419 0.0467375C1.34537 0.0134265 1.4556 -0.00235828 1.5663 0.000284617C1.677 0.00292752 1.786 0.0239462 1.88708 0.0621407C1.98815 0.100335 2.07933 0.154957 2.15539 0.222889L9.32172 6.62673C9.46971 6.75884 9.55218 6.93375 9.55218 7.11556C9.55218 7.29737 9.46971 7.47228 9.32172 7.60439L2.15539 14.0089C2.07983 14.0784 1.98868 14.1344 1.88723 14.1739C1.78578 14.2133 1.67606 14.2353 1.56444 14.2387C1.45282 14.242 1.34152 14.2266 1.23701 14.1934C1.13251 14.1601 1.03687 14.1096 0.955663 14.0449C0.874455 13.9802 0.809294 13.9025 0.763963 13.8164C0.718633 13.7302 0.694038 13.6373 0.691606 13.5431C0.689174 13.4488 0.708954 13.3551 0.749797 13.2674C0.79064 13.1797 0.851732 13.0996 0.929524 13.032L7.54953 7.11556L0.929524 1.20054Z" fill="white"/>
</svg>