<svg width="1440" height="1024" viewBox="0 0 1440 1024" fill="none" xmlns="http://www.w3.org/2000/svg">
<g clip-path="url(#clip0_195_773)">
<rect width="1440" height="1024" fill="#F8F2FF"/>
<path d="M712.971 345.21C332.184 493.981 78.9958 459.954 0 424.344L0 -1L1440 -1V345.21C1282.54 484.485 1180.25 421.706 1148.79 372.907C1048 180 816.067 285.2 712.971 345.21Z" fill="url(#paint0_linear_195_773)" fill-opacity="0.71"/>
<path d="M310.006 162.169C218.136 235.821 55.7229 218.208 -14 200.196V-76H716.04C742.288 60.0965 587.531 98.1234 506.871 100.125C398.595 101.726 330.513 142.155 310.006 162.169Z" fill="url(#paint1_linear_195_773)"/>
<path d="M519.711 745.047C291.604 652.516 78.1926 689.483 0 719.533L0 1024H1456V478C1454.38 703.884 1260 696 1158.73 617.477C984.013 503.174 868.14 598.776 827.089 675.308C770.066 781.617 602.622 771.695 519.711 745.047Z" fill="url(#paint2_linear_195_773)" fill-opacity="0.6"/>
<path d="M385.349 966.04C384.375 966.04 383.462 965.867 382.609 965.52C381.755 965.16 381.002 964.667 380.349 964.04C379.709 963.413 379.202 962.667 378.829 961.8C378.469 960.933 378.289 960 378.289 959C378.289 957.973 378.469 957.033 378.829 956.18C379.202 955.327 379.709 954.587 380.349 953.96C381.002 953.32 381.755 952.827 382.609 952.48C383.462 952.12 384.375 951.94 385.349 951.94C386.309 951.94 387.215 952.12 388.069 952.48C388.922 952.827 389.669 953.32 390.309 953.96C390.962 954.587 391.469 955.327 391.829 956.18C392.202 957.033 392.389 957.973 392.389 959C392.389 960 392.202 960.933 391.829 961.8C391.469 962.667 390.962 963.413 390.309 964.04C389.669 964.667 388.922 965.16 388.069 965.52C387.215 965.867 386.309 966.04 385.349 966.04ZM385.349 965.1C386.175 965.1 386.955 964.953 387.689 964.66C388.422 964.353 389.069 963.927 389.629 963.38C390.202 962.833 390.642 962.187 390.949 961.44C391.269 960.693 391.429 959.88 391.429 959C391.429 958.12 391.269 957.313 390.949 956.58C390.642 955.833 390.202 955.187 389.629 954.64C389.069 954.08 388.422 953.647 387.689 953.34C386.955 953.033 386.175 952.88 385.349 952.88C384.509 952.88 383.722 953.033 382.989 953.34C382.255 953.647 381.609 954.08 381.049 954.64C380.489 955.187 380.049 955.833 379.729 956.58C379.422 957.313 379.269 958.12 379.269 959C379.269 959.88 379.422 960.693 379.729 961.44C380.049 962.187 380.489 962.833 381.049 963.38C381.609 963.927 382.255 964.353 382.989 964.66C383.722 964.953 384.509 965.1 385.349 965.1ZM385.709 962.94C384.909 962.94 384.202 962.773 383.589 962.44C382.989 962.093 382.515 961.62 382.169 961.02C381.822 960.42 381.649 959.747 381.649 959C381.649 958.28 381.815 957.62 382.149 957.02C382.482 956.42 382.955 955.947 383.569 955.6C384.182 955.24 384.895 955.06 385.709 955.06C386.562 955.06 387.322 955.28 387.989 955.72C388.122 955.787 388.202 955.9 388.229 956.06C388.255 956.22 388.222 956.36 388.129 956.48C388.049 956.6 387.942 956.667 387.809 956.68C387.675 956.68 387.555 956.653 387.449 956.6C387.195 956.44 386.922 956.313 386.629 956.22C386.335 956.127 386.029 956.08 385.709 956.08C385.095 956.08 384.562 956.213 384.109 956.48C383.655 956.733 383.309 957.08 383.069 957.52C382.829 957.947 382.709 958.44 382.709 959C382.709 959.573 382.829 960.08 383.069 960.52C383.309 960.96 383.655 961.307 384.109 961.56C384.562 961.8 385.095 961.92 385.709 961.92C386.029 961.92 386.329 961.873 386.609 961.78C386.902 961.687 387.182 961.567 387.449 961.42C387.555 961.353 387.675 961.333 387.809 961.36C387.942 961.373 388.049 961.433 388.129 961.54C388.222 961.66 388.255 961.8 388.229 961.96C388.202 962.107 388.129 962.22 388.009 962.3C387.675 962.5 387.309 962.66 386.909 962.78C386.522 962.887 386.122 962.94 385.709 962.94ZM408.236 964.84C408.396 964.84 408.529 964.9 408.636 965.02C408.756 965.127 408.816 965.26 408.816 965.42C408.816 965.593 408.756 965.733 408.636 965.84C408.529 965.947 408.396 966 408.236 966H400.736C400.563 966 400.409 965.953 400.276 965.86C400.156 965.753 400.096 965.6 400.096 965.4C400.096 965.253 400.149 965.113 400.256 964.98L404.876 959.88C405.609 959.08 406.156 958.347 406.516 957.68C406.889 957 407.076 956.393 407.076 955.86C407.076 954.98 406.809 954.273 406.276 953.74C405.743 953.207 405.023 952.94 404.116 952.94C403.703 952.94 403.289 953.027 402.876 953.2C402.476 953.373 402.116 953.6 401.796 953.88C401.489 954.16 401.249 954.48 401.076 954.84C400.996 954.973 400.909 955.067 400.816 955.12C400.736 955.173 400.643 955.2 400.536 955.2C400.376 955.2 400.236 955.153 400.116 955.06C399.996 954.953 399.936 954.827 399.936 954.68C399.936 954.587 399.956 954.493 399.996 954.4C400.049 954.307 400.123 954.2 400.216 954.08C400.456 953.667 400.789 953.287 401.216 952.94C401.643 952.593 402.116 952.32 402.636 952.12C403.169 951.907 403.689 951.8 404.196 951.8C405.049 951.8 405.783 951.967 406.396 952.3C407.023 952.62 407.503 953.08 407.836 953.68C408.183 954.267 408.356 954.967 408.356 955.78C408.356 956.473 408.136 957.233 407.696 958.06C407.269 958.873 406.629 959.753 405.776 960.7L401.876 965.08L401.676 964.84H408.236ZM415.77 966.2C414.703 966.2 413.81 965.88 413.09 965.24C412.37 964.6 411.83 963.74 411.47 962.66C411.11 961.567 410.93 960.347 410.93 959C410.93 957.64 411.11 956.42 411.47 955.34C411.83 954.247 412.37 953.387 413.09 952.76C413.81 952.12 414.703 951.8 415.77 951.8C416.863 951.8 417.763 952.12 418.47 952.76C419.19 953.387 419.73 954.247 420.09 955.34C420.45 956.42 420.63 957.64 420.63 959C420.63 960.347 420.45 961.567 420.09 962.66C419.73 963.74 419.19 964.6 418.47 965.24C417.763 965.88 416.863 966.2 415.77 966.2ZM415.77 964.96C416.557 964.96 417.21 964.713 417.73 964.22C418.263 963.727 418.663 963.033 418.93 962.14C419.21 961.233 419.35 960.187 419.35 959C419.35 957.8 419.21 956.753 418.93 955.86C418.663 954.953 418.263 954.253 417.73 953.76C417.21 953.267 416.557 953.02 415.77 953.02C414.997 953.02 414.343 953.267 413.81 953.76C413.29 954.253 412.89 954.953 412.61 955.86C412.343 956.753 412.21 957.8 412.21 959C412.21 960.187 412.343 961.233 412.61 962.14C412.89 963.033 413.29 963.727 413.81 964.22C414.343 964.713 414.997 964.96 415.77 964.96ZM431.205 964.84C431.365 964.84 431.498 964.9 431.605 965.02C431.725 965.127 431.785 965.26 431.785 965.42C431.785 965.593 431.725 965.733 431.605 965.84C431.498 965.947 431.365 966 431.205 966H423.705C423.531 966 423.378 965.953 423.245 965.86C423.125 965.753 423.065 965.6 423.065 965.4C423.065 965.253 423.118 965.113 423.225 964.98L427.845 959.88C428.578 959.08 429.125 958.347 429.485 957.68C429.858 957 430.045 956.393 430.045 955.86C430.045 954.98 429.778 954.273 429.245 953.74C428.711 953.207 427.991 952.94 427.085 952.94C426.671 952.94 426.258 953.027 425.845 953.2C425.445 953.373 425.085 953.6 424.765 953.88C424.458 954.16 424.218 954.48 424.045 954.84C423.965 954.973 423.878 955.067 423.785 955.12C423.705 955.173 423.611 955.2 423.505 955.2C423.345 955.2 423.205 955.153 423.085 955.06C422.965 954.953 422.905 954.827 422.905 954.68C422.905 954.587 422.925 954.493 422.965 954.4C423.018 954.307 423.091 954.2 423.185 954.08C423.425 953.667 423.758 953.287 424.185 952.94C424.611 952.593 425.085 952.32 425.605 952.12C426.138 951.907 426.658 951.8 427.165 951.8C428.018 951.8 428.751 951.967 429.365 952.3C429.991 952.62 430.471 953.08 430.805 953.68C431.151 954.267 431.325 954.967 431.325 955.78C431.325 956.473 431.105 957.233 430.665 958.06C430.238 958.873 429.598 959.753 428.745 960.7L424.845 965.08L424.645 964.84H431.205ZM434.579 963.94C434.645 963.94 434.712 963.953 434.779 963.98C434.859 964.007 434.952 964.067 435.059 964.16C435.339 964.453 435.672 964.68 436.059 964.84C436.445 964.987 436.885 965.06 437.379 965.06C438.032 965.06 438.625 964.913 439.159 964.62C439.705 964.327 440.139 963.92 440.459 963.4C440.779 962.867 440.939 962.26 440.939 961.58C440.939 960.807 440.765 960.187 440.419 959.72C440.085 959.24 439.652 958.887 439.119 958.66C438.599 958.42 438.065 958.3 437.519 958.3C437.372 958.3 437.225 958.313 437.079 958.34C436.945 958.353 436.819 958.373 436.699 958.4C436.579 958.427 436.485 958.44 436.419 958.44C436.245 958.44 436.112 958.387 436.019 958.28C435.925 958.16 435.879 958.013 435.879 957.84C435.879 957.747 435.899 957.667 435.939 957.6C435.979 957.52 436.032 957.433 436.099 957.34L440.159 952.92L440.399 953.24H434.339C434.179 953.24 434.039 953.187 433.919 953.08C433.812 952.96 433.759 952.82 433.759 952.66C433.759 952.5 433.812 952.367 433.919 952.26C434.039 952.153 434.179 952.1 434.339 952.1H441.059C441.285 952.1 441.445 952.173 441.539 952.32C441.632 952.453 441.679 952.587 441.679 952.72C441.679 952.8 441.659 952.88 441.619 952.96C441.579 953.027 441.525 953.1 441.459 953.18L437.399 957.6L436.959 957.34C436.999 957.3 437.132 957.26 437.359 957.22C437.599 957.167 437.785 957.14 437.919 957.14C438.652 957.14 439.339 957.313 439.979 957.66C440.632 958.007 441.159 958.507 441.559 959.16C441.972 959.8 442.179 960.593 442.179 961.54C442.179 962.473 441.959 963.293 441.519 964C441.079 964.693 440.485 965.233 439.739 965.62C438.992 966.007 438.165 966.2 437.259 966.2C436.712 966.2 436.172 966.107 435.639 965.92C435.105 965.733 434.639 965.453 434.239 965.08C434.145 965 434.079 964.92 434.039 964.84C433.999 964.76 433.979 964.68 433.979 964.6C433.979 964.44 434.032 964.293 434.139 964.16C434.259 964.013 434.405 963.94 434.579 963.94ZM451.236 952C451.329 952 451.423 952.02 451.516 952.06C451.623 952.1 451.709 952.167 451.776 952.26L457.296 960.54L456.756 960.52L462.296 952.26C462.443 952.06 462.623 951.973 462.836 952C462.996 952 463.129 952.06 463.236 952.18C463.356 952.287 463.416 952.427 463.416 952.6V965.4C463.416 965.56 463.356 965.7 463.236 965.82C463.116 965.94 462.969 966 462.796 966C462.609 966 462.456 965.94 462.336 965.82C462.216 965.7 462.156 965.56 462.156 965.4V953.82L462.516 953.86L457.456 961.52C457.416 961.6 457.356 961.667 457.276 961.72C457.196 961.76 457.103 961.773 456.996 961.76C456.903 961.773 456.809 961.76 456.716 961.72C456.636 961.667 456.569 961.6 456.516 961.52L451.436 953.78L451.816 953.52V965.4C451.816 965.56 451.756 965.7 451.636 965.82C451.529 965.94 451.389 966 451.216 966C451.043 966 450.903 965.94 450.796 965.82C450.689 965.7 450.636 965.56 450.636 965.4V952.6C450.636 952.44 450.689 952.3 450.796 952.18C450.916 952.06 451.063 952 451.236 952ZM474.499 955.6C474.672 955.6 474.812 955.66 474.919 955.78C475.039 955.9 475.099 956.04 475.099 956.2V965.02C475.099 966.1 474.885 967.007 474.459 967.74C474.032 968.487 473.459 969.047 472.739 969.42C472.019 969.807 471.199 970 470.279 970C469.705 970 469.172 969.933 468.679 969.8C468.199 969.68 467.805 969.52 467.499 969.32C467.339 969.227 467.219 969.113 467.139 968.98C467.059 968.847 467.052 968.707 467.119 968.56C467.185 968.373 467.285 968.247 467.419 968.18C467.565 968.127 467.712 968.133 467.859 968.2C468.085 968.32 468.412 968.467 468.839 968.64C469.265 968.813 469.752 968.9 470.299 968.9C471.032 968.9 471.665 968.747 472.199 968.44C472.745 968.133 473.165 967.687 473.459 967.1C473.752 966.527 473.899 965.84 473.899 965.04V963.6L474.039 964.08C473.839 964.493 473.552 964.86 473.179 965.18C472.819 965.5 472.399 965.753 471.919 965.94C471.452 966.113 470.952 966.2 470.419 966.2C469.619 966.2 468.952 966.04 468.419 965.72C467.899 965.387 467.512 964.933 467.259 964.36C467.005 963.787 466.879 963.113 466.879 962.34V956.2C466.879 956.04 466.932 955.9 467.039 955.78C467.145 955.66 467.292 955.6 467.479 955.6C467.652 955.6 467.792 955.66 467.899 955.78C468.019 955.9 468.079 956.04 468.079 956.2V962.16C468.079 963.093 468.279 963.813 468.679 964.32C469.092 964.827 469.759 965.08 470.679 965.08C471.252 965.08 471.779 964.947 472.259 964.68C472.739 964.4 473.132 964.04 473.439 963.6C473.745 963.147 473.899 962.667 473.899 962.16V956.2C473.899 956.04 473.952 955.9 474.059 955.78C474.179 955.66 474.325 955.6 474.499 955.6ZM492.995 951.94C493.155 951.94 493.288 951.993 493.395 952.1C493.515 952.193 493.575 952.313 493.575 952.46C493.575 952.593 493.528 952.72 493.435 952.84L488.835 959.1L488.175 958.12L492.515 952.2C492.648 952.027 492.808 951.94 492.995 951.94ZM483.435 951.94C483.648 951.94 483.815 952.02 483.935 952.18L493.435 965.1C493.528 965.22 493.575 965.34 493.575 965.46C493.575 965.647 493.508 965.793 493.375 965.9C493.241 966.007 493.101 966.06 492.955 966.06C492.741 966.06 492.581 965.98 492.475 965.82L482.955 952.9C482.861 952.793 482.815 952.673 482.815 952.54C482.815 952.367 482.875 952.227 482.995 952.12C483.128 952 483.275 951.94 483.435 951.94ZM483.375 966.06C483.201 966.06 483.068 966.007 482.975 965.9C482.881 965.78 482.835 965.66 482.835 965.54C482.835 965.42 482.881 965.287 482.975 965.14L487.575 958.88L488.215 959.88L483.855 965.8C483.735 965.973 483.575 966.06 483.375 966.06ZM505.124 951.94C505.284 951.94 505.417 951.993 505.524 952.1C505.644 952.193 505.704 952.313 505.704 952.46C505.704 952.593 505.657 952.72 505.564 952.84L500.964 959.1L500.304 958.12L504.644 952.2C504.777 952.027 504.937 951.94 505.124 951.94ZM495.564 951.94C495.777 951.94 495.944 952.02 496.064 952.18L505.564 965.1C505.657 965.22 505.704 965.34 505.704 965.46C505.704 965.647 505.637 965.793 505.504 965.9C505.37 966.007 505.23 966.06 505.084 966.06C504.87 966.06 504.71 965.98 504.604 965.82L495.084 952.9C494.99 952.793 494.944 952.673 494.944 952.54C494.944 952.367 495.004 952.227 495.124 952.12C495.257 952 495.404 951.94 495.564 951.94ZM495.504 966.06C495.33 966.06 495.197 966.007 495.104 965.9C495.01 965.78 494.964 965.66 494.964 965.54C494.964 965.42 495.01 965.287 495.104 965.14L499.704 958.88L500.344 959.88L495.984 965.8C495.864 965.973 495.704 966.06 495.504 966.06ZM516.613 951.92C516.786 951.92 516.926 951.987 517.033 952.12C517.153 952.24 517.213 952.373 517.213 952.52C517.213 952.587 517.199 952.653 517.173 952.72C517.159 952.773 517.133 952.833 517.093 952.9L512.393 959.36L512.633 958.58V965.4C512.633 965.56 512.573 965.7 512.453 965.82C512.333 965.94 512.186 966 512.013 966C511.839 966 511.693 965.94 511.573 965.82C511.466 965.7 511.413 965.56 511.413 965.4V958.72L511.513 959.2L506.933 952.94C506.879 952.873 506.839 952.807 506.813 952.74C506.786 952.66 506.773 952.587 506.773 952.52C506.773 952.347 506.839 952.207 506.973 952.1C507.119 951.98 507.266 951.92 507.413 951.92C507.613 951.92 507.779 952.013 507.913 952.2L512.213 958.06L511.913 958.02L516.093 952.2C516.226 952.013 516.399 951.92 516.613 951.92ZM525.673 969.02C525.673 969.18 525.613 969.32 525.493 969.44C525.387 969.56 525.247 969.62 525.073 969.62C524.9 969.62 524.753 969.56 524.633 969.44C524.527 969.32 524.473 969.18 524.473 969.02V950.9C524.473 950.727 524.527 950.587 524.633 950.48C524.753 950.36 524.907 950.3 525.093 950.3C525.267 950.3 525.407 950.36 525.513 950.48C525.62 950.587 525.673 950.727 525.673 950.9V969.02ZM544.704 953.04C544.864 953.147 544.957 953.287 544.984 953.46C545.01 953.62 544.97 953.78 544.864 953.94C544.77 954.06 544.65 954.127 544.504 954.14C544.357 954.153 544.217 954.127 544.084 954.06C543.577 953.727 543.03 953.467 542.444 953.28C541.87 953.093 541.25 953 540.584 953C539.77 953 539.01 953.147 538.304 953.44C537.61 953.72 537.004 954.133 536.484 954.68C535.964 955.213 535.557 955.847 535.264 956.58C534.984 957.313 534.844 958.12 534.844 959C534.844 959.907 534.99 960.733 535.284 961.48C535.577 962.213 535.984 962.847 536.504 963.38C537.037 963.913 537.65 964.32 538.344 964.6C539.037 964.88 539.784 965.02 540.584 965.02C541.237 965.02 541.85 964.927 542.424 964.74C543.01 964.553 543.557 964.3 544.064 963.98C544.197 963.9 544.337 963.873 544.484 963.9C544.644 963.913 544.77 963.987 544.864 964.12C544.984 964.267 545.024 964.427 544.984 964.6C544.957 964.76 544.87 964.887 544.724 964.98C544.39 965.193 543.997 965.393 543.544 965.58C543.09 965.767 542.61 965.913 542.104 966.02C541.597 966.14 541.09 966.2 540.584 966.2C539.624 966.2 538.724 966.027 537.884 965.68C537.044 965.333 536.297 964.847 535.644 964.22C534.99 963.58 534.477 962.82 534.104 961.94C533.744 961.06 533.564 960.08 533.564 959C533.564 957.96 533.744 957.007 534.104 956.14C534.464 955.26 534.964 954.5 535.604 953.86C536.244 953.22 536.99 952.72 537.844 952.36C538.697 952 539.61 951.82 540.584 951.82C541.344 951.82 542.077 951.927 542.784 952.14C543.49 952.353 544.13 952.653 544.704 953.04ZM551.91 955.7C552.75 955.7 553.43 955.88 553.95 956.24C554.47 956.6 554.85 957.087 555.09 957.7C555.343 958.313 555.47 958.993 555.47 959.74V965.4C555.47 965.56 555.41 965.7 555.29 965.82C555.17 965.94 555.03 966 554.87 966C554.683 966 554.537 965.94 554.43 965.82C554.323 965.7 554.27 965.56 554.27 965.4V959.74C554.27 959.193 554.183 958.7 554.01 958.26C553.85 957.82 553.583 957.473 553.21 957.22C552.837 956.953 552.337 956.82 551.71 956.82C551.15 956.82 550.617 956.953 550.11 957.22C549.617 957.473 549.217 957.82 548.91 958.26C548.603 958.7 548.45 959.193 548.45 959.74V965.4C548.45 965.56 548.39 965.7 548.27 965.82C548.15 965.94 548.01 966 547.85 966C547.663 966 547.517 965.94 547.41 965.82C547.303 965.7 547.25 965.56 547.25 965.4V951.8C547.25 951.64 547.303 951.5 547.41 951.38C547.53 951.26 547.677 951.2 547.85 951.2C548.023 951.2 548.163 951.26 548.27 951.38C548.39 951.5 548.45 951.64 548.45 951.8V958.28L547.99 958.98C548.017 958.567 548.143 958.167 548.37 957.78C548.61 957.38 548.917 957.027 549.29 956.72C549.663 956.4 550.077 956.153 550.53 955.98C550.983 955.793 551.443 955.7 551.91 955.7ZM559.217 966C559.03 966 558.884 965.94 558.777 965.82C558.67 965.7 558.617 965.56 558.617 965.4V956.44C558.617 956.28 558.67 956.14 558.777 956.02C558.897 955.9 559.044 955.84 559.217 955.84C559.39 955.84 559.53 955.9 559.637 956.02C559.757 956.14 559.817 956.28 559.817 956.44V959.44L559.517 959.5C559.557 959.033 559.67 958.573 559.857 958.12C560.057 957.653 560.324 957.227 560.657 956.84C560.99 956.453 561.384 956.14 561.837 955.9C562.304 955.66 562.824 955.54 563.397 955.54C563.637 955.54 563.87 955.593 564.097 955.7C564.324 955.793 564.437 955.953 564.437 956.18C564.437 956.38 564.384 956.533 564.277 956.64C564.17 956.747 564.044 956.8 563.897 956.8C563.777 956.8 563.644 956.767 563.497 956.7C563.364 956.633 563.184 956.6 562.957 956.6C562.584 956.6 562.21 956.713 561.837 956.94C561.464 957.153 561.124 957.447 560.817 957.82C560.51 958.193 560.264 958.613 560.077 959.08C559.904 959.533 559.817 959.993 559.817 960.46V965.4C559.817 965.56 559.757 965.7 559.637 965.82C559.517 965.94 559.377 966 559.217 966ZM575.383 960.88C575.383 961.893 575.163 962.807 574.723 963.62C574.283 964.42 573.683 965.053 572.923 965.52C572.163 965.973 571.297 966.2 570.323 966.2C569.377 966.2 568.517 965.973 567.743 965.52C566.983 965.053 566.377 964.42 565.923 963.62C565.483 962.807 565.263 961.893 565.263 960.88C565.263 959.853 565.483 958.94 565.923 958.14C566.377 957.34 566.983 956.707 567.743 956.24C568.517 955.773 569.377 955.54 570.323 955.54C571.297 955.54 572.163 955.773 572.923 956.24C573.683 956.707 574.283 957.34 574.723 958.14C575.163 958.94 575.383 959.853 575.383 960.88ZM574.183 960.88C574.183 960.067 574.017 959.347 573.683 958.72C573.35 958.08 572.89 957.58 572.303 957.22C571.73 956.847 571.07 956.66 570.323 956.66C569.603 956.66 568.95 956.847 568.363 957.22C567.777 957.58 567.31 958.08 566.963 958.72C566.63 959.347 566.463 960.067 566.463 960.88C566.463 961.693 566.63 962.413 566.963 963.04C567.31 963.667 567.777 964.167 568.363 964.54C568.95 964.9 569.603 965.08 570.323 965.08C571.07 965.08 571.73 964.9 572.303 964.54C572.89 964.167 573.35 963.667 573.683 963.04C574.017 962.413 574.183 961.693 574.183 960.88ZM582.534 955.7C583.36 955.7 584.067 955.92 584.654 956.36C585.24 956.787 585.64 957.427 585.854 958.28L585.574 958.36L585.694 958C585.867 957.6 586.154 957.227 586.554 956.88C586.967 956.52 587.434 956.233 587.954 956.02C588.474 955.807 589 955.7 589.534 955.7C590.374 955.7 591.047 955.88 591.554 956.24C592.074 956.6 592.447 957.087 592.674 957.7C592.914 958.3 593.034 958.98 593.034 959.74V965.4C593.034 965.56 592.974 965.7 592.854 965.82C592.747 965.94 592.607 966 592.434 966C592.26 966 592.114 965.94 591.994 965.82C591.887 965.7 591.834 965.56 591.834 965.4V959.8C591.834 959.253 591.747 958.753 591.574 958.3C591.4 957.847 591.127 957.487 590.754 957.22C590.38 956.953 589.88 956.82 589.254 956.82C588.707 956.82 588.18 956.953 587.674 957.22C587.18 957.487 586.774 957.847 586.454 958.3C586.147 958.753 585.994 959.253 585.994 959.8V965.4C585.994 965.56 585.934 965.7 585.814 965.82C585.707 965.94 585.567 966 585.394 966C585.22 966 585.074 965.94 584.954 965.82C584.847 965.7 584.794 965.56 584.794 965.4V959.74C584.794 959.193 584.714 958.7 584.554 958.26C584.394 957.82 584.134 957.473 583.774 957.22C583.414 956.953 582.927 956.82 582.314 956.82C581.767 956.82 581.247 956.953 580.754 957.22C580.274 957.473 579.88 957.82 579.574 958.26C579.28 958.7 579.134 959.193 579.134 959.74V965.4C579.134 965.56 579.074 965.7 578.954 965.82C578.834 965.94 578.694 966 578.534 966C578.347 966 578.2 965.94 578.094 965.82C577.987 965.7 577.934 965.56 577.934 965.4V956.44C577.934 956.28 577.987 956.14 578.094 956.02C578.214 955.9 578.36 955.84 578.534 955.84C578.707 955.84 578.847 955.9 578.954 956.02C579.074 956.14 579.134 956.28 579.134 956.44V958.3L578.594 959.04C578.634 958.64 578.76 958.24 578.974 957.84C579.2 957.44 579.494 957.08 579.854 956.76C580.214 956.44 580.62 956.187 581.074 956C581.54 955.8 582.027 955.7 582.534 955.7ZM605.696 960.88C605.696 961.893 605.476 962.807 605.036 963.62C604.596 964.42 603.996 965.053 603.236 965.52C602.476 965.973 601.609 966.2 600.636 966.2C599.689 966.2 598.829 965.973 598.056 965.52C597.296 965.053 596.689 964.42 596.236 963.62C595.796 962.807 595.576 961.893 595.576 960.88C595.576 959.853 595.796 958.94 596.236 958.14C596.689 957.34 597.296 956.707 598.056 956.24C598.829 955.773 599.689 955.54 600.636 955.54C601.609 955.54 602.476 955.773 603.236 956.24C603.996 956.707 604.596 957.34 605.036 958.14C605.476 958.94 605.696 959.853 605.696 960.88ZM604.496 960.88C604.496 960.067 604.329 959.347 603.996 958.72C603.662 958.08 603.202 957.58 602.616 957.22C602.042 956.847 601.382 956.66 600.636 956.66C599.916 956.66 599.262 956.847 598.676 957.22C598.089 957.58 597.622 958.08 597.276 958.72C596.942 959.347 596.776 960.067 596.776 960.88C596.776 961.693 596.942 962.413 597.276 963.04C597.622 963.667 598.089 964.167 598.676 964.54C599.262 964.9 599.916 965.08 600.636 965.08C601.382 965.08 602.042 964.9 602.616 964.54C603.202 964.167 603.662 963.667 603.996 963.04C604.329 962.413 604.496 961.693 604.496 960.88ZM616.626 951.2C616.799 951.2 616.939 951.26 617.046 951.38C617.166 951.487 617.226 951.627 617.226 951.8V965.4C617.226 965.56 617.166 965.7 617.046 965.82C616.926 965.94 616.786 966 616.626 966C616.453 966 616.306 965.94 616.186 965.82C616.079 965.7 616.026 965.56 616.026 965.4V963.02L616.366 962.74C616.366 963.113 616.266 963.507 616.066 963.92C615.866 964.32 615.579 964.693 615.206 965.04C614.846 965.387 614.419 965.667 613.926 965.88C613.446 966.093 612.926 966.2 612.366 966.2C611.473 966.2 610.666 965.967 609.946 965.5C609.239 965.033 608.679 964.4 608.266 963.6C607.853 962.8 607.646 961.887 607.646 960.86C607.646 959.847 607.853 958.94 608.266 958.14C608.679 957.327 609.239 956.693 609.946 956.24C610.653 955.773 611.453 955.54 612.346 955.54C612.893 955.54 613.413 955.64 613.906 955.84C614.399 956.04 614.833 956.313 615.206 956.66C615.593 957.007 615.893 957.407 616.106 957.86C616.333 958.3 616.446 958.76 616.446 959.24L616.026 958.94V951.8C616.026 951.64 616.079 951.5 616.186 951.38C616.306 951.26 616.453 951.2 616.626 951.2ZM612.466 965.08C613.186 965.08 613.813 964.9 614.346 964.54C614.893 964.167 615.319 963.667 615.626 963.04C615.946 962.4 616.106 961.673 616.106 960.86C616.106 960.06 615.946 959.347 615.626 958.72C615.319 958.08 614.893 957.58 614.346 957.22C613.799 956.847 613.173 956.66 612.466 956.66C611.773 956.66 611.146 956.847 610.586 957.22C610.039 957.58 609.606 958.08 609.286 958.72C608.979 959.347 608.826 960.06 608.826 960.86C608.826 961.66 608.979 962.38 609.286 963.02C609.606 963.66 610.039 964.167 610.586 964.54C611.146 964.9 611.773 965.08 612.466 965.08ZM621.535 965.4C621.535 965.56 621.475 965.7 621.355 965.82C621.235 965.94 621.095 966 620.935 966C620.762 966 620.615 965.94 620.495 965.82C620.388 965.7 620.335 965.56 620.335 965.4V956.2C620.335 956.04 620.388 955.9 620.495 955.78C620.615 955.66 620.762 955.6 620.935 955.6C621.108 955.6 621.248 955.66 621.355 955.78C621.475 955.9 621.535 956.04 621.535 956.2V965.4ZM620.935 954.26C620.655 954.26 620.442 954.2 620.295 954.08C620.162 953.947 620.095 953.76 620.095 953.52V953.32C620.095 953.08 620.168 952.9 620.315 952.78C620.475 952.647 620.688 952.58 620.955 952.58C621.208 952.58 621.402 952.647 621.535 952.78C621.682 952.9 621.755 953.08 621.755 953.32V953.52C621.755 953.76 621.682 953.947 621.535 954.08C621.402 954.2 621.202 954.26 620.935 954.26ZM624.412 955.56C624.519 955.56 624.626 955.593 624.732 955.66C624.839 955.727 624.919 955.827 624.972 955.96L628.472 964.28L628.212 964.44L631.792 955.96C631.899 955.693 632.092 955.567 632.372 955.58C632.506 955.58 632.632 955.627 632.752 955.72C632.872 955.8 632.932 955.92 632.932 956.08C632.932 956.16 632.919 956.227 632.892 956.28C632.879 956.32 632.866 956.367 632.852 956.42L628.932 965.62C628.826 965.86 628.646 965.987 628.392 966C628.272 966.013 628.152 965.987 628.032 965.92C627.926 965.84 627.846 965.74 627.792 965.62L623.852 956.42C623.839 956.393 623.826 956.353 623.812 956.3C623.799 956.247 623.792 956.193 623.792 956.14C623.792 955.993 623.846 955.86 623.952 955.74C624.059 955.62 624.212 955.56 624.412 955.56ZM639.761 966.2C638.734 966.2 637.827 965.98 637.041 965.54C636.254 965.1 635.641 964.487 635.201 963.7C634.761 962.913 634.541 961.993 634.541 960.94C634.541 959.807 634.761 958.84 635.201 958.04C635.654 957.24 636.234 956.627 636.941 956.2C637.661 955.76 638.421 955.54 639.221 955.54C639.807 955.54 640.374 955.647 640.921 955.86C641.481 956.06 641.974 956.367 642.401 956.78C642.841 957.18 643.187 957.673 643.441 958.26C643.707 958.847 643.854 959.527 643.881 960.3C643.867 960.46 643.801 960.6 643.681 960.72C643.561 960.827 643.421 960.88 643.261 960.88H635.241L635.001 959.8H642.881L642.621 960.04V959.64C642.567 959.013 642.367 958.48 642.021 958.04C641.674 957.6 641.254 957.267 640.761 957.04C640.267 956.813 639.754 956.7 639.221 956.7C638.821 956.7 638.407 956.78 637.981 956.94C637.567 957.1 637.187 957.353 636.841 957.7C636.507 958.033 636.234 958.467 636.021 959C635.807 959.52 635.701 960.14 635.701 960.86C635.701 961.647 635.861 962.36 636.181 963C636.501 963.64 636.961 964.147 637.561 964.52C638.174 964.893 638.901 965.08 639.741 965.08C640.207 965.08 640.627 965.013 641.001 964.88C641.374 964.747 641.701 964.573 641.981 964.36C642.261 964.133 642.494 963.9 642.681 963.66C642.827 963.54 642.974 963.48 643.121 963.48C643.254 963.48 643.367 963.533 643.461 963.64C643.567 963.747 643.621 963.867 643.621 964C643.621 964.16 643.554 964.3 643.421 964.42C643.021 964.9 642.501 965.32 641.861 965.68C641.221 966.027 640.521 966.2 639.761 966.2ZM647.049 966C646.862 966 646.716 965.94 646.609 965.82C646.502 965.7 646.449 965.56 646.449 965.4V956.44C646.449 956.28 646.502 956.14 646.609 956.02C646.729 955.9 646.876 955.84 647.049 955.84C647.222 955.84 647.362 955.9 647.469 956.02C647.589 956.14 647.649 956.28 647.649 956.44V959.44L647.349 959.5C647.389 959.033 647.502 958.573 647.689 958.12C647.889 957.653 648.156 957.227 648.489 956.84C648.822 956.453 649.216 956.14 649.669 955.9C650.136 955.66 650.656 955.54 651.229 955.54C651.469 955.54 651.702 955.593 651.929 955.7C652.156 955.793 652.269 955.953 652.269 956.18C652.269 956.38 652.216 956.533 652.109 956.64C652.002 956.747 651.876 956.8 651.729 956.8C651.609 956.8 651.476 956.767 651.329 956.7C651.196 956.633 651.016 956.6 650.789 956.6C650.416 956.6 650.042 956.713 649.669 956.94C649.296 957.153 648.956 957.447 648.649 957.82C648.342 958.193 648.096 958.613 647.909 959.08C647.736 959.533 647.649 959.993 647.649 960.46V965.4C647.649 965.56 647.589 965.7 647.469 965.82C647.349 965.94 647.209 966 647.049 966ZM653.564 964.38C653.458 964.22 653.404 964.067 653.404 963.92C653.418 963.76 653.504 963.633 653.664 963.54C653.771 963.447 653.891 963.407 654.024 963.42C654.171 963.433 654.304 963.5 654.424 963.62C654.784 964.087 655.218 964.467 655.724 964.76C656.244 965.04 656.858 965.18 657.564 965.18C657.938 965.18 658.304 965.12 658.664 965C659.038 964.867 659.344 964.673 659.584 964.42C659.824 964.153 659.944 963.82 659.944 963.42C659.944 963.007 659.824 962.673 659.584 962.42C659.344 962.167 659.031 961.967 658.644 961.82C658.271 961.673 657.871 961.547 657.444 961.44C656.991 961.32 656.551 961.187 656.124 961.04C655.698 960.88 655.318 960.687 654.984 960.46C654.664 960.22 654.404 959.933 654.204 959.6C654.004 959.267 653.904 958.86 653.904 958.38C653.904 957.82 654.058 957.327 654.364 956.9C654.671 956.473 655.084 956.14 655.604 955.9C656.138 955.66 656.738 955.54 657.404 955.54C657.738 955.54 658.098 955.587 658.484 955.68C658.871 955.76 659.251 955.9 659.624 956.1C659.998 956.3 660.331 956.573 660.624 956.92C660.744 957.04 660.804 957.18 660.804 957.34C660.804 957.487 660.738 957.62 660.604 957.74C660.498 957.82 660.371 957.86 660.224 957.86C660.091 957.86 659.978 957.807 659.884 957.7C659.564 957.34 659.184 957.067 658.744 956.88C658.304 956.693 657.831 956.6 657.324 956.6C656.938 956.6 656.571 956.667 656.224 956.8C655.891 956.92 655.611 957.107 655.384 957.36C655.158 957.613 655.044 957.947 655.044 958.36C655.071 958.747 655.204 959.06 655.444 959.3C655.698 959.54 656.024 959.74 656.424 959.9C656.838 960.06 657.298 960.207 657.804 960.34C658.231 960.447 658.638 960.573 659.024 960.72C659.424 960.867 659.771 961.053 660.064 961.28C660.371 961.493 660.611 961.767 660.784 962.1C660.971 962.433 661.064 962.853 661.064 963.36C661.064 963.947 660.898 964.453 660.564 964.88C660.244 965.307 659.811 965.633 659.264 965.86C658.718 966.087 658.111 966.2 657.444 966.2C656.724 966.2 656.024 966.06 655.344 965.78C654.678 965.5 654.084 965.033 653.564 964.38ZM664.679 965.4C664.679 965.56 664.619 965.7 664.499 965.82C664.379 965.94 664.239 966 664.079 966C663.906 966 663.759 965.94 663.639 965.82C663.533 965.7 663.479 965.56 663.479 965.4V956.2C663.479 956.04 663.533 955.9 663.639 955.78C663.759 955.66 663.906 955.6 664.079 955.6C664.253 955.6 664.393 955.66 664.499 955.78C664.619 955.9 664.679 956.04 664.679 956.2V965.4ZM664.079 954.26C663.799 954.26 663.586 954.2 663.439 954.08C663.306 953.947 663.239 953.76 663.239 953.52V953.32C663.239 953.08 663.313 952.9 663.459 952.78C663.619 952.647 663.833 952.58 664.099 952.58C664.353 952.58 664.546 952.647 664.679 952.78C664.826 952.9 664.899 953.08 664.899 953.32V953.52C664.899 953.76 664.826 953.947 664.679 954.08C664.546 954.2 664.346 954.26 664.079 954.26ZM667.137 955.82H671.797C671.957 955.82 672.09 955.88 672.197 956C672.303 956.107 672.357 956.24 672.357 956.4C672.357 956.547 672.303 956.673 672.197 956.78C672.09 956.887 671.957 956.94 671.797 956.94H667.137C666.977 956.94 666.837 956.887 666.717 956.78C666.61 956.66 666.557 956.527 666.557 956.38C666.557 956.22 666.61 956.087 666.717 955.98C666.837 955.873 666.977 955.82 667.137 955.82ZM669.197 953C669.37 953 669.51 953.06 669.617 953.18C669.737 953.3 669.797 953.44 669.797 953.6V963.64C669.797 964.013 669.843 964.293 669.937 964.48C670.043 964.667 670.177 964.793 670.337 964.86C670.497 964.913 670.657 964.94 670.817 964.94C670.923 964.94 671.017 964.927 671.097 964.9C671.19 964.86 671.29 964.84 671.397 964.84C671.517 964.84 671.617 964.887 671.697 964.98C671.79 965.073 671.837 965.193 671.837 965.34C671.837 965.527 671.73 965.687 671.517 965.82C671.303 965.94 671.05 966 670.757 966C670.637 966 670.457 965.993 670.217 965.98C669.977 965.953 669.73 965.88 669.477 965.76C669.223 965.627 669.01 965.4 668.837 965.08C668.677 964.76 668.597 964.3 668.597 963.7V953.6C668.597 953.44 668.65 953.3 668.757 953.18C668.877 953.06 669.023 953 669.197 953ZM682.194 955.6C682.367 955.6 682.507 955.66 682.614 955.78C682.734 955.9 682.794 956.04 682.794 956.2V965.02C682.794 966.1 682.581 967.007 682.154 967.74C681.727 968.487 681.154 969.047 680.434 969.42C679.714 969.807 678.894 970 677.974 970C677.401 970 676.867 969.933 676.374 969.8C675.894 969.68 675.501 969.52 675.194 969.32C675.034 969.227 674.914 969.113 674.834 968.98C674.754 968.847 674.747 968.707 674.814 968.56C674.881 968.373 674.981 968.247 675.114 968.18C675.261 968.127 675.407 968.133 675.554 968.2C675.781 968.32 676.107 968.467 676.534 968.64C676.961 968.813 677.447 968.9 677.994 968.9C678.727 968.9 679.361 968.747 679.894 968.44C680.441 968.133 680.861 967.687 681.154 967.1C681.447 966.527 681.594 965.84 681.594 965.04V963.6L681.734 964.08C681.534 964.493 681.247 964.86 680.874 965.18C680.514 965.5 680.094 965.753 679.614 965.94C679.147 966.113 678.647 966.2 678.114 966.2C677.314 966.2 676.647 966.04 676.114 965.72C675.594 965.387 675.207 964.933 674.954 964.36C674.701 963.787 674.574 963.113 674.574 962.34V956.2C674.574 956.04 674.627 955.9 674.734 955.78C674.841 955.66 674.987 955.6 675.174 955.6C675.347 955.6 675.487 955.66 675.594 955.78C675.714 955.9 675.774 956.04 675.774 956.2V962.16C675.774 963.093 675.974 963.813 676.374 964.32C676.787 964.827 677.454 965.08 678.374 965.08C678.947 965.08 679.474 964.947 679.954 964.68C680.434 964.4 680.827 964.04 681.134 963.6C681.441 963.147 681.594 962.667 681.594 962.16V956.2C681.594 956.04 681.647 955.9 681.754 955.78C681.874 955.66 682.021 955.6 682.194 955.6ZM685.721 952.98C685.575 952.98 685.455 952.933 685.361 952.84C685.268 952.733 685.221 952.613 685.221 952.48C685.221 952.32 685.268 952.2 685.361 952.12C685.455 952.04 685.575 952 685.721 952H690.221C690.355 952 690.468 952.04 690.561 952.12C690.668 952.2 690.721 952.32 690.721 952.48C690.721 952.613 690.675 952.733 690.581 952.84C690.488 952.933 690.368 952.98 690.221 952.98H685.721ZM687.881 959C687.735 959 687.615 958.953 687.521 958.86C687.428 958.753 687.381 958.633 687.381 958.5V952.48H688.401V958.5C688.401 958.633 688.355 958.753 688.261 958.86C688.168 958.953 688.041 959 687.881 959ZM692.501 952C692.621 952 692.728 952.02 692.821 952.06C692.915 952.1 692.995 952.173 693.061 952.28L695.761 956.96H695.121L697.981 952.28C698.061 952.147 698.155 952.067 698.261 952.04C698.381 952 698.495 951.987 698.601 952C698.748 952.013 698.861 952.067 698.941 952.16C699.035 952.24 699.081 952.353 699.081 952.5V958.7C699.081 958.833 699.021 958.953 698.901 959.06C698.795 959.153 698.668 959.2 698.521 959.2C698.361 959.2 698.228 959.153 698.121 959.06C698.028 958.953 697.981 958.833 697.981 958.7V953.3H698.401L695.841 957.64C695.815 957.707 695.761 957.76 695.681 957.8C695.615 957.827 695.528 957.84 695.421 957.84C695.315 957.84 695.221 957.82 695.141 957.78C695.075 957.74 695.028 957.693 695.001 957.64L692.481 953.14H693.061V958.7C693.035 958.833 692.975 958.953 692.881 959.06C692.801 959.153 692.681 959.2 692.521 959.2C692.361 959.2 692.235 959.153 692.141 959.06C692.048 958.953 692.001 958.833 692.001 958.7V952.5C692.001 952.367 692.048 952.253 692.141 952.16C692.235 952.053 692.355 952 692.501 952ZM708.756 966C708.569 966 708.416 965.94 708.296 965.82C708.189 965.7 708.136 965.56 708.136 965.4V952.6C708.136 952.44 708.196 952.3 708.316 952.18C708.436 952.06 708.576 952 708.736 952H716.016C716.189 952 716.329 952.06 716.436 952.18C716.556 952.287 716.616 952.427 716.616 952.6C716.616 952.76 716.556 952.9 716.436 953.02C716.329 953.127 716.189 953.18 716.016 953.18H709.276L709.356 953.06V958.38L709.256 958.2H715.116C715.289 958.2 715.429 958.26 715.536 958.38C715.656 958.487 715.716 958.62 715.716 958.78C715.716 958.953 715.656 959.093 715.536 959.2C715.429 959.307 715.289 959.36 715.116 959.36H709.216L709.356 959.2V965.4C709.356 965.56 709.296 965.7 709.176 965.82C709.069 965.94 708.929 966 708.756 966ZM728.391 960.88C728.391 961.893 728.171 962.807 727.731 963.62C727.291 964.42 726.691 965.053 725.931 965.52C725.171 965.973 724.304 966.2 723.331 966.2C722.384 966.2 721.524 965.973 720.751 965.52C719.991 965.053 719.384 964.42 718.931 963.62C718.491 962.807 718.271 961.893 718.271 960.88C718.271 959.853 718.491 958.94 718.931 958.14C719.384 957.34 719.991 956.707 720.751 956.24C721.524 955.773 722.384 955.54 723.331 955.54C724.304 955.54 725.171 955.773 725.931 956.24C726.691 956.707 727.291 957.34 727.731 958.14C728.171 958.94 728.391 959.853 728.391 960.88ZM727.191 960.88C727.191 960.067 727.024 959.347 726.691 958.72C726.358 958.08 725.898 957.58 725.311 957.22C724.738 956.847 724.078 956.66 723.331 956.66C722.611 956.66 721.958 956.847 721.371 957.22C720.784 957.58 720.318 958.08 719.971 958.72C719.638 959.347 719.471 960.067 719.471 960.88C719.471 961.693 719.638 962.413 719.971 963.04C720.318 963.667 720.784 964.167 721.371 964.54C721.958 964.9 722.611 965.08 723.331 965.08C724.078 965.08 724.738 964.9 725.311 964.54C725.898 964.167 726.358 963.667 726.691 963.04C727.024 962.413 727.191 961.693 727.191 960.88ZM738.581 955.84C738.755 955.84 738.895 955.9 739.001 956.02C739.121 956.14 739.181 956.28 739.181 956.44V962.08C739.181 963.4 738.808 964.407 738.061 965.1C737.315 965.793 736.308 966.14 735.041 966.14C733.788 966.14 732.788 965.793 732.041 965.1C731.308 964.407 730.941 963.4 730.941 962.08V956.44C730.941 956.28 730.995 956.14 731.101 956.02C731.221 955.9 731.368 955.84 731.541 955.84C731.715 955.84 731.855 955.9 731.961 956.02C732.081 956.14 732.141 956.28 732.141 956.44V962.08C732.141 963.04 732.395 963.773 732.901 964.28C733.421 964.773 734.135 965.02 735.041 965.02C735.961 965.02 736.681 964.773 737.201 964.28C737.721 963.773 737.981 963.04 737.981 962.08V956.44C737.981 956.28 738.035 956.14 738.141 956.02C738.248 955.9 738.395 955.84 738.581 955.84ZM747.148 955.54C748.028 955.54 748.728 955.72 749.248 956.08C749.781 956.427 750.161 956.907 750.388 957.52C750.628 958.12 750.748 958.787 750.748 959.52V965.4C750.748 965.56 750.688 965.7 750.568 965.82C750.448 965.94 750.308 966 750.148 966C749.961 966 749.815 965.94 749.708 965.82C749.601 965.7 749.548 965.56 749.548 965.4V959.58C749.548 959.047 749.461 958.56 749.288 958.12C749.115 957.68 748.828 957.327 748.428 957.06C748.041 956.793 747.528 956.66 746.888 956.66C746.315 956.66 745.768 956.793 745.248 957.06C744.741 957.327 744.328 957.68 744.008 958.12C743.688 958.56 743.528 959.047 743.528 959.58V965.4C743.528 965.56 743.468 965.7 743.348 965.82C743.228 965.94 743.088 966 742.928 966C742.741 966 742.595 965.94 742.488 965.82C742.381 965.7 742.328 965.56 742.328 965.4V956.44C742.328 956.28 742.381 956.14 742.488 956.02C742.608 955.9 742.755 955.84 742.928 955.84C743.101 955.84 743.241 955.9 743.348 956.02C743.468 956.14 743.528 956.28 743.528 956.44V958.12L743.068 958.84C743.095 958.413 743.228 958.007 743.468 957.62C743.721 957.22 744.041 956.867 744.428 956.56C744.815 956.24 745.241 955.993 745.708 955.82C746.188 955.633 746.668 955.54 747.148 955.54ZM762.271 951.2C762.444 951.2 762.584 951.26 762.691 951.38C762.811 951.487 762.871 951.627 762.871 951.8V965.4C762.871 965.56 762.811 965.7 762.691 965.82C762.571 965.94 762.431 966 762.271 966C762.097 966 761.951 965.94 761.831 965.82C761.724 965.7 761.671 965.56 761.671 965.4V963.02L762.011 962.74C762.011 963.113 761.911 963.507 761.711 963.92C761.511 964.32 761.224 964.693 760.851 965.04C760.491 965.387 760.064 965.667 759.571 965.88C759.091 966.093 758.571 966.2 758.011 966.2C757.117 966.2 756.311 965.967 755.591 965.5C754.884 965.033 754.324 964.4 753.911 963.6C753.497 962.8 753.291 961.887 753.291 960.86C753.291 959.847 753.497 958.94 753.911 958.14C754.324 957.327 754.884 956.693 755.591 956.24C756.297 955.773 757.097 955.54 757.991 955.54C758.537 955.54 759.057 955.64 759.551 955.84C760.044 956.04 760.477 956.313 760.851 956.66C761.237 957.007 761.537 957.407 761.751 957.86C761.977 958.3 762.091 958.76 762.091 959.24L761.671 958.94V951.8C761.671 951.64 761.724 951.5 761.831 951.38C761.951 951.26 762.097 951.2 762.271 951.2ZM758.111 965.08C758.831 965.08 759.457 964.9 759.991 964.54C760.537 964.167 760.964 963.667 761.271 963.04C761.591 962.4 761.751 961.673 761.751 960.86C761.751 960.06 761.591 959.347 761.271 958.72C760.964 958.08 760.537 957.58 759.991 957.22C759.444 956.847 758.817 956.66 758.111 956.66C757.417 956.66 756.791 956.847 756.231 957.22C755.684 957.58 755.251 958.08 754.931 958.72C754.624 959.347 754.471 960.06 754.471 960.86C754.471 961.66 754.624 962.38 754.931 963.02C755.251 963.66 755.684 964.167 756.231 964.54C756.791 964.9 757.417 965.08 758.111 965.08ZM774.399 955.78C774.573 955.78 774.713 955.84 774.819 955.96C774.939 956.08 774.999 956.227 774.999 956.4V965.4C774.999 965.56 774.939 965.7 774.819 965.82C774.699 965.94 774.559 966 774.399 966C774.226 966 774.079 965.94 773.959 965.82C773.853 965.7 773.799 965.56 773.799 965.4V963.02L774.139 962.86C774.139 963.233 774.033 963.613 773.819 964C773.619 964.387 773.339 964.747 772.979 965.08C772.619 965.413 772.193 965.687 771.699 965.9C771.219 966.1 770.699 966.2 770.139 966.2C769.233 966.2 768.419 965.967 767.699 965.5C766.993 965.033 766.433 964.393 766.019 963.58C765.619 962.767 765.419 961.853 765.419 960.84C765.419 959.8 765.626 958.887 766.039 958.1C766.453 957.3 767.013 956.673 767.719 956.22C768.426 955.767 769.226 955.54 770.119 955.54C770.693 955.54 771.226 955.64 771.719 955.84C772.226 956.04 772.666 956.313 773.039 956.66C773.413 957.007 773.699 957.407 773.899 957.86C774.113 958.3 774.219 958.76 774.219 959.24L773.799 958.94V956.4C773.799 956.227 773.853 956.08 773.959 955.96C774.079 955.84 774.226 955.78 774.399 955.78ZM770.239 965.08C770.946 965.08 771.573 964.9 772.119 964.54C772.666 964.167 773.093 963.66 773.399 963.02C773.719 962.367 773.879 961.64 773.879 960.84C773.879 960.053 773.719 959.347 773.399 958.72C773.093 958.093 772.666 957.593 772.119 957.22C771.573 956.847 770.946 956.66 770.239 956.66C769.546 956.66 768.919 956.84 768.359 957.2C767.813 957.56 767.379 958.053 767.059 958.68C766.753 959.307 766.599 960.027 766.599 960.84C766.599 961.64 766.753 962.367 767.059 963.02C767.379 963.66 767.813 964.167 768.359 964.54C768.906 964.9 769.533 965.08 770.239 965.08ZM777.488 955.82H782.148C782.308 955.82 782.442 955.88 782.548 956C782.655 956.107 782.708 956.24 782.708 956.4C782.708 956.547 782.655 956.673 782.548 956.78C782.442 956.887 782.308 956.94 782.148 956.94H777.488C777.328 956.94 777.188 956.887 777.068 956.78C776.962 956.66 776.908 956.527 776.908 956.38C776.908 956.22 776.962 956.087 777.068 955.98C777.188 955.873 777.328 955.82 777.488 955.82ZM779.548 953C779.722 953 779.862 953.06 779.968 953.18C780.088 953.3 780.148 953.44 780.148 953.6V963.64C780.148 964.013 780.195 964.293 780.288 964.48C780.395 964.667 780.528 964.793 780.688 964.86C780.848 964.913 781.008 964.94 781.168 964.94C781.275 964.94 781.368 964.927 781.448 964.9C781.542 964.86 781.642 964.84 781.748 964.84C781.868 964.84 781.968 964.887 782.048 964.98C782.142 965.073 782.188 965.193 782.188 965.34C782.188 965.527 782.082 965.687 781.868 965.82C781.655 965.94 781.402 966 781.108 966C780.988 966 780.808 965.993 780.568 965.98C780.328 965.953 780.082 965.88 779.828 965.76C779.575 965.627 779.362 965.4 779.188 965.08C779.028 964.76 778.948 964.3 778.948 963.7V953.6C778.948 953.44 779.002 953.3 779.108 953.18C779.228 953.06 779.375 953 779.548 953ZM786.086 965.4C786.086 965.56 786.026 965.7 785.906 965.82C785.786 965.94 785.646 966 785.486 966C785.312 966 785.166 965.94 785.046 965.82C784.939 965.7 784.886 965.56 784.886 965.4V956.2C784.886 956.04 784.939 955.9 785.046 955.78C785.166 955.66 785.312 955.6 785.486 955.6C785.659 955.6 785.799 955.66 785.906 955.78C786.026 955.9 786.086 956.04 786.086 956.2V965.4ZM785.486 954.26C785.206 954.26 784.992 954.2 784.846 954.08C784.712 953.947 784.646 953.76 784.646 953.52V953.32C784.646 953.08 784.719 952.9 784.866 952.78C785.026 952.647 785.239 952.58 785.506 952.58C785.759 952.58 785.952 952.647 786.086 952.78C786.232 952.9 786.306 953.08 786.306 953.32V953.52C786.306 953.76 786.232 953.947 786.086 954.08C785.952 954.2 785.752 954.26 785.486 954.26ZM798.723 960.88C798.723 961.893 798.503 962.807 798.063 963.62C797.623 964.42 797.023 965.053 796.263 965.52C795.503 965.973 794.636 966.2 793.663 966.2C792.716 966.2 791.856 965.973 791.083 965.52C790.323 965.053 789.716 964.42 789.263 963.62C788.823 962.807 788.603 961.893 788.603 960.88C788.603 959.853 788.823 958.94 789.263 958.14C789.716 957.34 790.323 956.707 791.083 956.24C791.856 955.773 792.716 955.54 793.663 955.54C794.636 955.54 795.503 955.773 796.263 956.24C797.023 956.707 797.623 957.34 798.063 958.14C798.503 958.94 798.723 959.853 798.723 960.88ZM797.523 960.88C797.523 960.067 797.356 959.347 797.023 958.72C796.69 958.08 796.23 957.58 795.643 957.22C795.07 956.847 794.41 956.66 793.663 956.66C792.943 956.66 792.29 956.847 791.703 957.22C791.116 957.58 790.65 958.08 790.303 958.72C789.97 959.347 789.803 960.067 789.803 960.88C789.803 961.693 789.97 962.413 790.303 963.04C790.65 963.667 791.116 964.167 791.703 964.54C792.29 964.9 792.943 965.08 793.663 965.08C794.41 965.08 795.07 964.9 795.643 964.54C796.23 964.167 796.69 963.667 797.023 963.04C797.356 962.413 797.523 961.693 797.523 960.88ZM806.093 955.54C806.973 955.54 807.673 955.72 808.193 956.08C808.727 956.427 809.107 956.907 809.333 957.52C809.573 958.12 809.693 958.787 809.693 959.52V965.4C809.693 965.56 809.633 965.7 809.513 965.82C809.393 965.94 809.253 966 809.093 966C808.907 966 808.76 965.94 808.653 965.82C808.547 965.7 808.493 965.56 808.493 965.4V959.58C808.493 959.047 808.407 958.56 808.233 958.12C808.06 957.68 807.773 957.327 807.373 957.06C806.987 956.793 806.473 956.66 805.833 956.66C805.26 956.66 804.713 956.793 804.193 957.06C803.687 957.327 803.273 957.68 802.953 958.12C802.633 958.56 802.473 959.047 802.473 959.58V965.4C802.473 965.56 802.413 965.7 802.293 965.82C802.173 965.94 802.033 966 801.873 966C801.687 966 801.54 965.94 801.433 965.82C801.327 965.7 801.273 965.56 801.273 965.4V956.44C801.273 956.28 801.327 956.14 801.433 956.02C801.553 955.9 801.7 955.84 801.873 955.84C802.047 955.84 802.187 955.9 802.293 956.02C802.413 956.14 802.473 956.28 802.473 956.44V958.12L802.013 958.84C802.04 958.413 802.173 958.007 802.413 957.62C802.667 957.22 802.987 956.867 803.373 956.56C803.76 956.24 804.187 955.993 804.653 955.82C805.133 955.633 805.613 955.54 806.093 955.54ZM812.996 966C812.769 966 812.596 965.927 812.476 965.78C812.356 965.633 812.296 965.447 812.296 965.22V964.8C812.296 964.56 812.356 964.373 812.476 964.24C812.596 964.107 812.769 964.04 812.996 964.04H813.136C813.363 964.04 813.536 964.107 813.656 964.24C813.776 964.373 813.836 964.56 813.836 964.8V965.22C813.836 965.447 813.776 965.633 813.656 965.78C813.536 965.927 813.363 966 813.136 966H812.996ZM826.898 953.54L822.038 965.62C821.985 965.753 821.911 965.853 821.818 965.92C821.725 965.987 821.618 966.02 821.498 966.02C821.311 966.02 821.171 965.973 821.078 965.88C820.985 965.773 820.931 965.647 820.918 965.5C820.905 965.433 820.911 965.353 820.938 965.26L826.218 952.34C826.285 952.193 826.365 952.093 826.458 952.04C826.565 951.973 826.685 951.94 826.818 951.94C826.951 951.94 827.065 951.98 827.158 952.06C827.265 952.127 827.345 952.22 827.398 952.34L832.658 965.2C832.685 965.28 832.698 965.36 832.698 965.44C832.698 965.627 832.638 965.773 832.518 965.88C832.398 965.973 832.258 966.02 832.098 966.02C831.965 966.02 831.845 965.987 831.738 965.92C831.645 965.84 831.571 965.74 831.518 965.62L826.538 953.46L826.898 953.54ZM823.198 961.96L823.698 960.78H829.898L830.138 961.96H823.198ZM836.187 965.4C836.187 965.56 836.127 965.7 836.007 965.82C835.887 965.94 835.747 966 835.587 966C835.414 966 835.267 965.94 835.147 965.82C835.04 965.7 834.987 965.56 834.987 965.4V951.8C834.987 951.64 835.047 951.5 835.167 951.38C835.287 951.26 835.427 951.2 835.587 951.2C835.76 951.2 835.9 951.26 836.007 951.38C836.127 951.5 836.187 951.64 836.187 951.8V965.4ZM840.796 965.4C840.796 965.56 840.736 965.7 840.616 965.82C840.496 965.94 840.356 966 840.196 966C840.023 966 839.876 965.94 839.756 965.82C839.65 965.7 839.596 965.56 839.596 965.4V951.8C839.596 951.64 839.656 951.5 839.776 951.38C839.896 951.26 840.036 951.2 840.196 951.2C840.37 951.2 840.51 951.26 840.616 951.38C840.736 951.5 840.796 951.64 840.796 951.8V965.4ZM850.155 966C849.968 966 849.821 965.94 849.715 965.82C849.608 965.7 849.555 965.56 849.555 965.4V956.44C849.555 956.28 849.608 956.14 849.715 956.02C849.835 955.9 849.981 955.84 850.155 955.84C850.328 955.84 850.468 955.9 850.575 956.02C850.695 956.14 850.755 956.28 850.755 956.44V959.44L850.455 959.5C850.495 959.033 850.608 958.573 850.795 958.12C850.995 957.653 851.261 957.227 851.595 956.84C851.928 956.453 852.321 956.14 852.775 955.9C853.241 955.66 853.761 955.54 854.335 955.54C854.575 955.54 854.808 955.593 855.035 955.7C855.261 955.793 855.375 955.953 855.375 956.18C855.375 956.38 855.321 956.533 855.215 956.64C855.108 956.747 854.981 956.8 854.835 956.8C854.715 956.8 854.581 956.767 854.435 956.7C854.301 956.633 854.121 956.6 853.895 956.6C853.521 956.6 853.148 956.713 852.775 956.94C852.401 957.153 852.061 957.447 851.755 957.82C851.448 958.193 851.201 958.613 851.015 959.08C850.841 959.533 850.755 959.993 850.755 960.46V965.4C850.755 965.56 850.695 965.7 850.575 965.82C850.455 965.94 850.315 966 850.155 966ZM858.41 965.4C858.41 965.56 858.35 965.7 858.23 965.82C858.11 965.94 857.97 966 857.81 966C857.637 966 857.49 965.94 857.37 965.82C857.263 965.7 857.21 965.56 857.21 965.4V956.2C857.21 956.04 857.263 955.9 857.37 955.78C857.49 955.66 857.637 955.6 857.81 955.6C857.983 955.6 858.123 955.66 858.23 955.78C858.35 955.9 858.41 956.04 858.41 956.2V965.4ZM857.81 954.26C857.53 954.26 857.317 954.2 857.17 954.08C857.037 953.947 856.97 953.76 856.97 953.52V953.32C856.97 953.08 857.043 952.9 857.19 952.78C857.35 952.647 857.563 952.58 857.83 952.58C858.083 952.58 858.277 952.647 858.41 952.78C858.557 952.9 858.63 953.08 858.63 953.32V953.52C858.63 953.76 858.557 953.947 858.41 954.08C858.277 954.2 858.077 954.26 857.81 954.26ZM865.787 955.54C866.387 955.54 866.941 955.647 867.447 955.86C867.954 956.06 868.394 956.327 868.767 956.66C869.154 956.98 869.454 957.327 869.667 957.7C869.881 958.06 869.987 958.407 869.987 958.74L869.647 958.26V956.4C869.647 956.227 869.701 956.08 869.807 955.96C869.927 955.84 870.074 955.78 870.247 955.78C870.434 955.78 870.581 955.84 870.687 955.96C870.794 956.08 870.847 956.227 870.847 956.4V965.06C870.847 966.127 870.627 967.027 870.187 967.76C869.747 968.493 869.147 969.047 868.387 969.42C867.641 969.807 866.787 970 865.827 970C865.361 970 864.867 969.94 864.347 969.82C863.841 969.7 863.401 969.547 863.027 969.36C862.667 969.173 862.467 968.98 862.427 968.78C862.321 968.66 862.267 968.54 862.267 968.42C862.281 968.313 862.341 968.22 862.447 968.14C862.581 968.047 862.721 968.033 862.867 968.1C863.014 968.18 863.234 968.28 863.527 968.4C863.661 968.44 863.841 968.5 864.067 968.58C864.294 968.66 864.561 968.727 864.867 968.78C865.187 968.847 865.521 968.88 865.867 968.88C867.067 968.88 867.994 968.533 868.647 967.84C869.314 967.16 869.647 966.26 869.647 965.14V963.22L869.867 963.28C869.747 963.76 869.547 964.18 869.267 964.54C869.001 964.9 868.681 965.207 868.307 965.46C867.934 965.7 867.527 965.88 867.087 966C866.661 966.133 866.234 966.2 865.807 966.2C864.887 966.2 864.061 965.967 863.327 965.5C862.594 965.033 862.007 964.4 861.567 963.6C861.141 962.8 860.927 961.887 860.927 960.86C860.927 959.847 861.141 958.94 861.567 958.14C862.007 957.327 862.587 956.693 863.307 956.24C864.041 955.773 864.867 955.54 865.787 955.54ZM865.927 956.66C865.194 956.66 864.534 956.847 863.947 957.22C863.374 957.58 862.921 958.08 862.587 958.72C862.267 959.347 862.107 960.06 862.107 960.86C862.107 961.66 862.267 962.38 862.587 963.02C862.921 963.66 863.374 964.167 863.947 964.54C864.534 964.9 865.194 965.08 865.927 965.08C866.661 965.08 867.314 964.9 867.887 964.54C868.461 964.18 868.914 963.687 869.247 963.06C869.581 962.42 869.747 961.687 869.747 960.86C869.747 960.033 869.581 959.307 869.247 958.68C868.914 958.04 868.461 957.547 867.887 957.2C867.314 956.84 866.661 956.66 865.927 956.66ZM878.668 955.7C879.508 955.7 880.188 955.88 880.708 956.24C881.228 956.6 881.608 957.087 881.848 957.7C882.101 958.313 882.228 958.993 882.228 959.74V965.4C882.228 965.56 882.168 965.7 882.048 965.82C881.928 965.94 881.788 966 881.628 966C881.441 966 881.294 965.94 881.188 965.82C881.081 965.7 881.028 965.56 881.028 965.4V959.74C881.028 959.193 880.941 958.7 880.768 958.26C880.608 957.82 880.341 957.473 879.968 957.22C879.594 956.953 879.094 956.82 878.468 956.82C877.908 956.82 877.374 956.953 876.868 957.22C876.374 957.473 875.974 957.82 875.668 958.26C875.361 958.7 875.208 959.193 875.208 959.74V965.4C875.208 965.56 875.148 965.7 875.028 965.82C874.908 965.94 874.768 966 874.608 966C874.421 966 874.274 965.94 874.168 965.82C874.061 965.7 874.008 965.56 874.008 965.4V951.8C874.008 951.64 874.061 951.5 874.168 951.38C874.288 951.26 874.434 951.2 874.608 951.2C874.781 951.2 874.921 951.26 875.028 951.38C875.148 951.5 875.208 951.64 875.208 951.8V958.28L874.748 958.98C874.774 958.567 874.901 958.167 875.128 957.78C875.368 957.38 875.674 957.027 876.048 956.72C876.421 956.4 876.834 956.153 877.288 955.98C877.741 955.793 878.201 955.7 878.668 955.7ZM884.715 955.82H889.375C889.535 955.82 889.668 955.88 889.775 956C889.882 956.107 889.935 956.24 889.935 956.4C889.935 956.547 889.882 956.673 889.775 956.78C889.668 956.887 889.535 956.94 889.375 956.94H884.715C884.555 956.94 884.415 956.887 884.295 956.78C884.188 956.66 884.135 956.527 884.135 956.38C884.135 956.22 884.188 956.087 884.295 955.98C884.415 955.873 884.555 955.82 884.715 955.82ZM886.775 953C886.948 953 887.088 953.06 887.195 953.18C887.315 953.3 887.375 953.44 887.375 953.6V963.64C887.375 964.013 887.422 964.293 887.515 964.48C887.622 964.667 887.755 964.793 887.915 964.86C888.075 964.913 888.235 964.94 888.395 964.94C888.502 964.94 888.595 964.927 888.675 964.9C888.768 964.86 888.868 964.84 888.975 964.84C889.095 964.84 889.195 964.887 889.275 964.98C889.368 965.073 889.415 965.193 889.415 965.34C889.415 965.527 889.308 965.687 889.095 965.82C888.882 965.94 888.628 966 888.335 966C888.215 966 888.035 965.993 887.795 965.98C887.555 965.953 887.308 965.88 887.055 965.76C886.802 965.627 886.588 965.4 886.415 965.08C886.255 964.76 886.175 964.3 886.175 963.7V953.6C886.175 953.44 886.228 953.3 886.335 953.18C886.455 953.06 886.602 953 886.775 953ZM891.963 964.38C891.856 964.22 891.803 964.067 891.803 963.92C891.816 963.76 891.903 963.633 892.063 963.54C892.17 963.447 892.29 963.407 892.423 963.42C892.57 963.433 892.703 963.5 892.823 963.62C893.183 964.087 893.616 964.467 894.123 964.76C894.643 965.04 895.256 965.18 895.963 965.18C896.336 965.18 896.703 965.12 897.063 965C897.436 964.867 897.743 964.673 897.983 964.42C898.223 964.153 898.343 963.82 898.343 963.42C898.343 963.007 898.223 962.673 897.983 962.42C897.743 962.167 897.43 961.967 897.043 961.82C896.67 961.673 896.27 961.547 895.843 961.44C895.39 961.32 894.95 961.187 894.523 961.04C894.096 960.88 893.716 960.687 893.383 960.46C893.063 960.22 892.803 959.933 892.603 959.6C892.403 959.267 892.303 958.86 892.303 958.38C892.303 957.82 892.456 957.327 892.763 956.9C893.07 956.473 893.483 956.14 894.003 955.9C894.536 955.66 895.136 955.54 895.803 955.54C896.136 955.54 896.496 955.587 896.883 955.68C897.27 955.76 897.65 955.9 898.023 956.1C898.396 956.3 898.73 956.573 899.023 956.92C899.143 957.04 899.203 957.18 899.203 957.34C899.203 957.487 899.136 957.62 899.003 957.74C898.896 957.82 898.77 957.86 898.623 957.86C898.49 957.86 898.376 957.807 898.283 957.7C897.963 957.34 897.583 957.067 897.143 956.88C896.703 956.693 896.23 956.6 895.723 956.6C895.336 956.6 894.97 956.667 894.623 956.8C894.29 956.92 894.01 957.107 893.783 957.36C893.556 957.613 893.443 957.947 893.443 958.36C893.47 958.747 893.603 959.06 893.843 959.3C894.096 959.54 894.423 959.74 894.823 959.9C895.236 960.06 895.696 960.207 896.203 960.34C896.63 960.447 897.036 960.573 897.423 960.72C897.823 960.867 898.17 961.053 898.463 961.28C898.77 961.493 899.01 961.767 899.183 962.1C899.37 962.433 899.463 962.853 899.463 963.36C899.463 963.947 899.296 964.453 898.963 964.88C898.643 965.307 898.21 965.633 897.663 965.86C897.116 966.087 896.51 966.2 895.843 966.2C895.123 966.2 894.423 966.06 893.743 965.78C893.076 965.5 892.483 965.033 891.963 964.38ZM907.987 966C907.8 966 907.653 965.94 907.547 965.82C907.44 965.7 907.387 965.56 907.387 965.4V956.44C907.387 956.28 907.44 956.14 907.547 956.02C907.667 955.9 907.813 955.84 907.987 955.84C908.16 955.84 908.3 955.9 908.407 956.02C908.527 956.14 908.587 956.28 908.587 956.44V959.44L908.287 959.5C908.327 959.033 908.44 958.573 908.627 958.12C908.827 957.653 909.093 957.227 909.427 956.84C909.76 956.453 910.153 956.14 910.607 955.9C911.073 955.66 911.593 955.54 912.167 955.54C912.407 955.54 912.64 955.593 912.867 955.7C913.093 955.793 913.207 955.953 913.207 956.18C913.207 956.38 913.153 956.533 913.047 956.64C912.94 956.747 912.813 956.8 912.667 956.8C912.547 956.8 912.413 956.767 912.267 956.7C912.133 956.633 911.953 956.6 911.727 956.6C911.353 956.6 910.98 956.713 910.607 956.94C910.233 957.153 909.893 957.447 909.587 957.82C909.28 958.193 909.033 958.613 908.847 959.08C908.673 959.533 908.587 959.993 908.587 960.46V965.4C908.587 965.56 908.527 965.7 908.407 965.82C908.287 965.94 908.147 966 907.987 966ZM919.253 966.2C918.226 966.2 917.319 965.98 916.533 965.54C915.746 965.1 915.133 964.487 914.693 963.7C914.253 962.913 914.033 961.993 914.033 960.94C914.033 959.807 914.253 958.84 914.693 958.04C915.146 957.24 915.726 956.627 916.433 956.2C917.153 955.76 917.913 955.54 918.713 955.54C919.299 955.54 919.866 955.647 920.413 955.86C920.973 956.06 921.466 956.367 921.893 956.78C922.333 957.18 922.679 957.673 922.933 958.26C923.199 958.847 923.346 959.527 923.373 960.3C923.359 960.46 923.293 960.6 923.173 960.72C923.053 960.827 922.913 960.88 922.753 960.88H914.733L914.493 959.8H922.373L922.113 960.04V959.64C922.059 959.013 921.859 958.48 921.513 958.04C921.166 957.6 920.746 957.267 920.253 957.04C919.759 956.813 919.246 956.7 918.713 956.7C918.313 956.7 917.899 956.78 917.473 956.94C917.059 957.1 916.679 957.353 916.333 957.7C915.999 958.033 915.726 958.467 915.513 959C915.299 959.52 915.193 960.14 915.193 960.86C915.193 961.647 915.353 962.36 915.673 963C915.993 963.64 916.453 964.147 917.053 964.52C917.666 964.893 918.393 965.08 919.233 965.08C919.699 965.08 920.119 965.013 920.493 964.88C920.866 964.747 921.193 964.573 921.473 964.36C921.753 964.133 921.986 963.9 922.173 963.66C922.319 963.54 922.466 963.48 922.613 963.48C922.746 963.48 922.859 963.533 922.953 963.64C923.059 963.747 923.113 963.867 923.113 964C923.113 964.16 923.046 964.3 922.913 964.42C922.513 964.9 921.993 965.32 921.353 965.68C920.713 966.027 920.013 966.2 919.253 966.2ZM925.361 964.38C925.255 964.22 925.201 964.067 925.201 963.92C925.215 963.76 925.301 963.633 925.461 963.54C925.568 963.447 925.688 963.407 925.821 963.42C925.968 963.433 926.101 963.5 926.221 963.62C926.581 964.087 927.015 964.467 927.521 964.76C928.041 965.04 928.655 965.18 929.361 965.18C929.735 965.18 930.101 965.12 930.461 965C930.835 964.867 931.141 964.673 931.381 964.42C931.621 964.153 931.741 963.82 931.741 963.42C931.741 963.007 931.621 962.673 931.381 962.42C931.141 962.167 930.828 961.967 930.441 961.82C930.068 961.673 929.668 961.547 929.241 961.44C928.788 961.32 928.348 961.187 927.921 961.04C927.495 960.88 927.115 960.687 926.781 960.46C926.461 960.22 926.201 959.933 926.001 959.6C925.801 959.267 925.701 958.86 925.701 958.38C925.701 957.82 925.855 957.327 926.161 956.9C926.468 956.473 926.881 956.14 927.401 955.9C927.935 955.66 928.535 955.54 929.201 955.54C929.535 955.54 929.895 955.587 930.281 955.68C930.668 955.76 931.048 955.9 931.421 956.1C931.795 956.3 932.128 956.573 932.421 956.92C932.541 957.04 932.601 957.18 932.601 957.34C932.601 957.487 932.535 957.62 932.401 957.74C932.295 957.82 932.168 957.86 932.021 957.86C931.888 957.86 931.775 957.807 931.681 957.7C931.361 957.34 930.981 957.067 930.541 956.88C930.101 956.693 929.628 956.6 929.121 956.6C928.735 956.6 928.368 956.667 928.021 956.8C927.688 956.92 927.408 957.107 927.181 957.36C926.955 957.613 926.841 957.947 926.841 958.36C926.868 958.747 927.001 959.06 927.241 959.3C927.495 959.54 927.821 959.74 928.221 959.9C928.635 960.06 929.095 960.207 929.601 960.34C930.028 960.447 930.435 960.573 930.821 960.72C931.221 960.867 931.568 961.053 931.861 961.28C932.168 961.493 932.408 961.767 932.581 962.1C932.768 962.433 932.861 962.853 932.861 963.36C932.861 963.947 932.695 964.453 932.361 964.88C932.041 965.307 931.608 965.633 931.061 965.86C930.515 966.087 929.908 966.2 929.241 966.2C928.521 966.2 927.821 966.06 927.141 965.78C926.475 965.5 925.881 965.033 925.361 964.38ZM939.936 966.2C938.91 966.2 938.003 965.98 937.216 965.54C936.43 965.1 935.816 964.487 935.376 963.7C934.936 962.913 934.716 961.993 934.716 960.94C934.716 959.807 934.936 958.84 935.376 958.04C935.83 957.24 936.41 956.627 937.116 956.2C937.836 955.76 938.596 955.54 939.396 955.54C939.983 955.54 940.55 955.647 941.096 955.86C941.656 956.06 942.15 956.367 942.576 956.78C943.016 957.18 943.363 957.673 943.616 958.26C943.883 958.847 944.03 959.527 944.056 960.3C944.043 960.46 943.976 960.6 943.856 960.72C943.736 960.827 943.596 960.88 943.436 960.88H935.416L935.176 959.8H943.056L942.796 960.04V959.64C942.743 959.013 942.543 958.48 942.196 958.04C941.85 957.6 941.43 957.267 940.936 957.04C940.443 956.813 939.93 956.7 939.396 956.7C938.996 956.7 938.583 956.78 938.156 956.94C937.743 957.1 937.363 957.353 937.016 957.7C936.683 958.033 936.41 958.467 936.196 959C935.983 959.52 935.876 960.14 935.876 960.86C935.876 961.647 936.036 962.36 936.356 963C936.676 963.64 937.136 964.147 937.736 964.52C938.35 964.893 939.076 965.08 939.916 965.08C940.383 965.08 940.803 965.013 941.176 964.88C941.55 964.747 941.876 964.573 942.156 964.36C942.436 964.133 942.67 963.9 942.856 963.66C943.003 963.54 943.15 963.48 943.296 963.48C943.43 963.48 943.543 963.533 943.636 963.64C943.743 963.747 943.796 963.867 943.796 964C943.796 964.16 943.73 964.3 943.596 964.42C943.196 964.9 942.676 965.32 942.036 965.68C941.396 966.027 940.696 966.2 939.936 966.2ZM947.225 966C947.038 966 946.892 965.94 946.785 965.82C946.678 965.7 946.625 965.56 946.625 965.4V956.44C946.625 956.28 946.678 956.14 946.785 956.02C946.905 955.9 947.052 955.84 947.225 955.84C947.398 955.84 947.538 955.9 947.645 956.02C947.765 956.14 947.825 956.28 947.825 956.44V959.44L947.525 959.5C947.565 959.033 947.678 958.573 947.865 958.12C948.065 957.653 948.332 957.227 948.665 956.84C948.998 956.453 949.392 956.14 949.845 955.9C950.312 955.66 950.832 955.54 951.405 955.54C951.645 955.54 951.878 955.593 952.105 955.7C952.332 955.793 952.445 955.953 952.445 956.18C952.445 956.38 952.392 956.533 952.285 956.64C952.178 956.747 952.052 956.8 951.905 956.8C951.785 956.8 951.652 956.767 951.505 956.7C951.372 956.633 951.192 956.6 950.965 956.6C950.592 956.6 950.218 956.713 949.845 956.94C949.472 957.153 949.132 957.447 948.825 957.82C948.518 958.193 948.272 958.613 948.085 959.08C947.912 959.533 947.825 959.993 947.825 960.46V965.4C947.825 965.56 947.765 965.7 947.645 965.82C947.525 965.94 947.385 966 947.225 966ZM955.076 955.56C955.183 955.56 955.29 955.593 955.396 955.66C955.503 955.727 955.583 955.827 955.636 955.96L959.136 964.28L958.876 964.44L962.456 955.96C962.563 955.693 962.756 955.567 963.036 955.58C963.17 955.58 963.296 955.627 963.416 955.72C963.536 955.8 963.596 955.92 963.596 956.08C963.596 956.16 963.583 956.227 963.556 956.28C963.543 956.32 963.53 956.367 963.516 956.42L959.596 965.62C959.49 965.86 959.31 965.987 959.056 966C958.936 966.013 958.816 965.987 958.696 965.92C958.59 965.84 958.51 965.74 958.456 965.62L954.516 956.42C954.503 956.393 954.49 956.353 954.476 956.3C954.463 956.247 954.456 956.193 954.456 956.14C954.456 955.993 954.51 955.86 954.616 955.74C954.723 955.62 954.876 955.56 955.076 955.56ZM970.425 966.2C969.398 966.2 968.491 965.98 967.705 965.54C966.918 965.1 966.305 964.487 965.865 963.7C965.425 962.913 965.205 961.993 965.205 960.94C965.205 959.807 965.425 958.84 965.865 958.04C966.318 957.24 966.898 956.627 967.605 956.2C968.325 955.76 969.085 955.54 969.885 955.54C970.471 955.54 971.038 955.647 971.585 955.86C972.145 956.06 972.638 956.367 973.065 956.78C973.505 957.18 973.851 957.673 974.105 958.26C974.371 958.847 974.518 959.527 974.545 960.3C974.531 960.46 974.465 960.6 974.345 960.72C974.225 960.827 974.085 960.88 973.925 960.88H965.905L965.665 959.8H973.545L973.285 960.04V959.64C973.231 959.013 973.031 958.48 972.685 958.04C972.338 957.6 971.918 957.267 971.425 957.04C970.931 956.813 970.418 956.7 969.885 956.7C969.485 956.7 969.071 956.78 968.645 956.94C968.231 957.1 967.851 957.353 967.505 957.7C967.171 958.033 966.898 958.467 966.685 959C966.471 959.52 966.365 960.14 966.365 960.86C966.365 961.647 966.525 962.36 966.845 963C967.165 963.64 967.625 964.147 968.225 964.52C968.838 964.893 969.565 965.08 970.405 965.08C970.871 965.08 971.291 965.013 971.665 964.88C972.038 964.747 972.365 964.573 972.645 964.36C972.925 964.133 973.158 963.9 973.345 963.66C973.491 963.54 973.638 963.48 973.785 963.48C973.918 963.48 974.031 963.533 974.125 963.64C974.231 963.747 974.285 963.867 974.285 964C974.285 964.16 974.218 964.3 974.085 964.42C973.685 964.9 973.165 965.32 972.525 965.68C971.885 966.027 971.185 966.2 970.425 966.2ZM985.493 951.2C985.667 951.2 985.807 951.26 985.913 951.38C986.033 951.487 986.093 951.627 986.093 951.8V965.4C986.093 965.56 986.033 965.7 985.913 965.82C985.793 965.94 985.653 966 985.493 966C985.32 966 985.173 965.94 985.053 965.82C984.947 965.7 984.893 965.56 984.893 965.4V963.02L985.233 962.74C985.233 963.113 985.133 963.507 984.933 963.92C984.733 964.32 984.447 964.693 984.073 965.04C983.713 965.387 983.287 965.667 982.793 965.88C982.313 966.093 981.793 966.2 981.233 966.2C980.34 966.2 979.533 965.967 978.813 965.5C978.107 965.033 977.547 964.4 977.133 963.6C976.72 962.8 976.513 961.887 976.513 960.86C976.513 959.847 976.72 958.94 977.133 958.14C977.547 957.327 978.107 956.693 978.813 956.24C979.52 955.773 980.32 955.54 981.213 955.54C981.76 955.54 982.28 955.64 982.773 955.84C983.267 956.04 983.7 956.313 984.073 956.66C984.46 957.007 984.76 957.407 984.973 957.86C985.2 958.3 985.313 958.76 985.313 959.24L984.893 958.94V951.8C984.893 951.64 984.947 951.5 985.053 951.38C985.173 951.26 985.32 951.2 985.493 951.2ZM981.333 965.08C982.053 965.08 982.68 964.9 983.213 964.54C983.76 964.167 984.187 963.667 984.493 963.04C984.813 962.4 984.973 961.673 984.973 960.86C984.973 960.06 984.813 959.347 984.493 958.72C984.187 958.08 983.76 957.58 983.213 957.22C982.667 956.847 982.04 956.66 981.333 956.66C980.64 956.66 980.013 956.847 979.453 957.22C978.907 957.58 978.473 958.08 978.153 958.72C977.847 959.347 977.693 960.06 977.693 960.86C977.693 961.66 977.847 962.38 978.153 963.02C978.473 963.66 978.907 964.167 979.453 964.54C980.013 964.9 980.64 965.08 981.333 965.08ZM989.402 966C989.175 966 989.002 965.927 988.882 965.78C988.762 965.633 988.702 965.447 988.702 965.22V964.8C988.702 964.56 988.762 964.373 988.882 964.24C989.002 964.107 989.175 964.04 989.402 964.04H989.542C989.769 964.04 989.942 964.107 990.062 964.24C990.182 964.373 990.242 964.56 990.242 964.8V965.22C990.242 965.447 990.182 965.633 990.062 965.78C989.942 965.927 989.769 966 989.542 966H989.402ZM1008.86 952C1009.04 952 1009.17 952.053 1009.26 952.16C1009.37 952.267 1009.42 952.4 1009.42 952.56V965.36C1009.42 965.56 1009.36 965.72 1009.22 965.84C1009.1 965.947 1008.96 966 1008.8 966C1008.72 966 1008.64 965.987 1008.54 965.96C1008.45 965.92 1008.38 965.867 1008.32 965.8L999.404 953.78L999.744 953.6V965.46C999.744 965.607 999.691 965.733 999.584 965.84C999.477 965.947 999.344 966 999.184 966C999.011 966 998.871 965.947 998.764 965.84C998.671 965.733 998.624 965.607 998.624 965.46V952.6C998.624 952.4 998.684 952.253 998.804 952.16C998.924 952.053 999.057 952 999.204 952C999.284 952 999.371 952.02 999.464 952.06C999.557 952.087 999.631 952.14 999.684 952.22L1008.5 964.1L1008.3 964.46V952.56C1008.3 952.4 1008.36 952.267 1008.46 952.16C1008.58 952.053 1008.72 952 1008.86 952ZM1022.39 960.88C1022.39 961.893 1022.17 962.807 1021.73 963.62C1021.29 964.42 1020.69 965.053 1019.93 965.52C1019.17 965.973 1018.31 966.2 1017.33 966.2C1016.39 966.2 1015.53 965.973 1014.75 965.52C1013.99 965.053 1013.39 964.42 1012.93 963.62C1012.49 962.807 1012.27 961.893 1012.27 960.88C1012.27 959.853 1012.49 958.94 1012.93 958.14C1013.39 957.34 1013.99 956.707 1014.75 956.24C1015.53 955.773 1016.39 955.54 1017.33 955.54C1018.31 955.54 1019.17 955.773 1019.93 956.24C1020.69 956.707 1021.29 957.34 1021.73 958.14C1022.17 958.94 1022.39 959.853 1022.39 960.88ZM1021.19 960.88C1021.19 960.067 1021.03 959.347 1020.69 958.72C1020.36 958.08 1019.9 957.58 1019.31 957.22C1018.74 956.847 1018.08 956.66 1017.33 956.66C1016.61 956.66 1015.96 956.847 1015.37 957.22C1014.79 957.58 1014.32 958.08 1013.97 958.72C1013.64 959.347 1013.47 960.067 1013.47 960.88C1013.47 961.693 1013.64 962.413 1013.97 963.04C1014.32 963.667 1014.79 964.167 1015.37 964.54C1015.96 964.9 1016.61 965.08 1017.33 965.08C1018.08 965.08 1018.74 964.9 1019.31 964.54C1019.9 964.167 1020.36 963.667 1020.69 963.04C1021.03 962.413 1021.19 961.693 1021.19 960.88ZM1024.29 955.82H1028.95C1029.11 955.82 1029.24 955.88 1029.35 956C1029.45 956.107 1029.51 956.24 1029.51 956.4C1029.51 956.547 1029.45 956.673 1029.35 956.78C1029.24 956.887 1029.11 956.94 1028.95 956.94H1024.29C1024.13 956.94 1023.99 956.887 1023.87 956.78C1023.76 956.66 1023.71 956.527 1023.71 956.38C1023.71 956.22 1023.76 956.087 1023.87 955.98C1023.99 955.873 1024.13 955.82 1024.29 955.82ZM1026.35 953C1026.52 953 1026.66 953.06 1026.77 953.18C1026.89 953.3 1026.95 953.44 1026.95 953.6V963.64C1026.95 964.013 1026.99 964.293 1027.09 964.48C1027.19 964.667 1027.33 964.793 1027.49 964.86C1027.65 964.913 1027.81 964.94 1027.97 964.94C1028.07 964.94 1028.17 964.927 1028.25 964.9C1028.34 964.86 1028.44 964.84 1028.55 964.84C1028.67 964.84 1028.77 964.887 1028.85 964.98C1028.94 965.073 1028.99 965.193 1028.99 965.34C1028.99 965.527 1028.88 965.687 1028.67 965.82C1028.45 965.94 1028.2 966 1027.91 966C1027.79 966 1027.61 965.993 1027.37 965.98C1027.13 965.953 1026.88 965.88 1026.63 965.76C1026.37 965.627 1026.16 965.4 1025.99 965.08C1025.83 964.76 1025.75 964.3 1025.75 963.7V953.6C1025.75 953.44 1025.8 953.3 1025.91 953.18C1026.03 953.06 1026.17 953 1026.35 953ZM1040.89 951.28C1041.09 951.28 1041.3 951.3 1041.53 951.34C1041.77 951.38 1041.98 951.453 1042.15 951.56C1042.32 951.653 1042.41 951.8 1042.41 952C1042.41 952.147 1042.36 952.28 1042.25 952.4C1042.14 952.507 1042.02 952.56 1041.89 952.56C1041.76 952.56 1041.59 952.527 1041.39 952.46C1041.19 952.38 1040.98 952.34 1040.75 952.34C1040.47 952.34 1040.23 952.407 1040.03 952.54C1039.83 952.66 1039.68 952.84 1039.57 953.08C1039.46 953.307 1039.41 953.587 1039.41 953.92V965.4C1039.41 965.56 1039.35 965.7 1039.23 965.82C1039.12 965.94 1038.98 966 1038.81 966C1038.64 966 1038.49 965.94 1038.37 965.82C1038.26 965.7 1038.21 965.56 1038.21 965.4V953.92C1038.21 953.067 1038.46 952.413 1038.95 951.96C1039.46 951.507 1040.1 951.28 1040.89 951.28ZM1041.65 955.98C1041.81 955.98 1041.94 956.033 1042.05 956.14C1042.16 956.247 1042.21 956.38 1042.21 956.54C1042.21 956.7 1042.16 956.833 1042.05 956.94C1041.94 957.047 1041.81 957.1 1041.65 957.1H1036.75C1036.6 957.1 1036.47 957.047 1036.35 956.94C1036.24 956.82 1036.19 956.687 1036.19 956.54C1036.19 956.367 1036.24 956.233 1036.35 956.14C1036.47 956.033 1036.6 955.98 1036.75 955.98H1041.65ZM1053.18 960.88C1053.18 961.893 1052.96 962.807 1052.52 963.62C1052.08 964.42 1051.48 965.053 1050.72 965.52C1049.96 965.973 1049.09 966.2 1048.12 966.2C1047.17 966.2 1046.31 965.973 1045.54 965.52C1044.78 965.053 1044.17 964.42 1043.72 963.62C1043.28 962.807 1043.06 961.893 1043.06 960.88C1043.06 959.853 1043.28 958.94 1043.72 958.14C1044.17 957.34 1044.78 956.707 1045.54 956.24C1046.31 955.773 1047.17 955.54 1048.12 955.54C1049.09 955.54 1049.96 955.773 1050.72 956.24C1051.48 956.707 1052.08 957.34 1052.52 958.14C1052.96 958.94 1053.18 959.853 1053.18 960.88ZM1051.98 960.88C1051.98 960.067 1051.81 959.347 1051.48 958.72C1051.14 958.08 1050.68 957.58 1050.1 957.22C1049.52 956.847 1048.86 956.66 1048.12 956.66C1047.4 956.66 1046.74 956.847 1046.16 957.22C1045.57 957.58 1045.1 958.08 1044.76 958.72C1044.42 959.347 1044.26 960.067 1044.26 960.88C1044.26 961.693 1044.42 962.413 1044.76 963.04C1045.1 963.667 1045.57 964.167 1046.16 964.54C1046.74 964.9 1047.4 965.08 1048.12 965.08C1048.86 965.08 1049.52 964.9 1050.1 964.54C1050.68 964.167 1051.14 963.667 1051.48 963.04C1051.81 962.413 1051.98 961.693 1051.98 960.88ZM1056.33 966C1056.14 966 1055.99 965.94 1055.89 965.82C1055.78 965.7 1055.73 965.56 1055.73 965.4V956.44C1055.73 956.28 1055.78 956.14 1055.89 956.02C1056.01 955.9 1056.15 955.84 1056.33 955.84C1056.5 955.84 1056.64 955.9 1056.75 956.02C1056.87 956.14 1056.93 956.28 1056.93 956.44V959.44L1056.63 959.5C1056.67 959.033 1056.78 958.573 1056.97 958.12C1057.17 957.653 1057.43 957.227 1057.77 956.84C1058.1 956.453 1058.49 956.14 1058.95 955.9C1059.41 955.66 1059.93 955.54 1060.51 955.54C1060.75 955.54 1060.98 955.593 1061.21 955.7C1061.43 955.793 1061.55 955.953 1061.55 956.18C1061.55 956.38 1061.49 956.533 1061.39 956.64C1061.28 956.747 1061.15 956.8 1061.01 956.8C1060.89 956.8 1060.75 956.767 1060.61 956.7C1060.47 956.633 1060.29 956.6 1060.07 956.6C1059.69 956.6 1059.32 956.713 1058.95 956.94C1058.57 957.153 1058.23 957.447 1057.93 957.82C1057.62 958.193 1057.37 958.613 1057.19 959.08C1057.01 959.533 1056.93 959.993 1056.93 960.46V965.4C1056.93 965.56 1056.87 965.7 1056.75 965.82C1056.63 965.94 1056.49 966 1056.33 966ZM1073.75 955.7C1074.66 955.7 1075.46 955.927 1076.15 956.38C1076.86 956.82 1077.42 957.433 1077.83 958.22C1078.24 958.993 1078.45 959.887 1078.45 960.9C1078.45 961.913 1078.24 962.813 1077.83 963.6C1077.42 964.387 1076.86 965.007 1076.15 965.46C1075.44 965.913 1074.65 966.14 1073.77 966.14C1073.3 966.14 1072.86 966.073 1072.43 965.94C1072.02 965.793 1071.64 965.6 1071.29 965.36C1070.94 965.12 1070.64 964.84 1070.37 964.52C1070.1 964.187 1069.89 963.827 1069.73 963.44L1070.09 963.18V969.4C1070.09 969.56 1070.03 969.7 1069.91 969.82C1069.8 969.94 1069.66 970 1069.49 970C1069.32 970 1069.17 969.94 1069.05 969.82C1068.94 969.7 1068.89 969.56 1068.89 969.4V956.36C1068.89 956.187 1068.94 956.04 1069.05 955.92C1069.16 955.8 1069.3 955.74 1069.49 955.74C1069.66 955.74 1069.8 955.8 1069.91 955.92C1070.03 956.04 1070.09 956.187 1070.09 956.36V958.52L1069.81 958.36C1069.94 957.947 1070.14 957.58 1070.39 957.26C1070.66 956.927 1070.96 956.647 1071.31 956.42C1071.66 956.18 1072.04 956 1072.45 955.88C1072.86 955.76 1073.3 955.7 1073.75 955.7ZM1073.65 956.82C1072.93 956.82 1072.3 957 1071.75 957.36C1071.2 957.707 1070.77 958.187 1070.45 958.8C1070.14 959.4 1069.99 960.1 1069.99 960.9C1069.99 961.687 1070.14 962.393 1070.45 963.02C1070.77 963.647 1071.2 964.14 1071.75 964.5C1072.3 964.847 1072.93 965.02 1073.65 965.02C1074.36 965.02 1074.98 964.847 1075.51 964.5C1076.06 964.14 1076.49 963.647 1076.81 963.02C1077.13 962.393 1077.29 961.687 1077.29 960.9C1077.29 960.113 1077.13 959.413 1076.81 958.8C1076.49 958.187 1076.06 957.707 1075.51 957.36C1074.98 957 1074.36 956.82 1073.65 956.82ZM1081.62 966C1081.43 966 1081.29 965.94 1081.18 965.82C1081.07 965.7 1081.02 965.56 1081.02 965.4V956.44C1081.02 956.28 1081.07 956.14 1081.18 956.02C1081.3 955.9 1081.45 955.84 1081.62 955.84C1081.79 955.84 1081.93 955.9 1082.04 956.02C1082.16 956.14 1082.22 956.28 1082.22 956.44V959.44L1081.92 959.5C1081.96 959.033 1082.07 958.573 1082.26 958.12C1082.46 957.653 1082.73 957.227 1083.06 956.84C1083.39 956.453 1083.79 956.14 1084.24 955.9C1084.71 955.66 1085.23 955.54 1085.8 955.54C1086.04 955.54 1086.27 955.593 1086.5 955.7C1086.73 955.793 1086.84 955.953 1086.84 956.18C1086.84 956.38 1086.79 956.533 1086.68 956.64C1086.57 956.747 1086.45 956.8 1086.3 956.8C1086.18 956.8 1086.05 956.767 1085.9 956.7C1085.77 956.633 1085.59 956.6 1085.36 956.6C1084.99 956.6 1084.61 956.713 1084.24 956.94C1083.87 957.153 1083.53 957.447 1083.22 957.82C1082.91 958.193 1082.67 958.613 1082.48 959.08C1082.31 959.533 1082.22 959.993 1082.22 960.46V965.4C1082.22 965.56 1082.16 965.7 1082.04 965.82C1081.92 965.94 1081.78 966 1081.62 966ZM1097.79 960.88C1097.79 961.893 1097.57 962.807 1097.13 963.62C1096.69 964.42 1096.09 965.053 1095.33 965.52C1094.57 965.973 1093.7 966.2 1092.73 966.2C1091.78 966.2 1090.92 965.973 1090.15 965.52C1089.39 965.053 1088.78 964.42 1088.33 963.62C1087.89 962.807 1087.67 961.893 1087.67 960.88C1087.67 959.853 1087.89 958.94 1088.33 958.14C1088.78 957.34 1089.39 956.707 1090.15 956.24C1090.92 955.773 1091.78 955.54 1092.73 955.54C1093.7 955.54 1094.57 955.773 1095.33 956.24C1096.09 956.707 1096.69 957.34 1097.13 958.14C1097.57 958.94 1097.79 959.853 1097.79 960.88ZM1096.59 960.88C1096.59 960.067 1096.42 959.347 1096.09 958.72C1095.75 958.08 1095.29 957.58 1094.71 957.22C1094.13 956.847 1093.47 956.66 1092.73 956.66C1092.01 956.66 1091.35 956.847 1090.77 957.22C1090.18 957.58 1089.71 958.08 1089.37 958.72C1089.03 959.347 1088.87 960.067 1088.87 960.88C1088.87 961.693 1089.03 962.413 1089.37 963.04C1089.71 963.667 1090.18 964.167 1090.77 964.54C1091.35 964.9 1092.01 965.08 1092.73 965.08C1093.47 965.08 1094.13 964.9 1094.71 964.54C1095.29 964.167 1095.75 963.667 1096.09 963.04C1096.42 962.413 1096.59 961.693 1096.59 960.88ZM1104.04 951.28C1104.24 951.28 1104.45 951.3 1104.68 951.34C1104.92 951.38 1105.12 951.453 1105.3 951.56C1105.47 951.653 1105.56 951.8 1105.56 952C1105.56 952.147 1105.5 952.28 1105.4 952.4C1105.29 952.507 1105.17 952.56 1105.04 952.56C1104.9 952.56 1104.74 952.527 1104.54 952.46C1104.34 952.38 1104.12 952.34 1103.9 952.34C1103.62 952.34 1103.38 952.407 1103.18 952.54C1102.98 952.66 1102.82 952.84 1102.72 953.08C1102.61 953.307 1102.56 953.587 1102.56 953.92V965.4C1102.56 965.56 1102.5 965.7 1102.38 965.82C1102.27 965.94 1102.13 966 1101.96 966C1101.78 966 1101.64 965.94 1101.52 965.82C1101.41 965.7 1101.36 965.56 1101.36 965.4V953.92C1101.36 953.067 1101.6 952.413 1102.1 951.96C1102.6 951.507 1103.25 951.28 1104.04 951.28ZM1104.8 955.98C1104.96 955.98 1105.09 956.033 1105.2 956.14C1105.3 956.247 1105.36 956.38 1105.36 956.54C1105.36 956.7 1105.3 956.833 1105.2 956.94C1105.09 957.047 1104.96 957.1 1104.8 957.1H1099.9C1099.75 957.1 1099.62 957.047 1099.5 956.94C1099.39 956.82 1099.34 956.687 1099.34 956.54C1099.34 956.367 1099.39 956.233 1099.5 956.14C1099.62 956.033 1099.75 955.98 1099.9 955.98H1104.8ZM1108.7 965.4C1108.7 965.56 1108.64 965.7 1108.52 965.82C1108.4 965.94 1108.26 966 1108.1 966C1107.92 966 1107.78 965.94 1107.66 965.82C1107.55 965.7 1107.5 965.56 1107.5 965.4V956.2C1107.5 956.04 1107.55 955.9 1107.66 955.78C1107.78 955.66 1107.92 955.6 1108.1 955.6C1108.27 955.6 1108.41 955.66 1108.52 955.78C1108.64 955.9 1108.7 956.04 1108.7 956.2V965.4ZM1108.1 954.26C1107.82 954.26 1107.6 954.2 1107.46 954.08C1107.32 953.947 1107.26 953.76 1107.26 953.52V953.32C1107.26 953.08 1107.33 952.9 1107.48 952.78C1107.64 952.647 1107.85 952.58 1108.12 952.58C1108.37 952.58 1108.56 952.647 1108.7 952.78C1108.84 952.9 1108.92 953.08 1108.92 953.32V953.52C1108.92 953.76 1108.84 953.947 1108.7 954.08C1108.56 954.2 1108.36 954.26 1108.1 954.26ZM1111.14 955.82H1115.8C1115.96 955.82 1116.09 955.88 1116.2 956C1116.31 956.107 1116.36 956.24 1116.36 956.4C1116.36 956.547 1116.31 956.673 1116.2 956.78C1116.09 956.887 1115.96 956.94 1115.8 956.94H1111.14C1110.98 956.94 1110.84 956.887 1110.72 956.78C1110.61 956.66 1110.56 956.527 1110.56 956.38C1110.56 956.22 1110.61 956.087 1110.72 955.98C1110.84 955.873 1110.98 955.82 1111.14 955.82ZM1113.2 953C1113.37 953 1113.51 953.06 1113.62 953.18C1113.74 953.3 1113.8 953.44 1113.8 953.6V963.64C1113.8 964.013 1113.85 964.293 1113.94 964.48C1114.05 964.667 1114.18 964.793 1114.34 964.86C1114.5 964.913 1114.66 964.94 1114.82 964.94C1114.93 964.94 1115.02 964.927 1115.1 964.9C1115.19 964.86 1115.29 964.84 1115.4 964.84C1115.52 964.84 1115.62 964.887 1115.7 964.98C1115.79 965.073 1115.84 965.193 1115.84 965.34C1115.84 965.527 1115.73 965.687 1115.52 965.82C1115.31 965.94 1115.05 966 1114.76 966C1114.64 966 1114.46 965.993 1114.22 965.98C1113.98 965.953 1113.73 965.88 1113.48 965.76C1113.23 965.627 1113.01 965.4 1112.84 965.08C1112.68 964.76 1112.6 964.3 1112.6 963.7V953.6C1112.6 953.44 1112.65 953.3 1112.76 953.18C1112.88 953.06 1113.03 953 1113.2 953ZM1118.74 966C1118.51 966 1118.34 965.927 1118.22 965.78C1118.1 965.633 1118.04 965.447 1118.04 965.22V964.8C1118.04 964.56 1118.1 964.373 1118.22 964.24C1118.34 964.107 1118.51 964.04 1118.74 964.04H1118.88C1119.1 964.04 1119.28 964.107 1119.4 964.24C1119.52 964.373 1119.58 964.56 1119.58 964.8V965.22C1119.58 965.447 1119.52 965.633 1119.4 965.78C1119.28 965.927 1119.1 966 1118.88 966H1118.74Z" fill="#252525"/>
</g>
<defs>
<linearGradient id="paint0_linear_195_773" x1="720" y1="-1" x2="720" y2="455" gradientUnits="userSpaceOnUse">
<stop stop-color="#DEC2FD"/>
<stop offset="1" stop-color="#FFE2C1"/>
</linearGradient>
<linearGradient id="paint1_linear_195_773" x1="208" y1="-76" x2="352.5" y2="216" gradientUnits="userSpaceOnUse">
<stop stop-color="#DBACE7"/>
<stop offset="1" stop-color="#C9B2D9" stop-opacity="0"/>
</linearGradient>
<linearGradient id="paint2_linear_195_773" x1="690" y1="566.449" x2="818.947" y2="1255.63" gradientUnits="userSpaceOnUse">
<stop stop-color="#F3E8FF" stop-opacity="0.8"/>
<stop offset="1" stop-color="#FDBBCB"/>
</linearGradient>
<clipPath id="clip0_195_773">
<rect width="1440" height="1024" fill="white"/>
</clipPath>
</defs>
</svg>
