<svg width="834" height="1194" viewBox="0 0 834 1194" fill="none" xmlns="http://www.w3.org/2000/svg">
<g clip-path="url(#clip0_3241_779)">
<rect width="834" height="1194" fill="url(#paint0_linear_3241_779)"/>
<path d="M175.768 986.909C123.378 914.518 30.7601 931.829 -9 949.534V1221H407.312C422.28 1087.23 334.028 1049.86 288.031 1047.89C226.286 1046.32 187.462 1006.58 175.768 986.909Z" fill="url(#paint1_linear_3241_779)"/>
<path d="M311.179 1035.32C170.649 970.417 39.1722 996.348 -9 1017.43V1231H888V848C887.003 1006.45 767.25 1000.92 704.862 945.838C597.222 865.659 525.836 932.72 500.546 986.405C465.416 1060.98 362.258 1054.02 311.179 1035.32Z" fill="url(#paint2_linear_3241_779)"/>
</g>
<defs>
<linearGradient id="paint0_linear_3241_779" x1="415.21" y1="82.3827" x2="415.434" y2="1194" gradientUnits="userSpaceOnUse">
<stop stop-color="#FED09C"/>
<stop offset="1" stop-color="#9B6AD1"/>
</linearGradient>
<linearGradient id="paint1_linear_3241_779" x1="117.598" y1="1221" x2="294.002" y2="1014.18" gradientUnits="userSpaceOnUse">
<stop stop-color="#FFA2B8"/>
<stop offset="1" stop-color="white" stop-opacity="0.1"/>
</linearGradient>
<linearGradient id="paint2_linear_3241_779" x1="341.049" y1="593.346" x2="510.212" y2="1390.34" gradientUnits="userSpaceOnUse">
<stop stop-color="white" stop-opacity="0"/>
<stop offset="1" stop-color="#FFD4DE" stop-opacity="0.86"/>
</linearGradient>
<clipPath id="clip0_3241_779">
<rect width="834" height="1194" fill="white"/>
</clipPath>
</defs>
</svg>
