<svg xmlns="http://www.w3.org/2000/svg" width="36" height="34" viewBox="0 0 36 34" fill="none">
    <path d="M23.631 12.3636C25.08 12.3636 26.256 13.5753 26.256 15.0682V25.4985C26.256 27.7532 25.3866 29.9156 23.8392 31.51C22.2917 33.1043 20.1929 34 18.0045 34C15.8161 34 13.7173 33.1043 12.1698 31.51C10.6224 29.9156 9.753 27.7532 9.753 25.4985V15.0682C9.753 13.5753 10.9275 12.3636 12.378 12.3636H23.631ZM2.625 12.3636L9.198 12.3605C8.65747 13.0316 8.33205 13.8588 8.2665 14.7282L8.2515 15.0682V25.4985C8.2515 27.2495 8.688 28.8969 9.4515 30.3311C8.42387 30.7931 7.30076 30.9841 6.18354 30.8869C5.06633 30.7897 3.99019 30.4074 3.05228 29.7745C2.11436 29.1416 1.3442 28.2779 0.811318 27.2616C0.278434 26.2452 -0.000395875 25.1082 4.21848e-07 23.953V15.0682C0.000398098 14.3507 0.277293 13.6628 0.769814 13.1557C1.26234 12.6485 1.92867 12.3636 2.625 12.3636ZM26.811 12.3605L33.375 12.3636C34.824 12.3636 36 13.5753 36 15.0682V23.9545C36.0005 25.1093 35.7218 26.2459 35.1893 27.2619C34.6567 28.2779 33.887 29.1414 32.9496 29.7742C32.0122 30.4071 30.9366 30.7896 29.8199 30.8871C28.7031 30.9845 27.5804 30.794 26.553 30.3326L26.637 30.175C27.2805 28.9185 27.672 27.5029 27.744 26.0023L27.756 25.4985V15.0682C27.756 14.0389 27.4005 13.0962 26.811 12.3605ZM18 0C18.6894 -1.49691e-08 19.3721 0.13991 20.0091 0.411742C20.646 0.683575 21.2248 1.08201 21.7123 1.58429C22.1998 2.08657 22.5865 2.68286 22.8504 3.33912C23.1142 3.99538 23.25 4.69876 23.25 5.40909C23.25 6.11942 23.1142 6.8228 22.8504 7.47906C22.5865 8.13532 22.1998 8.73162 21.7123 9.2339C21.2248 9.73618 20.646 10.1346 20.0091 10.4064C19.3721 10.6783 18.6894 10.8182 18 10.8182C16.6076 10.8182 15.2723 10.2483 14.2877 9.2339C13.3031 8.21949 12.75 6.84367 12.75 5.40909C12.75 3.97451 13.3031 2.59869 14.2877 1.58429C15.2723 0.569885 16.6076 3.02315e-08 18 0ZM30.0045 1.54545C30.5954 1.54545 31.1806 1.66538 31.7266 1.89838C32.2725 2.13138 32.7686 2.47289 33.1865 2.90341C33.6043 3.33394 33.9358 3.84505 34.162 4.40756C34.3881 4.97007 34.5045 5.57296 34.5045 6.18182C34.5045 6.79067 34.3881 7.39357 34.162 7.95608C33.9358 8.51859 33.6043 9.0297 33.1865 9.46022C32.7686 9.89075 32.2725 10.2323 31.7266 10.4653C31.1806 10.6983 30.5954 10.8182 30.0045 10.8182C28.811 10.8182 27.6664 10.3297 26.8225 9.46022C25.9786 8.59074 25.5045 7.41146 25.5045 6.18182C25.5045 4.95218 25.9786 3.7729 26.8225 2.90341C27.6664 2.03393 28.811 1.54545 30.0045 1.54545ZM5.9955 1.54545C6.58645 1.54545 7.17161 1.66538 7.71758 1.89838C8.26354 2.13138 8.75962 2.47289 9.17748 2.90341C9.59535 3.33394 9.92681 3.84505 10.153 4.40756C10.3791 4.97007 10.4955 5.57296 10.4955 6.18182C10.4955 6.79067 10.3791 7.39357 10.153 7.95608C9.92681 8.51859 9.59535 9.0297 9.17748 9.46022C8.75962 9.89075 8.26354 10.2323 7.71758 10.4653C7.17161 10.6983 6.58645 10.8182 5.9955 10.8182C4.80203 10.8182 3.65743 10.3297 2.81352 9.46022C1.96961 8.59074 1.4955 7.41146 1.4955 6.18182C1.4955 4.95218 1.96961 3.7729 2.81352 2.90341C3.65743 2.03393 4.80203 1.54545 5.9955 1.54545Z" fill="#EF3360"/>
  </svg>