<svg xmlns="http://www.w3.org/2000/svg" width="28" height="26" viewBox="0 0 28 26" fill="none">
  <path d="M18.3797 9.45455C19.5067 9.45455 20.4213 10.3811 20.4213 11.5227V19.4988C20.4213 21.223 19.7452 22.8766 18.5416 24.0958C17.338 25.3151 15.7056 26 14.0035 26C12.3014 26 10.669 25.3151 9.46541 24.0958C8.26183 22.8766 7.58567 21.223 7.58567 19.4988V11.5227C7.58567 10.3811 8.49917 9.45455 9.62733 9.45455H18.3797ZM2.04167 9.45455L7.154 9.45218C6.73359 9.96535 6.48048 10.5979 6.4295 11.2627L6.41783 11.5227V19.4988C6.41783 20.8378 6.75733 22.0976 7.35117 23.1944C6.5519 23.5476 5.67837 23.6937 4.80942 23.6194C3.94048 23.5451 3.10348 23.2527 2.37399 22.7687C1.64451 22.2847 1.04549 21.6243 0.631025 20.8471C0.21656 20.0699 -0.000307903 19.2004 3.28104e-07 18.317V11.5227C0.000309632 10.9741 0.215673 10.4481 0.598745 10.0602C0.981817 9.6724 1.50008 9.45455 2.04167 9.45455ZM20.853 9.45218L25.9583 9.45455C27.0853 9.45455 28 10.3811 28 11.5227V18.3182C28.0003 19.2012 27.7836 20.0704 27.3694 20.8474C26.9552 21.6243 26.3566 22.2846 25.6275 22.7685C24.8984 23.2525 24.0618 23.545 23.1932 23.6195C22.3247 23.6941 21.4514 23.5484 20.6523 23.1955L20.7177 23.075C21.2182 22.1142 21.5227 21.0316 21.5787 19.8841L21.588 19.4988V11.5227C21.588 10.7356 21.3115 10.0147 20.853 9.45218ZM14 0C14.5362 -1.1447e-08 15.0672 0.10699 15.5626 0.314862C16.058 0.522734 16.5082 0.827416 16.8874 1.21151C17.2665 1.59561 17.5673 2.0516 17.7725 2.55345C17.9777 3.05529 18.0833 3.59317 18.0833 4.13636C18.0833 4.67956 17.9777 5.21743 17.7725 5.71928C17.5673 6.22113 17.2665 6.67712 16.8874 7.06121C16.5082 7.44531 16.058 7.74999 15.5626 7.95787C15.0672 8.16574 14.5362 8.27273 14 8.27273C12.917 8.27273 11.8784 7.83693 11.1126 7.06121C10.3469 6.2855 9.91667 5.2334 9.91667 4.13636C9.91667 3.03933 10.3469 1.98723 11.1126 1.21151C11.8784 0.435794 12.917 2.31182e-08 14 0ZM23.3368 1.18182C23.7965 1.18182 24.2516 1.27352 24.6762 1.4517C25.1009 1.62988 25.4867 1.89103 25.8117 2.22026C26.1367 2.54948 26.3945 2.94033 26.5704 3.37049C26.7463 3.80064 26.8368 4.26168 26.8368 4.72727C26.8368 5.19287 26.7463 5.6539 26.5704 6.08406C26.3945 6.51421 26.1367 6.90506 25.8117 7.23429C25.4867 7.56351 25.1009 7.82467 24.6762 8.00285C24.2516 8.18102 23.7965 8.27273 23.3368 8.27273C22.4086 8.27273 21.5183 7.89919 20.862 7.23429C20.2056 6.56939 19.8368 5.66759 19.8368 4.72727C19.8368 3.78696 20.2056 2.88516 20.862 2.22026C21.5183 1.55536 22.4086 1.18182 23.3368 1.18182ZM4.66317 1.18182C5.12279 1.18182 5.57792 1.27352 6.00256 1.4517C6.4272 1.62988 6.81304 1.89103 7.13804 2.22026C7.46305 2.54948 7.72085 2.94033 7.89675 3.37049C8.07264 3.80064 8.16317 4.26168 8.16317 4.72727C8.16317 5.19287 8.07264 5.6539 7.89675 6.08406C7.72085 6.51421 7.46305 6.90506 7.13804 7.23429C6.81304 7.56351 6.4272 7.82467 6.00256 8.00285C5.57792 8.18102 5.12279 8.27273 4.66317 8.27273C3.73491 8.27273 2.84467 7.89919 2.18829 7.23429C1.53192 6.56939 1.16317 5.66759 1.16317 4.72727C1.16317 3.78696 1.53192 2.88516 2.18829 2.22026C2.84467 1.55536 3.73491 1.18182 4.66317 1.18182Z" fill="white"/>
</svg>