<svg xmlns="http://www.w3.org/2000/svg" width="30" height="30" viewBox="0 0 30 30" fill="none">
    <path d="M6.25 10C6.58152 10 6.89946 9.8683 7.13388 9.63388C7.3683 9.39946 7.5 9.08152 7.5 8.75V7.5H8.75C9.08152 7.5 9.39946 7.3683 9.63388 7.13388C9.8683 6.89946 10 6.58152 10 6.25C10 5.91848 9.8683 5.60054 9.63388 5.36612C9.39946 5.1317 9.08152 5 8.75 5H7.5V3.75C7.5 3.41848 7.3683 3.10054 7.13388 2.86612C6.89946 2.6317 6.58152 2.5 6.25 2.5C5.91848 2.5 5.60054 2.6317 5.36612 2.86612C5.1317 3.10054 5 3.41848 5 3.75V5H3.75C3.41848 5 3.10054 5.1317 2.86612 5.36612C2.6317 5.60054 2.5 5.91848 2.5 6.25C2.5 6.58152 2.6317 6.89946 2.86612 7.13388C3.10054 7.3683 3.41848 7.5 3.75 7.5H5V8.75C5 9.08152 5.1317 9.39946 5.36612 9.63388C5.60054 9.8683 5.91848 10 6.25 10Z" fill="white"/>
    <path d="M9.425 16.7128C8.4198 15.4584 7.78742 13.9468 7.6 12.3503C8.51555 12.1497 9.37425 11.7457 10.1125 11.1683C10.8508 10.5909 11.4498 9.85481 11.8651 9.01458C12.2804 8.17434 12.5015 7.25146 12.5118 6.31425C12.5222 5.37703 12.3216 4.44949 11.925 3.60028C13.6925 2.60395 15.7513 2.25284 17.7491 2.60702C19.747 2.96121 21.5596 3.99868 22.8769 5.5419C24.1941 7.08512 24.9342 9.03815 24.9703 11.0668C25.0065 13.0955 24.3365 15.0736 23.075 16.6628C24.442 17.5808 25.5612 18.8221 26.3331 20.2766C27.105 21.7311 27.5059 23.3537 27.5 25.0003C27.5 25.6633 27.2366 26.2992 26.7678 26.7681C26.2989 27.2369 25.663 27.5003 25 27.5003H7.5C6.83696 27.5003 6.20107 27.2369 5.73223 26.7681C5.26339 26.2992 5 25.6633 5 25.0003C5.00234 23.3621 5.40709 21.7496 6.17867 20.3045C6.95025 18.8595 8.06503 17.6261 9.425 16.7128Z" fill="white"/>
  </svg>